<svg width="126" height="76" viewBox="0 0 112 139" fill="none" xmlns="http://www.w3.org/2000/svg">
<path d="M106.932 47.7303C106.487 49.1728 105.806 50.5316 104.917 51.7516L104.806 42.8319C104.806 42.8319 107.311 46.1025 106.932 47.7303Z" fill="url(#paint0_linear_260_1330)"/>
<path d="M104.746 114.62C104.746 114.62 106.151 117.251 104.932 119.132C103.713 121.013 100.331 123.168 100.331 123.168L104.746 114.62Z" fill="url(#paint1_linear_260_1330)"/>
<path d="M7.321 114.338C7.321 114.338 6.10197 119.318 6.85271 120.069C7.60345 120.819 10.703 122.232 10.703 122.232L7.321 114.338Z" fill="url(#paint2_linear_260_1330)"/>
<path d="M5.54436 50.0494C5.54436 50.0494 3.08402 54.212 3.87192 55.6688C4.63987 56.789 5.62894 57.7401 6.77825 58.4637L5.54436 50.0494Z" fill="url(#paint3_linear_260_1330)"/>
<path d="M92.7192 25.929C92.7192 25.6391 85.3382 24.5167 74.9765 24.1525L72.2634 25.0593L70.1004 24.0336C62.0414 23.9201 53.9861 24.4445 46.0098 25.602C41.9811 26.2189 38.4801 26.8433 35.4326 27.4602L34.6893 28.9468L32.3776 28.0995C20.7449 30.6639 17.0952 32.8492 17.0952 32.8492C17.0952 32.8492 29.3523 57.4824 58.9731 56.9472C88.5939 56.412 92.7861 26.4642 92.7192 25.929Z" fill="url(#paint4_linear_260_1330)"/>
<path d="M70.1006 24.0409L70.2641 30.0691L72.613 29.9576L74.9767 24.1524L72.2636 25.0592L70.1006 24.0409Z" fill="url(#paint5_linear_260_1330)"/>
<path d="M32.3779 28.0996L34.6673 28.9395L35.4106 27.4529L41.6247 30.2923L40.8814 33.0871C40.8814 33.0871 35.1802 34.99 35.2917 34.6555C35.4032 34.321 36.4215 31.4073 36.4215 31.4073L32.3779 28.0996Z" fill="url(#paint6_linear_260_1330)"/>
<path d="M22.5957 35.0641C33.7032 30.8957 45.3859 28.4614 57.2338 27.8466C76.7679 26.858 89.5751 28.5007 87.9324 29.4893C86.2896 30.4779 53.1382 44.7568 22.5957 35.0641Z" fill="url(#paint7_linear_260_1330)"/>
<path style="mix-blend-mode:multiply" d="M87.9398 29.482C86.575 30.1616 85.17 30.7573 83.7327 31.266C75.4102 30.62 67.0534 30.5431 58.7204 31.0355C48.4728 31.6092 38.3421 33.5029 28.5793 36.6698C26.5798 36.2312 24.5878 35.7035 22.5957 35.0717C33.7028 30.9008 45.3855 28.464 57.2338 27.8467C76.7753 26.8581 89.5825 28.4934 87.9398 29.482Z" fill="url(#paint8_linear_260_1330)"/>
<path style="mix-blend-mode:multiply" d="M87.9398 29.4818C86.575 30.1614 85.17 30.7572 83.7327 31.2658C78.3586 30.7232 34.4589 34.7445 28.5793 36.6696C26.5798 36.2311 24.5878 35.7033 22.5957 35.0715C25.3887 33.9706 28.2369 33.0154 31.1289 32.2098C26.8326 37.7697 44.8949 30.909 55.4499 30.3812C62.2511 30.0319 93.9754 32.6929 79.5776 27.854C85.643 28.2628 88.8094 28.9615 87.9398 29.4818Z" fill="url(#paint9_linear_260_1330)"/>
<path d="M92.7195 25.9289C85.2567 37.0785 24.8556 44.1028 17.0955 32.8491C17.0955 32.8491 14.8656 34.8709 14.4939 35.8669C0.809633 69.6502 7.21694 119.467 20.5667 138.755C22.2169 139.142 90.5639 138.755 90.5639 138.755C108.849 112.115 108.314 51.9818 96.2205 28.4487C95.8414 27.75 92.2809 25.8769 92.7195 25.9289Z" fill="url(#paint10_linear_260_1330)"/>
<g style="mix-blend-mode:multiply" opacity="0.5">
<path d="M15.4899 123.079C19.3997 112.487 15.0291 85.3263 6.92702 84.2411C6.86012 81.8922 6.85269 79.5285 6.92702 77.1648C13.4681 79.5657 19.2733 83.9363 19.474 89.1023C19.816 98.8322 21.5033 124.58 15.4899 123.079Z" fill="url(#paint11_linear_260_1330)"/>
<path d="M21.3842 138.815C21.1107 138.81 20.8378 138.79 20.5665 138.755C19.0035 136.45 17.6408 134.016 16.4932 131.478C16.8689 131.28 17.2248 131.046 17.5561 130.78C25.6433 124.387 26.2082 103.344 19.7861 83.6168C16.9987 74.9052 11.9813 70.9211 7.25391 69.1892C7.35797 67.7843 7.4769 66.3869 7.62556 64.9895C14.4417 69.5014 23.785 79.4097 25.0784 94.3278C26.5724 111.409 26.015 131.954 21.3842 138.815Z" fill="url(#paint12_linear_260_1330)"/>
<path d="M36.5404 83.4309C39.588 107.574 44.3823 127.695 48.7083 138.919H42.8734C39.9001 126.037 33.5895 97.7767 33.1584 81.922C32.8982 72.3036 35.195 54.6427 37.7297 38.498C38.9338 38.498 40.1677 38.5426 41.4462 38.5352C37.3729 52.5465 34.6524 68.5202 36.5404 83.4309Z" fill="url(#paint13_linear_260_1330)"/>
<path d="M72.0481 122.893C71.1636 126.862 69.5283 132.764 67.5883 138.874H61.5601C65.4104 129.085 68.9931 112.74 68.4951 93.7481C68.064 76.7338 66.1314 53.2899 64.5705 36.5134C66.0571 36.2756 67.4545 36.0154 68.8519 35.7701L70.3385 40.6165C70.3385 40.6165 74.6794 111.052 72.0481 122.893Z" fill="url(#paint14_linear_260_1330)"/>
<path d="M58.1409 136.414C55.911 139.045 46.3075 115.75 42.7396 95.2644C39.7664 77.9825 42.3308 47.5962 43.2153 38.5204L45.6682 38.4535L46.6866 39.6428C46.6866 39.6428 47.2515 111.981 54.7663 114.427C61.5155 116.62 54.1642 51.6472 52.6107 38.0001C55.019 37.7919 57.4348 37.5243 59.8208 37.2122C60.5121 56.2036 60.1256 134.11 58.1409 136.414Z" fill="url(#paint15_linear_260_1330)"/>
<path d="M89.5234 79.105C89.1146 83.9885 83.2127 119.489 79.9719 138.807H75.0215C78.3143 124.112 83.629 99.8953 85.7623 87.3483C88.1557 73.2924 81.3024 46.3103 77.69 33.5998C78.1359 33.4808 78.5745 33.3545 79.0056 33.2133C83.7479 51.8182 89.8579 75.0986 89.5234 79.105Z" fill="url(#paint16_linear_260_1330)"/>
<path d="M92.1099 136.347C91.6119 137.18 91.099 137.982 90.5638 138.755H84.7883C85.5316 122.462 94.154 89.1397 95.5366 80.9485C96.54 75.054 89.2407 50.6513 82.8037 31.9497C83.8369 31.5706 84.8106 31.2064 85.7175 30.7753C90.0584 41.1816 98.8591 62.7375 99.8403 68.7359C101.134 76.4292 88.0886 131.991 92.1099 136.347Z" fill="url(#paint17_linear_260_1330)"/>
<path d="M104.062 93.7629C102.174 101.241 100.256 107.633 99.2827 109.157C97.0528 112.725 100.42 91.3174 101.736 85.4825C103.051 79.6475 106.433 61.8082 98.5319 51.6546C93.195 44.7939 91.2104 34.3207 90.5488 28.0843C91.3765 27.4978 92.1001 26.7767 92.6895 25.951C92.9051 26.1963 95.8635 27.7722 96.2128 28.4337C103.319 42.3038 106.456 68.8398 104.062 93.7629Z" fill="url(#paint18_linear_260_1330)"/>
</g>
<path d="M92.7195 25.9289C85.5391 36.9373 26.5652 43.1959 17.0806 32.8491C17.0806 32.8491 14.6946 34.5736 14.479 35.8669C14.6351 39.9551 63.5372 51.4764 96.2427 28.4339C95.8413 27.75 92.2809 25.8769 92.7195 25.9289Z" fill="url(#paint19_linear_260_1330)"/>
<path d="M37.7595 138.926H34.4146C30.1406 107.849 26.1713 77.1056 29.4567 41.1296L34.5261 38.3645L35.2694 37.807L37.3432 38.0226L34.0875 41.6648C29.1668 75.894 29.3452 108.622 37.7595 138.926Z" fill="url(#paint20_linear_260_1330)"/>
<path style="mix-blend-mode:multiply" d="M37.7592 138.926H34.4143C30.1403 107.856 29.568 77.9753 32.8534 41.977L34.5258 38.3645L35.2691 37.807L37.3429 38.0226L34.0873 41.6648C29.1666 75.894 29.345 108.622 37.7592 138.926Z" fill="url(#paint21_linear_260_1330)"/>
<path d="M74.8505 138.837H73.7207C77.4372 115.505 79.6671 46.0652 73.5571 39.0186L69.9595 35.5102L69.7886 35.3467L73.022 34.6628L73.2524 34.7818C74.8732 35.5755 76.4512 36.4538 77.9798 37.4131C85.2568 54.5091 79.2657 116.3 74.8505 138.837Z" fill="url(#paint22_linear_260_1330)"/>
<path style="mix-blend-mode:multiply" d="M74.8505 138.837H73.7207C77.4372 115.505 79.6671 46.0653 73.5571 39.0187L69.9595 35.5103L69.7886 35.3468L71.0745 35.1981C71.1488 35.2353 77.177 38.5207 77.2811 38.7214C84.5655 55.7728 79.2657 116.3 74.8505 138.837Z" fill="url(#paint23_linear_260_1330)"/>
<path style="mix-blend-mode:multiply" d="M7.9751 61.8232C7.9751 61.8232 20.0018 85.1185 56.6468 81.3648C93.2918 77.6111 103.245 55.4308 103.245 55.4308L7.9751 61.8232Z" fill="url(#paint24_linear_260_1330)"/>
<path d="M10.7999 47.2915C10.7999 47.2915 28.8325 54.1819 53.1684 53.9292C77.5042 53.6765 100.138 38.5799 100.138 38.5799L99.3946 36.2311C99.3946 36.2311 104.813 36.5507 104.984 36.9224C105.155 37.294 105.155 48.3544 105.17 54.4941C105.17 56.8281 78.9685 67.5615 53.5103 68.6764C30.1556 69.7022 6.68941 63.228 6.236 59.4743C6.11039 55.2924 5.75056 51.1209 5.1582 46.9793C5.1582 46.9793 11.6844 43.7162 11.7959 43.5749C11.3574 45.0095 10.9932 46.3326 10.7999 47.2915Z" fill="url(#paint25_linear_260_1330)"/>
<path style="mix-blend-mode:multiply" d="M10.7999 47.2915C10.7999 47.2915 28.2453 55.8692 52.5068 55.6165C76.7684 55.3638 100.078 38.5799 100.078 38.5799L99.3351 36.2311C99.3351 36.2311 104.754 36.5507 104.925 36.9224C105.096 37.294 105.096 48.3544 105.111 54.4941C105.111 55.7577 97.4323 59.4817 86.3496 62.8117C110.567 40.9659 63.4334 57.5491 51.7561 58.062C41.8106 58.5005 -6.30358 46.4144 25.2721 66.6844C14.2637 64.67 6.45156 61.6224 6.20627 59.4743C6.09051 55.293 5.74061 51.1214 5.1582 46.9793C5.1582 46.9793 11.6844 43.7162 11.7959 43.5749C11.3574 45.0095 10.9932 46.3326 10.7999 47.2915Z" fill="url(#paint26_linear_260_1330)"/>
<path d="M10.7995 47.2915C10.7995 47.2915 28.8321 54.1819 53.168 53.9292C77.5039 53.6765 100.138 38.5799 100.138 38.5799L99.3942 36.2311C99.3942 36.2311 104.813 36.5507 104.984 36.9224C105.155 37.294 82.9523 55.8098 54.9519 55.9956C26.9516 56.1814 5.15039 46.9793 5.15039 46.9793C5.15039 46.9793 11.6766 43.7162 11.7881 43.5749C11.357 45.0095 10.9928 46.3326 10.7995 47.2915Z" fill="url(#paint27_linear_260_1330)"/>
<g style="mix-blend-mode:soft-light" opacity="0.6">
<path d="M79.5701 48.9196C78.8268 49.1723 55.3904 54.1822 54.766 55.0593C54.1416 55.9364 59.3968 55.9364 61.6564 55.8026C63.9161 55.6688 77.6896 52.4205 79.0647 51.6698C80.4398 50.9191 79.5701 48.9196 79.5701 48.9196Z" fill="#FFD8EF"/>
</g>
<path style="mix-blend-mode:multiply" d="M10.9336 46.7565C10.9336 46.7565 28.5945 52.5097 52.8932 52.2792C77.1919 52.0488 100.108 38.6024 100.108 38.6024L99.3648 36.2535C99.3648 36.2535 100.725 36.3353 102.1 36.4617C103.475 36.588 81.5551 54.1375 53.5622 54.301C25.5693 54.4646 6.82309 46.147 8.48066 45.307C10.1382 44.4671 11.7363 43.642 11.7958 43.5751C11.4508 44.6191 11.163 45.6811 10.9336 46.7565Z" fill="url(#paint28_linear_260_1330)"/>
<path style="mix-blend-mode:multiply" d="M13.6167 125.517C13.6167 125.517 30.8986 136.414 55.3311 135.849C79.7636 135.284 96.2873 127.398 96.2873 127.398L13.6167 125.517Z" fill="url(#paint29_linear_260_1330)"/>
<path d="M10.0488 110.294C10.5691 110.792 27.0779 118.315 58.1482 117.564C89.2184 116.813 101.082 110.391 101.594 109.558C101.974 108.436 102.241 107.278 102.39 106.102C102.39 105.411 107.206 110.019 107.125 110.421C107.043 110.822 99.2307 126.833 99.2307 126.833C84.8467 130.135 70.1338 131.791 55.3756 131.768C40.6879 131.716 25.4352 128.282 11.409 124.826C11.409 124.826 4.71927 110.926 4.7713 110.175C5.26931 109.67 9.2683 107.44 9.2683 107.44C9.39117 108.424 9.65398 109.385 10.0488 110.294Z" fill="url(#paint30_linear_260_1330)"/>
<path d="M10.0488 110.294C10.5691 110.792 27.078 118.315 58.1482 117.564C89.2184 116.813 101.082 110.391 101.594 109.558C101.974 108.436 102.241 107.278 102.39 106.102C102.39 105.411 107.206 110.019 107.125 110.421C107.043 110.822 87.3602 120.53 55.1378 119.34C22.9155 118.151 4.74162 110.629 4.78621 110.198C5.28423 109.692 9.28322 107.462 9.28322 107.462C9.40341 108.438 9.66117 109.391 10.0488 110.294Z" fill="url(#paint31_linear_260_1330)"/>
<path style="mix-blend-mode:multiply" d="M10.0491 110.294C10.5694 110.792 26.5208 117.341 57.6207 116.59C88.7207 115.839 101.119 110.391 101.632 109.558C102.012 108.436 102.278 107.278 102.427 106.102C102.427 105.411 104.962 108.109 104.873 108.51C104.784 108.912 87.3084 119.117 55.0712 117.906C22.834 116.694 6.05754 109.692 6.10214 109.261C7.11417 108.573 8.17777 107.964 9.28349 107.44C9.40161 108.423 9.65941 109.384 10.0491 110.294Z" fill="url(#paint32_linear_260_1330)"/>
<path d="M15.9431 54.7692C12.9698 54.1002 11.3569 60.5818 15.6086 61.2583C19.8603 61.9347 20.4103 55.7801 15.9431 54.7692Z" fill="url(#paint33_linear_260_1330)"/>
<path d="M39.7516 59.1327C36.1912 59.6678 35.7229 65.7258 40.1976 64.8338C44.6723 63.9419 43.4384 58.5752 39.7516 59.1327Z" fill="url(#paint34_linear_260_1330)"/>
<path d="M68.3835 59.3554C65.1501 58.3074 61.7829 63.072 66.5921 64.3876C71.4013 65.7033 72.5014 60.6934 68.3835 59.3554Z" fill="url(#paint35_linear_260_1330)"/>
<path d="M91.0543 51.4172C88.2966 51.3131 85.9106 57.5643 89.5676 57.5643C93.2247 57.5643 93.9606 51.5361 91.0543 51.4172Z" fill="url(#paint36_linear_260_1330)"/>
<g style="mix-blend-mode:multiply">
<path d="M13.3792 56.3523C13.0155 57.2181 12.831 58.1486 12.8365 59.0877C12.9629 61.0723 14.1076 62.938 15.9361 63.2279C18.1661 63.5847 19.0506 60.0391 19.0209 58.3444C18.5823 58.6268 14.3678 63.8894 13.3792 56.3523Z" fill="url(#paint37_linear_260_1330)"/>
<path d="M37.0686 61.6743C36.6226 63.436 38.0126 67.3309 40.6737 66.8032C43.4685 66.2382 43.5577 61.9419 42.6955 60.4553C42.2718 61.9419 38.9789 65.9558 37.0686 61.6743Z" fill="url(#paint38_linear_260_1330)"/>
<path d="M64.1993 61.734C64.0432 62.7672 64.6824 65.8891 66.6002 66.4243C69.4247 67.2122 70.9485 63.7632 70.9114 62.1949C70.8891 61.0948 66.3177 64.8262 64.1993 61.734Z" fill="url(#paint39_linear_260_1330)"/>
<path d="M87.71 55.5942C87.71 56.6869 88.3195 59.9426 89.7095 59.9426C92.3854 59.9426 93.3591 54.3901 92.6827 52.6061C92.3854 51.9297 90.1852 57.5937 87.71 55.5942Z" fill="url(#paint40_linear_260_1330)"/>
</g>
<path d="M16.3521 115.743C13.3789 115.074 11.7733 121.555 16.0176 122.224C20.2619 122.893 20.8119 116.754 16.3521 115.743Z" fill="url(#paint41_linear_260_1330)"/>
<path d="M39.6546 121.793C36.0942 122.336 35.6333 128.386 40.1006 127.494C44.5678 126.602 43.3414 121.236 39.6546 121.793Z" fill="url(#paint42_linear_260_1330)"/>
<path d="M69.87 122.299C66.6366 121.251 63.2768 126.015 68.0786 127.331C72.8803 128.647 74.0027 123.637 69.87 122.299Z" fill="url(#paint43_linear_260_1330)"/>
<path d="M94.6223 118.121C91.8646 118.017 89.486 124.268 93.1357 124.268C96.7853 124.268 97.5286 118.233 94.6223 118.121Z" fill="url(#paint44_linear_260_1330)"/>
<g style="mix-blend-mode:multiply">
<path d="M13.7805 117.326C13.4204 118.19 13.2384 119.118 13.2453 120.054C13.3717 122.046 14.5164 123.912 16.3375 124.202C18.5674 124.558 19.4519 121.013 19.4296 119.318C19.1323 118.738 15.0292 123.362 13.7805 117.326Z" fill="url(#paint45_linear_260_1330)"/>
<path d="M36.9791 124.335C36.5331 126.097 37.9157 129.992 40.5767 129.464C43.3715 128.907 43.4682 124.633 42.5985 123.116C42.0856 123.257 38.763 126.803 36.9791 124.335Z" fill="url(#paint46_linear_260_1330)"/>
<path d="M65.7006 124.677C65.5445 125.71 66.0871 130.051 68.0122 130.624C70.8294 131.367 72.7025 126.714 72.4126 125.175C72.1227 123.637 67.3507 127.056 65.7006 124.677Z" fill="url(#paint47_linear_260_1330)"/>
<path d="M91.2853 122.298C91.2853 123.391 90.8393 126.453 93.2848 126.647C95.7302 126.84 96.9344 121.094 96.258 119.303C95.9532 118.626 93.7531 124.298 91.2853 122.298Z" fill="url(#paint48_linear_260_1330)"/>
</g>
<path d="M87.5384 29.0211L90.1102 28.1663L92.5929 25.7728C94.7039 26.7614 95.3357 27.3709 96.027 28.5677L86.8174 29.9799L87.5384 29.0211Z" fill="url(#paint49_linear_260_1330)"/>
<path style="mix-blend-mode:multiply" d="M32.3779 28.0994L34.6599 28.9393L38.3021 30.4854L35.8715 30.976L32.3779 28.0994Z" fill="url(#paint50_linear_260_1330)"/>
<path d="M29.0253 41.2487C29.7686 40.2155 21.228 36.9226 18.9684 38.5207C16.7087 40.1188 21.3172 45.2105 24.231 44.4672C26.1883 44.062 27.9091 42.9067 29.0253 41.2487Z" fill="url(#paint51_linear_260_1330)"/>
<path d="M29.0254 41.2485C29.6126 40.4383 22.4323 45.2475 18.6191 40.7505C19.4442 42.7203 22.2465 44.9576 24.246 44.467C26.1978 44.0583 27.9128 42.9034 29.0254 41.2485Z" fill="url(#paint52_linear_260_1330)"/>
<path style="mix-blend-mode:multiply" d="M20.1949 38.5206C17.6527 38.9889 19.3475 42.8467 22.1646 42.75C23.1904 42.7129 26.4684 41.4195 26.2008 40.4012C25.7474 38.6098 22.7295 38.0523 20.1949 38.5206Z" fill="url(#paint53_linear_260_1330)"/>
<g style="mix-blend-mode:soft-light" opacity="0.5">
<path d="M37.8559 38.1563C37.8559 38.1563 30.2147 42.0364 42.4867 42.2891C54.7587 42.5418 73.8022 39.9105 72.048 38.7807C70.1348 37.6556 68.0695 36.8119 65.9157 36.2758C65.2839 36.2758 60.7795 37.5245 52.8855 38.5057C47.8842 39.097 42.8244 38.9794 37.8559 38.1563Z" fill="#FFD6A1"/>
</g>
<g style="mix-blend-mode:soft-light" opacity="0.6">
<path d="M58.52 117.534C57.301 117.579 46.5007 116.872 46.1216 117.623C45.7426 118.374 60.0289 120.351 72.1374 118.939C84.2458 117.527 89.3301 116.783 88.111 115.839C86.892 114.895 73.178 116.947 58.52 117.534Z" fill="#FFD8EF"/>
</g>
<path d="M69.4094 52.3461C72.0234 51.8359 74.6982 51.7132 77.3479 51.9819C72.8793 53.8033 68.1648 54.9506 63.3589 55.3862C65.1522 53.9786 67.2096 52.9448 69.4094 52.3461Z" fill="white"/>
<path d="M66.4585 59.7569C65.0462 60.1286 64.1468 61.5185 65.7895 61.0949C67.4322 60.6712 68.1012 59.3332 66.4585 59.7569Z" fill="white"/>
<path d="M90.2665 51.9223C89.2853 51.8777 87.7169 54.4719 88.8691 54.0482C90.0212 53.6245 91.4855 51.9818 90.2665 51.9223Z" fill="white"/>
<path d="M59.8799 119.474C66.4194 119.468 72.9508 119.016 79.4288 118.122C79.4288 118.122 72.6202 117.676 69.0226 117.906C65.943 118.221 62.8884 118.745 59.8799 119.474Z" fill="white"/>
<path d="M68.1011 122.611C67.0754 122.41 66.4138 123.83 67.2983 123.666C68.1829 123.503 69.5283 122.893 68.1011 122.611Z" fill="white"/>
<path d="M92.9647 119.028C92.2214 118.909 91.8423 120.857 92.0059 120.835C92.1694 120.812 93.656 119.177 92.9647 119.028Z" fill="white"/>
<path d="M5.537 15.3688C5.537 15.3688 6.6777 16.8749 7.28378 17.0838C7.89029 17.2928 8.15463 17.5448 9.68782 17.0508C11.221 16.5568 12.0162 19.4202 11.2608 19.2713C10.505 19.122 4.84802 19.1322 4.85775 19.0924C4.8679 19.0527 4.0127 17.4916 4.0127 17.4916L5.537 15.3688Z" fill="#14634C"/>
<path d="M0.0137887 18.354C-0.0644568 18.524 -0.118171 27.2503 9.82451 33.4617C19.7668 39.6732 30.5841 34.3893 30.5841 34.3893L0.0137887 18.354Z" fill="#14634C"/>
<path opacity="0.3" d="M4.09777 26.293C3.27048 26.8619 5.35054 31.1747 11.0971 34.1028C16.8438 37.0308 25.7815 36.3774 27.6163 35.1927C29.4506 34.0084 4.41582 26.0743 4.09777 26.293Z" fill="#312154"/>
<path d="M30.7531 34.3894C30.7531 34.3894 21.2646 37.897 12.6957 33.176C7.76324 30.4556 4.05525 26.4181 1.95404 23.136C0.407734 20.7163 -0.26137 18.7086 0.092638 17.9316C0.507974 17.0223 2.66967 15.9628 5.53684 15.369C5.53684 15.369 5.46874 18.7801 8.2141 17.8636C10.8842 16.9758 10.5014 15.0146 10.4798 14.9105C11.0597 14.9211 11.643 14.957 12.2266 15.018C14.0017 15.2146 15.7735 15.6621 17.3807 16.4568C24.1242 19.793 32.9004 30.7779 30.7531 34.3894Z" fill="url(#paint54_linear_260_1330)"/>
<g style="mix-blend-mode:plus-darker" opacity="0.6">
<path d="M0.0927734 17.9319C0.0927734 17.9319 6.09569 17.8562 16.9359 24.0685C29.7796 31.4295 30.7528 34.3893 30.7528 34.3893C30.7528 34.3893 8.60124 19.0972 0.0927734 17.9319Z" fill="url(#paint55_linear_260_1330)"/>
</g>
<g style="mix-blend-mode:plus-darker">
<path d="M30.7531 34.3892C30.7531 34.3892 21.2647 37.8968 12.6957 33.1758C7.76331 30.4554 4.05531 26.4179 1.9541 23.1358C4.27398 26.6484 14.2382 32.9576 15.6056 29.0559C17.3021 24.2025 11.0564 21.06 11.0564 21.06C11.0564 21.06 13.5797 17.742 12.2267 15.0182C14.0018 15.2149 15.7735 15.6623 17.3807 16.4571C24.1242 19.7929 32.9004 30.7777 30.7531 34.3892Z" fill="url(#paint56_linear_260_1330)"/>
</g>
<path opacity="0.5" d="M0.56075 18.3541C-1.08494 18.1675 3.24521 24.4365 7.06317 26.5542C10.8811 28.6719 14.9376 26.0175 14.3112 25.2418C13.6849 24.4661 4.99622 18.8565 0.56075 18.3541Z" fill="#153600"/>
<path opacity="0.5" d="M1.95391 18.9359C1.08094 19.0594 2.77739 23.6708 5.48172 24.4063C8.18606 25.1423 12.3221 24.4859 11.1091 23.2331C9.89604 21.9803 3.37755 18.735 1.95391 18.9359Z" fill="#153600"/>
<path d="M3.10062 18.7034C3.03125 18.6797 3.44405 20.4544 4.69683 20.7974C5.9496 21.1404 6.80777 20.2078 6.80777 20.2078C6.80777 20.2078 3.73716 18.9212 3.10062 18.7034Z" fill="#7BDB56"/>
<path d="M6.07639 22.2516C5.50922 22.5612 7.24965 23.932 7.47805 23.3949C7.70686 22.8581 6.73239 21.8938 6.07639 22.2516Z" fill="#7BDB56"/>
<path d="M13.3999 0.983154C13.3999 0.983154 9.82385 9.01664 12.6775 16.6822C16.6363 27.3176 28.615 27.379 28.615 27.379L13.3999 0.983154Z" fill="#14634C"/>
<path opacity="0.3" d="M12.5252 11.9944C11.5 13.2895 12.4939 17.9597 15.6259 21.3301C18.7578 24.7006 22.0982 25.2373 22.1283 24.9392C22.1579 24.641 13.5407 10.712 12.5252 11.9944Z" fill="#312154"/>
<path d="M29.4121 27.0191C26.155 28.8662 17.2426 23.3145 14.3793 17.1868C12.5644 13.3033 12.2819 7.6946 12.6862 4.06866C12.9155 1.97464 13.3735 0.542955 13.8997 0.485857C14.9126 0.371238 18.8676 1.3271 22.472 4.39813C22.472 4.39813 22.472 4.39813 22.472 4.40194C23.9718 5.67248 25.4068 7.31564 26.5488 9.39485C30.4323 16.4814 32.2759 25.3975 29.4121 27.0191Z" fill="url(#paint57_linear_260_1330)"/>
<g style="mix-blend-mode:plus-darker" opacity="0.6">
<path d="M13.9004 0.485229C13.9004 0.485229 17.4003 1.80145 23.0078 12.5029C28.6152 23.2044 29.0077 27.3789 29.0077 27.3789C29.0077 27.3789 17.619 3.11893 13.9004 0.485229Z" fill="url(#paint58_linear_260_1330)"/>
</g>
<g style="mix-blend-mode:color-burn">
<path d="M29.4121 27.0191C26.155 28.8661 17.2426 23.3145 14.3793 17.1868C12.5644 13.3033 12.2819 7.69454 12.6862 4.0686C12.6862 4.0686 14.6153 16.1163 19.0715 15.1215C23.5243 14.1263 19.2648 6.177 19.2648 6.177C19.2648 6.177 22.6006 7.5943 22.472 4.40146C23.9718 5.672 25.4068 7.31516 26.5488 9.39438C30.4323 16.4813 32.2759 25.3975 29.4121 27.0191Z" fill="url(#paint59_linear_260_1330)"/>
</g>
<path opacity="0.5" d="M14.0296 0.983382C12.9891 0.847193 13.0948 6.48172 14.3476 8.96739C15.6004 11.4531 20.4127 13.3817 20.3928 12.1289C20.373 10.8757 15.3221 1.15214 14.0296 0.983382Z" fill="#153600"/>
<path opacity="0.5" d="M14.8498 2.40485C13.8262 2.10075 13.9252 6.20082 15.1479 7.44979C16.3707 8.69833 18.8166 8.92207 18.5929 8.37055C18.3695 7.8186 15.4017 2.56896 14.8498 2.40485Z" fill="#153600"/>
<path d="M15.4562 3.54483C14.6238 3.2733 15.2325 5.64097 15.7696 5.19349C16.3063 4.74643 15.9337 3.7009 15.4562 3.54483Z" fill="#7BDB56"/>
<path d="M79.2085 33.9459C79.2085 33.9459 83.0007 38.7523 95.5111 35.6838C111.04 31.8752 111.479 16.3635 111.479 16.3635L79.2085 33.9459Z" fill="#14634C"/>
<path opacity="0.3" d="M80.8306 34.5708C80.8306 34.5708 82.1629 36.8378 89.0628 36.559C95.9628 36.2807 98.9653 34.2523 98.4087 33.079C97.8521 31.9062 80.8306 34.5708 80.8306 34.5708Z" fill="#312154"/>
<path d="M103.612 29.6636C102.115 31.0335 100.417 32.288 98.5259 33.3014C90.1675 37.777 79.9631 35.7596 79.2098 33.9451C78.3098 31.7919 82.933 21.974 90.135 17.901C91.5747 17.0868 93.2766 16.4333 95.0839 15.9321L95.0873 15.9326C102.321 13.9176 111.217 14.3093 111.48 16.3644C111.736 18.3717 108.97 24.7561 103.612 29.6636Z" fill="url(#paint60_linear_260_1330)"/>
<g style="mix-blend-mode:plus-darker" opacity="0.6">
<path d="M111.479 16.3638C111.479 16.3638 104.211 16.8197 93.283 22.4504C82.3552 28.0811 79.2085 33.9462 79.2085 33.9462C79.2085 33.9462 92.1334 21.9497 111.479 16.3638Z" fill="url(#paint61_linear_260_1330)"/>
</g>
<g style="mix-blend-mode:plus-darker">
<path d="M103.612 29.6633C102.115 31.0333 100.417 32.2877 98.5259 33.3011C90.1675 37.7768 79.9631 35.7593 79.2098 33.9449C78.3098 31.7916 82.933 21.9737 90.135 17.9007C91.5747 17.0865 93.2766 16.4331 95.0839 15.9319L95.0873 15.9323C95.0873 15.9323 93.8557 17.8715 96.4894 18.5694C99.1197 19.2668 103.353 19.1949 103.353 19.1949C103.353 19.1949 90.459 26.465 97.7193 29.3495C99.766 30.1628 101.777 30.1282 103.612 29.6633Z" fill="url(#paint62_linear_260_1330)"/>
</g>
<path opacity="0.5" d="M97.2173 24.4384C95.4362 26.2097 104.448 26.3446 106.717 24.8005C108.986 23.2563 111.66 17.4014 110.432 17.3468C109.205 17.2918 101.853 19.8274 97.2173 24.4384Z" fill="#153600"/>
<path opacity="0.5" d="M108.147 18.1552C106.523 18.0893 101.749 21.0829 102.59 21.7304C103.432 22.378 106.99 22.9912 107.836 22.2384C108.681 21.4856 109.031 18.1908 108.147 18.1552Z" fill="#153600"/>
<g style="mix-blend-mode:plus-darker" opacity="0.3">
<path d="M80.6313 32.4841C78.7374 34.7262 88.2085 35.1589 90.7538 33.3491C93.2991 31.5397 93.8954 25.0863 93.319 24.7733C92.7425 24.4608 84.6692 27.704 80.6313 32.4841Z" fill="#BEA1FF"/>
</g>
<path d="M100.34 12.517C100.34 12.517 98.7964 11.7578 97.9475 13.3215C97.2268 14.6465 97.2298 15.3596 97.3072 15.6777C97.3465 15.8317 97.3989 15.8968 97.3989 15.8968L97.967 16.3756C97.967 16.3756 98.1323 19.2952 97.7733 20.0104C97.267 21.0229 91.3939 28.6808 82.3157 29.4849C74.9881 30.1341 99.1728 0.613525 99.1728 0.613525C99.1728 0.613525 100.818 2.74307 100.824 6.54369C100.828 11.99 100.34 12.517 100.34 12.517Z" fill="#14634C"/>
<path opacity="0.3" d="M81.9835 29.1625C81.9175 29.2471 84.8553 29.4408 89.504 27.1543C94.1526 24.8679 95.6981 21.3282 95.3428 20.9501C94.9883 20.572 83.3357 27.4322 81.9835 29.1625Z" fill="#312154"/>
<path opacity="0.3" d="M100.34 12.517C100.34 12.517 98.7962 11.7578 97.9473 13.3214C97.2266 14.6465 97.2296 15.3596 97.307 15.6777C97.2791 15.6955 97.2588 15.7107 97.2546 15.717C97.1547 15.8329 96.0284 14.3775 95.9383 14.224C95.8516 14.0705 98.2472 10.5875 99.3342 11.079C100.42 11.5738 100.368 12.4739 100.34 12.517Z" fill="#312154"/>
<path d="M97.3836 13.9533C97.4551 15.1748 97.7157 15.9315 97.9669 16.376C97.6573 17.1525 97.3134 17.888 96.9243 18.5626C96.8575 18.676 96.7907 18.7893 96.7205 18.9023C93.2798 24.4382 83.0131 29.9213 81.4541 29.5974C77.7038 28.8196 78.7549 19.2292 82.9522 11.2308C84.1496 8.94688 85.8837 6.90573 87.7785 5.20928C87.7789 5.2059 87.7789 5.2059 87.7789 5.2059C92.5218 0.958644 98.2714 -1.12353 99.1727 0.613941C99.9437 2.10145 100.142 6.56272 99.3833 11.0642C98.7925 11.2511 97.2661 11.9405 97.3836 13.9533Z" fill="url(#paint63_linear_260_1330)"/>
<g style="mix-blend-mode:plus-darker" opacity="0.6">
<path d="M98.7112 0.179077C98.7112 0.179077 93.5855 3.45609 87.2472 13.5197C80.9089 23.5834 81.4536 29.5973 81.4536 29.5973C81.4536 29.5973 83.2934 17.8575 98.7112 0.179077Z" fill="url(#paint64_linear_260_1330)"/>
</g>
<g style="mix-blend-mode:plus-darker">
<path d="M96.9243 18.5628C96.8575 18.6762 96.7907 18.7895 96.7204 18.9024C93.2798 24.4384 83.0131 29.9215 81.4541 29.5976C77.7038 28.8197 78.7549 19.2294 82.9522 11.231C84.1496 8.94707 85.8837 6.90592 87.7785 5.20947C87.7104 5.3334 85.8858 8.8185 87.8115 9.28163C89.7261 9.74687 94.0322 5.79864 94.2445 5.60493C94.0639 5.88281 87.8119 15.6597 91.9513 18.2718C93.6528 19.3427 95.4216 19.1617 96.9243 18.5628Z" fill="url(#paint65_linear_260_1330)"/>
</g>
<path opacity="0.5" d="M98.5993 0.961342C98.1061 0.617485 92.9224 7.32165 92.3743 10.8791C91.8262 14.4365 97.9873 11.9419 98.7972 10.0687C99.6071 8.19588 99.3132 1.45915 98.5993 0.961342Z" fill="#153600"/>
<path opacity="0.5" d="M97.2913 3.13977C96.3837 2.48589 93.2335 8.23969 93.6324 9.24588C94.0312 10.2521 97.7917 9.55379 98.5826 8.02441C99.3735 6.49502 97.5781 3.34617 97.2913 3.13977Z" fill="#153600"/>
<path d="M99.6526 2.33679C99.6526 2.33679 98.8638 3.25882 98.9848 3.93892C99.1057 4.61902 99.8459 5.37018 99.8611 5.33212C99.8764 5.29405 99.8493 2.82107 99.6526 2.33679Z" fill="#7BDB56"/>
<path d="M97.1059 3.48948C96.803 3.28689 95.7668 4.42801 96.452 4.79724C97.1371 5.16648 97.2776 3.60453 97.1059 3.48948Z" fill="#7BDB56"/>
<path d="M86.4322 24.1527C86.3747 25.1352 86.3133 26.083 86.2478 26.9852C85.8908 31.9857 85.4687 35.5473 85.0195 36.4491C84.9734 36.5413 84.9311 36.6026 84.8812 36.6411C83.8835 37.4278 72.0743 37.9306 59.2256 38.0723C58.6423 38.0799 58.0591 38.0876 57.4716 38.0876C42.2201 38.2221 26.151 37.8456 25.349 36.8403C23.6949 34.7678 21.2003 21.4162 22.248 10.156C22.3554 8.97006 22.5051 7.80357 22.6972 6.67895C22.9196 5.36654 23.2038 4.48765 23.5608 4.13829C23.8488 3.8583 25.0881 3.59354 27.0265 3.35542C27.7747 3.26702 28.6269 3.17905 29.5709 3.09826C30.5572 3.01367 31.6396 2.92951 32.8061 2.85634C50.0531 1.73594 85.3613 1.72791 86.6737 3.93866C86.735 4.04228 86.7925 4.21485 86.8462 4.44916C87.0264 5.24727 87.1647 6.76734 87.2645 8.82795C87.2645 8.82795 87.2645 8.83176 87.2645 8.84318C87.7255 18.6378 87.2916 10.1717 86.4322 24.1527Z" fill="url(#paint66_linear_260_1330)"/>
<path opacity="0.1" d="M28.1574 32.0143C26.7659 31.607 25.2408 24.6584 25.9315 23.475C26.6221 22.2915 79.7284 16.7551 81.4473 18.8838C83.1662 21.0125 81.866 31.673 80.9385 32.0143C80.0105 32.3552 31.654 33.0378 28.1574 32.0143Z" fill="#803689"/>
<path d="M85.0619 36.3567C85.0467 36.3914 85.0352 36.4219 85.0196 36.4489C84.9735 36.5411 84.9312 36.6025 84.8813 36.641C84.8508 36.6638 84.8085 36.6909 84.7548 36.7137C84.7548 36.7137 84.751 36.7175 84.7472 36.7175C84.7244 36.7289 84.6973 36.7365 84.6702 36.7484C84.6398 36.7598 84.6051 36.7712 84.5704 36.7831C84.4977 36.8097 84.4169 36.833 84.3285 36.852C84.2363 36.8753 84.1327 36.8981 84.0176 36.921C83.9639 36.9324 83.9064 36.9438 83.8451 36.9556C83.7876 36.9671 83.7224 36.9747 83.6607 36.9865C83.53 37.0093 83.3921 37.0326 83.2424 37.0516C83.0965 37.0745 82.9429 37.0939 82.778 37.113C82.6934 37.1244 82.6092 37.1358 82.5246 37.1438C82.4362 37.1553 82.3483 37.1667 82.2599 37.1747C81.6267 37.2475 80.8899 37.313 80.0686 37.3744C79.8347 37.3934 79.5927 37.4128 79.3432 37.4281C78.4453 37.4894 77.4552 37.5507 76.3881 37.6044C76.2113 37.6121 76.0349 37.6235 75.8547 37.6311C74.8608 37.681 73.8013 37.7233 72.6923 37.7656C72.4043 37.777 72.1091 37.7884 71.8134 37.7965C70.7463 37.8349 69.6374 37.8696 68.4937 37.9001C68.1329 37.9115 67.7722 37.9191 67.4038 37.9267C66.475 37.95 65.5233 37.9728 64.5561 37.9919C64.1724 37.9995 63.7808 38.0033 63.3891 38.0109C63.1971 38.0147 63.0017 38.0185 62.8021 38.0223C62.4874 38.0299 62.1689 38.0337 61.8505 38.0375C61.5781 38.0413 61.3015 38.0452 61.0253 38.049C60.5685 38.0566 60.1117 38.0604 59.6511 38.068C59.509 38.068 59.3673 38.0718 59.2252 38.0718C58.853 38.0756 58.4808 38.0832 58.1082 38.0832C57.4213 38.0908 56.7302 38.0946 56.0396 38.0984C55.5252 38.1023 55.0148 38.1061 54.5004 38.1061C54.0052 38.1099 53.5103 38.1099 53.015 38.1099C49.4496 38.1175 45.9226 38.0984 42.6452 38.0485C42.4151 38.0447 42.1884 38.0409 41.9621 38.0371C41.8086 38.0371 41.6551 38.0333 41.5053 38.0295C40.3769 38.0067 39.2794 37.9834 38.2279 37.9568C34.179 37.8493 30.7481 37.6882 28.4455 37.4657C28.2535 37.4505 28.0695 37.431 27.8927 37.4082C27.8005 37.3968 27.7126 37.3892 27.6242 37.3773C26.3156 37.2238 25.5132 37.0474 25.3483 36.8402C25.3254 36.8135 25.306 36.7826 25.2831 36.7518C23.9821 34.8176 22.2053 23.4039 22.0095 14.5385C21.9059 9.54939 22.2975 5.36981 23.56 4.13818C23.56 4.13818 23.5677 5.43156 23.6252 7.46552V7.46933C23.8248 14.6193 24.6115 30.9299 27.6741 32.6454C30.8711 34.4378 79.3043 34.1997 81.8564 32.5532C81.8754 32.5455 81.891 32.5341 81.9025 32.5223C83.8713 30.8681 87.1986 9.83319 87.2638 8.84307C87.2752 9.09641 87.287 9.34215 87.2984 9.57223C87.3023 9.72195 87.3099 9.87168 87.3179 10.0176C87.3754 11.4797 87.4139 12.8962 87.4329 14.2585C87.4329 14.2585 87.4329 14.2623 87.4329 14.2661C87.6025 25.5495 86.5012 33.3635 85.0619 36.3567Z" fill="#45365C"/>
<path opacity="0.4" d="M85.0197 36.4501C85.0197 36.4535 85.0163 36.4535 85.0163 36.4573C84.9948 36.5 84.9732 36.5359 84.9521 36.5647C84.9449 36.5719 84.9415 36.5791 84.9377 36.5863C84.9305 36.5935 84.9233 36.6007 84.9161 36.6078C84.9055 36.6222 84.8945 36.6328 84.884 36.64C82.6614 38.394 26.8604 38.734 25.3501 36.8405C25.3501 36.8405 25.7295 33.5406 27.6767 32.6457C30.873 34.439 79.3078 34.1992 81.8599 32.5526C82.0282 32.5814 82.139 32.6135 82.1822 32.6457C82.9363 33.2145 84.2001 35.1296 85.0197 36.4501Z" fill="#6E1A46"/>
<path d="M43.1601 35.1621C40.8728 34.9793 40.3505 33.7803 41.2057 33.0359C41.6066 32.6781 42.3189 32.4273 43.2959 32.4311C45.0786 32.4383 45.9482 32.9285 46.1271 33.4978C46.1271 33.5011 46.1271 33.5011 46.1271 33.5049C46.3851 34.3352 45.1611 35.3232 43.1601 35.1621Z" fill="url(#paint67_linear_260_1330)"/>
<path opacity="0.4" d="M43.7681 34.1453C41.9248 34.0666 41.1195 33.3649 41.2054 33.0359C41.6064 32.6781 42.3186 32.4273 43.2956 32.4311C45.0784 32.4383 45.9479 32.9285 46.1268 33.4978C46.1268 33.5011 46.1268 33.5011 46.1268 33.5049C46.1738 34.1026 45.6151 34.224 43.7681 34.1453Z" fill="#6E1A46"/>
<g opacity="0.05">
<path d="M87.3241 8.81237C87.3241 8.81237 87.3241 8.81618 87.3241 8.8276C87.259 9.81772 83.9317 30.8527 81.9628 32.5068C81.9514 32.5182 81.9362 32.5297 81.9167 32.5377C79.3646 34.1842 30.9315 34.4219 27.7344 32.6299C24.6719 30.9144 23.8852 14.6038 23.6855 7.45386C23.8162 8.29807 24.38 11.7637 24.9751 13.1184C25.6544 14.6651 26.1877 15.6667 26.1877 15.6667C26.1877 15.6667 24.1229 17.2439 24.7641 18.0115C25.401 18.7792 26.345 19.2165 26.345 19.2165C26.345 19.2165 24.9328 26.7424 26.3412 28.0933C27.7459 29.4404 28.0453 29.4751 28.1756 29.4366C28.302 29.3981 26.7134 32.0196 28.6785 32.4146C30.6473 32.8101 33.2916 32.1689 33.2916 32.1689C33.2916 32.1689 34.9956 33.1053 36.4886 33.1053C37.9664 33.1053 41.2667 30.4534 41.3627 30.4534C41.3936 30.4995 42.7212 32.1955 44.5099 32.2915C46.3023 32.3875 46.6284 31.6812 46.6284 31.6812C46.6284 31.6812 48.8772 33.65 51.8362 33.65C54.7951 33.65 57.3667 32.0344 57.3667 32.0344C57.3667 32.0344 66.8077 33.1053 68.9838 33.063C71.1599 33.0207 73.3321 31.4858 73.3321 31.4858C73.3321 31.4858 79.4306 33.1476 80.2402 32.7217C81.0501 32.2958 79.2729 30.2504 79.2729 30.2504C79.2729 30.2504 82.7998 30.7609 82.8421 29.7399C82.8844 28.7151 82.0478 27.4255 82.0478 27.4255C82.0478 27.4255 85.3139 21.3427 85.3139 18.3143C85.3139 15.2826 84.5462 14.2155 84.6769 14.0891C84.8033 13.9588 87.9082 9.4413 87.0179 5.92236C86.8834 5.38902 86.853 4.88994 86.9067 4.43316C87.086 5.23169 87.2243 6.75134 87.3241 8.81237Z" fill="#E0DEEA"/>
<path d="M24.88 4.10072C21.6131 5.46938 25.5495 19.4855 31.1472 19.7291C36.7449 19.9732 77.0845 18.9496 81.0078 16.5616C84.9311 14.1737 86.8466 6.36054 85.0783 5.15006C83.3103 3.93958 31.0102 1.53215 24.88 4.10072Z" fill="#A7B6DF"/>
</g>
<path opacity="0.05" d="M24.821 4.1169C22.4051 5.54139 25.1724 15.7252 30.6306 15.981C36.0887 16.2369 73.1023 7.17271 66.4501 5.47879C59.7984 3.78531 26.5322 3.10774 24.821 4.1169Z" fill="#A7B6DF"/>
<path opacity="0.1" d="M74.6988 29.4457H74.695C73.3749 30.056 71.3405 30.4206 69.963 30.5855C69.414 30.6507 68.6658 30.6278 67.8368 30.5432C67.8368 30.5432 67.8292 30.5432 67.8178 30.5394C65.1697 30.2671 61.6698 29.3729 60.925 28.774C59.9425 27.9835 64.4211 26.6631 65.5072 25.8955C66.5934 25.1278 68.2243 25.6269 70.2624 25.4044C71.4332 25.2779 75.551 26.2795 75.9769 27.8799C76.1495 28.5211 75.5853 29.0392 74.6988 29.4457Z" fill="#803689"/>
<path opacity="0.1" d="M37.6099 10.879C37.6099 10.8828 37.6061 10.8828 37.6061 10.8828C37.3798 11.0478 37.1417 11.167 36.9154 11.2284C35.8483 11.5045 32.1835 11.3781 31.0935 11.2707C30.9785 11.2592 30.8592 11.2402 30.7327 11.2131C29.6618 10.9674 28.2767 10.1346 28.6142 9.35174C28.994 8.47666 32.2752 4.60836 32.9279 4.61598C34.505 4.63924 38.2587 6.70746 38.7497 8.02791C39.1338 9.06752 38.4427 10.2725 37.6099 10.879Z" fill="#803689"/>
<path opacity="0.1" d="M48.2331 6.46162C47.4312 7.6167 45.5161 9.09448 44.5678 9.28608C44.2836 9.3436 43.9613 9.32456 43.62 9.25139C43.62 9.25139 43.6162 9.25139 43.6124 9.24759C42.3266 8.97521 40.8108 7.9466 40.2199 7.49362C39.4755 6.91798 39.6134 5.17924 40.8607 4.49237C41.8203 3.96284 47.638 4.44627 48.4712 5.25622C48.7241 5.50576 48.5863 5.95112 48.2331 6.46162Z" fill="#803689"/>
<path opacity="0.1" d="M37.61 10.8791C38.178 10.119 38.7921 8.99483 38.4351 8.0047C37.8286 6.3201 33.726 4.7463 33.0624 4.78098C32.3946 4.81947 28.8562 8.73386 28.8871 9.62798C28.9217 10.5221 30.737 11.209 30.737 11.209C30.737 11.209 30.737 11.2128 30.7332 11.2128C29.6623 10.967 28.2772 10.1342 28.6147 9.35137C28.9945 8.47629 32.2757 4.608 32.9283 4.61561C34.5055 4.63887 38.2592 6.70709 38.7502 8.02754C39.1338 9.06757 38.4428 10.2726 37.61 10.8791Z" fill="#803689"/>
<path opacity="0.1" d="M48.233 6.46151C48.3675 5.97427 48.3519 5.55555 48.0757 5.31024C46.9743 4.33534 42.1925 4.47745 41.2979 4.61576C40.4 4.75787 39.8087 6.38115 40.2232 7.1488C40.6301 7.89319 43.4355 9.16754 43.6119 9.24832C42.3261 8.97594 40.8103 7.94733 40.2194 7.49435C39.475 6.91872 39.6129 5.17997 40.8602 4.4931C41.8198 3.96357 47.6375 4.447 48.4707 5.25695C48.7241 5.50564 48.5862 5.95101 48.233 6.46151Z" fill="#803689"/>
<path opacity="0.1" d="M74.6987 29.4457H74.6949C74.6564 29.4648 75.8385 28.256 75.6123 27.5535C75.3898 26.8476 73.152 26.1142 71.9047 25.7458C70.6574 25.3774 69.9667 25.6654 69.6635 25.6807C69.3602 25.6959 66.9617 25.6502 66.7236 25.6807C66.4816 25.7153 65.8908 26.0643 65.5723 26.3214C65.25 26.5786 61.8918 27.8719 61.3661 28.5436C60.8518 29.1962 67.4223 30.4625 67.8173 30.5391C65.1692 30.2667 61.6693 29.3726 60.9245 28.7737C59.942 27.9832 64.4206 26.6627 65.5067 25.8951C66.5929 25.1274 68.2238 25.6265 70.262 25.404C71.4327 25.2776 75.5505 26.2791 75.9764 27.8796C76.1494 28.5212 75.5852 29.0393 74.6987 29.4457Z" fill="#803689"/>
<defs>
<linearGradient id="paint0_linear_260_1330" x1="66.5774" y1="63.1688" x2="44.7465" y2="72.2297" gradientUnits="userSpaceOnUse">
<stop offset="0.06" stop-color="#392746"/>
<stop offset="0.12" stop-color="#3F2F4E"/>
<stop offset="0.28" stop-color="#4C4462"/>
<stop offset="0.46" stop-color="#565371"/>
<stop offset="0.68" stop-color="#5C5C79"/>
<stop offset="1" stop-color="#5E5F7C"/>
</linearGradient>
<linearGradient id="paint1_linear_260_1330" x1="92.1691" y1="120.507" x2="150.444" y2="111.446" gradientUnits="userSpaceOnUse">
<stop stop-color="#392746"/>
<stop offset="0.06" stop-color="#3F2F4E"/>
<stop offset="0.23" stop-color="#4C4462"/>
<stop offset="0.42" stop-color="#565371"/>
<stop offset="0.65" stop-color="#5C5C79"/>
<stop offset="1" stop-color="#5E5F7C"/>
</linearGradient>
<linearGradient id="paint2_linear_260_1330" x1="1.96919" y1="119.377" x2="36.9343" y2="113.944" gradientUnits="userSpaceOnUse">
<stop stop-color="#392746"/>
<stop offset="0.06" stop-color="#3F2F4E"/>
<stop offset="0.23" stop-color="#4C4462"/>
<stop offset="0.42" stop-color="#565371"/>
<stop offset="0.65" stop-color="#5C5C79"/>
<stop offset="1" stop-color="#5E5F7C"/>
</linearGradient>
<linearGradient id="paint3_linear_260_1330" x1="0.39325" y1="55.1634" x2="25.4724" y2="51.2685" gradientUnits="userSpaceOnUse">
<stop stop-color="#392746"/>
<stop offset="0.06" stop-color="#3F2F4E"/>
<stop offset="0.23" stop-color="#4C4462"/>
<stop offset="0.42" stop-color="#565371"/>
<stop offset="0.65" stop-color="#5C5C79"/>
<stop offset="1" stop-color="#5E5F7C"/>
</linearGradient>
<linearGradient id="paint4_linear_260_1330" x1="17.0803" y1="40.4978" x2="92.7192" y2="40.4978" gradientUnits="userSpaceOnUse">
<stop stop-color="#E0784B"/>
<stop offset="1" stop-color="#BB6334"/>
</linearGradient>
<linearGradient id="paint5_linear_260_1330" x1="70.725" y1="44.2291" x2="72.7839" y2="21.4096" gradientUnits="userSpaceOnUse">
<stop stop-color="#681C2C"/>
<stop offset="0.04" stop-color="#671C2B"/>
<stop offset="0.57" stop-color="#57171E"/>
<stop offset="1" stop-color="#52161A"/>
</linearGradient>
<linearGradient id="paint6_linear_260_1330" x1="35.0687" y1="50.7853" x2="37.4175" y2="24.7324" gradientUnits="userSpaceOnUse">
<stop stop-color="#681C2C"/>
<stop offset="0.04" stop-color="#671C2B"/>
<stop offset="0.57" stop-color="#57171E"/>
<stop offset="1" stop-color="#52161A"/>
</linearGradient>
<linearGradient id="paint7_linear_260_1330" x1="54.3498" y1="-0.465979" x2="57.8284" y2="114.048" gradientUnits="userSpaceOnUse">
<stop stop-color="#771C48"/>
<stop offset="0.24" stop-color="#762A34"/>
<stop offset="0.62" stop-color="#82382F"/>
<stop offset="1" stop-color="#934B29"/>
</linearGradient>
<linearGradient id="paint8_linear_260_1330" x1="55.7843" y1="60.7306" x2="55.16" y2="20.8968" gradientUnits="userSpaceOnUse">
<stop stop-color="white"/>
<stop offset="1" stop-color="#800050"/>
</linearGradient>
<linearGradient id="paint9_linear_260_1330" x1="55.1971" y1="51.0377" x2="55.4499" y2="17.7302" gradientUnits="userSpaceOnUse">
<stop stop-color="white"/>
<stop offset="1" stop-color="#800050"/>
</linearGradient>
<linearGradient id="paint10_linear_260_1330" x1="57.9179" y1="32.47" x2="51.8302" y2="170.182" gradientUnits="userSpaceOnUse">
<stop stop-color="#771C48"/>
<stop offset="0.24" stop-color="#762A34"/>
<stop offset="0.62" stop-color="#82382F"/>
<stop offset="1" stop-color="#934B29"/>
</linearGradient>
<linearGradient id="paint11_linear_260_1330" x1="-93.2261" y1="75.2694" x2="347.287" y2="180.024" gradientUnits="userSpaceOnUse">
<stop stop-color="white"/>
<stop offset="1" stop-color="#800050"/>
</linearGradient>
<linearGradient id="paint12_linear_260_1330" x1="-93.4716" y1="76.2952" x2="347.042" y2="181.042" gradientUnits="userSpaceOnUse">
<stop stop-color="white"/>
<stop offset="1" stop-color="#800050"/>
</linearGradient>
<linearGradient id="paint13_linear_260_1330" x1="-89.0115" y1="57.5416" x2="351.502" y2="162.296" gradientUnits="userSpaceOnUse">
<stop stop-color="white"/>
<stop offset="1" stop-color="#800050"/>
</linearGradient>
<linearGradient id="paint14_linear_260_1330" x1="-87.458" y1="51.0154" x2="353.055" y2="155.762" gradientUnits="userSpaceOnUse">
<stop stop-color="white"/>
<stop offset="1" stop-color="#800050"/>
</linearGradient>
<linearGradient id="paint15_linear_260_1330" x1="-87.7107" y1="52.0932" x2="352.795" y2="156.84" gradientUnits="userSpaceOnUse">
<stop stop-color="white"/>
<stop offset="1" stop-color="#800050"/>
</linearGradient>
<linearGradient id="paint16_linear_260_1330" x1="-86.5362" y1="47.1503" x2="353.97" y2="151.897" gradientUnits="userSpaceOnUse">
<stop stop-color="white"/>
<stop offset="1" stop-color="#800050"/>
</linearGradient>
<linearGradient id="paint17_linear_260_1330" x1="-85.8154" y1="44.1176" x2="354.69" y2="148.872" gradientUnits="userSpaceOnUse">
<stop stop-color="white"/>
<stop offset="1" stop-color="#800050"/>
</linearGradient>
<linearGradient id="paint18_linear_260_1330" x1="-81.4226" y1="25.6314" x2="359.083" y2="130.386" gradientUnits="userSpaceOnUse">
<stop stop-color="white"/>
<stop offset="1" stop-color="#800050"/>
</linearGradient>
<linearGradient id="paint19_linear_260_1330" x1="55.3088" y1="30.2996" x2="55.844" y2="53.0373" gradientUnits="userSpaceOnUse">
<stop stop-color="#E0784B"/>
<stop offset="1" stop-color="#BB6334"/>
</linearGradient>
<linearGradient id="paint20_linear_260_1330" x1="9.14217" y1="361.904" x2="41.9071" y2="-2.19032" gradientUnits="userSpaceOnUse">
<stop stop-color="#681C2C"/>
<stop offset="0.04" stop-color="#671C2B"/>
<stop offset="0.57" stop-color="#57171E"/>
<stop offset="1" stop-color="#52161A"/>
</linearGradient>
<linearGradient id="paint21_linear_260_1330" x1="10.8664" y1="362.06" x2="43.6313" y2="-2.03423" gradientUnits="userSpaceOnUse">
<stop stop-color="white"/>
<stop offset="1" stop-color="#800050"/>
</linearGradient>
<linearGradient id="paint22_linear_260_1330" x1="47.7495" y1="368.259" x2="81.4659" y2="-6.33795" gradientUnits="userSpaceOnUse">
<stop stop-color="#681C2C"/>
<stop offset="0.04" stop-color="#671C2B"/>
<stop offset="0.57" stop-color="#57171E"/>
<stop offset="1" stop-color="#52161A"/>
</linearGradient>
<linearGradient id="paint23_linear_260_1330" x1="47.8164" y1="366.691" x2="81.295" y2="-5.3567" gradientUnits="userSpaceOnUse">
<stop stop-color="white"/>
<stop offset="1" stop-color="#800050"/>
</linearGradient>
<linearGradient id="paint24_linear_260_1330" x1="54.0973" y1="108.555" x2="56.7286" y2="21.5583" gradientUnits="userSpaceOnUse">
<stop stop-color="white"/>
<stop offset="1" stop-color="#800050"/>
</linearGradient>
<linearGradient id="paint25_linear_260_1330" x1="45.936" y1="152.945" x2="58.1411" y2="17.3734" gradientUnits="userSpaceOnUse">
<stop offset="0.06" stop-color="#392746"/>
<stop offset="0.12" stop-color="#3F2F4E"/>
<stop offset="0.28" stop-color="#4C4462"/>
<stop offset="0.46" stop-color="#565371"/>
<stop offset="0.68" stop-color="#5C5C79"/>
<stop offset="1" stop-color="#5E5F7C"/>
</linearGradient>
<linearGradient id="paint26_linear_260_1330" x1="57.2491" y1="81.216" x2="53.4062" y2="12.6385" gradientUnits="userSpaceOnUse">
<stop stop-color="white"/>
<stop offset="1" stop-color="#800050"/>
</linearGradient>
<linearGradient id="paint27_linear_260_1330" x1="48.8866" y1="110.376" x2="56.7879" y2="22.5765" gradientUnits="userSpaceOnUse">
<stop stop-color="#8D8BA6"/>
<stop offset="0.33" stop-color="#8B89A1"/>
<stop offset="0.69" stop-color="#838394"/>
<stop offset="1" stop-color="#7A7B83"/>
</linearGradient>
<linearGradient id="paint28_linear_260_1330" x1="54.6103" y1="65.525" x2="55.6286" y2="26.5088" gradientUnits="userSpaceOnUse">
<stop stop-color="white"/>
<stop offset="1" stop-color="#800050"/>
</linearGradient>
<linearGradient id="paint29_linear_260_1330" x1="54.3871" y1="145.244" x2="55.3088" y2="114.791" gradientUnits="userSpaceOnUse">
<stop stop-color="white"/>
<stop offset="1" stop-color="#800050"/>
</linearGradient>
<linearGradient id="paint30_linear_260_1330" x1="47.9648" y1="199.075" x2="57.7988" y2="89.8385" gradientUnits="userSpaceOnUse">
<stop offset="0.06" stop-color="#392746"/>
<stop offset="0.12" stop-color="#3F2F4E"/>
<stop offset="0.28" stop-color="#4C4462"/>
<stop offset="0.46" stop-color="#565371"/>
<stop offset="0.68" stop-color="#5C5C79"/>
<stop offset="1" stop-color="#5E5F7C"/>
</linearGradient>
<linearGradient id="paint31_linear_260_1330" x1="51.5699" y1="159.04" x2="57.3454" y2="94.8112" gradientUnits="userSpaceOnUse">
<stop stop-color="#8D8BA6"/>
<stop offset="0.33" stop-color="#8B89A1"/>
<stop offset="0.69" stop-color="#838394"/>
<stop offset="1" stop-color="#7A7B83"/>
</linearGradient>
<linearGradient id="paint32_linear_260_1330" x1="51.3546" y1="154.647" x2="56.699" y2="95.2498" gradientUnits="userSpaceOnUse">
<stop stop-color="white"/>
<stop offset="1" stop-color="#800050"/>
</linearGradient>
<linearGradient id="paint33_linear_260_1330" x1="14.4639" y1="75.723" x2="16.5823" y2="52.1899" gradientUnits="userSpaceOnUse">
<stop stop-color="#8D8BA6"/>
<stop offset="0.33" stop-color="#8B89A1"/>
<stop offset="0.69" stop-color="#838394"/>
<stop offset="1" stop-color="#7A7B83"/>
</linearGradient>
<linearGradient id="paint34_linear_260_1330" x1="38.5846" y1="78.0944" x2="40.5024" y2="56.7169" gradientUnits="userSpaceOnUse">
<stop stop-color="#8D8BA6"/>
<stop offset="0.33" stop-color="#8B89A1"/>
<stop offset="0.69" stop-color="#838394"/>
<stop offset="1" stop-color="#7A7B83"/>
</linearGradient>
<linearGradient id="paint35_linear_260_1330" x1="66.2576" y1="76.4292" x2="67.997" y2="57.0883" gradientUnits="userSpaceOnUse">
<stop stop-color="#8D8BA6"/>
<stop offset="0.33" stop-color="#8B89A1"/>
<stop offset="0.69" stop-color="#838394"/>
<stop offset="1" stop-color="#7A7B83"/>
</linearGradient>
<linearGradient id="paint36_linear_260_1330" x1="88.7797" y1="71.5162" x2="90.8164" y2="48.8676" gradientUnits="userSpaceOnUse">
<stop stop-color="#8D8BA6"/>
<stop offset="0.33" stop-color="#8B89A1"/>
<stop offset="0.69" stop-color="#838394"/>
<stop offset="1" stop-color="#7A7B83"/>
</linearGradient>
<linearGradient id="paint37_linear_260_1330" x1="15.6611" y1="66.045" x2="16.0328" y2="56.7462" gradientUnits="userSpaceOnUse">
<stop stop-color="white"/>
<stop offset="1" stop-color="#800050"/>
</linearGradient>
<linearGradient id="paint38_linear_260_1330" x1="39.8783" y1="68.5202" x2="40.2574" y2="57.4375" gradientUnits="userSpaceOnUse">
<stop stop-color="white"/>
<stop offset="1" stop-color="#800050"/>
</linearGradient>
<linearGradient id="paint39_linear_260_1330" x1="67.5442" y1="71.4044" x2="67.5442" y2="56.9323" gradientUnits="userSpaceOnUse">
<stop stop-color="white"/>
<stop offset="1" stop-color="#800050"/>
</linearGradient>
<linearGradient id="paint40_linear_260_1330" x1="89.2932" y1="62.3435" x2="91.6421" y2="45.6191" gradientUnits="userSpaceOnUse">
<stop stop-color="white"/>
<stop offset="1" stop-color="#800050"/>
</linearGradient>
<linearGradient id="paint41_linear_260_1330" x1="14.8357" y1="136.697" x2="16.9542" y2="113.164" gradientUnits="userSpaceOnUse">
<stop stop-color="#8D8BA6"/>
<stop offset="0.33" stop-color="#8B89A1"/>
<stop offset="0.69" stop-color="#838394"/>
<stop offset="1" stop-color="#7A7B83"/>
</linearGradient>
<linearGradient id="paint42_linear_260_1330" x1="38.4876" y1="140.755" x2="40.4128" y2="119.377" gradientUnits="userSpaceOnUse">
<stop stop-color="#8D8BA6"/>
<stop offset="0.33" stop-color="#8B89A1"/>
<stop offset="0.69" stop-color="#838394"/>
<stop offset="1" stop-color="#7A7B83"/>
</linearGradient>
<linearGradient id="paint43_linear_260_1330" x1="67.759" y1="139.373" x2="69.5057" y2="120.032" gradientUnits="userSpaceOnUse">
<stop stop-color="#8D8BA6"/>
<stop offset="0.33" stop-color="#8B89A1"/>
<stop offset="0.69" stop-color="#838394"/>
<stop offset="1" stop-color="#7A7B83"/>
</linearGradient>
<linearGradient id="paint44_linear_260_1330" x1="92.3477" y1="138.22" x2="94.3918" y2="115.572" gradientUnits="userSpaceOnUse">
<stop stop-color="#8D8BA6"/>
<stop offset="0.33" stop-color="#8B89A1"/>
<stop offset="0.69" stop-color="#838394"/>
<stop offset="1" stop-color="#7A7B83"/>
</linearGradient>
<linearGradient id="paint45_linear_260_1330" x1="16.0327" y1="127.019" x2="16.4118" y2="117.72" gradientUnits="userSpaceOnUse">
<stop stop-color="white"/>
<stop offset="1" stop-color="#800050"/>
</linearGradient>
<linearGradient id="paint46_linear_260_1330" x1="39.7888" y1="131.181" x2="40.1604" y2="120.098" gradientUnits="userSpaceOnUse">
<stop stop-color="white"/>
<stop offset="1" stop-color="#800050"/>
</linearGradient>
<linearGradient id="paint47_linear_260_1330" x1="69.0603" y1="136.748" x2="69.0603" y2="118.686" gradientUnits="userSpaceOnUse">
<stop stop-color="white"/>
<stop offset="1" stop-color="#800050"/>
</linearGradient>
<linearGradient id="paint48_linear_260_1330" x1="92.8388" y1="129.04" x2="95.1876" y2="112.323" gradientUnits="userSpaceOnUse">
<stop stop-color="white"/>
<stop offset="1" stop-color="#800050"/>
</linearGradient>
<linearGradient id="paint49_linear_260_1330" x1="90.3853" y1="40.7951" x2="91.909" y2="23.8179" gradientUnits="userSpaceOnUse">
<stop stop-color="#681C2C"/>
<stop offset="0.04" stop-color="#671C2B"/>
<stop offset="0.57" stop-color="#57171E"/>
<stop offset="1" stop-color="#52161A"/>
</linearGradient>
<linearGradient id="paint50_linear_260_1330" x1="34.6822" y1="36.5656" x2="35.5147" y2="27.3561" gradientUnits="userSpaceOnUse">
<stop stop-color="white"/>
<stop offset="1" stop-color="#800050"/>
</linearGradient>
<linearGradient id="paint51_linear_260_1330" x1="25.6879" y1="59.809" x2="24.4614" y2="47.7823" gradientUnits="userSpaceOnUse">
<stop stop-color="#681C2C"/>
<stop offset="0.04" stop-color="#671C2B"/>
<stop offset="0.57" stop-color="#57171E"/>
<stop offset="1" stop-color="#52161A"/>
</linearGradient>
<linearGradient id="paint52_linear_260_1330" x1="18.6043" y1="42.6311" x2="29.0552" y2="42.6311" gradientUnits="userSpaceOnUse">
<stop stop-color="#E0784B"/>
<stop offset="1" stop-color="#BB6334"/>
</linearGradient>
<linearGradient id="paint53_linear_260_1330" x1="23.6066" y1="45.0097" x2="21.1612" y2="33.7337" gradientUnits="userSpaceOnUse">
<stop stop-color="white"/>
<stop offset="1" stop-color="#800050"/>
</linearGradient>
<linearGradient id="paint54_linear_260_1330" x1="29.7631" y1="33.8001" x2="-3.32026" y2="13.5693" gradientUnits="userSpaceOnUse">
<stop offset="0.0112" stop-color="#187447"/>
<stop offset="0.2748" stop-color="#28873C"/>
<stop offset="0.7332" stop-color="#3FA32C"/>
<stop offset="1" stop-color="#48AD26"/>
</linearGradient>
<linearGradient id="paint55_linear_260_1330" x1="37.7936" y1="39.0866" x2="-33.6726" y2="-5.17716" gradientUnits="userSpaceOnUse">
<stop stop-color="#806EEE"/>
<stop offset="0.2418" stop-color="#A095F1"/>
<stop offset="0.5889" stop-color="#CAC6F5"/>
<stop offset="0.8527" stop-color="#E3E5F8"/>
<stop offset="1" stop-color="#EDF1F9"/>
</linearGradient>
<linearGradient id="paint56_linear_260_1330" x1="-19.8622" y1="9.41873" x2="48.8598" y2="39.8027" gradientUnits="userSpaceOnUse">
<stop stop-color="#DBF8FE"/>
<stop offset="0.2664" stop-color="#D9F5FE"/>
<stop offset="0.4446" stop-color="#D3ECFE"/>
<stop offset="0.5969" stop-color="#C7DDFE"/>
<stop offset="0.7347" stop-color="#B8C8FE"/>
<stop offset="0.8628" stop-color="#A4ACFF"/>
<stop offset="0.9819" stop-color="#8B8BFF"/>
<stop offset="1" stop-color="#8785FF"/>
</linearGradient>
<linearGradient id="paint57_linear_260_1330" x1="29.4698" y1="29.559" x2="13.7206" y2="1.16266" gradientUnits="userSpaceOnUse">
<stop offset="0.0112" stop-color="#187447"/>
<stop offset="0.2748" stop-color="#28873C"/>
<stop offset="0.7332" stop-color="#3FA32C"/>
<stop offset="1" stop-color="#48AD26"/>
</linearGradient>
<linearGradient id="paint58_linear_260_1330" x1="30.8997" y1="28.9095" x2="15.1029" y2="0.427326" gradientUnits="userSpaceOnUse">
<stop stop-color="#806EEE"/>
<stop offset="0.2418" stop-color="#A095F1"/>
<stop offset="0.5889" stop-color="#CAC6F5"/>
<stop offset="0.8527" stop-color="#E3E5F8"/>
<stop offset="1" stop-color="#EDF1F9"/>
</linearGradient>
<linearGradient id="paint59_linear_260_1330" x1="5.0821" y1="-21.4218" x2="30.2563" y2="35.1306" gradientUnits="userSpaceOnUse">
<stop stop-color="#DBF8FE"/>
<stop offset="0.2664" stop-color="#D9F5FE"/>
<stop offset="0.4446" stop-color="#D3ECFE"/>
<stop offset="0.5969" stop-color="#C7DDFE"/>
<stop offset="0.7347" stop-color="#B8C8FE"/>
<stop offset="0.8628" stop-color="#A4ACFF"/>
<stop offset="0.9819" stop-color="#8B8BFF"/>
<stop offset="1" stop-color="#8785FF"/>
</linearGradient>
<linearGradient id="paint60_linear_260_1330" x1="77.6787" y1="33.9304" x2="107.272" y2="19.1157" gradientUnits="userSpaceOnUse">
<stop offset="0.0112" stop-color="#187447"/>
<stop offset="0.2748" stop-color="#28873C"/>
<stop offset="0.7332" stop-color="#3FA32C"/>
<stop offset="1" stop-color="#48AD26"/>
</linearGradient>
<linearGradient id="paint61_linear_260_1330" x1="80.7613" y1="23.072" x2="109.926" y2="27.2375" gradientUnits="userSpaceOnUse">
<stop stop-color="#806EEE"/>
<stop offset="0.2418" stop-color="#A095F1"/>
<stop offset="0.5889" stop-color="#CAC6F5"/>
<stop offset="0.8527" stop-color="#E3E5F8"/>
<stop offset="1" stop-color="#EDF1F9"/>
</linearGradient>
<linearGradient id="paint62_linear_260_1330" x1="142.426" y1="14.6446" x2="68.1863" y2="31.5194" gradientUnits="userSpaceOnUse">
<stop stop-color="#DBF8FE"/>
<stop offset="0.2664" stop-color="#D9F5FE"/>
<stop offset="0.4446" stop-color="#D3ECFE"/>
<stop offset="0.5969" stop-color="#C7DDFE"/>
<stop offset="0.7347" stop-color="#B8C8FE"/>
<stop offset="0.8628" stop-color="#A4ACFF"/>
<stop offset="0.9819" stop-color="#8B8BFF"/>
<stop offset="1" stop-color="#8785FF"/>
</linearGradient>
<linearGradient id="paint63_linear_260_1330" x1="77.4453" y1="29.7428" x2="100.728" y2="1.73466" gradientUnits="userSpaceOnUse">
<stop offset="0.0112" stop-color="#187447"/>
<stop offset="0.2748" stop-color="#28873C"/>
<stop offset="0.7332" stop-color="#3FA32C"/>
<stop offset="1" stop-color="#48AD26"/>
</linearGradient>
<linearGradient id="paint64_linear_260_1330" x1="83.5027" y1="13.9484" x2="96.48" y2="15.8019" gradientUnits="userSpaceOnUse">
<stop stop-color="#806EEE"/>
<stop offset="0.2418" stop-color="#A095F1"/>
<stop offset="0.5889" stop-color="#CAC6F5"/>
<stop offset="0.8527" stop-color="#E3E5F8"/>
<stop offset="1" stop-color="#EDF1F9"/>
</linearGradient>
<linearGradient id="paint65_linear_260_1330" x1="112.739" y1="2.95831" x2="70.7861" y2="24.9867" gradientUnits="userSpaceOnUse">
<stop stop-color="#DBF8FE"/>
<stop offset="0.2664" stop-color="#D9F5FE"/>
<stop offset="0.4446" stop-color="#D3ECFE"/>
<stop offset="0.5969" stop-color="#C7DDFE"/>
<stop offset="0.7347" stop-color="#B8C8FE"/>
<stop offset="0.8628" stop-color="#A4ACFF"/>
<stop offset="0.9819" stop-color="#8B8BFF"/>
<stop offset="1" stop-color="#8785FF"/>
</linearGradient>
<linearGradient id="paint66_linear_260_1330" x1="54.7256" y1="47.6865" x2="54.7256" y2="-7.21488" gradientUnits="userSpaceOnUse">
<stop stop-color="#393252"/>
<stop offset="1" stop-color="#7A6583"/>
</linearGradient>
<linearGradient id="paint67_linear_260_1330" x1="43.4898" y1="38.391" x2="43.4898" y2="26.7693" gradientUnits="userSpaceOnUse">
<stop stop-color="#3F3252"/>
<stop offset="1" stop-color="#4F4766"/>
</linearGradient>
</defs>
</svg>
