<svg width="25" height="25" viewBox="0 0 25 25" fill="none" xmlns="http://www.w3.org/2000/svg">
<path opacity="0.2" d="M19.0955 4.00282C21.8227 7.95012 20.0285 13.907 15.1482 17.1366C10.2679 20.4379 4.16754 19.8638 1.44031 15.9165C-1.28691 11.9692 0.507315 6.01236 5.38761 2.78275C10.2679 -0.51863 16.44 -0.0162468 19.0955 4.00282Z" fill="#2E454E"/>
<path d="M5.96168 12.543C6.60761 9.0981 0.579005 10.3899 1.87085 13.6196C2.58854 15.5573 5.60284 14.0502 5.96168 12.543Z" fill="#2E454E"/>
<path d="M10.7702 2.42379C10.4831 2.49556 10.196 2.49556 9.9807 2.56733C7.75586 2.99795 3.80856 5.22279 4.59802 8.09355C5.38748 11.0361 8.83239 9.95955 10.4113 8.38063C11.5596 7.23232 13.1385 6.08402 13.4974 4.28979C13.7845 2.6391 12.1338 2.20849 10.7702 2.42379Z" fill="#2E454E"/>
<path d="M19.6588 3.01799C25.171 6.695 26.659 14.1466 22.982 19.6588C19.3033 25.171 11.8534 26.659 6.34121 22.982C0.829005 19.305 -0.658993 11.855 3.01801 6.34119C6.69502 0.828982 14.1466 -0.659016 19.6588 3.01799Z" fill="url(#paint0_radial_1_5092)"/>
<defs>
<radialGradient id="paint0_radial_1_5092" cx="0" cy="0" r="1" gradientUnits="userSpaceOnUse" gradientTransform="translate(15.8109 7.90831) scale(16.3174)">
<stop stop-color="#FDFDFD"/>
<stop offset="0.48" stop-color="#BCC1C6"/>
<stop offset="1" stop-color="#465666"/>
</radialGradient>
</defs>
</svg>
