<svg width="62" height="82" viewBox="0 0 62 82" fill="none" xmlns="http://www.w3.org/2000/svg">
<path d="M0.278708 52.284C1.00605 47.4387 3.1661 42.8178 6.41593 39.1512C9.20694 36.0026 11.726 32.1864 14.7308 29.2413C17.2068 26.8147 19.7444 24.8082 22.8084 23.4812C28.2324 27.3092 35.6428 28.7424 42.0124 29.052C42.0114 29.0544 42.0104 29.0564 42.0095 29.0588C45.9421 33.3608 50.6598 37.6691 54.2124 42.29C59.6243 49.3297 60.4157 59.3076 57.2583 67.6068C56.1993 70.3895 54.6752 73.088 52.3312 74.9233C49.9868 76.7585 46.7052 77.5891 43.9464 76.4694C40.2838 79.7506 35.4443 81.8592 30.5279 81.9757C25.6116 82.0916 20.6728 80.4006 16.859 77.2961C13.6786 77.255 10.464 76.1745 7.9792 74.1896C5.4939 72.2046 3.60533 69.5354 2.28808 66.6402C0.258165 62.1808 -0.449128 57.1294 0.278708 52.284Z" fill="#EDE607"/>
<path d="M26.0934 30.5459C21.5635 35.475 18.435 41.6782 17.1647 48.2512C15.8944 54.8243 16.4858 61.7465 18.8527 68.0085C17.0165 63.5563 15.1323 59.5772 14.1071 54.8717C13.0819 50.1662 12.9112 45.175 14.405 40.5967C15.4287 37.4604 17.2249 34.5794 19.5908 32.2799C21.1673 30.7475 23.9202 30.2128 26.0934 30.5459Z" fill="#B6B900"/>
<path d="M20.6923 25.6423C16.2314 28.6569 12.4494 32.6707 9.70581 37.3034C3.91736 42.0089 1.62771 48.6763 1.40515 55.5007C3.83812 49.7323 8.25259 44.8121 13.5881 41.5373C15.5319 37.5147 17.9507 33.6446 20.7857 30.1918C18.9882 30.7049 17.398 31.3163 16.0098 32.568C17.1759 30.1351 18.7397 27.504 20.6923 25.6423Z" fill="#B6B900"/>
<path d="M16.0835 77.2654C13.2695 74.0728 11.1149 70.3402 10.1474 66.2725C9.13487 62.2264 9.1466 57.9729 9.92433 53.8656C10.6752 49.7431 12.1323 45.766 13.8301 41.9081C15.5039 38.0254 17.6429 34.3563 19.7438 30.6501C17.2477 34.0912 14.8118 37.6277 12.9653 41.5007C11.064 45.3331 9.51688 49.3885 8.71959 53.6455C7.93844 57.8892 7.97854 62.3585 9.22877 66.5244C9.79275 68.6214 10.7779 70.5794 11.9073 72.4053L12.8347 73.726C13.136 74.1697 13.517 74.5551 13.8536 74.9704C14.51 75.8176 15.3278 76.5205 16.0835 77.2654Z" fill="#7A1B29"/>
<path d="M21.5214 34.5846C21.5977 34.5846 21.6691 34.5415 21.7039 34.4721C21.7415 34.3962 21.7293 34.3053 21.6726 34.2431C21.2578 33.7863 20.7378 33.3974 20.0809 33.056C19.4944 32.7503 18.8806 32.5209 18.2559 32.3742C17.6705 32.2323 17.0537 32.1604 16.4241 32.1604L16.3194 32.1614C15.5784 32.1726 14.9386 32.2866 14.3624 32.5092C14.2841 32.5395 14.2323 32.6153 14.2323 32.6999C14.2323 32.7836 14.2841 32.8594 14.3624 32.8907C14.9909 33.1357 15.5975 33.3006 16.1644 33.4498C16.7474 33.6024 17.3217 33.7516 17.8979 33.8846L19.6382 34.2725C20.2453 34.4006 20.843 34.5205 21.5004 34.5846C21.5087 34.5846 21.5151 34.5846 21.5214 34.5846Z" fill="#7A1B29"/>
<path d="M17.7766 41.8583C17.8617 41.8568 17.937 41.8025 17.9649 41.7218C17.9938 41.6421 17.9688 41.5526 17.9043 41.4978C17.42 41.0918 16.8585 40.7406 16.1351 40.3938C15.507 40.0944 14.8721 39.8479 14.246 39.662C13.6224 39.4723 12.9562 39.3284 12.2655 39.235C11.8116 39.1744 11.4071 39.145 11.028 39.145C10.7311 39.145 10.4527 39.1626 10.1754 39.1983C10.0918 39.2096 10.0223 39.2707 10.0032 39.3539C9.98318 39.437 10.0174 39.5231 10.0879 39.5701C10.7438 40.0113 11.4095 40.3121 11.9163 40.5244C12.5825 40.8022 13.1949 41.0214 13.7887 41.196C14.4079 41.3818 15.0404 41.5335 15.7217 41.6602C16.2265 41.7526 16.8991 41.8597 17.6308 41.8597L17.7766 41.8583Z" fill="#7A1B29"/>
<path d="M14.1003 49.7098C14.3546 49.7098 14.6099 49.6961 14.8682 49.6668C14.9533 49.657 15.0237 49.5949 15.0438 49.5112C15.0639 49.4276 15.0286 49.3405 14.9567 49.2936C14.2739 48.8475 13.5832 48.5232 12.9977 48.2644C12.4259 48.0042 11.814 47.7611 11.0172 47.4789C10.2463 47.2099 9.59824 47.0113 8.97655 46.8543C8.36219 46.6914 7.62262 46.5143 6.80576 46.4356C6.79843 46.4346 6.79206 46.4346 6.7857 46.4346C6.70744 46.4346 6.63554 46.4791 6.6013 46.551C6.56462 46.6283 6.57977 46.7207 6.64043 46.7824C7.12565 47.2739 7.70283 47.7014 8.45903 48.1275C9.06703 48.4767 9.72493 48.7746 10.4699 49.0363C11.2232 49.297 11.9231 49.4741 12.6108 49.5787C13.1557 49.6663 13.6429 49.7098 14.1003 49.7098Z" fill="#7A1B29"/>
<path d="M12.1052 57.9277C12.5312 57.9277 12.9445 57.8896 13.3334 57.8138C13.4185 57.7971 13.484 57.7287 13.4963 57.6421C13.509 57.556 13.465 57.4714 13.3877 57.4313C12.6799 57.0698 12.0196 56.7949 11.2301 56.4726L9.13365 55.6269L7.02743 54.8071C6.32454 54.5375 5.59865 54.2582 4.80479 54.0205C4.78571 54.0142 4.76565 54.0117 4.74657 54.0117C4.682 54.0117 4.61989 54.042 4.58076 54.0963C4.53038 54.1668 4.52989 54.2617 4.57929 54.3331C5.01658 54.9567 5.59865 55.5202 6.35975 56.0529C6.98829 56.5019 7.71172 56.8903 8.50804 57.2058C9.30484 57.5183 10.0977 57.7292 10.8647 57.8329C11.304 57.8964 11.7104 57.9277 12.1052 57.9277Z" fill="#7A1B29"/>
<path d="M12.1706 66.3825C12.736 66.3825 13.2761 66.3155 13.7755 66.1849C13.8606 66.1624 13.9222 66.0876 13.9271 66C13.9325 65.9124 13.8816 65.8308 13.8004 65.798C13.2717 65.5852 12.761 65.3959 12.2591 65.211C11.9833 65.1088 11.7093 65.0075 11.4374 64.9048C10.6827 64.6079 9.94014 64.312 9.20839 63.9906C8.47615 63.6707 7.75565 63.3278 7.02585 62.9727L4.78121 61.835C4.75186 61.8198 4.72007 61.8125 4.68876 61.8125C4.63545 61.8125 4.5836 61.833 4.54349 61.8731C4.48137 61.9353 4.46718 62.0311 4.5068 62.1099C4.88833 62.8495 5.46746 63.5475 6.22905 64.1838C6.88303 64.7414 7.65048 65.2154 8.50794 65.5911C9.36686 65.9638 10.2351 66.2045 11.0891 66.3082C11.4599 66.3571 11.8243 66.3825 12.1706 66.3825Z" fill="#7A1B29"/>
<path d="M14.3599 74.4987C15.0506 74.4987 15.704 74.4023 16.3018 74.2115C16.3864 74.1846 16.4436 74.1054 16.4436 74.0159C16.4436 73.9273 16.3854 73.8486 16.3008 73.8222L15.751 73.6505C15.0491 73.4328 14.3804 73.2245 13.7265 72.9916C12.8299 72.6615 12.0536 72.3376 11.3556 72.0016C10.6488 71.6651 9.90874 71.2655 9.09237 70.7788C8.52301 70.431 7.961 70.0568 7.37403 69.666L6.82816 69.303C6.79392 69.2805 6.75478 69.2693 6.71565 69.2693C6.67016 69.2693 6.62467 69.2845 6.58701 69.3148C6.51853 69.3701 6.49261 69.4649 6.52489 69.5471C6.85604 70.4021 7.41219 71.2121 8.17769 71.9547C8.85514 72.6233 9.66466 73.1853 10.5813 73.6236C11.5028 74.0599 12.4488 74.3343 13.3924 74.439C13.7201 74.4786 14.0459 74.4987 14.3599 74.4987Z" fill="#7A1B29"/>
<path d="M21.5216 34.2098C21.0799 33.7236 20.5496 33.3597 19.9871 33.0662C19.4241 32.7727 18.8259 32.5477 18.2091 32.4019C17.5928 32.2527 16.9569 32.1862 16.322 32.1945C15.6876 32.2038 15.0503 32.2909 14.4374 32.5286C15.0488 32.7673 15.6358 32.9278 16.2174 33.0809C16.7984 33.233 17.3702 33.3812 17.945 33.5142L19.6839 33.9016C20.2728 34.0264 20.869 34.1477 21.5216 34.2098Z" fill="#EB690C"/>
<path d="M17.7734 41.4843C17.2344 41.0323 16.6489 40.6967 16.0462 40.4082C15.4436 40.1196 14.8239 39.877 14.188 39.6877C13.5531 39.4944 12.9011 39.3575 12.2383 39.268C11.5755 39.1794 10.9 39.1413 10.202 39.2318C10.7861 39.6246 11.3867 39.9117 11.9957 40.1665C12.6047 40.4209 13.219 40.6459 13.8461 40.8303C14.4717 41.0186 15.109 41.1697 15.7586 41.2901C16.4087 41.4089 17.0705 41.4975 17.7734 41.4843Z" fill="#EB690C"/>
<path d="M14.8458 49.2935C14.2114 48.8797 13.5662 48.5676 12.9156 48.2805C12.268 47.9861 11.6116 47.7351 10.9488 47.5008C10.2851 47.269 9.61591 47.0562 8.92623 46.8816C8.23899 46.6996 7.5405 46.5411 6.78625 46.4683C7.31941 47.0083 7.92741 47.4221 8.56084 47.7787C9.19183 48.1421 9.85706 48.4331 10.5389 48.6723C11.2222 48.9091 11.9232 49.0969 12.6427 49.206C13.3593 49.3229 14.092 49.3796 14.8458 49.2935Z" fill="#EB690C"/>
<path d="M13.2943 57.4434C12.5664 57.0707 11.8572 56.7792 11.1528 56.4911L9.05735 55.6459L6.95358 54.8275C6.24433 54.5541 5.53067 54.2802 4.74707 54.0449C5.21713 54.7165 5.82317 55.257 6.47764 55.7148C7.12917 56.1805 7.84233 56.5517 8.58386 56.8457C9.32637 57.1363 10.0997 57.3525 10.8926 57.4596C11.6811 57.5745 12.4896 57.5995 13.2943 57.4434Z" fill="#EB690C"/>
<path d="M13.7243 65.817C12.9055 65.4873 12.1282 65.2154 11.3647 64.9248C10.6051 64.6264 9.86061 64.33 9.12691 64.0067C8.39173 63.6858 7.66928 63.342 6.93655 62.9854L4.68896 61.8467C5.09446 62.6342 5.68925 63.297 6.36034 63.8575C7.0285 64.4264 7.78813 64.8828 8.59081 65.234C9.39495 65.5827 10.2446 65.8297 11.1143 65.9359C11.98 66.0493 12.8673 66.0415 13.7243 65.817Z" fill="#EB690C"/>
<path d="M16.2394 73.8461C15.3316 73.5614 14.483 73.308 13.6578 73.0141C12.8365 72.7113 12.0417 72.388 11.2674 72.0157C10.4921 71.6464 9.74028 71.2321 8.98847 70.7841C8.24107 70.3277 7.5103 69.8283 6.71594 69.303C7.06078 70.1937 7.63699 70.9744 8.3208 71.6376C9.00071 72.3097 9.80484 72.8556 10.6691 73.2689C11.5349 73.6793 12.4653 73.961 13.4152 74.0662C14.3612 74.1797 15.3301 74.1371 16.2394 73.8461Z" fill="#EB690C"/>
<path d="M15.8641 32.4076C17.219 32.8371 18.3402 33.066 19.7523 33.2152C18.5862 32.4135 17.2362 32.1283 15.8641 32.4076Z" fill="#FEAA0F"/>
<path d="M11.6799 39.4159C13.3352 40.0757 14.7757 40.5081 16.5165 40.8813C15.052 39.8717 13.4384 39.3777 11.6799 39.4159Z" fill="#FEAA0F"/>
<path d="M7.52905 46.5969C9.44696 47.5141 11.2039 48.1191 13.2754 48.5902C11.4632 47.4803 9.61669 46.8332 7.52905 46.5969Z" fill="#FEAA0F"/>
<path d="M5.25769 54.2144C7.16337 55.7048 9.25002 56.5872 11.6429 56.9276C9.43981 55.9214 7.48767 55.0806 5.25769 54.2144Z" fill="#FEAA0F"/>
<path d="M5.79041 62.5061C7.45836 63.9676 9.33127 64.8613 11.5123 65.2506C9.55383 64.2068 7.81005 63.3587 5.79041 62.5061Z" fill="#FEAA0F"/>
<path d="M8.01099 70.2571C9.63932 72.0473 11.7338 73.1396 14.1301 73.4609C11.9221 72.465 10.0668 71.4794 8.01099 70.2571Z" fill="#FEAA0F"/>
<path opacity="0.6" d="M3.90299 63.6771C5.28725 65.5182 7.28196 66.7034 9.58433 66.6329C9.84308 67.2947 10.4755 67.7951 11.1789 67.8959C11.8823 67.9962 12.6982 67.8616 13.1315 67.2987C13.6603 68.5107 14.3842 69.6186 15.2329 70.6302C14.7667 69.6069 14.4366 68.5107 14.3104 67.326C16.7076 70.0046 19.6107 72.2918 22.9554 73.6075C26.3006 74.9238 30.1119 75.2139 33.5046 74.0262C38.9017 72.1367 42.514 66.7528 43.6625 61.1512C44.8105 55.5496 44.1062 49.429 42.7527 43.8734C45.173 48.6743 46.5528 53.9408 46.2598 59.3096C48.1386 55.0771 48.2081 50.2126 47.2621 45.6793C46.3161 41.146 44.5493 37.1292 42.5747 32.9407C45.1094 34.8689 47.6279 37.3649 49.9513 39.543C50.0071 39.5949 50.0565 39.6536 50.1113 39.7064C64.8412 50.9791 58.1517 80.2075 43.2164 75.5191C40.017 79.105 35.3125 81.3036 30.5091 81.4572C25.7058 81.6108 20.7973 79.7492 17.3753 76.3751C12.7896 76.853 8.27344 74.2146 5.53427 70.5059C2.7951 66.7978 1.60111 62.0037 1.02295 57.4298C1.76057 59.6119 2.51873 61.836 3.90299 63.6771Z" fill="#B6B900"/>
<path d="M20.0457 76.3526C24.4141 78.8252 29.8783 79.2684 34.5882 77.5319C39.2981 75.796 43.2293 72.059 44.9481 67.3427C44.9154 67.7854 44.9271 68.0989 44.8943 68.5411C49.3596 68.3445 57.3194 60.0825 49.4976 41.9824C62.7649 56.927 53.7795 77.688 43.5003 73.9104C40.7743 77.6997 29.2737 84.1553 20.0457 76.3526Z" fill="#969800"/>
<path d="M32.1703 71.4518L28.089 71.2826C28.1345 70.2001 28.1721 69.1162 28.203 68.0318C26.7473 67.8777 25.3845 67.4693 24.1847 66.8143C21.1623 65.162 19.2718 61.8931 19.4797 58.6785L23.5562 58.9431C23.45 60.5768 24.5134 62.3397 26.1432 63.2299C26.7776 63.5762 27.501 63.81 28.2866 63.9279C28.3179 61.3913 28.3106 58.8521 28.2661 56.3121C28.1271 56.2896 27.9882 56.2651 27.8478 56.2372C25.1038 55.6957 22.9799 54.0733 22.1675 51.8976C21.2293 49.3839 22.1773 46.271 24.4219 44.4955C25.3513 43.7598 26.4587 43.2516 27.6781 42.986C27.6047 41.9515 27.525 40.9184 27.4394 39.8858L31.5095 39.5474C31.6044 40.6827 31.6915 41.8209 31.7702 42.9601C33.6632 43.303 35.4182 44.0489 36.9825 44.7141L35.3854 48.4731C34.2819 48.0041 33.1525 47.5237 32.0304 47.2097C32.1239 48.974 32.1987 50.7418 32.2559 52.5105C32.7656 52.5398 33.2856 52.5824 33.8153 52.6567C36.5794 53.0451 38.7047 54.3281 39.7999 56.2685C41.1186 58.6081 40.7586 61.851 38.9248 64.1554C37.543 65.8918 35.4891 67.0887 32.8209 67.7114C32.6453 67.752 32.4702 67.7901 32.2946 67.8249C32.2618 69.0365 32.2207 70.2451 32.1703 71.4518ZM32.3562 56.6104C32.3939 58.9456 32.4007 61.2788 32.3753 63.6114C33.5067 63.2916 34.866 62.6987 35.7298 61.6138C36.529 60.6096 36.7492 59.175 36.2429 58.2759C35.6055 57.1455 33.9361 56.7987 33.2484 56.7019C32.9579 56.6613 32.66 56.6329 32.3562 56.6104ZM27.9378 47.1588C27.569 47.2953 27.2384 47.4763 26.9556 47.6998C26.106 48.3714 25.6746 49.6143 25.9935 50.4693C26.3061 51.3052 27.2452 51.8428 28.156 52.1118C28.0997 50.46 28.0269 48.8082 27.9378 47.1588Z" fill="url(#paint0_linear_65_4557)"/>
<path d="M39.7729 30.3457C38.3994 30.9591 36.8459 31.0477 35.3462 30.9278C31.6806 30.6348 28.1236 29.118 25.3741 26.6767C24.9109 26.2654 24.4634 25.8198 24.1689 25.2749C23.8744 24.7295 23.7482 24.0677 23.9522 23.4827C28.3364 27.2676 34.0094 29.7725 39.7729 30.3457Z" fill="#7A1B29"/>
<path d="M24.5419 21.3491C24.4045 21.4836 24.3267 21.6764 24.3326 21.8686C24.338 22.0603 24.3649 22.2198 24.5004 22.3553C26.9338 24.7882 33.6301 30.3106 42.7119 29.7559C43.1379 29.73 43.3532 29.1533 43.3532 28.7263C43.3532 28.0679 42.6894 27.7113 42.6894 27.7113C42.6894 27.7113 34.49 28.4382 24.5419 21.3491Z" fill="#EB690C"/>
<path d="M24.5001 22.3554C24.326 22.1857 23.1692 22.3594 23.5125 23.1718C23.922 24.1403 31.6557 32.8288 42.7454 29.6328C42.8075 29.2723 42.4236 28.8522 42.0729 28.9573C36.102 30.7481 24.5001 22.3554 24.5001 22.3554Z" fill="#EB690C"/>
<path d="M24.9062 22.3591C28.8727 26.9556 34.6166 29.414 40.676 29.1229C37.6361 28.9366 34.8147 28.2058 32.1861 27.0798C29.5604 25.945 27.1118 24.4027 24.9062 22.3591Z" fill="#7A1B29"/>
<path d="M27.5569 23.3865C31.6705 27.0076 36.9263 28.7127 42.3787 28.2089C39.6307 28.1272 37.0584 27.6361 34.6024 26.8378C32.1484 26.0322 29.8015 24.9131 27.5569 23.3865Z" fill="#FEAA0F"/>
<path d="M24.4106 23.0505C26.487 26.1893 29.6366 28.2872 33.3276 29.0043C29.8308 27.6005 27.0202 25.7002 24.4106 23.0505Z" fill="#FEAA0F"/>
<path d="M33.7438 50.0238C34.0226 51.2721 34.3885 52.5145 35.0082 53.7144C35.3105 54.315 35.695 54.904 36.1934 55.4596C36.687 55.9991 37.3967 56.5616 38.3916 56.7133C39.9104 56.8806 41.4859 56.3728 42.6089 55.4009C43.7281 54.4334 44.4716 53.1533 44.8374 51.8738C45.6607 49.2994 45.5819 46.7124 45.3295 44.231C45.241 42.9749 44.9646 41.7633 44.766 40.5356C44.5004 39.3259 44.2138 38.1222 43.9056 36.9272C43.551 35.7474 43.2248 34.5583 42.8462 33.3893L41.6448 29.9071L41.3343 29.0061L40.6093 29.575L40.6054 29.5779C38.5158 31.0218 36.7701 32.9838 35.5937 35.2392C34.3851 37.4819 33.7047 39.9647 33.4053 42.4672C33.1079 44.9764 33.2151 47.5248 33.7438 50.0238ZM35.2014 42.6506C35.4074 40.3345 35.965 38.0341 37.0019 35.9651C37.8716 34.1665 39.1229 32.5729 40.6455 31.285L41.436 33.8241C41.7735 34.9838 42.0557 36.1563 42.3688 37.32C42.6334 38.4929 42.876 39.6703 43.0976 40.8466C43.2507 42.0294 43.4845 43.2092 43.529 44.3909C43.7075 46.7344 43.664 49.1488 42.9186 51.2154C42.5928 52.268 41.9843 53.147 41.2521 53.7472C40.5135 54.3439 39.5792 54.5968 38.6709 54.4833C38.4508 54.4647 38.1006 54.2911 37.7787 53.9457C37.4593 53.6068 37.1502 53.1881 36.8948 52.7107C36.3666 51.7686 35.9987 50.6734 35.7175 49.565C35.1736 47.3326 34.996 44.9691 35.2014 42.6506Z" fill="#7A1B29"/>
<path d="M34.5519 49.1571C34.8307 50.4054 35.1966 51.6478 35.8164 52.8477C36.1186 53.4483 36.5031 54.0373 37.0015 54.5929C37.4951 55.1324 38.2048 55.695 39.2002 55.8466C40.719 56.0139 42.2945 55.5061 43.4175 54.5342C44.5367 53.5667 45.2802 52.2866 45.6461 51.0071C46.4693 48.4327 46.3905 45.8457 46.1381 43.3643C46.0496 42.1082 45.7732 40.8966 45.5746 39.6689C45.309 38.4592 45.0224 37.2555 44.7142 36.0605C44.3591 34.8807 44.0334 33.6916 43.6548 32.5226L42.4535 29.0404L42.1429 28.1394L41.418 28.7083L41.414 28.7112C39.3245 30.1546 37.5787 32.1171 36.4023 34.372C35.1937 36.6147 34.5133 39.0975 34.2139 41.6C33.9166 44.1092 34.0237 46.6577 34.5519 49.1571ZM36.0101 41.7834C36.216 39.4673 36.7736 37.1669 37.8106 35.0979C38.6803 33.2993 39.9315 31.7057 41.4542 30.4178L42.2446 32.9564C42.5821 34.1162 42.8643 35.2886 43.1774 36.4523C43.442 37.6252 43.6846 38.8026 43.9062 39.979C44.0593 41.1617 44.2931 42.3415 44.3376 43.5233C44.5162 45.8667 44.4726 48.2811 43.7272 50.3477C43.4014 51.4003 42.7929 52.2793 42.0612 52.8795C41.3226 53.4762 40.3883 53.7291 39.48 53.6156C39.2599 53.5975 38.9097 53.4234 38.5883 53.0781C38.2689 52.7391 37.9598 52.3204 37.7044 51.843C37.1762 50.9009 36.8083 49.8057 36.5271 48.6974C35.9817 46.4654 35.8041 44.1019 36.0101 41.7834Z" fill="#EB690C"/>
<path d="M40.2269 55.0111C40.0577 55.0111 39.8894 55.0023 39.7476 54.9871C39.0789 54.8849 38.4856 54.543 37.9378 53.9438C37.5064 53.463 37.1503 52.9376 36.8465 52.335C36.3378 51.3499 35.9651 50.2601 35.6413 48.8093C35.1316 46.3979 35.0206 43.9272 35.3121 41.4654C35.6256 38.8456 36.3373 36.4923 37.431 34.4624C38.5556 32.3063 40.2176 30.431 42.271 29.01L42.2745 29.0076L43.4831 32.5117C43.7272 33.264 43.9488 34.0242 44.1708 34.7853C44.2922 35.2025 44.414 35.6197 44.5323 36.0105C44.8336 37.1815 45.1212 38.3878 45.3795 39.5612C45.4387 39.9241 45.5038 40.2856 45.5693 40.6476C45.7273 41.5192 45.8765 42.3444 45.9386 43.218C46.1641 45.4411 46.2864 48.057 45.468 50.6142C45.1105 51.8645 44.3905 53.0056 43.4401 53.8274C42.5689 54.5792 41.3984 55.0111 40.2269 55.0111ZM41.4816 29.7056C39.8855 31.0561 38.5673 32.748 37.6756 34.5925C36.6655 36.6068 36.037 38.9351 35.8081 41.5128C35.5977 43.8852 35.7817 46.3494 36.3417 48.6459C36.6831 49.9886 37.0886 51.0686 37.5768 51.9388C37.8434 52.4368 38.1838 52.9122 38.558 53.3099C38.9586 53.7408 39.4507 54.0181 39.8479 54.0509C40.0151 54.0715 40.1844 54.0822 40.3526 54.0822C41.2835 54.0822 42.1952 53.7599 42.9236 53.1719C43.7835 52.4666 44.4506 51.457 44.7911 50.356C45.4597 48.5007 45.6656 46.2462 45.4397 43.2865C45.4069 42.4207 45.2787 41.5608 45.153 40.7288C45.1012 40.38 45.0484 40.0317 44.9975 39.6448C44.771 38.4411 44.5235 37.2471 44.2574 36.0692C44.1459 35.6545 44.0383 35.2382 43.9302 34.8215C43.7345 34.0662 43.5394 33.3105 43.3173 32.5479L42.5269 30.0098C42.4613 29.8009 42.2965 29.6381 42.0857 29.5774C42.026 29.5598 41.9644 29.551 41.9032 29.551C41.7511 29.5515 41.6014 29.6048 41.4816 29.7056Z" fill="#FEAA0F"/>
<path d="M40.5522 53.7359C41.4332 53.7359 42.07 53.4615 42.611 52.9875C42.8517 52.7767 43.0698 52.5409 43.3178 52.3389C43.5658 52.1369 43.8515 51.9672 44.168 51.9187C44.4839 51.8698 44.864 51.9094 45.0704 52.1535C45.2397 51.8703 45.3844 51.5719 45.5023 51.2633C45.0347 50.8299 44.5441 50.4083 43.9948 50.084C43.5179 51.7231 41.6885 53.6082 40.5522 53.7359Z" fill="#CC540A"/>
<path d="M39.8424 42.1863C40.153 44.3424 40.6568 46.5079 41.7324 48.5867C42.2783 49.6139 43.0159 50.6323 44.1028 51.3997C44.3738 51.5905 44.6541 51.7695 44.971 51.903C45.2713 52.0635 45.602 52.1554 45.9327 52.2474C46.2604 52.3521 46.6038 52.3565 46.9398 52.4049C47.267 52.4176 47.5825 52.3995 47.9039 52.3922C48.2345 52.3565 48.5857 52.2792 48.9257 52.198C49.2813 52.039 49.6418 51.9559 49.9724 51.6795C50.1353 51.5528 50.3114 51.4408 50.4503 51.2882C50.5858 51.1302 50.7169 50.9663 50.8411 50.7995C50.9737 50.6347 51.0295 50.4498 51.1204 50.2718C51.2046 50.0908 51.2833 49.9088 51.3141 49.7352C51.66 48.302 51.4183 47.1051 51.1444 45.9972C50.5306 43.7961 49.6007 41.843 48.576 39.9534C47.5561 38.0649 46.4247 36.2604 45.2577 34.4902L43.4576 31.8768L42.5601 30.5801L42.111 29.9393L41.8973 29.6204L41.8083 29.481C41.7647 29.4179 41.7138 29.3548 41.6571 29.2976C41.5431 29.1821 41.4116 29.1014 41.3084 29.0452C41.2003 29.0931 41.0393 29.1714 40.9063 29.3083C40.782 29.4218 40.67 29.6527 40.6637 29.6786L40.491 30.0826C40.3971 30.3487 40.3032 30.6177 40.2337 30.8838C40.088 31.4199 39.9916 31.9546 39.8987 32.4906C39.727 33.5619 39.6208 34.636 39.5563 35.7131C39.4653 37.8658 39.5323 40.0287 39.8424 42.1863ZM41.2193 32.634C41.2501 32.1243 41.2883 31.6126 41.3622 31.1181C41.3724 31.0237 41.3925 30.9357 41.4072 30.8442L41.573 31.1758L42.3262 32.5738L43.8211 35.3536C44.8218 37.1962 45.7898 39.048 46.682 40.9151C47.5434 42.7855 48.393 44.6853 48.8328 46.5705C49.0514 47.4925 49.1541 48.4517 48.9761 49.0753C48.8724 49.3713 48.7829 49.5635 48.5725 49.6721C48.5104 49.7636 48.3221 49.7724 48.2101 49.8482C48.0369 49.8741 47.8701 49.9167 47.6799 49.9372C46.817 50.0218 46.1567 49.8511 45.4924 49.408C44.838 48.9731 44.2808 48.2521 43.8186 47.4397C42.8765 45.8025 42.3532 43.8142 41.9364 41.8341C41.5471 39.836 41.3211 37.7802 41.2316 35.7209C41.1802 34.6908 41.1689 33.6577 41.2193 32.634Z" fill="#7A1B29"/>
<path d="M41.7822 30.1599C43.9824 33.5408 46.139 36.7236 47.9527 40.0884C48.8419 41.7735 49.7111 43.4928 50.3294 45.3085C50.6258 46.2178 50.8303 47.1692 50.8215 48.1426C50.8137 49.111 50.6023 50.1094 50.0755 50.9776C50.6772 50.1544 50.977 49.1424 51.048 48.1401C51.1218 47.131 50.9609 46.1258 50.6953 45.1735C50.1367 43.2703 49.2954 41.5182 48.3924 39.8062C46.5499 36.3954 44.2416 33.3026 41.7822 30.1599Z" fill="#7A1B29"/>
<path d="M48.7572 50.4635C47.8386 50.8308 46.8242 50.6347 46.0459 50.1714C45.255 49.7004 44.647 48.9921 44.1574 48.2301C43.1708 46.6976 42.6866 44.9259 42.3334 43.1421C41.6579 39.541 41.2294 35.8803 41.0734 32.0034C40.7696 35.8877 40.9692 39.6472 41.6598 43.3137C42.0218 45.1397 42.5951 47.0018 43.748 48.5578C44.3154 49.3252 45.0295 50.0325 45.9241 50.4532C46.8075 50.8704 47.8978 50.9379 48.7572 50.4635Z" fill="#7A1B29"/>
<path d="M40.4445 41.8548C40.7551 44.0109 41.2589 46.1763 42.3345 48.2551C42.8799 49.2823 43.618 50.3007 44.7049 51.0682C44.9759 51.2589 45.2562 51.438 45.5731 51.5715C45.8734 51.7319 46.2041 51.8239 46.5348 51.9158C46.8625 52.0205 47.2059 52.0249 47.5419 52.0733C47.8691 52.0861 48.1846 52.068 48.506 52.0606C48.8366 52.0249 49.1878 51.9476 49.5278 51.8664C49.8834 51.7075 50.2439 51.6243 50.5745 51.348C50.7374 51.2213 50.9135 51.1093 51.0524 50.9567C51.1879 50.7992 51.319 50.6348 51.4433 50.468C51.5758 50.3032 51.6316 50.1183 51.7225 49.9402C51.8067 49.7592 51.8854 49.5773 51.9162 49.4036C52.2621 47.9705 52.0204 46.7736 51.7465 45.6657C51.1327 43.4645 50.2028 41.5114 49.1781 39.6219C48.1582 37.7333 47.0268 35.9289 45.8598 34.1587L44.0597 31.5448L43.1622 30.248L42.7131 29.6078L42.4994 29.2888L42.4104 29.1494C42.3673 29.0859 42.316 29.0233 42.2592 28.966C42.1452 28.8506 42.0137 28.7699 41.9105 28.7136C41.8024 28.7616 41.6414 28.8398 41.5084 28.9768C41.3841 29.0903 41.2721 29.3211 41.2658 29.3471L41.0936 29.7506C40.9997 30.0167 40.9058 30.2857 40.8363 30.5518C40.6906 31.0879 40.5942 31.6225 40.5013 32.1586C40.3296 33.2298 40.2234 34.304 40.1589 35.3811C40.0674 37.5342 40.1344 39.6972 40.4445 41.8548ZM41.8219 32.3019C41.8527 31.7923 41.8909 31.2811 41.9647 30.7861C41.975 30.6917 41.9951 30.6037 42.0093 30.5122L42.1751 30.8438L42.9283 32.2418L44.4231 35.0215C45.4239 36.8641 46.3919 38.716 47.2841 40.583C48.1455 42.454 48.9951 44.3528 49.4348 46.2384C49.6535 47.1605 49.7562 48.1197 49.5782 48.7433C49.4745 49.0392 49.385 49.2315 49.1746 49.34C49.1125 49.4315 48.9242 49.4403 48.8122 49.5161C48.639 49.5421 48.4722 49.5846 48.282 49.6047C47.4191 49.6893 46.7588 49.5186 46.0945 49.0754C45.4401 48.6406 44.883 47.9196 44.4207 47.1071C43.4781 45.47 42.9553 43.4817 42.538 41.5016C42.1487 39.5035 41.9227 37.4477 41.8332 35.3889C41.7823 34.3592 41.7711 33.3257 41.8219 32.3019Z" fill="#EB690C"/>
<path d="M42.3843 29.8279C44.5849 33.2088 46.741 36.3916 48.5548 39.7564C49.444 41.4415 50.3132 43.1603 50.9315 44.9765C51.2279 45.8858 51.4323 46.8371 51.4235 47.8105C51.4157 48.779 51.2039 49.7773 50.6776 50.6456C51.2792 49.8223 51.5791 48.8103 51.65 47.8081C51.7239 46.799 51.5629 45.7938 51.2973 44.8415C50.7387 42.9377 49.8974 41.1861 48.9945 39.4742C47.1524 36.0634 44.8441 32.9711 42.3843 29.8279Z" fill="#FEAA0F"/>
<path d="M49.36 50.1317C48.4414 50.499 47.4269 50.3029 46.6487 49.8392C45.8578 49.3681 45.2498 48.6599 44.7602 47.8978C43.7736 46.3653 43.2893 44.5937 42.9362 42.8098C42.2607 39.2087 41.8322 35.548 41.6762 31.6711C41.3724 35.5554 41.572 39.3149 42.2626 42.9815C42.6246 44.8074 43.1979 46.6696 44.3508 48.2255C44.9182 48.993 45.6323 49.7003 46.5269 50.1209C47.4098 50.5386 48.5001 50.6066 49.36 50.1317Z" fill="#FEAA0F"/>
<path opacity="0.6" d="M44.088 36.0599C49.5101 35.2367 51.0719 38.715 46.3106 40.7273C44.4597 41.5094 40.4566 40.4896 37.9449 38.6088C30.557 40.2137 23.0086 39.0804 16.4615 35.2993C15.9592 36.1891 15.6657 37.1492 15.1634 38.039C15.0171 36.7799 15.0694 35.4886 15.3918 34.2628C13.6534 34.1616 12.1121 32.9779 11.6548 31.2977C12.4237 30.3962 13.7361 29.571 14.8449 29.1533C23.4704 34.1601 35.1529 33.5335 44.088 36.0599Z" fill="#603813"/>
<path d="M26.432 37.2621C21.2584 36.5133 17.7606 34.0568 13.8049 31.5813C13.3726 31.9755 12.5811 32.1678 11.9961 32.1692C10.4387 31.5588 8.72673 29.9158 8.97032 28.261C9.18211 26.8195 10.1501 25.5757 11.5202 25.0797C11.1744 24.5832 11.0394 24.1914 10.8559 23.6147C10.5145 22.5415 11.1122 21.3485 11.9995 20.6545C12.8863 19.9604 14.0084 19.6556 15.0968 19.367C16.367 19.03 17.5654 18.8603 18.755 18.3007C22.3027 16.6328 26.4232 16.7942 30.1328 18.0625C35.2453 19.8107 40.1205 22.7998 45.4922 23.3789C47.9746 23.6465 50.8375 24.1435 53.065 25.3296C53.8721 25.7596 54.2815 26.5671 54.4684 27.4319C54.5931 28.0081 54.3079 29.4281 54.552 29.8424C54.9164 30.4607 55.0803 31.2961 54.9296 31.9975C54.779 32.699 54.3564 33.3383 53.7704 33.7521C53.6936 34.8272 53.2778 35.8358 52.4884 36.5695C51.7556 37.2499 49.6445 37.2612 49.6445 37.2612C48.6164 37.2665 47.6845 38.3842 46.6114 38.4018C44.2664 38.44 42.3168 37.2841 40.7241 35.6984C36.0671 36.4311 31.0979 37.9376 26.432 37.2621Z" fill="#EDE607"/>
<path opacity="0.6" d="M53.681 27.697C53.9784 28.6083 53.7774 29.6648 53.1675 30.4039C52.2943 31.4609 51.1057 32.5204 49.7484 32.7126C48.9413 32.8266 48.1396 33.0462 47.3448 32.8657C46.9628 32.7792 46.5123 32.8217 46.1214 32.8457C47.2993 33.1397 48.4893 33.3808 49.7024 33.3426C50.9155 33.305 52.1696 32.8892 52.963 31.9706C53.3543 32.4563 53.4404 33.2174 52.986 33.644C52.4406 34.1561 51.5841 34.1341 50.8362 34.1233C50.7154 34.406 50.439 34.6682 50.1695 34.8154C49.8995 34.9632 49.5992 35.0453 49.2998 35.1153C48.6082 35.2767 47.9034 35.3789 47.1941 35.421C49.0651 35.9791 51.2251 35.713 52.8945 34.7015C52.8109 35.5159 52.3374 36.2212 51.6159 36.6076C50.8944 36.9941 50.0521 37.0987 49.2338 37.0811C48.0325 37.989 46.3998 38.1073 44.9392 37.741C43.4786 37.3746 42.1819 36.5255 41.0325 35.5526C40.399 35.4753 39.7773 35.2919 39.1444 35.2146C38.979 35.1945 38.8113 35.1735 38.6582 35.1084C38.5051 35.0434 38.3657 34.927 38.3124 34.769C39.0627 34.7807 39.9153 34.5087 40.6186 34.2485C39.7592 34.3923 38.9199 34.0729 38.1558 33.6542C38.4537 33.6244 38.7296 33.4238 38.9967 33.2888C38.4679 33.235 38.0066 33.0614 37.4984 32.9054C36.9902 32.7498 36.5021 32.4842 36.165 32.0728C37.561 32.5874 39.2207 32.4461 40.6969 32.2612C42.1731 32.0763 43.6263 31.7246 45.1065 31.5764C46.2466 31.4619 47.3966 31.4688 48.5363 31.3499C49.676 31.231 50.825 30.9767 51.8072 30.3868C52.7889 29.7974 53.4986 28.8284 53.681 27.697Z" fill="#B6B900"/>
<path opacity="0.6" d="M37.5993 35.7268C35.1516 37.1756 32.1112 37.0225 29.2761 36.7916C26.8143 36.5911 24.3353 36.3617 21.9665 35.6627C19.9297 35.0616 17.9976 34.1107 16.2724 32.8722C15.8337 32.5577 15.4086 32.2241 14.9982 31.8734C14.446 31.4009 14.4513 31.2977 13.7939 31.5701C12.8548 31.9595 11.7577 31.9355 10.8665 31.4253C9.82411 30.8286 9.16866 29.614 9.24203 28.4152C9.88525 29.3465 11.2211 29.7402 12.3319 29.5226C11.766 29.0124 11.4021 28.3467 11.1071 27.6443C13.1385 30.9225 26.446 37.7572 37.5993 35.7268Z" fill="#603813"/>
<path opacity="0.6" d="M11.6625 23.8469C13.0634 26.2955 15.1921 28.2839 17.6055 29.744C20.0189 31.2045 22.7135 32.1559 25.4605 32.7986C28.3817 33.4819 31.4148 33.8248 34.3883 33.4286C30.3089 32.5149 26.3948 31.5014 22.4749 30.0497C18.5544 28.5979 14.6995 26.7191 11.6625 23.8469Z" fill="#B6B900"/>
<path opacity="0.6" d="M32.883 29.9345C28.2851 29.1846 23.6358 28.2234 19.5481 25.9891C17.9863 25.1355 16.4548 23.9885 15.0001 22.9623C15.0079 22.4766 15.0285 21.9532 15.3244 21.5683C15.6257 21.1765 16.1374 21.0238 16.6153 20.8991C17.8268 20.5826 19.056 19.9971 20.3063 20.0705C20.5499 20.0847 20.8287 20.2202 21.0258 20.364C23.1819 19.7389 25.5327 19.7071 27.7583 19.9996C26.4616 19.9345 25.1693 20.3518 24.0188 20.9534C26.5379 20.6824 29.0349 21.1941 31.3173 22.2946C29.0173 21.3971 26.4767 21.1882 24.0501 21.6441C25.969 21.3971 29.7344 22.5876 29.7344 22.5876C29.7344 22.5876 34.8439 25.1874 37.5953 25.4271C40.2347 25.6569 43.0267 26.1432 45.5634 26.9087C43.9111 26.2503 42.1683 25.6643 40.4206 25.3351C43.779 25.4241 47.1726 26.1612 50.2542 27.4995C50.2948 27.1229 49.9167 26.8475 49.5807 26.6729C48.1128 25.9093 46.4815 25.3781 44.8439 25.1429C46.75 25.3199 48.6934 25.5063 50.4484 26.2698C50.892 26.463 51.3313 26.7008 51.6429 27.0706C51.9544 27.4408 52.1159 27.9686 51.9447 28.4211C50.3765 29.5735 48.26 29.6522 46.3147 29.7055C41.9579 29.8254 37.2397 29.8151 32.883 29.9345Z" fill="#B6B900"/>
<path d="M50.9937 29.1732C50.5398 29.3738 50.0678 29.5117 49.5943 29.6316C48.6469 29.8742 47.6818 30.0048 46.7177 30.0591C45.7546 30.1319 44.792 30.1696 43.8308 30.1921C41.908 30.2361 39.9891 30.217 38.0737 30.2068C36.3416 30.2024 34.6071 30.1901 32.8932 30.2894C33.7873 30.7238 34.6292 31.2858 35.401 31.9858C33.5937 31.3039 32.0225 30.6675 30.3536 29.9324C26.6817 29.159 23.0532 28.0996 19.6611 26.4316C18.6725 25.9327 17.6962 25.3995 16.7815 24.7637C16.3232 24.4491 15.8703 24.1219 15.4437 23.7619L15.1229 23.4924C15.0236 23.4019 14.9032 23.332 14.7746 23.151C14.5496 22.8144 14.5555 22.4315 14.6288 22.115C14.7726 21.4429 15.3572 20.9826 15.8712 20.7483C16.3902 20.4935 16.9444 20.3301 17.4795 20.1888C18.5331 19.9168 19.5882 19.7319 20.655 19.5592C21.1877 19.0843 21.7888 18.8466 22.409 18.6573C23.0684 18.4704 23.7468 18.401 24.416 18.398C25.0871 18.3843 25.7489 18.4812 26.4009 18.5907C26.7247 18.6597 27.0451 18.7424 27.365 18.8202L28.3071 19.1161L27.3439 18.9131L26.373 18.7771C25.7239 18.7223 25.0734 18.6807 24.4316 18.7473C23.7913 18.8025 23.1579 18.9219 22.5675 19.1435C21.9889 19.3597 21.4117 19.6942 21.0116 20.063L20.9905 20.0826C20.9465 20.1232 20.8903 20.1511 20.8267 20.1604C19.755 20.315 18.6774 20.5165 17.6341 20.7821C17.1107 20.9205 16.6079 21.0702 16.1407 21.2991C15.6785 21.5202 15.3185 21.8259 15.2246 22.2583C15.1732 22.4667 15.1908 22.6829 15.2804 22.8061C15.3058 22.855 15.4188 22.9406 15.5244 23.0306L15.8331 23.2899C16.2435 23.6367 16.6817 23.9532 17.1259 24.2579C18.0122 24.8742 18.9655 25.3951 19.9325 25.8833C23.8236 27.7973 28.0777 28.9135 32.3503 29.7054C34.2701 29.5675 36.1739 29.59 38.0761 29.5944C39.993 29.6046 41.907 29.6237 43.8156 29.5797C45.7252 29.5533 47.626 29.3933 49.4901 29.1365C49.9533 29.0593 50.4151 28.9644 50.8524 28.8122C51.2872 28.6631 51.7206 28.4718 52.0331 28.1548C52.1818 27.9964 52.308 27.8036 52.3638 27.6002C52.4054 27.3942 52.3648 27.1663 52.2601 26.9643C52.0488 26.5583 51.659 26.233 51.2094 26.0726C51.6741 26.189 52.108 26.4727 52.3848 26.8934C52.5228 27.1022 52.6035 27.3668 52.5702 27.6354C52.5223 27.9015 52.3941 28.1299 52.2332 28.3344C51.8991 28.733 51.4432 28.9746 50.9937 29.1732Z" fill="#7A1B29"/>
<path d="M31.3182 33.4942C27.5386 33.7853 23.8315 33.0638 20.5068 31.5514C17.1855 30.0316 14.2091 27.7038 11.9537 24.6541C14.5442 27.3702 17.5265 29.4143 20.7621 30.9038C24.0022 32.38 27.5205 33.3211 31.3182 33.4942Z" fill="#7A1B29"/>
<path d="M38.7617 33.3794C39.9449 33.4591 41.0196 33.059 42.1289 32.7694C42.6836 32.6202 43.2618 32.495 43.8551 32.4539C44.4455 32.4133 45.029 32.4436 45.5994 32.4965C46.7386 32.5982 47.8416 32.8012 48.9387 32.7073C50.0212 32.6139 51.1843 32.271 51.918 31.3093C51.3893 32.406 50.1703 33.0115 49.0219 33.2194C47.8367 33.4429 46.6676 33.2869 45.5593 33.1901C44.4377 33.0678 43.3836 33.0653 42.2595 33.2766C41.1502 33.4498 39.9264 33.6992 38.7617 33.3794Z" fill="#7A1B29"/>
<path d="M51.0224 34.0681C49.8426 35.3457 48.0558 35.8745 46.3977 35.8486C44.7111 35.8246 43.1239 35.3051 41.5444 34.6551C43.2339 34.8527 44.8202 35.1305 46.3908 35.154C47.9472 35.1652 49.5526 34.9676 51.0224 34.0681Z" fill="#7A1B29"/>
<path d="M50.8846 36.6202C51.9142 36.3379 52.8548 35.7563 53.6183 34.7834C53.2892 35.9657 52.2918 36.9665 51.088 37.2844C49.9082 37.6131 48.6414 37.4982 47.5222 36.9836C48.7284 37.0369 49.8432 36.9019 50.8846 36.6202Z" fill="#7A1B29"/>
<path d="M11.0292 31.1308C11.4533 31.4683 11.9327 31.7251 12.4717 31.8005C12.9833 31.8709 13.5591 31.7946 14.0487 31.4483C13.4368 30.8349 12.8498 30.1941 12.3225 29.4932C16.1706 33.2238 20.9646 35.2905 25.8975 36.1548C30.6598 36.9657 35.6275 36.752 40.67 35.6182C40.6167 35.5394 40.5609 35.4631 40.51 35.3829C40.6338 35.4489 40.7507 35.5096 40.8725 35.5746C41.0143 35.5424 41.1552 35.5169 41.2971 35.4827C41.1806 35.5296 41.0618 35.5668 40.9449 35.6128C42.1858 36.2712 43.3333 36.8528 44.4965 37.2338C45.7844 37.631 47.1721 37.8946 48.7168 37.4304C47.5786 38.6352 45.667 38.9062 44.136 38.3945C42.6945 37.9259 41.5661 36.9139 40.7223 35.695C35.8921 37.5483 30.7312 38.2018 25.743 37.3605C21.4293 36.637 17.2393 34.6365 14.0687 31.4678C13.7283 31.9795 13.0939 32.2901 12.4585 32.3189C11.7801 32.3591 11.1134 32.0866 10.6066 31.6816C9.55889 30.8447 9.15241 29.5837 8.90393 28.3594C9.58579 29.4232 10.1708 30.4543 11.0292 31.1308Z" fill="#7A1B29"/>
<path d="M52.6411 33.7407C53.4819 33.4433 54.0376 32.8789 54.3707 32.2542C54.6852 31.6218 54.8256 30.8313 54.561 29.9685C55.2399 30.5853 55.4385 31.7001 54.9929 32.5624C54.56 33.4316 53.5406 33.9295 52.6411 33.7407Z" fill="#7A1B29"/>
<path d="M19.2603 26.7829C17.495 26.1642 15.8638 25.2167 14.4898 24.0134C13.8749 23.4744 13.2865 22.84 13.1447 22.0647C12.9827 21.1789 13.5051 20.2216 14.369 19.821C13.3726 20.0368 12.5039 20.5719 11.8685 21.3183C11.6132 21.6186 11.395 21.9693 11.3803 22.3523C11.3642 22.7681 11.5887 23.1584 11.8499 23.4959C12.6589 24.5422 13.8607 25.2808 15.1389 25.7773C16.4165 26.2742 17.9069 26.5124 19.2603 26.7829Z" fill="#B6B900"/>
<path d="M17.8091 30.691C15.4642 29.3454 13.3623 27.5781 11.6347 25.4988C10.9529 25.5893 10.3185 25.9532 9.97655 26.5499C9.63464 27.1467 9.58816 27.9039 9.85474 28.5378C9.87186 27.8912 10.4148 27.2817 11.0282 27.0767C12.6961 29.0279 15.2969 30.1637 17.8091 30.691Z" fill="#B6B900"/>
<path d="M46.0034 23.7347C47.0683 23.6916 48.1175 23.968 49.1417 24.2624C49.7683 24.4425 50.3929 24.6303 51.0151 24.8259C51.5952 25.0084 52.1807 25.2001 52.6938 25.5264C53.2074 25.8526 53.6491 26.3315 53.8086 26.9185C53.9162 27.3156 54.1691 27.7079 54.0668 28.1066C53.9905 27.8801 53.8242 27.6463 53.6291 27.5084C53.3106 26.7575 52.7339 26.0644 52.0315 25.6501C51.5913 25.3904 51.0934 25.249 50.6018 25.1096C49.127 24.6924 47.4782 24.1519 46.0034 23.7347Z" fill="#CC5F29"/>
<path d="M16.5931 19.4193C17.5548 19.0881 18.6025 18.8499 19.5065 18.3833C21.1006 17.56 22.9377 17.292 24.7304 17.3619C26.5236 17.4319 28.2874 17.8247 30.0273 18.2629C27.4383 17.9381 24.7661 17.6843 22.2466 18.3627C21.3104 18.6146 20.4153 19.0006 19.4864 19.2779C18.5575 19.5547 17.5421 19.6169 16.5931 19.4193Z" fill="#CC5F29"/>
<path d="M44.0835 13.6321C36.1208 15.3206 33.3147 21.2318 31.0959 29.3652C31.6335 29.53 32.1559 29.7359 32.6675 29.9722C33.0158 29.7658 33.4399 29.665 33.931 29.755C38.3107 30.5562 42.7521 29.6288 47.1524 29.4938C50.6399 24.7516 54.8651 22.4473 61.9189 22.396C56.3432 17.6665 51.265 14.0444 44.0835 13.6321Z" fill="#5DB02A"/>
<path d="M32.6763 29.9669C33.0226 29.7644 33.4443 29.6655 33.9305 29.7546C37.4508 30.3988 41.0107 29.9277 44.5575 29.6465C47.5622 24.6812 51.0943 20.9496 56.7526 20.4991C55.6633 19.6544 55.4662 18.9755 56.3036 18.9084C52.3665 16.0842 50.6497 15.414 46.7703 14.5894C46.0293 14.8163 44.6318 14.852 43.5826 14.695C37.1304 16.4422 34.7136 22.6577 32.0903 29.2566C32.2371 29.4073 32.352 29.6215 32.4513 29.8588C32.5271 29.892 32.601 29.9316 32.6763 29.9669Z" fill="#A4CA1A"/>
<path d="M39.8373 24.7985C42.2189 25.9079 45.4217 25.3332 46.8901 23.8481C48.3585 22.3636 47.3895 20.2334 44.756 19.1842C42.1225 18.135 38.951 18.4711 37.755 19.8959C36.5581 21.3208 37.4557 23.6892 39.8373 24.7985Z" fill="#5DB02A"/>
<path d="M57.9168 19.0931C56.5438 18.0605 55.1234 17.1116 53.6423 16.2986C50.685 14.6649 47.4459 13.6769 44.1017 13.4763L44.088 13.4753L44.0748 13.4783C42.3168 13.8706 40.5574 14.5143 38.93 15.583C37.3017 16.6435 35.846 18.1686 34.7127 19.9828C33.5828 21.8053 32.7483 23.8499 32.0591 25.9273C31.6927 27.0587 31.3738 28.2052 31.0715 29.3562C31.0896 29.3615 31.1082 29.3664 31.1268 29.3723C31.4501 28.2297 31.7906 27.0929 32.176 25.9752C32.876 23.9121 33.7178 21.89 34.8438 20.1027C35.9737 18.3232 37.4103 16.8421 39.0156 15.8159C40.6161 14.7794 42.3476 14.1777 44.0811 13.7864C47.3955 13.9532 50.6121 14.8968 53.5645 16.4884C55.0461 17.2794 56.4661 18.2161 57.8489 19.2227C59.237 20.2201 60.5856 21.2947 61.92 22.3938C60.6091 21.2536 59.2845 20.1364 57.9168 19.0931Z" fill="#FFE699"/>
<path d="M55.3723 23.2065C53.204 23.8531 51.0738 25.0491 49.2581 26.8202C48.4432 27.6312 47.7012 28.54 47.0066 29.5002C47.0951 29.4973 47.1842 29.4899 47.2727 29.4875C47.2927 29.4821 47.3133 29.4782 47.3333 29.4723C47.9785 28.6095 48.6574 27.7882 49.4024 27.0599C51.176 25.3019 53.2641 24.1295 55.4026 23.4408C57.5475 22.7491 59.7413 22.4914 61.9184 22.395C59.7496 22.3754 57.547 22.5491 55.3723 23.2065Z" fill="#89DEED"/>
<path opacity="0.5" d="M37.4894 17.3088C34.1368 21.3584 32.2688 24.5759 31.158 29.3827C31.6745 29.5431 32.1759 29.7437 32.6679 29.9711C33.0157 29.7652 33.4398 29.6644 33.9304 29.7544C38.1208 30.5214 42.367 29.7104 46.5805 29.5201C47.7559 27.7901 48.9645 26.3236 50.0631 25.5307C43.5767 30.2563 32.8719 25.3478 37.4894 17.3088Z" fill="#262159"/>
<path opacity="0.3" d="M60.5955 21.7004C56.5489 17.7609 51.3444 14.8148 44.0837 13.6321L42.4451 14.1618C46.4687 17.4464 50.979 20.2398 56.0489 22.4683L60.5955 21.7004Z" fill="#FFE9A6"/>
<path d="M33.9303 29.7544C34.7653 29.907 35.6027 29.9818 36.4416 30.0263C35.3748 21.1788 33.6021 14.7021 28.3478 6.94394C21.9524 5.47359 14.7337 5.13609 8.44434 7.14693C14.5889 13.3291 19.6632 19.9115 23.3948 27.4559C24.3775 27.7557 25.3528 28.0233 26.2871 28.2493C28.4456 28.7722 30.6756 29.0471 32.6718 29.9691C33.0186 29.7651 33.4417 29.6649 33.9303 29.7544Z" fill="#5DB02A"/>
<path d="M33.9302 29.7541C34.2036 29.804 34.4785 29.8285 34.7524 29.8657C34.86 29.2381 35.1007 28.7759 35.4216 28.6531C34.2652 21.4021 32.7005 15.3716 28.4993 9.24413C27.5058 9.06755 26.1803 8.36319 25.6486 7.63095C21.4327 7.02149 18.5209 6.74121 13.8897 7.33747C14.5574 8.04819 14.0937 8.77505 12.9408 9.03331C18.2739 14.6843 22.3919 21.0949 25.5987 28.0735C25.8286 28.1322 26.0614 28.1943 26.2869 28.2491C28.4455 28.772 30.675 29.0478 32.6706 29.9694C33.0179 29.7649 33.441 29.6646 33.9302 29.7541Z" fill="#A4CA1A"/>
<path d="M29.1631 21.9672C26.8163 22.5537 23.7807 21.3954 22.3397 19.1004C20.8987 16.8054 22.1357 14.5123 25.2138 14.3611C28.292 14.21 31.1838 15.7014 31.9238 17.5425C32.6644 19.3836 31.51 21.3808 29.1631 21.9672Z" fill="#5DB02A"/>
<path d="M33.9303 29.7544C34.754 29.905 35.5806 29.9794 36.4083 30.0244C36.6083 21.4415 35.7606 14.889 31.8158 6.6451C25.7094 4.24148 18.6208 2.83668 12.1025 3.89126C17.5926 11.3682 21.833 19.1049 24.3638 27.7401C25.0153 27.9245 25.6614 28.0977 26.2865 28.2488C28.4451 28.7717 30.6751 29.0466 32.6712 29.9691C33.0185 29.7652 33.4416 29.6649 33.9303 29.7544Z" fill="#5DB02A"/>
<path d="M33.9306 29.7542C34.2524 29.8129 34.5752 29.8447 34.8981 29.8858C35.0874 29.4886 35.3295 29.222 35.5892 29.1648C35.5217 21.8224 34.8697 15.6265 31.6243 8.94289C30.6685 8.62055 29.4618 7.72738 29.0446 6.92422C24.9662 5.69599 22.1277 4.98626 17.4593 4.88843C18.014 5.69012 17.4481 6.34068 16.2693 6.42432C20.9269 13.124 24.1341 20.4533 26.2731 28.2452C26.2775 28.2462 26.2824 28.2477 26.2868 28.2486C28.4454 28.7715 30.6749 29.0469 32.671 29.9689C33.0183 29.765 33.4414 29.6647 33.9306 29.7542Z" fill="#A4CA1A"/>
<path d="M30.3923 21.6234C27.9843 21.8548 25.1541 20.2587 24.0702 17.7754C22.9863 15.292 24.5496 13.2078 27.616 13.515C30.6824 13.8222 33.3208 15.7269 33.7796 17.6575C34.2379 19.5881 32.8003 21.3916 30.3923 21.6234Z" fill="#5DB02A"/>
<path d="M33.9303 29.7542C35.9055 30.1157 37.8933 30.1177 39.8836 30.0066C40.518 21.1606 40.158 13.6499 36.2978 4.97895C30.1336 2.31952 22.8543 0.770416 16.1893 1.89396C21.4207 9.5788 24.2356 18.8284 25.7001 28.1C25.8953 28.1494 26.0939 28.2027 26.2861 28.2492C28.4447 28.7721 30.6751 29.0469 32.6713 29.969C33.0191 29.7645 33.4417 29.6647 33.9303 29.7542Z" fill="#5DB02A"/>
<path d="M33.9302 29.7543C35.4147 30.0258 36.9071 30.0894 38.4019 30.0615C38.5726 29.8702 38.7536 29.7338 38.9355 29.6863C39.2505 21.7828 39.0099 14.9051 35.9934 7.48829C35.0293 7.13171 33.8333 6.1505 33.444 5.27054C29.7662 4.00466 25.5043 3.11051 21.6113 3.01855C22.1151 3.91074 21.4596 4.64004 20.2461 4.72711C23.9088 12.4799 26.1431 20.2108 27.4731 28.5139C29.2531 28.888 31.0418 29.2119 32.6741 29.9671C33.0214 29.7641 33.443 29.6653 33.9302 29.7543Z" fill="#A4CA1A"/>
<path d="M33.2972 21.7465C30.4265 22.1794 27.5416 20.4508 26.7751 17.6211C26.0086 14.7915 27.9886 12.3849 31.304 12.6442C34.6194 12.9034 37.3077 14.9607 37.6481 17.0914C37.989 19.2216 36.1685 21.3136 33.2972 21.7465Z" fill="#5DB02A"/>
<g opacity="0.4">
<path d="M39.4605 19.6599C38.1281 22.7792 28.4925 20.4137 22.9423 15.6045L23.6731 18.2258C22.7579 18.4263 21.5204 17.7953 20.1738 16.8826L21.449 19.4085C20.2961 19.6091 19.016 19.0094 17.689 17.9362L19.2782 20.2083C20.6267 22.1922 21.7478 24.4158 23.3869 27.4529C24.3721 27.7537 25.3498 28.0217 26.2865 28.2487C26.3682 28.2687 26.4509 28.2854 26.5326 28.3045L38.9938 28.2198C39.6757 25.5271 39.8312 22.674 39.4605 19.6599Z" fill="#19155C"/>
</g>
<path d="M36.1025 5.12287C29.8997 2.34213 23.1888 1.44603 16.7424 1.99875C23.4284 1.96256 29.9325 2.8792 35.6926 5.78321C36.2316 6.40197 37.4833 10.0715 38.5178 12.7099C37.7186 9.68065 36.8161 6.32419 36.1025 5.12287Z" fill="#C2DE87"/>
<path d="M12.5936 4.05788C13.8669 3.80353 15.5676 3.75511 17.4214 3.77956L18.0945 4.84637C16.2274 4.42865 14.3907 4.1518 12.5936 4.05788Z" fill="#C2DE87"/>
<path d="M13.846 6.17847C11.9159 6.57809 10.3164 6.8882 9.12097 7.3299C10.8227 7.22669 12.63 7.21446 14.5572 7.37294L13.846 6.17847Z" fill="#C2DE87"/>
<path d="M20.3172 22.1302C21.4158 23.8706 22.4439 25.6554 23.4291 27.4672C23.4335 27.4687 23.4379 27.4701 23.4423 27.4716C22.5677 25.5997 21.5899 23.7757 20.5285 22.0006C19.4328 20.1683 18.2349 18.3971 16.9763 16.6719C15.6968 14.9624 14.3575 13.2964 12.9317 11.7072C11.5068 10.1175 10.0145 8.58944 8.44336 7.14746C9.92104 8.68433 11.364 10.2515 12.7453 11.8701C14.1261 13.4891 15.4635 15.1449 16.7161 16.8637C17.9913 18.5664 19.1819 20.3312 20.3172 22.1302Z" fill="#89DEED"/>
<path d="M12.1031 3.8916C13.4982 5.60652 14.7866 7.40899 15.9903 9.26624C17.1951 11.1235 18.2947 13.0473 19.3311 15.0028C20.3451 16.9706 21.2945 18.9717 22.1486 21.0134C23.0021 23.0545 23.7798 25.127 24.4592 27.2303C23.6536 25.172 22.8192 23.1269 21.9201 21.1117C21.0216 19.0964 20.0776 17.1012 19.0455 15.152C18.0364 13.1911 16.9368 11.2771 15.7815 9.39831C14.6246 7.51953 13.392 5.68722 12.1031 3.8916Z" fill="#89DEED"/>
<path d="M16.1897 1.89404C17.483 3.71901 18.633 5.64719 19.6557 7.64043C20.6795 9.63366 21.5546 11.7022 22.3225 13.8075C23.066 15.9215 23.7019 18.0747 24.1979 20.2587C24.6938 22.4427 25.0715 24.6526 25.3126 26.8762C24.9389 24.6717 24.5011 22.4804 23.9567 20.3164C23.4128 18.153 22.7828 16.011 22.0192 13.9161C21.2807 11.8123 20.4061 9.7579 19.4346 7.75048C18.4622 5.74307 17.3715 3.79238 16.1897 1.89404Z" fill="#89DEED"/>
<path d="M33.9307 29.7544C37.6252 30.4304 41.3632 29.8781 45.0835 29.6062C46.6698 23.1828 49.3806 17.4717 54.3899 11.4425C48.7482 6.89015 42.7817 3.48771 36.3617 0.1875C32.2696 9.51583 28.629 18.7062 28.651 28.76C30.0338 29.0485 31.3945 29.3861 32.6653 29.973C33.0136 29.7661 33.4391 29.6644 33.9307 29.7544Z" fill="#5DB02A"/>
<path d="M33.9308 29.7544C36.8304 30.2851 39.7574 30.0567 42.6814 29.8023C43.9708 23.8941 46.2433 18.2284 49.9427 13.3575C49.0119 12.7305 48.7609 11.422 49.525 10.499C45.8119 7.9291 43.5492 6.43772 39.3827 4.21753C38.7659 5.32934 37.412 5.75831 36.3466 5.23738C33.0415 13.0406 30.1967 20.5919 29.822 29.0217C30.8032 29.2545 31.7615 29.5475 32.6732 29.9686C33.02 29.7647 33.4426 29.6649 33.9308 29.7544Z" fill="#A4CA1A"/>
<path d="M36.2102 26.8184C38.9821 28.2902 41.7829 27.1863 42.5934 24.6339C43.4039 22.0816 42.0358 18.8768 39.1518 17.291C36.2684 15.7052 33.2328 16.6444 32.5182 19.2916C31.8035 21.9398 33.4382 25.3466 36.2102 26.8184Z" fill="#5DB02A"/>
<path d="M45.7202 5.26654C42.6959 3.40244 39.5747 1.70171 36.4237 0.0665216L36.2951 0L36.2364 0.133045C35.0468 2.83162 33.8582 5.53459 32.8188 8.29919C31.7769 11.0613 30.8422 13.8695 30.1153 16.7339C29.3889 19.5973 28.8763 22.5199 28.666 25.4679C28.5863 26.5597 28.5721 27.6534 28.5892 28.7471C28.6313 28.7559 28.6733 28.7652 28.7154 28.774C28.7428 24.7322 29.3214 20.6983 30.3535 16.795C31.0999 13.9477 32.0528 11.1577 33.1132 8.4112C34.16 5.71068 35.2718 3.03412 36.4296 0.376147C39.5454 1.96486 42.6299 3.61717 45.621 5.42844C48.6468 7.27347 51.6046 9.24078 54.3897 11.4429C51.6515 9.186 48.7514 7.1189 45.7202 5.26654Z" fill="#FFE699"/>
<path d="M49.3823 18.3842C47.9374 20.8539 46.7669 23.4849 45.8703 26.2036C45.5098 27.3291 45.2031 28.4702 44.9272 29.6182C45.0324 29.6104 45.1376 29.6016 45.2427 29.5943C45.5181 28.4873 45.8229 27.3883 46.1814 26.3053C47.0477 23.5974 48.2103 20.9894 49.6009 18.5094C50.9935 16.0295 52.6184 13.6792 54.3896 11.4429C52.5255 13.6019 50.8223 15.9107 49.3823 18.3842Z" fill="#89DEED"/>
<path opacity="0.5" d="M33.9305 29.7542C34.0948 29.784 34.2602 29.7958 34.4245 29.8212C32.0674 26.7675 30.3251 22.1985 30.4831 17.4514C29.5175 21.1087 28.8968 24.8682 28.9046 28.8141C30.2013 29.0895 31.4736 29.4211 32.6666 29.9724C33.0148 29.7654 33.4394 29.6647 33.9305 29.7542Z" fill="#262159"/>
<path opacity="0.3" d="M53.7945 11.5075C48.3803 7.27306 42.6138 3.71165 36.5089 0.79541L35.0557 4.20078C32.2598 11.9962 42.5952 22.2128 47.1447 22.272C48.8239 18.3173 50.8866 14.592 53.7945 11.5075Z" fill="#FFE9A6"/>
<path d="M33.9301 29.7541C34.6609 29.8876 35.3941 29.96 36.1278 30.0089C35.648 20.8346 32.2519 12.333 28.4709 3.71289C22.051 7.0131 16.0845 10.4155 10.4427 14.9679C13.18 18.2628 15.2172 21.4637 16.7727 24.735C19.6014 26.3228 23.1647 27.4928 26.2869 28.249C28.4454 28.7719 30.6749 29.0473 32.6711 29.9693C33.0179 29.7648 33.441 29.6646 33.9301 29.7541Z" fill="#5DB02A"/>
<path d="M33.93 29.7541C34.2181 29.8069 34.5067 29.8333 34.7953 29.8715C34.0078 22.5012 31.4369 15.73 28.4859 8.76228C27.4206 9.28272 26.0667 8.85424 25.4494 7.74243C21.2829 9.96311 19.0202 11.454 15.3076 14.0239C16.0717 14.9469 15.8207 16.2559 14.8899 16.8825C17.0866 19.7747 18.7692 22.9522 20.0547 26.2895C22.1081 27.1118 24.2887 27.7653 26.2863 28.249C28.4449 28.7719 30.6748 29.0468 32.671 29.9688C33.0183 29.7649 33.4414 29.6646 33.93 29.7541Z" fill="#A4CA1A"/>
<path d="M26.2864 28.2491C27.6017 28.5675 28.9449 28.7906 30.246 29.1232C31.9829 27.4127 32.8736 24.8887 32.3145 22.8177C31.5999 20.1705 28.5643 19.2314 25.6808 20.8171C23.2122 22.1745 21.8749 24.7151 22.0441 27.0204C23.4778 27.5071 24.9246 27.9194 26.2864 28.2491Z" fill="#5DB02A"/>
<path d="M34.4791 20.3207C35.3155 23.4844 35.8477 26.7347 36.0409 30.0046C36.0976 30.0085 36.1544 30.0105 36.2106 30.0139C36.1994 29.6734 36.1911 29.3335 36.1661 28.9935C35.9558 26.0455 35.4432 23.1229 34.7168 20.2595C33.9899 17.3951 33.0552 14.587 32.0133 11.8248C30.9739 9.06022 29.7853 6.35725 28.5957 3.65868L28.537 3.52563L28.4084 3.59216C25.2574 5.22734 22.1367 6.92856 19.1119 8.79217C16.0812 10.6445 13.1811 12.7116 10.4424 14.9685C13.227 12.7664 16.1853 10.7996 19.2111 8.95408C22.2022 7.14232 25.2867 5.49001 28.4025 3.90129C29.5603 6.55975 30.6721 9.23631 31.7194 11.9368C32.7798 14.6833 33.7327 17.4729 34.4791 20.3207Z" fill="#FFE699"/>
<path d="M16.531 24.6023C16.6749 24.6855 16.826 24.7647 16.9737 24.8459C16.5032 23.8476 16.0072 22.862 15.45 21.9096C14.01 19.436 12.3069 17.1273 10.4427 14.9683C12.2134 17.2046 13.8388 19.5549 15.2314 22.0348C15.701 22.8722 16.1241 23.7331 16.531 24.6023Z" fill="#89DEED"/>
<path opacity="0.5" d="M32.6761 29.9664C33.0224 29.7639 33.4441 29.6651 33.9303 29.7541C34.571 29.8715 35.2138 29.9434 35.857 29.9943C35.6662 26.8961 35.1213 23.9026 34.349 20.9766C34.4551 24.1594 33.6979 27.2537 32.4824 29.8735C32.548 29.9023 32.6116 29.9361 32.6761 29.9664Z" fill="#262159"/>
<path opacity="0.3" d="M18.6061 25.6697C23.4804 24.4688 32.3983 15.0334 29.7775 7.72617L28.3243 4.3208C22.2199 7.23704 16.453 10.7984 11.0387 15.0329C13.7642 17.9242 15.7427 21.3819 17.3637 25.0602C17.7668 25.2705 18.1806 25.4745 18.6061 25.6697Z" fill="#FFE9A6"/>
<path d="M16.2692 24.4006C17.5287 25.0756 18.8117 25.6929 20.1431 26.1811C21.4623 26.6971 22.8197 27.1002 24.1995 27.3986C26.9485 28.0134 29.8452 28.345 32.5398 29.5586L32.2532 29.5405L32.5667 29.4867L32.8255 29.4691C32.9977 29.4564 33.162 29.4524 33.3254 29.4495L34.3046 29.4387C34.9537 29.4378 35.6008 29.4451 36.2475 29.4593L40.1219 29.5444C42.7041 29.5953 45.2823 29.6373 47.8699 29.5601C46.5908 29.7714 45.2975 29.8721 44.0057 29.9783C42.7124 30.0663 41.4181 30.1084 40.1239 30.1504C38.8296 30.1979 37.5354 30.2052 36.2436 30.2155L34.309 30.2297L33.3498 30.2492C33.1904 30.2537 33.0319 30.259 32.8817 30.2717L32.6577 30.2889L32.4929 30.3138L32.308 30.3417L32.2057 30.2957C29.6671 29.1526 26.8198 28.7799 24.044 28.0266C22.6534 27.6456 21.2906 27.1579 19.9822 26.5612C18.6855 25.9404 17.4284 25.239 16.2692 24.4006Z" fill="#7A1B29"/>
<defs>
<linearGradient id="paint0_linear_65_4557" x1="30.0269" y1="39.5474" x2="30.0269" y2="71.4518" gradientUnits="userSpaceOnUse">
<stop stop-color="#06A800"/>
<stop offset="1" stop-color="#024200"/>
</linearGradient>
</defs>
</svg>
