<svg width="1920" height="298" viewBox="0 0 1920 298" fill="none" xmlns="http://www.w3.org/2000/svg">
<path d="M-4 93.2685V0.932617H1919.37V195.667H-4V93.2685Z" fill="#5F676E"/>
<path d="M231.669 26.384C231.669 27.5678 231.036 28.1597 229.769 28.1597C229.135 28.1597 227.868 27.5678 227.868 26.384C227.868 25.2002 228.502 24.6084 229.769 24.6084C231.036 24.6084 231.669 25.2002 231.669 26.384Z" fill="url(#paint0_radial_1_3516)"/>
<path d="M486.345 129.374C486.345 130.558 485.711 131.15 484.444 131.15C483.81 131.15 482.543 129.966 482.543 129.374C482.543 128.19 483.177 127.598 484.444 127.598C485.711 127.598 486.345 128.19 486.345 129.374Z" fill="url(#paint1_radial_1_3516)"/>
<path d="M391.95 45.3247C391.95 46.5085 391.317 47.1004 390.05 47.1004C389.416 47.1004 388.149 46.5085 388.149 45.3247C388.149 44.141 388.782 43.549 390.05 43.549C391.317 42.9571 391.95 44.141 391.95 45.3247Z" fill="url(#paint2_radial_1_3516)"/>
<path d="M473.04 32.8948C473.04 34.0786 472.407 34.6706 471.773 34.6706C471.14 34.6706 470.506 34.0786 470.506 32.8948C470.506 31.7111 471.14 31.1191 471.773 31.1191C472.407 31.711 473.04 32.303 473.04 32.8948Z" fill="url(#paint3_radial_1_3516)"/>
<path d="M766.994 17.5051C766.994 18.6889 766.36 19.2808 765.093 19.2808C764.459 19.2808 763.192 18.097 763.192 17.5051C763.192 16.3213 763.826 15.7295 765.093 15.7295C766.36 15.7295 766.994 16.3213 766.994 17.5051Z" fill="url(#paint4_radial_1_3516)"/>
<path d="M775.863 73.7356C775.863 74.9194 775.23 75.5113 773.962 75.5113C773.329 75.5113 772.062 74.9194 772.062 73.7356C772.062 72.5518 772.695 71.96 773.962 71.96C775.23 71.96 775.863 72.5518 775.863 73.7356Z" fill="url(#paint5_radial_1_3516)"/>
<path d="M759.391 149.498C759.391 150.682 758.758 151.274 757.491 151.274C756.857 151.274 755.59 150.682 755.59 149.498C755.59 148.314 756.224 147.722 757.491 147.722C758.758 147.13 759.391 148.314 759.391 149.498Z" fill="url(#paint6_radial_1_3516)"/>
<path d="M958.317 76.1031C958.317 77.2869 957.683 77.8788 956.416 77.8788C955.783 77.8788 954.516 76.695 954.516 76.1031C954.516 74.9193 955.149 74.3274 956.416 74.3274C957.683 73.7355 958.317 74.9193 958.317 76.1031Z" fill="url(#paint7_radial_1_3516)"/>
<path d="M1800.27 74.9195C1800.27 76.1033 1799.63 76.6951 1798.36 76.6951C1797.73 76.6951 1796.46 75.5114 1796.46 74.9195C1796.46 73.7357 1797.1 73.1438 1798.36 73.1438C1799.63 72.5519 1800.27 73.7357 1800.27 74.9195Z" fill="url(#paint8_radial_1_3516)"/>
<path d="M1850.95 80.8382C1850.95 82.022 1850.31 82.6138 1849.68 82.6138C1849.05 82.6138 1848.41 82.022 1848.41 80.8382C1848.41 79.6544 1849.05 79.0625 1849.68 79.0625C1850.31 79.0625 1850.95 80.2463 1850.95 80.8382Z" fill="url(#paint9_radial_1_3516)"/>
<path d="M1728.68 82.0222C1730.08 82.0222 1731.21 80.4321 1731.21 78.4708C1731.21 76.5094 1730.08 74.9194 1728.68 74.9194C1727.28 74.9194 1726.14 76.5094 1726.14 78.4708C1726.14 80.4321 1727.28 82.0222 1728.68 82.0222Z" fill="url(#paint10_radial_1_3516)"/>
<path d="M1888.32 71.3679C1783.16 69.0003 1681.16 37.0378 1579.17 17.5052C1510.75 4.48346 1440.43 -3.80308 1370.74 4.48347C1299.15 12.77 1230.1 32.8945 1159.78 47.1C1016.6 74.9192 867.724 58.938 723.915 41.773C689.071 37.6297 654.861 32.8946 620.651 26.9756C585.174 20.4647 549.697 13.9539 513.586 9.8106C479.376 5.66732 444.532 3.89158 410.322 7.44296C374.212 10.9943 340.635 21.0566 305.792 31.1188C205.695 60.1218 101.798 91.4924 -3.36621 93.86V412.301H1919.37V71.3679C1908.6 71.3679 1898.46 71.3679 1888.32 71.3679Z" fill="#5F676E"/>
<path opacity="0.5" d="M1315.62 198.034C1271.28 204.545 1228.2 216.975 1183.85 222.894C1197.79 222.894 1211.72 222.302 1225.66 221.118C1258.6 219.342 1290.28 214.607 1323.22 210.464C1379.61 203.361 1436.62 211.648 1493.01 208.096C1435.36 196.258 1373.91 189.748 1315.62 198.034Z" fill="#5B646A"/>
<path opacity="0.5" d="M1680.53 228.221C1705.24 235.323 1731.21 236.507 1757.19 237.099C1786.96 237.691 1816.74 236.507 1846.51 237.691C1871.22 238.875 1895.29 240.059 1919.37 243.018V216.975C1839.54 220.526 1760.35 234.14 1680.53 228.221Z" fill="#5B646A"/>
<path opacity="0.5" d="M1310.55 269.062C1339.06 269.653 1367.57 276.164 1395.45 267.286C1420.15 258.999 1442.96 247.161 1467.67 240.059C1452.46 240.65 1436.62 242.426 1421.42 244.202C1384.04 248.937 1347.93 260.183 1310.55 269.062Z" fill="#5B646A"/>
<path opacity="0.5" d="M738.485 231.772C745.454 234.732 751.789 238.875 758.124 242.427C768.261 248.346 779.031 254.856 791.701 255.448C802.471 256.04 812.607 254.264 823.377 253.081C858.854 248.937 893.064 240.059 928.541 234.732C893.698 236.508 858.854 239.467 824.011 240.059C794.235 240.059 766.36 236.508 738.485 231.772Z" fill="#5B646A"/>
<path opacity="0.5" d="M393.217 179.685C372.944 177.909 352.671 179.093 333.032 180.869C359.64 185.012 386.248 193.891 412.222 198.626C463.537 208.688 516.12 205.137 568.068 211.056C543.994 205.137 519.287 202.177 495.213 198.034C461.003 192.115 428.06 182.645 393.217 179.685Z" fill="#5B646A"/>
<path opacity="0.7" d="M1834.47 279.716C1783.16 286.227 1730.58 290.37 1680.53 303.392C1733.11 322.333 1776.82 316.414 1835.11 343.641C1836.38 344.233 1755.92 380.339 1712.84 385.074C1667.23 390.401 1620.98 393.952 1574.73 393.952C1522.78 393.36 1471.47 386.257 1420.15 381.522C1379.61 377.971 1336.53 378.563 1297.88 363.765C1296.62 363.173 1295.98 360.806 1297.88 360.806C1354.9 349.56 1411.28 334.762 1466.4 315.822C1416.99 312.27 1368.2 303.392 1319.42 296.289C1265.57 289.186 1212.36 285.635 1157.88 290.37C1061.58 298.657 965.919 319.965 868.991 320.557C928.542 327.068 988.726 334.171 1043.21 358.438C1044.48 359.03 1044.48 360.806 1042.58 361.398C1034.34 363.174 1025.47 364.357 1017.23 365.541C955.149 372.644 893.064 366.133 830.979 372.052C765.093 377.971 507.251 363.765 443.899 357.255C395.118 351.927 340.002 353.111 298.189 325.884C296.922 325.292 296.922 323.516 298.823 322.924C365.342 299.841 436.93 278.532 509.151 274.389C462.271 270.246 415.39 269.062 368.51 263.143C315.928 256.632 263.346 240.059 210.13 243.61C139.809 248.937 68.2215 280.308 -3.36621 277.94V412.301H1919.37V266.102C1891.49 270.838 1862.98 276.165 1834.47 279.716Z" fill="#5B646A"/>
<path opacity="0.5" d="M1798.36 308.127C1821.8 320.556 1849.68 319.373 1875.65 325.292C1890.22 328.843 1904.8 331.803 1919.37 334.762V292.737C1906.06 293.921 1892.76 294.513 1879.45 295.697C1851.58 298.656 1825.61 304.575 1798.36 308.127Z" fill="#5B646A"/>
<path opacity="0.5" d="M550.33 406.973C496.481 398.687 443.899 388.624 388.782 386.849C361.541 385.665 334.3 386.849 307.058 385.073C280.45 383.297 253.843 379.746 227.868 376.195C199.993 372.643 172.119 368.5 143.61 367.316C118.269 366.132 92.295 364.949 67.5877 360.213C66.3207 360.213 65.6872 357.846 66.9542 357.254C129.673 331.802 191.124 305.167 256.377 286.226C210.763 284.451 165.15 280.307 120.17 285.042C78.3576 289.778 37.8123 300.432 -4 302.799V411.708H585.174C573.77 410.525 561.733 409.341 550.33 406.973Z" fill="#5B646A"/>
<path opacity="0.4" d="M1812.3 143.58C1811.03 142.988 1810.4 141.212 1811.67 140.62C1840.81 128.782 1873.12 124.047 1904.8 121.679C1909.86 121.088 1914.3 121.088 1919.37 120.496V0.932483C1909.23 1.52438 101.798 -1.4351 -3.36621 0.932483V191.523H-2.73269C20.074 192.707 42.8807 191.523 65.6875 190.34C89.1277 189.156 112.568 188.564 136.008 184.421C159.448 180.869 182.889 175.542 206.962 173.174C178.454 171.399 149.946 174.358 121.437 171.399C89.7612 168.439 58.0852 161.337 25.7757 158.969C23.8751 158.969 23.2416 156.009 25.1422 156.009C94.8294 145.355 160.715 121.679 231.67 119.904C307.059 118.128 382.447 118.128 457.203 122.271C492.68 124.047 528.791 121.679 564.268 123.455C581.373 124.047 598.478 125.231 615.583 128.19C632.688 131.15 649.159 135.885 666.264 138.844C736.585 151.866 808.806 154.234 879.761 167.847C881.661 168.439 881.028 170.807 879.127 170.807C794.235 176.726 708.71 186.788 623.818 188.564C815.141 220.526 1012.8 221.118 1202.86 179.093C1128.1 161.928 1049.54 163.112 972.888 160.745C970.354 160.745 970.987 157.785 972.888 157.785C1000.76 154.826 1028 148.907 1055.88 143.58C1074.88 140.028 1093.89 137.661 1112.26 133.517C1140.14 127.598 1170.55 118.128 1200.32 119.312C1209.82 119.904 1321.96 154.234 1354.9 156.009C1505.68 163.112 1654.56 190.931 1805.33 200.994C1841.44 203.361 1877.55 198.626 1913.66 195.075C1915.57 195.075 1918.1 194.483 1920 194.483V151.274C1883.89 153.05 1846.51 154.234 1812.3 143.58Z" fill="#78858F"/>
<path d="M1128.73 104.515C1145.2 101.555 1162.31 99.1874 1178.78 95.0442C1195.25 90.9009 1210.46 83.7981 1226.3 76.6953C1179.42 86.1657 1131.9 96.228 1086.29 110.434C1100.86 109.25 1114.8 107.474 1128.73 104.515Z" fill="#5B646A"/>
<path d="M85.3263 123.455C55.5509 128.19 25.7754 132.333 -4 129.374V141.211C12.4715 140.62 28.943 139.436 44.781 135.293C58.7185 131.741 72.0224 127.598 85.3263 123.455Z" fill="#5B646A"/>
<path d="M900.666 184.42C868.357 188.564 836.047 187.972 803.738 190.931C856.32 209.28 913.337 192.115 967.186 179.685C964.652 179.685 962.118 179.685 959.584 179.685C939.311 179.685 920.305 182.053 900.666 184.42Z" fill="#5B646A"/>
<path d="M1773.02 179.093C1799 177.318 1824.97 174.358 1850.95 171.991C1844.61 170.807 1837.64 169.623 1831.31 169.031C1808.5 168.439 1785.69 167.255 1762.25 167.255C1741.35 167.255 1720.44 170.215 1699.53 170.807C1723.61 176.134 1747.68 180.869 1773.02 179.093Z" fill="#5B646A"/>
<path d="M1840.81 99.7788C1809.13 99.1869 1776.83 96.2275 1745.15 93.8599C1779.99 102.146 1814.84 112.801 1851.58 112.209C1874.39 111.617 1896.56 108.065 1918.73 105.698V95.6356C1893.39 98.0032 1867.42 100.371 1840.81 99.7788Z" fill="#5B646A"/>
<path d="M868.991 121.087C838.582 121.087 808.173 119.311 777.764 115.76C808.806 122.271 840.482 129.373 872.158 131.149C905.735 132.925 937.411 127.598 969.72 119.903C936.777 122.863 901.934 121.087 868.991 121.087Z" fill="#5B646A"/>
<path opacity="0.5" d="M507.251 170.089C497.748 169.497 488.245 169.497 478.742 168.905C461.004 168.905 442.632 169.497 424.893 169.497C422.359 169.497 419.825 170.089 417.291 170.089C409.689 171.273 402.72 171.865 394.484 173.049C393.851 173.049 393.851 173.049 393.217 173.641C393.851 174.824 393.851 176.6 393.851 177.784C393.851 178.376 393.851 178.376 393.851 178.968C393.851 178.968 393.851 178.968 394.484 178.968C405.888 180.151 417.925 181.335 429.961 182.519C442.632 182.519 455.302 183.111 467.973 183.111C481.277 183.111 494.58 183.111 507.884 183.703C513.586 183.703 518.654 183.703 524.356 183.703C530.058 183.111 535.759 182.519 540.827 182.519C550.964 181.335 561.1 180.743 571.236 179.56C573.137 179.56 574.404 178.968 576.305 178.968C556.032 175.416 531.958 172.457 507.251 170.089Z" fill="#828A90"/>
<path d="M507.251 126.289C497.748 123.921 488.245 122.737 478.742 122.146C461.004 123.329 442.632 125.105 424.893 125.697C422.359 126.881 419.825 128.064 417.291 129.248C409.689 133.392 402.72 137.535 394.484 141.678C393.851 142.27 393.851 142.27 393.217 142.862C393.851 148.781 393.851 154.108 393.851 160.027C393.851 161.211 393.851 162.986 393.851 164.17C393.851 164.17 393.851 164.762 394.484 164.762C405.888 170.089 417.925 175.416 429.961 180.151C442.632 180.743 455.302 181.335 467.973 181.927C481.277 182.519 494.58 182.519 507.884 183.703C513.586 184.295 518.654 184.295 524.356 184.295C530.058 182.519 535.759 180.743 540.827 178.376C550.964 174.824 561.1 170.681 571.236 165.946C573.137 165.354 574.404 164.17 576.305 163.578C556.032 148.189 531.958 135.759 507.251 126.289Z" fill="#8B929B"/>
<path opacity="0.4" d="M395.118 142.27C395.118 141.086 397.018 141.086 397.652 141.678C407.155 138.127 416.024 133.392 426.16 131.024C438.831 128.064 452.135 128.064 464.805 127.473C478.742 126.881 493.313 126.289 506.617 128.064C509.151 128.656 511.685 128.656 514.22 129.248C511.685 128.064 509.785 127.473 507.251 126.289C497.748 123.921 488.245 122.737 478.742 122.146C461.004 123.329 442.632 125.105 424.893 125.697C422.359 126.881 419.825 128.064 417.291 129.248C409.689 133.392 402.72 137.535 394.484 141.678C393.851 142.27 393.851 142.27 393.217 142.862C394.484 142.27 394.484 142.27 395.118 142.27Z" fill="#828A90"/>
<path opacity="0.5" d="M564.901 168.905C560.467 168.905 555.399 168.905 550.964 168.905C540.828 168.905 530.691 169.497 520.555 169.497C503.45 170.089 485.712 169.497 469.24 165.354C474.308 165.946 478.743 165.946 483.811 165.946C492.68 165.946 501.55 166.538 510.419 165.354C519.922 164.17 529.424 162.986 539.561 162.394C548.43 161.803 556.666 161.211 565.535 160.027C566.169 160.027 566.169 158.843 566.169 158.843C562.367 155.292 558.566 151.74 554.765 148.189C562.367 152.924 570.603 157.659 577.572 162.986C575.671 163.578 574.404 164.762 572.504 165.354C569.336 167.13 566.802 168.313 564.901 168.905Z" fill="#828A90"/>
<path d="M565.535 167.13C560.467 167.721 555.398 167.13 550.33 167.721C540.827 168.313 530.691 169.497 521.188 169.497C501.549 170.089 481.91 168.313 462.904 164.17C443.265 160.027 424.26 154.108 405.254 147.597C401.453 146.413 397.652 144.637 393.217 143.454C393.851 148.781 393.851 154.108 393.851 160.027C393.851 161.211 393.851 162.986 393.851 164.17C393.851 164.17 393.851 164.762 394.484 164.762C405.888 170.089 417.925 175.416 429.961 180.151C442.632 180.743 455.302 181.335 467.973 181.927C481.277 182.519 494.58 182.519 507.884 183.703C513.586 184.295 518.654 184.295 524.356 184.295C530.058 182.519 535.759 180.743 540.827 178.376C550.964 174.824 561.1 170.681 571.236 165.946C571.236 165.946 571.236 165.946 571.87 165.946C569.969 166.538 568.069 166.538 565.535 167.13Z" fill="#737983"/>
<path opacity="0.4" d="M533.859 179.56C524.989 180.743 516.754 180.743 507.884 180.151C499.649 179.56 491.413 178.968 483.177 178.376C474.941 177.784 466.706 177.192 458.47 177.192C451.501 177.192 443.899 176.6 436.93 176.008C429.328 174.824 422.359 171.865 415.39 168.905C408.422 165.946 401.453 163.578 394.484 161.211C394.484 162.394 394.484 163.578 394.484 164.762C394.484 164.762 394.484 165.354 395.118 165.354C406.521 170.681 418.558 176.008 430.595 180.743C443.265 181.335 455.936 181.927 468.606 182.519C481.91 183.111 495.214 183.111 508.518 184.295C514.22 184.887 519.288 184.887 524.989 184.887C530.691 183.111 535.759 181.335 541.461 178.968C538.293 178.968 536.393 178.968 533.859 179.56Z" fill="#60656A"/>
<path opacity="0.4" d="M556.666 171.865C547.163 172.457 537.027 173.64 527.524 173.64C517.387 174.232 507.885 172.457 497.748 171.273C486.979 170.089 476.209 170.089 465.439 170.089C456.57 170.089 447.7 170.089 439.464 168.905C430.595 167.721 422.993 164.17 415.391 160.027C408.422 155.292 401.453 151.148 393.851 148.189C393.851 149.965 393.851 151.74 393.851 152.924C399.553 156.475 405.888 160.027 412.223 162.986C419.825 166.538 427.428 168.905 435.663 170.681C444.533 172.457 454.035 172.457 463.538 172.457C471.774 173.049 480.643 173.049 488.879 174.232C497.748 174.824 505.984 176.6 514.853 177.192C525.623 178.376 535.76 177.192 546.529 176.008C550.964 174.232 554.765 173.049 559.2 171.273C557.933 171.865 557.299 171.865 556.666 171.865Z" fill="#60656A"/>
<path d="M416.657 151.74C411.589 154.108 406.521 157.067 401.453 160.027C398.919 161.211 397.018 162.394 394.484 164.17C394.484 164.17 394.484 164.17 394.484 164.762C394.484 164.762 394.484 165.354 395.118 165.354C396.385 165.946 397.652 166.538 399.552 167.13C404.621 161.211 410.956 157.067 416.657 151.74Z" fill="#737983"/>
<path d="M514.853 169.497C515.487 169.497 516.754 169.497 517.387 169.497C518.654 171.865 519.921 174.232 521.188 177.192C522.455 179.559 523.722 181.927 524.989 184.295H524.356C522.455 184.295 521.188 184.295 519.288 184.295C518.021 178.968 516.12 174.232 514.853 169.497Z" fill="#737983"/>
<path opacity="0.4" d="M450.234 162.395C438.831 158.251 427.428 154.7 416.024 151.74C408.422 149.373 400.82 147.005 393.851 144.046C394.485 149.373 394.485 154.7 394.485 160.027C394.485 161.211 394.485 162.986 394.485 164.17C394.485 164.17 394.485 164.762 395.118 164.762C406.521 170.089 418.558 175.416 430.595 180.152C436.297 180.152 441.365 180.743 447.067 180.743C447.7 179.56 448.967 178.376 449.601 177.192C452.135 173.641 455.302 168.905 459.104 166.538C459.737 166.538 460.371 165.946 460.371 165.946C457.203 164.762 453.402 163.578 450.234 162.395Z" fill="#828A90"/>
<path opacity="0.5" d="M414.124 147.005C408.422 145.23 402.72 142.862 397.652 139.903C397.019 140.494 395.752 140.494 395.118 141.086C394.485 141.678 393.851 141.678 393.851 142.27C393.851 143.454 393.851 144.046 393.851 145.23C401.453 147.597 407.789 149.373 416.658 152.332C421.726 154.108 430.595 155.292 436.297 156.476C438.197 157.068 440.732 157.659 443.266 157.659C440.732 156.476 438.831 155.292 436.297 154.7C428.695 152.332 421.726 149.373 414.124 147.005Z" fill="#737983"/>
<path d="M212.664 34.5449C202.527 35.1368 193.024 35.7287 182.888 36.9125C176.553 37.5044 169.584 38.6882 163.249 39.2801C159.448 39.872 156.28 40.4639 152.479 41.0558C143.61 42.8315 135.374 45.1991 126.505 48.1586C123.971 50.5262 121.437 52.8937 118.903 55.2613C111.934 62.956 105.599 71.2426 99.897 79.5291C99.2635 80.121 98.63 81.3048 97.9964 81.8967C96.7294 83.0805 95.4624 84.8562 94.1953 86.6319C101.164 88.4076 108.766 89.5913 115.735 90.7751C127.772 92.5508 140.442 94.9184 152.479 95.5103C158.181 95.5103 164.516 95.5103 170.218 95.5103C175.286 95.5103 180.354 96.1022 185.422 96.6941C190.49 97.286 196.192 97.286 201.26 97.286C210.129 94.3265 218.999 91.367 227.234 87.8156C234.203 84.8562 241.172 81.8967 247.507 78.9372C244.34 72.4263 222.8 41.0558 212.664 34.5449Z" fill="#8B929B"/>
<path opacity="0.2" d="M216.465 102.613C206.329 102.613 196.192 103.205 186.056 103.205C179.087 103.205 172.752 103.205 165.783 103.205C161.982 103.205 158.181 103.205 154.38 103.205C145.511 103.205 136.641 103.205 127.772 102.613C125.238 102.021 122.704 101.429 120.17 101.429C112.568 100.245 106.232 98.4696 100.531 96.6939C99.8973 96.6939 99.2637 96.102 98.6302 96.102C97.3632 96.102 96.0961 95.5101 94.8291 94.9182C101.798 94.3263 109.4 93.7344 117.002 93.1425C129.673 91.9587 142.343 91.3669 155.013 90.775C161.349 90.775 167.05 90.183 173.386 90.183C178.454 90.183 184.155 89.5912 189.224 89.5912C194.925 89.5912 199.993 88.9993 205.695 88.9993C214.564 88.9993 224.067 89.5911 232.936 90.183C239.905 90.7749 246.874 90.775 254.476 91.3669C248.774 92.5507 226.601 100.245 216.465 102.613Z" fill="#828A90"/>
<path opacity="0.5" d="M212.664 34.5449C202.527 35.1368 193.025 35.7287 182.888 36.9125C176.553 37.5044 169.584 38.6882 163.249 39.2801C159.448 39.872 156.28 40.4639 152.479 41.0558C144.244 42.8315 135.374 44.6072 126.505 48.1586C126.505 48.1586 127.139 48.1585 127.772 48.7504C142.977 46.3828 157.547 45.1991 173.385 43.4234C180.988 42.8315 189.223 41.0558 197.459 41.0558C198.726 41.0558 209.496 62.3641 210.13 65.3235C210.763 68.8749 210.763 71.2425 207.596 73.0182C203.794 75.3858 199.36 75.9777 194.925 77.1615C193.658 77.1615 192.391 77.7534 191.124 77.7534C193.025 78.9372 194.925 80.7129 196.826 82.4886C199.36 86.04 201.894 89.5913 203.794 93.7346C204.428 94.9184 204.428 96.1022 204.428 96.6941C212.664 93.7346 220.899 90.7751 229.135 87.2237C236.104 84.2642 243.073 81.3047 249.408 78.3453C244.34 72.4263 222.8 41.0558 212.664 34.5449Z" fill="#737983"/>
<path opacity="0.5" d="M212.663 34.5449C202.527 35.1368 193.024 35.7287 182.888 36.9125C176.552 37.5044 169.584 38.6882 163.249 39.2801C159.447 39.872 156.28 40.4639 152.479 41.0558C145.51 42.8315 137.274 44.6072 129.672 47.5666C133.473 47.5666 159.447 42.2396 166.416 41.0558C177.82 39.2801 204.427 36.9125 207.595 38.6882C210.763 40.4639 220.899 55.8532 224.066 59.9965C227.234 64.7317 234.203 74.7939 234.203 74.7939C221.532 78.9372 193.024 78.3453 192.39 78.3453C197.459 79.5291 204.427 79.5291 210.129 79.5291C215.197 80.121 220.899 80.121 225.967 81.3047C226.601 81.3047 226.601 82.4886 225.967 82.4886C220.899 84.8562 216.464 87.8157 212.03 91.3671C210.129 92.5509 208.228 94.3265 205.694 96.1022C205.061 96.6941 204.427 96.6941 203.794 97.286C212.03 94.3265 220.265 91.367 228.501 87.8156C235.47 84.8562 242.439 81.8967 248.774 78.9372C244.339 72.4263 222.799 41.0558 212.663 34.5449Z" fill="#737983"/>
<path opacity="0.5" d="M215.831 80.713C201.894 80.1211 187.956 78.3454 174.019 77.1616C159.448 75.9778 145.511 77.7535 131.573 80.713C125.238 82.4887 118.269 84.2644 111.934 85.4482C108.766 86.0401 105.599 87.2238 102.431 87.2238C100.531 87.2238 98.6301 87.2238 96.0961 87.2238C103.065 88.9995 110.034 90.1833 117.002 90.7752C129.039 92.5509 141.71 94.9185 153.746 95.5104C159.448 95.5104 165.783 95.5104 171.485 95.5104C176.553 95.5104 181.621 96.1023 186.689 96.6942C191.758 97.2861 197.459 97.2861 202.527 97.2861C211.397 94.3266 220.266 91.3671 228.502 87.8157C235.47 84.8562 242.439 81.8968 248.774 78.9373C249.408 80.1211 226.601 80.713 215.831 80.713Z" fill="#737983"/>
<path opacity="0.5" d="M210.763 95.5101C199.993 96.6939 189.857 96.1019 179.087 94.9182C174.019 94.3263 168.317 93.7344 162.616 93.7344C156.914 93.7344 151.846 94.9182 146.778 95.5101C145.511 95.5101 144.877 95.5101 143.61 95.5101C146.778 96.102 150.579 96.1019 153.746 96.1019C159.448 96.1019 165.783 96.1019 171.485 96.1019C176.553 96.1019 181.621 96.6939 186.689 97.2858C191.758 97.8777 197.459 97.8776 202.527 97.8776C205.695 97.8776 208.229 96.6939 210.763 95.5101Z" fill="#737983"/>
<path opacity="0.5" d="M231.669 84.8562C225.334 85.4481 219.632 84.8562 213.297 83.6724C199.993 81.3048 186.689 80.7129 172.752 81.8967C159.448 83.0805 146.144 82.4886 132.84 83.6724C125.871 84.2643 120.17 86.6319 113.201 88.4076C110.033 88.9995 106.232 89.5913 103.065 90.1832C104.332 90.1832 104.965 90.7752 106.232 90.7752C109.4 90.1833 111.934 89.5913 115.101 88.9994C120.803 87.2238 127.138 86.04 132.84 85.4481C146.144 83.6724 159.448 86.04 172.752 84.8562C179.72 84.2643 186.056 83.6724 193.024 84.2643C199.36 84.8562 205.695 86.04 211.396 86.6319C218.365 87.2238 224.7 87.8157 231.669 87.8157C232.303 87.8157 232.303 87.8157 232.936 87.8157C235.47 86.6319 237.371 86.04 239.905 84.8562C237.371 84.2643 234.837 84.8562 231.669 84.8562Z" fill="#737983"/>
<path opacity="0.5" d="M208.229 92.5507C203.161 91.9588 197.459 92.5506 192.391 91.9587C187.323 91.3668 181.621 90.7749 176.553 90.183C165.15 88.9992 153.113 91.9587 141.71 91.9587C136.008 91.9587 129.039 90.7749 122.704 91.9587C121.437 91.9587 120.804 92.5507 119.536 92.5507C121.437 93.1425 123.971 93.1425 125.872 93.7344C127.772 93.7344 129.039 93.7345 130.94 94.3264C136.642 94.9183 142.343 95.5101 148.678 94.9182C158.815 93.7344 168.318 93.7345 178.454 94.3264C184.156 94.9183 189.224 95.5101 194.925 96.102C200.627 96.102 205.695 95.5101 211.397 94.9182C213.297 94.9182 214.564 94.3264 216.465 94.3264C213.931 93.1426 210.763 92.5507 208.229 92.5507Z" fill="#737983"/>
<path opacity="0.4" d="M126.504 51.1178C126.504 51.1178 102.431 77.7532 97.9961 86.0397C97.9961 86.0397 116.368 68.2828 118.269 65.9152L127.138 54.6692L174.018 46.3826L126.504 51.1178Z" fill="#828A90"/>
<path d="M127.772 83.0805C136.641 80.7129 145.511 78.3453 155.013 77.7534C163.249 77.1615 172.118 77.1615 180.354 77.1615C177.82 77.1615 175.92 76.5697 173.385 76.5697C158.815 75.3859 144.877 77.1615 130.94 80.121C124.604 81.8967 118.269 83.0805 111.934 84.8562C117.636 85.4481 122.704 84.8562 127.772 83.0805Z" fill="#828A90"/>
<path opacity="0.5" d="M1214.26 170.089C1223.76 162.986 1232.63 154.7 1240.23 147.005H1239.6C1234.53 145.821 1228.83 145.821 1223.76 145.229C1209.19 144.045 1193.99 143.454 1178.78 142.862C1154.71 141.678 1131.27 141.678 1107.83 145.229C1084.39 151.148 1061.58 159.435 1041.94 169.497C1043.84 170.089 1045.11 170.681 1047.01 171.273C1056.51 174.232 1066.02 176.6 1075.52 178.967C1080.59 180.151 1086.29 181.335 1091.36 182.519C1096.42 182.519 1102.13 182.519 1107.19 181.927C1119.86 181.335 1132.53 181.335 1145.21 180.743C1157.24 180.151 1169.28 179.559 1181.32 179.559C1192.09 176.6 1203.49 173.64 1214.26 170.089Z" fill="#828A90"/>
<path d="M1211.73 147.005C1221.23 128.656 1230.1 107.94 1237.7 87.8152C1237.7 87.8152 1237.07 87.8152 1237.07 87.2233C1232 84.8557 1226.3 83.672 1221.23 82.4882C1206.66 78.9368 1191.45 78.3449 1176.25 76.5692C1152.17 74.2016 1128.73 73.0178 1105.29 83.08C1081.85 99.0612 1059.05 119.186 1039.41 144.637C1041.31 145.821 1042.58 147.597 1044.48 148.781C1053.98 156.475 1063.48 162.986 1072.98 168.905C1078.05 172.456 1083.75 175.416 1088.82 178.375C1093.89 178.375 1098.96 177.784 1104.66 177.192C1117.33 175.416 1130 175.416 1142.67 174.232C1154.71 173.048 1166.75 171.865 1178.78 171.273C1189.55 164.17 1200.96 155.883 1211.73 147.005Z" fill="#8B929B"/>
<path opacity="0.5" d="M1050.81 154.108C1055.25 154.7 1059.68 154.108 1064.11 154.108C1073.62 153.516 1083.12 154.7 1092.62 155.291C1108.46 156.475 1125.57 155.291 1141.4 148.189C1136.97 148.781 1132.53 149.372 1127.47 149.372C1119.23 149.372 1110.36 149.964 1102.13 148.781C1093.26 147.005 1083.75 145.229 1074.88 143.454C1066.65 142.27 1058.41 141.086 1050.18 139.31C1049.54 139.31 1049.54 137.535 1049.54 136.943C1053.34 131.024 1056.51 125.105 1060.31 119.778C1052.71 127.472 1045.74 135.759 1038.77 144.637C1040.67 145.821 1041.94 147.597 1043.84 148.781C1046.38 151.148 1048.28 152.924 1050.81 154.108Z" fill="#828A90"/>
<path d="M1211.72 147.005C1221.23 128.656 1229.46 108.532 1237.7 88.9992C1233.26 93.1425 1228.83 98.4696 1224.4 103.205C1217.43 110.308 1209.82 113.859 1202.22 118.594C1184.48 129.84 1166.11 139.31 1147.74 145.821C1129.37 152.332 1111 155.292 1092.62 154.7C1083.12 154.7 1074.25 152.332 1064.75 151.74C1059.68 151.148 1055.25 151.74 1050.18 151.148C1048.28 150.556 1046.38 149.965 1044.48 149.373C1044.48 149.373 1044.48 149.373 1045.11 149.373C1054.61 157.067 1064.11 163.578 1073.62 169.497C1078.69 173.049 1084.39 176.008 1089.46 178.968C1094.52 178.968 1099.59 178.376 1105.29 177.784C1117.96 176.008 1130.63 176.008 1143.3 174.824C1155.34 173.64 1167.38 172.457 1179.42 171.865C1189.55 164.17 1200.96 155.884 1211.72 147.005Z" fill="#737983"/>
<path opacity="0.4" d="M1214.89 139.31C1207.29 144.046 1199.69 148.189 1192.72 153.516C1186.38 158.251 1179.42 162.986 1172.45 164.762C1165.48 166.538 1159.14 167.129 1152.17 167.129C1144.57 167.129 1136.34 167.721 1128.73 168.905C1121.13 170.089 1113.53 171.865 1105.29 172.457C1097.06 173.049 1088.82 173.049 1080.59 171.273C1078.05 170.681 1076.15 170.089 1073.62 170.089C1078.69 173.64 1083.75 176.6 1089.46 179.559C1094.52 179.559 1099.59 178.967 1105.29 178.376C1117.96 176.6 1130.63 176.6 1143.3 175.416C1155.34 174.232 1167.38 173.049 1179.42 172.457C1190.82 164.762 1201.59 155.884 1212.99 147.597C1214.89 144.637 1216.16 141.678 1217.43 138.719C1215.53 138.127 1215.53 138.718 1214.89 139.31Z" fill="#60656A"/>
<path opacity="0.4" d="M1216.16 117.41C1206.66 121.553 1199.69 131.024 1192.09 139.31C1185.12 147.005 1178.15 152.332 1169.28 154.108C1161.04 155.883 1152.81 155.883 1144.57 155.883C1134.44 155.883 1124.3 155.883 1114.16 158.251C1104.66 160.027 1095.79 162.394 1085.65 161.802C1076.15 161.21 1067.28 158.843 1057.78 158.843C1057.15 158.843 1056.51 158.843 1055.88 158.843C1059.68 161.802 1064.11 164.17 1067.92 167.129C1078.05 169.497 1088.19 171.273 1097.69 168.905C1105.93 167.129 1114.16 164.762 1122.4 163.578C1130.63 162.394 1138.87 161.802 1146.47 161.21C1155.34 160.618 1164.21 161.21 1173.08 158.251C1180.68 155.883 1188.28 151.148 1195.25 145.229C1206.66 135.759 1216.79 122.145 1228.2 112.083C1228.83 110.899 1228.83 110.307 1229.46 109.124C1225.66 112.083 1221.23 115.042 1216.16 117.41Z" fill="#60656A"/>
<path d="M1207.92 149.964C1209.19 148.781 1210.46 148.189 1211.73 147.005C1211.73 146.413 1212.36 146.413 1212.36 145.821C1209.82 143.453 1207.92 141.678 1205.39 139.31C1200.96 134.575 1195.89 129.84 1191.45 125.105C1196.52 133.983 1202.22 141.678 1207.92 149.964Z" fill="#737983"/>
<path d="M1097.69 154.7C1097.06 154.7 1095.79 154.7 1095.16 154.7C1093.89 158.843 1092.62 162.986 1091.36 167.129C1090.09 171.273 1088.82 174.824 1087.55 178.967L1088.19 179.559C1089.46 179.559 1091.36 179.559 1092.62 179.559C1095.16 171.273 1096.42 162.986 1097.69 154.7Z" fill="#737983"/>
<path opacity="0.4" d="M1100.86 96.6937C1107.83 91.9585 1114.8 88.4071 1121.76 86.6314C1129.37 84.8557 1137.6 84.8557 1145.84 84.8557C1164.21 84.2638 1183.22 85.4476 1201.59 84.8557C1209.19 84.8557 1216.79 83.6719 1223.76 83.08C1222.49 83.08 1221.86 82.4882 1220.59 82.4882C1206.02 78.9368 1190.82 78.3449 1175.61 76.5692C1151.54 74.2016 1128.1 73.0178 1104.66 83.08C1102.13 84.8557 1100.23 86.0395 1097.69 87.8152C1093.26 92.5504 1088.19 95.5099 1083.75 99.6532C1076.15 106.164 1069.82 115.042 1062.85 124.513C1075.52 113.859 1088.19 105.572 1100.86 96.6937Z" fill="#828A90"/>
<path opacity="0.4" d="M1221.23 105.572C1211.72 113.859 1201.59 119.778 1191.45 125.105C1180.68 131.024 1169.28 135.759 1159.14 143.454C1155.98 145.821 1152.81 147.597 1149.01 149.372C1149.64 149.964 1150.27 149.964 1150.27 150.556C1154.07 154.108 1156.61 162.394 1159.14 167.721C1159.78 169.497 1161.04 171.865 1161.68 173.64C1166.75 173.048 1171.81 172.457 1177.51 172.457C1188.92 164.762 1199.69 155.883 1211.09 147.597C1220.59 129.84 1228.83 110.307 1236.43 90.7747C1232.63 96.6937 1226.3 101.429 1221.23 105.572Z" fill="#828A90"/>
<path opacity="0.5" d="M1212.36 82.4884C1214.89 83.6722 1217.43 84.264 1219.96 86.6316C1220.59 87.2235 1220.59 87.8154 1219.96 88.4073C1213.63 104.389 1204.12 112.675 1193.35 118.002C1186.38 121.554 1180.05 126.881 1173.08 131.616C1170.55 133.391 1168.65 135.167 1166.11 136.943C1168.01 136.351 1170.55 135.759 1172.45 135.167C1177.51 132.8 1185.75 131.024 1190.82 128.064C1200.95 122.145 1207.92 118.594 1218.06 113.267C1218.69 112.675 1214.26 135.759 1211.72 147.005C1221.23 128.656 1229.46 109.124 1237.07 88.9992C1237.07 88.9992 1236.43 88.9992 1236.43 88.4073C1231.36 86.0397 1225.66 84.8559 1220.59 83.6721C1216.16 82.4883 1211.72 81.8964 1207.29 81.3045C1209.19 80.7126 1210.46 81.8965 1212.36 82.4884Z" fill="#737983"/>
<path opacity="0.5" d="M1250.37 187.254C1257.97 184.295 1264.94 180.152 1270.64 177.192H1270.01C1266.21 176.6 1261.77 176.6 1257.34 176.6C1245.94 176.008 1233.9 176.008 1221.86 175.416C1202.86 174.824 1184.48 174.824 1166.11 176.6C1147.74 179.56 1130 183.111 1114.16 187.254C1115.43 187.254 1116.7 187.846 1117.96 187.846C1125.57 189.03 1133.17 190.214 1140.77 191.398C1145.21 191.989 1149.01 192.581 1153.44 193.173C1157.24 193.173 1161.68 193.173 1165.48 193.173C1175.61 193.173 1185.12 192.581 1195.25 192.581C1204.76 192.581 1214.26 191.989 1223.13 191.989C1233.26 190.806 1241.5 189.03 1250.37 187.254Z" fill="#828A90"/>
<path d="M1248.47 177.192C1256.07 168.905 1263.04 160.027 1268.74 150.557H1268.11C1264.31 149.373 1259.87 148.781 1255.44 148.189C1244.03 146.413 1232 146.413 1219.96 145.821C1200.96 144.638 1182.58 144.046 1164.21 148.781C1145.84 155.884 1128.1 164.762 1112.26 176.6C1113.53 177.192 1114.8 177.784 1116.06 178.376C1123.67 181.927 1131.27 184.887 1138.87 187.254C1142.67 189.03 1147.11 190.214 1151.54 191.397C1155.34 191.397 1159.78 190.805 1163.58 190.805C1173.71 190.214 1183.22 190.214 1193.35 189.622C1202.86 189.03 1212.36 188.438 1221.23 188.438C1230.73 184.887 1239.6 180.743 1248.47 177.192Z" fill="#8B929B"/>
<path opacity="0.5" d="M1122.4 180.152C1125.57 180.152 1129.37 180.152 1132.53 180.152C1140.14 180.152 1147.74 180.743 1154.71 180.743C1167.38 181.335 1180.68 180.743 1192.72 177.192C1188.92 177.784 1185.75 177.784 1181.95 177.784C1175.61 177.784 1168.65 178.376 1162.31 177.784C1155.34 177.192 1147.74 176.008 1140.77 175.416C1134.44 174.824 1128.1 174.233 1121.77 173.641C1121.13 173.641 1121.13 173.049 1121.77 172.457C1124.3 169.497 1127.47 167.13 1130.63 164.762C1124.93 168.314 1119.23 171.865 1113.53 176.008C1114.8 176.6 1116.06 177.192 1117.33 177.784C1118.6 178.968 1120.5 179.56 1122.4 180.152Z" fill="#828A90"/>
<path d="M1248.47 177.192C1256.07 168.906 1262.41 160.027 1268.74 151.149C1264.94 152.924 1261.77 155.292 1257.97 157.66C1252.27 160.619 1246.57 162.395 1240.23 164.762C1226.3 169.497 1211.72 174.233 1197.15 177.192C1182.58 180.152 1168.65 181.335 1154.07 181.335C1146.47 181.335 1139.5 180.152 1132.54 180.152C1128.73 180.152 1124.93 180.152 1121.13 179.56C1119.86 179.56 1117.96 178.968 1116.7 178.968C1124.3 182.519 1131.9 185.479 1139.5 187.846C1143.3 189.622 1147.74 190.806 1152.17 191.99C1155.98 191.99 1160.41 191.398 1164.21 191.398C1174.35 190.806 1183.85 190.806 1193.99 190.214C1203.49 189.622 1212.99 189.03 1221.86 189.03C1230.73 184.887 1239.6 180.744 1248.47 177.192Z" fill="#737983"/>
<path opacity="0.4" d="M1250.37 173.64C1244.67 176.008 1238.33 177.784 1232.63 180.151C1227.56 182.519 1222.49 184.295 1216.79 185.478C1211.72 186.07 1206.02 186.662 1200.95 186.662C1194.62 186.662 1188.92 186.662 1182.58 187.254C1176.25 187.846 1170.55 188.438 1164.21 189.03C1157.88 189.622 1151.54 189.03 1145.21 188.438C1143.3 188.438 1141.4 187.846 1139.5 187.846C1143.3 189.622 1147.74 190.805 1151.54 191.989C1155.34 191.989 1159.78 191.397 1163.58 191.397C1173.71 190.805 1183.22 190.805 1193.35 190.214C1202.86 189.622 1212.36 189.03 1221.23 189.03C1230.1 185.478 1238.97 181.927 1247.2 177.784C1248.47 176.6 1249.74 174.824 1251 173.64C1251.64 173.048 1251 173.64 1250.37 173.64Z" fill="#60656A"/>
<path opacity="0.4" d="M1252.27 163.578C1244.67 165.354 1239.6 169.497 1233.26 173.641C1227.56 177.192 1221.86 179.56 1215.53 180.152C1209.19 180.743 1202.22 180.743 1195.89 180.743C1187.65 180.743 1180.05 180.743 1171.81 181.927C1164.21 183.111 1157.24 183.703 1149.64 183.703C1142.67 183.703 1135.07 182.519 1128.1 182.519C1127.47 182.519 1126.83 182.519 1126.2 182.519C1129.37 183.703 1132.53 184.887 1135.7 186.071C1143.3 187.254 1151.54 187.846 1159.14 187.254C1165.48 186.662 1171.81 185.479 1178.15 184.887C1184.48 184.295 1190.82 184.295 1197.15 183.703C1204.12 183.703 1211.09 183.703 1218.06 182.519C1224.39 181.335 1230.1 179.56 1235.16 176.6C1244.03 172.457 1252.27 166.538 1261.14 161.803C1261.14 161.211 1261.77 161.211 1261.77 160.619C1259.24 161.803 1256.07 162.987 1252.27 163.578Z" fill="#60656A"/>
<path d="M1245.3 178.376C1246.57 177.784 1247.2 177.192 1248.47 177.192L1249.1 176.6C1247.2 175.416 1245.3 174.824 1244.03 173.64C1240.23 171.273 1236.43 169.497 1232.63 167.13C1236.43 171.273 1240.87 174.824 1245.3 178.376Z" fill="#737983"/>
<path d="M1159.14 180.743C1158.51 180.743 1157.88 180.743 1157.24 180.743C1155.98 182.519 1155.34 184.295 1154.71 186.07C1154.07 187.846 1152.81 189.622 1151.54 191.397H1152.17C1153.44 191.397 1154.71 191.397 1155.98 191.397C1157.24 187.846 1157.88 184.295 1159.14 180.743Z" fill="#737983"/>
<path opacity="0.4" d="M1161.68 154.7C1166.74 152.924 1172.45 151.149 1178.15 150.557C1184.48 149.965 1190.82 149.965 1196.52 149.965C1211.09 149.965 1225.66 149.965 1240.23 149.965C1245.93 149.965 1252.27 149.373 1257.97 149.373C1257.34 149.373 1256.07 149.373 1255.44 148.781C1244.03 147.005 1232 147.005 1219.96 146.413C1200.95 145.23 1182.58 144.638 1164.21 149.373C1162.31 149.965 1160.41 150.557 1159.14 151.74C1155.97 153.516 1151.54 155.292 1148.37 157.067C1142.67 160.027 1136.97 164.17 1131.9 168.314C1142.04 162.395 1151.54 158.251 1161.68 154.7Z" fill="#828A90"/>
<path opacity="0.4" d="M1256.07 158.843C1248.47 162.395 1240.87 165.354 1232.63 167.722C1224.39 170.089 1215.53 172.457 1207.29 176.008C1204.76 177.192 1202.22 177.784 1199.69 178.376C1200.32 178.376 1200.32 178.968 1200.95 178.968C1204.12 180.743 1206.02 184.295 1207.92 186.662C1208.56 187.254 1209.19 188.438 1209.82 189.03C1213.63 189.03 1218.06 188.438 1221.86 188.438C1230.73 184.887 1239.6 181.335 1247.84 177.192C1255.44 169.497 1261.77 160.619 1267.47 151.74C1264.94 154.7 1259.87 156.476 1256.07 158.843Z" fill="#828A90"/>
<path opacity="0.5" d="M1248.47 148.189C1250.37 148.781 1252.27 148.781 1254.17 149.965C1254.17 149.965 1254.8 150.557 1254.17 150.557C1249.1 157.659 1241.5 161.211 1233.26 164.17C1227.56 165.946 1222.49 168.313 1217.43 170.089C1215.53 170.681 1213.63 171.865 1212.36 172.457C1214.26 172.457 1215.53 171.865 1217.43 171.273C1221.23 170.089 1228.2 169.497 1232 168.314C1240.23 165.354 1245.3 164.17 1253.54 161.803C1254.17 161.803 1250.37 171.865 1248.47 176.6C1256.07 168.313 1262.41 159.435 1268.74 150.557H1268.11C1264.31 149.373 1259.87 148.781 1255.44 148.189C1251.64 147.597 1248.47 147.597 1244.67 147.005C1246.57 147.597 1247.2 147.597 1248.47 148.189Z" fill="#737983"/>
<path opacity="0.5" d="M1155.34 209.155C1161.68 204.42 1166.74 199.684 1171.81 194.357C1171.81 194.357 1171.81 194.357 1171.18 194.357C1168.01 193.766 1164.21 193.174 1161.04 193.174C1151.54 191.99 1142.04 191.99 1132.53 191.99C1117.33 191.398 1102.13 191.398 1087.55 193.765C1072.35 197.909 1058.41 202.644 1045.74 209.155C1047.01 209.747 1047.64 209.747 1048.91 210.339C1054.61 212.114 1060.95 213.89 1067.28 215.666C1070.45 216.258 1074.25 217.441 1077.42 218.033C1080.59 218.033 1083.75 218.033 1087.55 217.441C1095.79 216.849 1103.39 216.85 1111.63 216.85C1119.23 216.85 1126.83 216.258 1134.44 216.258C1141.4 213.298 1148.37 211.522 1155.34 209.155Z" fill="#828A90"/>
<path d="M1154.07 194.357C1160.41 182.519 1165.48 169.498 1170.55 157.068C1170.55 157.068 1170.55 157.068 1169.91 157.068C1166.74 155.292 1162.94 154.7 1159.78 154.108C1150.27 151.741 1140.77 151.149 1131.27 150.557C1116.06 148.781 1100.86 148.189 1086.29 154.7C1071.08 164.762 1057.15 177.784 1044.48 194.357C1045.74 195.541 1046.38 196.133 1047.64 196.725C1053.34 201.46 1059.68 205.603 1066.01 209.747C1069.18 212.114 1072.98 213.89 1076.15 215.666C1079.32 215.666 1082.49 215.074 1086.29 215.074C1094.52 213.89 1102.13 213.89 1110.36 213.298C1117.96 212.706 1125.57 211.522 1133.17 211.522C1139.5 205.603 1147.11 200.276 1154.07 194.357Z" fill="#8B929B"/>
<path opacity="0.5" d="M1051.44 199.093C1053.98 199.685 1057.15 199.093 1059.68 199.093C1066.02 199.093 1071.72 199.685 1078.05 199.685C1088.19 200.276 1098.96 199.685 1109.09 194.949C1105.93 195.541 1103.39 195.541 1100.23 195.541C1095.16 195.541 1089.46 196.133 1084.39 194.949C1078.69 193.766 1072.98 192.582 1066.65 191.99C1061.58 191.398 1055.88 190.806 1050.81 189.03C1050.18 189.03 1050.18 187.847 1050.81 187.847C1053.34 184.295 1055.25 180.152 1057.78 176.601C1052.71 181.336 1048.28 186.663 1043.84 192.582C1045.11 193.766 1045.74 194.358 1047.01 194.949C1048.28 197.317 1050.18 197.909 1051.44 199.093Z" fill="#828A90"/>
<path d="M1154.07 194.358C1160.41 183.111 1165.48 170.09 1170.55 157.66C1167.38 160.027 1164.84 163.579 1162.31 166.538C1157.88 170.682 1152.81 173.641 1148.37 176.601C1136.97 183.703 1125.57 189.622 1113.53 193.766C1102.13 197.909 1090.09 199.685 1078.05 199.093C1072.35 199.093 1066.02 197.317 1060.31 197.317C1057.15 197.317 1053.98 197.317 1051.44 196.725C1050.18 196.725 1048.91 196.133 1047.64 195.541C1053.34 200.276 1059.68 204.42 1066.02 208.563C1069.18 210.931 1072.98 212.706 1076.15 214.482C1079.32 214.482 1082.49 213.89 1086.29 213.89C1094.52 212.706 1102.13 212.706 1110.36 212.114C1117.96 211.523 1125.57 210.339 1133.17 210.339C1139.5 205.604 1147.11 200.276 1154.07 194.358Z" fill="#737983"/>
<path opacity="0.4" d="M1155.98 189.622C1151.54 192.582 1146.47 194.949 1142.04 198.501C1137.6 201.46 1133.8 204.419 1128.73 205.603C1124.3 206.787 1119.86 206.787 1116.06 206.787C1111 206.787 1105.93 206.787 1100.86 207.971C1095.79 208.563 1090.72 209.747 1086.29 210.338C1081.22 210.93 1076.15 210.93 1070.45 209.747C1069.18 209.747 1067.28 209.155 1066.02 208.563C1069.18 210.93 1072.35 212.706 1076.15 214.482C1079.32 214.482 1082.49 213.89 1086.29 213.89C1094.52 212.706 1102.13 212.706 1110.36 212.114C1117.96 211.522 1125.57 210.338 1133.17 210.338C1140.14 205.603 1147.11 199.684 1154.71 194.357C1155.98 192.582 1156.61 190.214 1157.88 188.438C1156.61 189.03 1155.98 189.03 1155.98 189.622Z" fill="#60656A"/>
<path opacity="0.4" d="M1156.61 175.417C1150.91 178.376 1146.47 183.703 1141.4 189.622C1136.97 194.357 1132.54 197.909 1126.83 199.093C1121.77 200.276 1116.06 200.276 1111 200.276C1104.66 200.276 1097.69 200.276 1091.36 202.052C1085.02 203.236 1079.32 204.42 1073.62 204.42C1067.92 203.828 1062.21 202.644 1055.88 202.052C1055.25 202.052 1055.25 202.052 1054.61 202.052C1057.15 203.828 1059.68 205.603 1062.21 207.379C1068.55 209.155 1074.88 209.747 1081.22 208.563C1086.29 207.379 1091.36 206.195 1097.06 205.012C1102.13 204.42 1107.19 203.828 1112.26 203.236C1117.96 202.644 1123.67 203.236 1129.37 201.46C1134.44 199.685 1138.87 196.725 1143.31 193.174C1150.91 187.255 1157.24 178.376 1164.21 171.865C1164.21 171.273 1164.84 170.682 1164.84 170.09C1162.31 172.457 1159.78 174.233 1156.61 175.417Z" fill="#60656A"/>
<path d="M1151.54 196.725C1152.17 196.133 1153.44 195.541 1154.07 194.949C1154.07 194.949 1154.07 194.358 1154.71 194.358C1153.44 193.174 1151.54 191.398 1150.27 190.214C1147.11 187.255 1144.57 184.295 1141.4 181.336C1143.94 186.071 1147.74 190.806 1151.54 196.725Z" fill="#737983"/>
<path d="M1081.22 199.684C1080.59 199.684 1079.95 199.684 1079.32 199.684C1078.69 202.052 1078.05 205.011 1076.79 207.379C1076.15 209.746 1074.88 212.114 1074.25 215.074C1074.25 215.074 1074.88 215.074 1074.88 215.665C1076.15 215.665 1076.79 215.665 1078.05 215.665C1079.32 209.747 1080.59 204.419 1081.22 199.684Z" fill="#737983"/>
<path opacity="0.4" d="M1083.12 162.395C1087.55 159.436 1091.99 157.068 1096.42 155.884C1101.49 154.7 1106.56 154.7 1111.63 154.7C1123.67 154.7 1135.07 155.292 1147.11 154.7C1152.17 154.7 1156.61 154.109 1161.68 153.517C1161.04 153.517 1160.41 152.925 1159.78 152.925C1150.27 150.557 1140.77 149.965 1131.27 149.373C1116.06 147.598 1100.86 147.006 1086.29 153.517C1085.02 154.7 1083.12 155.292 1081.85 156.476C1079.32 159.436 1076.15 161.803 1072.98 164.171C1068.55 168.314 1064.11 174.233 1059.68 180.152C1067.28 173.049 1075.52 167.722 1083.12 162.395Z" fill="#828A90"/>
<path opacity="0.4" d="M1159.78 168.314C1154.07 173.641 1147.11 177.193 1140.77 180.744C1133.8 184.295 1126.83 187.847 1119.86 191.99C1117.96 193.174 1115.43 194.358 1113.53 195.541C1114.16 195.541 1114.16 196.133 1114.16 196.133C1116.7 198.501 1117.96 203.236 1119.86 207.379C1120.5 208.563 1121.13 209.747 1121.77 210.931C1124.93 210.339 1128.1 210.339 1131.9 210.339C1138.87 205.604 1145.84 199.685 1153.44 194.358C1159.14 183.112 1164.84 170.682 1169.28 158.252C1167.38 162.395 1162.94 165.355 1159.78 168.314Z" fill="#828A90"/>
<path opacity="0.5" d="M1154.07 153.516C1155.98 154.108 1157.24 154.7 1159.14 155.884C1159.14 155.884 1159.78 156.476 1159.14 157.068C1155.34 167.13 1149.01 172.457 1142.04 176.008C1137.6 178.376 1133.17 181.336 1129.37 184.295C1128.1 185.479 1126.2 186.663 1124.93 187.255C1126.2 186.663 1127.47 186.663 1128.73 186.071C1131.9 184.887 1137.6 183.111 1140.77 181.336C1147.11 177.784 1151.54 175.417 1158.51 171.865C1159.14 171.865 1155.98 186.663 1154.71 193.174C1161.04 181.927 1166.11 168.906 1171.18 156.476C1171.18 156.476 1171.18 156.476 1170.55 156.476C1167.38 154.7 1163.58 154.108 1160.41 153.516C1157.24 152.925 1154.71 152.333 1151.54 151.741C1152.17 152.333 1153.44 152.925 1154.07 153.516Z" fill="#737983"/>
<path opacity="0.5" d="M1727.41 187.846C1748.32 178.967 1766.69 168.905 1783.79 159.435C1783.16 159.435 1782.53 159.435 1782.53 159.435C1771.76 158.251 1759.09 157.659 1747.68 157.067C1715.37 155.291 1682.43 154.699 1650.12 154.107C1597.54 152.924 1546.86 152.332 1496.81 157.067C1445.49 164.762 1396.71 174.824 1354.27 187.254C1358.07 187.846 1361.24 188.438 1365.04 189.029C1385.31 192.581 1406.22 196.132 1427.12 199.092C1438.53 200.867 1449.93 202.051 1461.33 203.827C1472.74 203.827 1484.14 203.235 1494.91 203.235C1522.15 202.643 1549.39 202.051 1577.27 202.051C1603.24 201.459 1629.21 200.867 1655.19 200.275C1679.9 196.724 1703.97 192.581 1727.41 187.846Z" fill="#828A90"/>
<path d="M1722.34 159.435C1743.25 136.943 1761.62 111.491 1778.73 86.6314C1778.09 86.6314 1777.46 86.0395 1777.46 86.0395C1766.69 83.08 1754.02 81.3043 1742.61 80.1205C1710.3 75.3854 1677.36 74.7935 1645.05 73.0178C1592.47 70.0583 1541.79 68.8745 1491.74 81.3043C1440.43 100.837 1391.64 125.697 1349.2 157.659C1353 159.435 1356.17 161.21 1359.97 162.986C1380.24 172.456 1401.15 180.151 1422.05 188.438C1433.46 192.581 1444.86 196.724 1456.26 200.276C1467.67 200.276 1479.07 199.684 1489.84 198.5C1517.08 196.724 1544.32 196.132 1572.2 194.949C1598.17 193.765 1624.15 191.989 1650.12 190.805C1674.19 180.743 1698.27 170.089 1722.34 159.435Z" fill="#8B929B"/>
<path opacity="0.5" d="M1373.27 168.313C1382.78 168.905 1392.28 168.905 1401.78 168.313C1422.69 167.722 1442.96 169.497 1463.87 170.089C1498.71 171.273 1534.82 169.497 1569.03 161.211C1558.89 162.394 1549.39 162.394 1539.25 162.986C1520.88 162.986 1502.51 164.17 1484.77 162.394C1465.13 160.619 1445.49 157.659 1425.22 155.884C1407.48 154.7 1389.74 153.516 1372.01 150.557C1370.74 150.557 1370.74 148.781 1371.37 148.189C1378.97 140.494 1387.21 133.391 1395.45 126.289C1378.97 135.759 1363.77 146.413 1348.57 157.067C1352.37 158.843 1355.53 160.619 1359.34 162.394C1363.77 164.762 1368.84 166.538 1373.27 168.313Z" fill="#828A90"/>
<path d="M1722.34 159.435C1743.25 136.943 1760.99 112.083 1778.09 87.2233C1767.96 92.5503 1759.09 99.0612 1748.95 104.98C1733.75 113.267 1716.64 118.594 1700.8 124.513C1662.79 138.126 1622.88 149.964 1582.33 158.251C1543.06 166.537 1503.14 170.089 1462.6 168.905C1442.33 168.313 1422.69 165.946 1402.41 164.762C1392.28 164.17 1381.51 164.762 1371.37 163.578C1366.94 162.986 1362.5 162.394 1358.7 161.802C1358.7 161.802 1359.34 161.802 1359.34 162.394C1379.61 171.865 1400.51 179.559 1421.42 187.846C1432.82 191.989 1444.23 196.132 1455.63 199.684C1467.03 199.684 1478.44 199.092 1489.21 197.908C1516.45 196.132 1543.69 195.54 1571.56 194.357C1597.54 193.173 1623.51 191.397 1649.49 190.213C1674.19 180.743 1698.27 170.089 1722.34 159.435Z" fill="#737983"/>
<path opacity="0.4" d="M1728.68 149.372C1712.84 155.291 1696.37 160.027 1680.53 167.129C1665.96 173.048 1651.39 178.967 1636.18 181.335C1621.61 183.703 1607.04 183.703 1592.47 184.294C1575.37 184.294 1558.26 184.886 1541.16 186.662C1524.68 188.438 1507.58 190.213 1491.11 190.805C1473.37 191.989 1455.63 191.397 1437.89 189.622C1432.82 189.03 1427.76 188.438 1422.69 187.846C1434.09 191.989 1445.49 196.132 1456.9 199.684C1468.3 199.684 1479.7 199.092 1490.47 197.908C1517.72 196.132 1544.96 195.54 1572.83 194.357C1598.81 193.173 1624.78 191.397 1650.75 190.213C1675.46 180.743 1698.9 170.089 1722.98 159.435C1726.14 155.883 1729.94 151.74 1733.11 148.189C1731.21 148.781 1729.94 149.372 1728.68 149.372Z" fill="#60656A"/>
<path opacity="0.4" d="M1732.48 122.737C1712.21 128.064 1697 139.31 1679.9 149.964C1664.69 159.435 1648.85 166.537 1631.12 168.313C1613.38 170.681 1595.01 170.089 1577.27 170.089C1555.09 170.089 1532.92 170.681 1511.38 173.048C1490.47 175.416 1470.84 178.375 1449.93 177.192C1430.29 176.6 1410.02 173.64 1390.38 173.048C1389.11 173.048 1387.21 173.048 1385.94 173.048C1394.81 176.6 1403.05 180.151 1411.92 183.111C1433.46 186.07 1455 187.846 1476.54 185.478C1494.28 183.702 1512.01 180.151 1529.75 178.967C1547.49 177.192 1564.6 176.6 1582.33 176.008C1601.34 175.416 1620.98 175.416 1639.35 171.865C1655.82 168.313 1672.29 162.986 1687.5 155.883C1712.21 144.045 1734.38 127.472 1758.45 114.451C1759.09 113.267 1760.35 112.083 1760.99 110.899C1751.48 116.226 1742.62 119.778 1732.48 122.737Z" fill="#60656A"/>
<path d="M1713.47 162.986C1716.01 161.802 1719.17 160.619 1721.71 159.435C1722.34 158.843 1722.34 158.251 1722.98 157.659C1717.91 154.7 1712.84 152.332 1708.4 149.373C1698.27 143.454 1688.13 137.535 1677.36 132.208C1688.77 143.454 1702.07 152.332 1713.47 162.986Z" fill="#737983"/>
<path d="M1475.9 168.905C1474 168.905 1472.1 168.905 1470.2 168.905C1467.67 174.232 1465.13 178.967 1462.6 184.294C1460.06 189.03 1456.9 193.765 1454.36 198.5C1455 198.5 1455.63 199.092 1456.26 199.092C1459.43 199.092 1463.23 199.092 1466.4 199.092C1469.57 189.03 1472.74 178.967 1475.9 168.905Z" fill="#737983"/>
<path opacity="0.4" d="M1482.87 97.2857C1497.44 91.3667 1512.65 87.2234 1528.49 85.4477C1545.59 83.0801 1562.7 83.0801 1579.8 83.0801C1619.71 82.4882 1660.26 83.672 1700.17 83.0801C1716.64 82.4882 1732.48 81.8963 1748.95 80.7125C1746.42 80.7125 1744.52 80.1206 1741.98 79.5287C1709.67 74.7936 1676.73 74.2016 1644.42 72.4259C1591.84 69.4664 1541.16 68.2827 1491.11 80.7125C1486.04 82.4882 1481.61 84.2639 1476.54 86.6315C1467.03 91.9586 1456.26 96.6937 1446.76 101.429C1430.92 109.715 1416.35 120.961 1401.78 132.208C1427.76 118.002 1455.63 107.94 1482.87 97.2857Z" fill="#828A90"/>
<path opacity="0.4" d="M1743.25 107.94C1722.98 118.002 1700.8 125.697 1678.63 132.208C1655.19 139.31 1631.11 145.821 1608.31 154.7C1601.34 157.659 1594.37 160.027 1586.77 161.802C1588.04 162.394 1588.67 162.394 1589.94 162.986C1598.17 167.721 1603.87 177.192 1609.58 184.295C1611.48 186.662 1613.38 189.03 1615.28 191.397C1626.68 190.805 1638.08 190.214 1649.49 189.622C1674.19 180.151 1697.63 169.497 1721.71 158.843C1741.98 136.943 1759.72 112.675 1776.19 88.4073C1767.32 97.2857 1753.38 103.205 1743.25 107.94Z" fill="#828A90"/>
<path opacity="0.5" d="M1722.98 79.5286C1728.68 80.7124 1734.38 81.8961 1739.45 84.8556C1740.08 85.4475 1740.71 86.0394 1740.08 87.2232C1726.78 107.348 1705.24 116.818 1681.8 123.921C1666.59 128.656 1652.66 134.575 1638.08 140.494C1633.02 142.27 1628.58 144.637 1623.51 147.005C1627.95 146.413 1633.02 145.821 1637.45 144.637C1648.22 141.678 1666.59 139.31 1677.36 135.759C1699.54 128.064 1714.74 124.513 1736.91 117.41C1738.18 116.818 1728.04 145.821 1723.61 158.843C1743.88 136.351 1762.25 111.491 1778.73 87.2232C1778.09 87.2232 1777.46 86.6313 1777.46 86.6313C1766.69 83.6718 1754.02 81.8961 1742.61 80.7124C1733.11 79.5286 1722.98 78.3448 1713.47 77.7529C1716.64 77.7529 1719.81 78.3448 1722.98 79.5286Z" fill="#737983"/>
<defs>
<radialGradient id="paint0_radial_1_3516" cx="0" cy="0" r="1" gradientUnits="userSpaceOnUse" gradientTransform="translate(229.729 25.8975) scale(2.96867 2.77359)">
<stop offset="0.2489" stop-color="#FFE358"/>
<stop offset="0.3588" stop-color="#FFE878"/>
<stop offset="0.5754" stop-color="#FFF2B2"/>
<stop offset="0.761" stop-color="#FFF9DC"/>
<stop offset="0.906" stop-color="#FFFDF5"/>
<stop offset="0.9928" stop-color="white"/>
</radialGradient>
<radialGradient id="paint1_radial_1_3516" cx="0" cy="0" r="1" gradientUnits="userSpaceOnUse" gradientTransform="translate(484.303 129.111) scale(2.96867 2.77366)">
<stop offset="0.2489" stop-color="#FFE358"/>
<stop offset="0.3588" stop-color="#FFE878"/>
<stop offset="0.5754" stop-color="#FFF2B2"/>
<stop offset="0.761" stop-color="#FFF9DC"/>
<stop offset="0.906" stop-color="#FFFDF5"/>
<stop offset="0.9928" stop-color="white"/>
</radialGradient>
<radialGradient id="paint2_radial_1_3516" cx="0" cy="0" r="1" gradientUnits="userSpaceOnUse" gradientTransform="translate(389.974 44.6541) scale(2.97437 2.77891)">
<stop offset="0.2489" stop-color="#FFE358"/>
<stop offset="0.3588" stop-color="#FFE878"/>
<stop offset="0.5754" stop-color="#FFF2B2"/>
<stop offset="0.761" stop-color="#FFF9DC"/>
<stop offset="0.906" stop-color="#FFFDF5"/>
<stop offset="0.9928" stop-color="white"/>
</radialGradient>
<radialGradient id="paint3_radial_1_3516" cx="0" cy="0" r="1" gradientUnits="userSpaceOnUse" gradientTransform="translate(471.677 32.6652) scale(2.42006 2.26107)">
<stop offset="0.2489" stop-color="#FFE358"/>
<stop offset="0.3588" stop-color="#FFE878"/>
<stop offset="0.5754" stop-color="#FFF2B2"/>
<stop offset="0.761" stop-color="#FFF9DC"/>
<stop offset="0.906" stop-color="#FFFDF5"/>
<stop offset="0.9928" stop-color="white"/>
</radialGradient>
<radialGradient id="paint4_radial_1_3516" cx="0" cy="0" r="1" gradientUnits="userSpaceOnUse" gradientTransform="translate(765.099 17.2104) scale(2.97187 2.77655)">
<stop offset="0.2489" stop-color="#FFE358"/>
<stop offset="0.3588" stop-color="#FFE878"/>
<stop offset="0.5754" stop-color="#FFF2B2"/>
<stop offset="0.761" stop-color="#FFF9DC"/>
<stop offset="0.906" stop-color="#FFFDF5"/>
<stop offset="0.9928" stop-color="white"/>
</radialGradient>
<radialGradient id="paint5_radial_1_3516" cx="0" cy="0" r="1" gradientUnits="userSpaceOnUse" gradientTransform="translate(773.945 73.4261) scale(2.96419 2.76944)">
<stop offset="0.2489" stop-color="#FFE358"/>
<stop offset="0.3588" stop-color="#FFE878"/>
<stop offset="0.5754" stop-color="#FFF2B2"/>
<stop offset="0.761" stop-color="#FFF9DC"/>
<stop offset="0.906" stop-color="#FFFDF5"/>
<stop offset="0.9928" stop-color="white"/>
</radialGradient>
<radialGradient id="paint6_radial_1_3516" cx="0" cy="0" r="1" gradientUnits="userSpaceOnUse" gradientTransform="translate(757.618 148.807) scale(2.96617 2.77129)">
<stop offset="0.2489" stop-color="#FFE358"/>
<stop offset="0.3588" stop-color="#FFE878"/>
<stop offset="0.5754" stop-color="#FFF2B2"/>
<stop offset="0.761" stop-color="#FFF9DC"/>
<stop offset="0.906" stop-color="#FFFDF5"/>
<stop offset="0.9928" stop-color="white"/>
</radialGradient>
<radialGradient id="paint7_radial_1_3516" cx="0" cy="0" r="1" gradientUnits="userSpaceOnUse" gradientTransform="translate(956.153 75.4147) scale(2.96744 2.77247)">
<stop offset="0.2489" stop-color="#FFE358"/>
<stop offset="0.3588" stop-color="#FFE878"/>
<stop offset="0.5754" stop-color="#FFF2B2"/>
<stop offset="0.761" stop-color="#FFF9DC"/>
<stop offset="0.906" stop-color="#FFFDF5"/>
<stop offset="0.9928" stop-color="white"/>
</radialGradient>
<radialGradient id="paint8_radial_1_3516" cx="0" cy="0" r="1" gradientUnits="userSpaceOnUse" gradientTransform="translate(1798.35 74.3068) scale(2.97187 2.77655)">
<stop offset="0.2489" stop-color="#FFE358"/>
<stop offset="0.3588" stop-color="#FFE878"/>
<stop offset="0.5754" stop-color="#FFF2B2"/>
<stop offset="0.761" stop-color="#FFF9DC"/>
<stop offset="0.906" stop-color="#FFFDF5"/>
<stop offset="0.9928" stop-color="white"/>
</radialGradient>
<radialGradient id="paint9_radial_1_3516" cx="0" cy="0" r="1" gradientUnits="userSpaceOnUse" gradientTransform="translate(1849.34 80.4824) scale(2.41621 2.25746)">
<stop offset="0.2489" stop-color="#FFE358"/>
<stop offset="0.3588" stop-color="#FFE878"/>
<stop offset="0.5754" stop-color="#FFF2B2"/>
<stop offset="0.761" stop-color="#FFF9DC"/>
<stop offset="0.906" stop-color="#FFFDF5"/>
<stop offset="0.9928" stop-color="white"/>
</radialGradient>
<radialGradient id="paint10_radial_1_3516" cx="0" cy="0" r="1" gradientUnits="userSpaceOnUse" gradientTransform="translate(1728.21 77.3391) scale(5.07505 4.74167)">
<stop offset="0.2489" stop-color="#FFE358"/>
<stop offset="0.3588" stop-color="#FFE878"/>
<stop offset="0.5754" stop-color="#FFF2B2"/>
<stop offset="0.761" stop-color="#FFF9DC"/>
<stop offset="0.906" stop-color="#FFFDF5"/>
<stop offset="0.9928" stop-color="white"/>
</radialGradient>
</defs>
</svg>
