<svg width="46" height="45" viewBox="0 0 46 45" fill="none" xmlns="http://www.w3.org/2000/svg">
<path d="M41.8554 10.0067H41.6763L40.6317 9.70609C40.2396 9.49646 39.8781 9.23345 39.5573 8.92446C38.9565 8.50484 38.44 7.9744 38.0351 7.36118C37.5142 6.52612 37.1594 5.59695 36.9906 4.62545C34.5181 2.70418 31.6702 1.33132 28.6339 0.597008C28.1106 0.957434 27.562 1.27896 26.9924 1.55902C26.0366 1.69449 25.0631 1.51523 24.2167 1.04795C24.1222 0.932422 24.0116 0.831177 23.8884 0.747323L23.4408 0.566945C23.1116 0.445181 22.7719 0.3546 22.426 0.296378C21.6817 0.221032 20.9319 0.221032 20.1876 0.296378L18.8744 0.356504C14.8279 1.18263 11.082 3.10562 8.04052 5.91816C7.97896 6.24832 7.85756 6.56424 7.68238 6.85011C7.25433 7.42022 6.72878 7.90887 6.13042 8.29313C5.86504 8.48274 5.6155 8.69388 5.38428 8.92446C5.12073 9.29356 4.89098 9.68598 4.69784 10.0969C4.25016 10.8786 3.83232 11.6903 3.44433 12.502C3.04299 13.3449 2.68439 14.2078 2.3699 15.0874C2.14546 15.8069 1.96603 16.5398 1.83268 17.282C1.51805 18.7656 1.33824 20.275 1.29547 21.7914C1.17904 23.1976 1.4044 24.6112 1.95206 25.91C2.08607 26.2083 2.26753 26.4824 2.48928 26.7217C2.69207 26.9649 2.87193 27.2266 3.0265 27.5034C3.11697 27.7669 3.13134 28.0508 3.06794 28.3223C3.00455 28.5937 2.86598 28.8414 2.66835 29.0366C2.44462 29.2585 2.25366 29.5116 2.10129 29.7882C2.07193 29.9168 2.07193 30.0504 2.10129 30.179C2.1877 30.4444 2.28731 30.7053 2.39975 30.9606C2.6982 31.4717 3.17573 31.9226 3.50403 32.4337C3.85545 33.1391 4.11621 33.8866 4.28001 34.6584C7.24592 39.3191 11.7987 42.7292 17.0837 44.2485C18.3449 43.9827 19.6205 43.792 20.9039 43.6773H21.3516C21.3516 43.6773 21.5605 43.4668 21.65 43.3766C21.8214 43.1634 22.0668 43.0238 22.3365 42.9858C22.5538 42.9832 22.7651 43.0577 22.9334 43.1963L23.6497 43.6472C23.8402 43.8053 24.051 43.9367 24.2764 44.038C24.4074 44.1161 24.5478 44.1767 24.6943 44.2184H25.2912C26.0447 44.4036 26.8144 44.5143 27.5893 44.5491C30.774 43.8928 33.7792 42.5474 36.397 40.6061C39.0148 38.6648 41.1827 36.1738 42.7507 33.3055C42.7029 32.9286 42.623 32.5564 42.512 32.1932C42.4821 31.9939 42.4821 31.7912 42.512 31.5919C42.5474 31.3685 42.5973 31.1475 42.6612 30.9306C42.7807 30.4333 42.9507 29.9497 43.1686 29.4875C43.6461 28.4654 44.2131 27.4733 44.7802 26.4812L45.2876 25.5493C45.4304 24.5537 45.5003 23.5489 45.4965 22.543C45.5391 18.0936 44.2721 13.7313 41.8554 10.0067Z" fill="#807E77"/>
<path d="M27.5595 45C26.7648 44.9477 25.976 44.827 25.2017 44.6392L24.6048 44.4889L24.2168 44.3386C24.0274 44.2463 23.8475 44.1355 23.6796 44.0079H23.5005L22.8737 43.587C22.7646 43.4901 22.6298 43.4274 22.4858 43.4067C22.2948 43.4431 22.1244 43.5504 22.0082 43.7073C21.9161 43.8554 21.7805 43.971 21.6202 44.038H20.9039C19.6314 44.1466 18.366 44.3273 17.1136 44.5791C11.6756 43.0784 6.98493 39.5963 3.95176 34.8086C3.81753 34.0754 3.57614 33.3662 3.23547 32.7042C3.07308 32.4344 2.88301 32.1825 2.66841 31.9527C2.46585 31.7308 2.28588 31.4891 2.13119 31.2311C2.13119 30.9606 1.92227 30.69 1.83274 30.4495C1.78971 30.2717 1.78971 30.0862 1.83274 29.9084C1.94639 29.6564 2.09733 29.4233 2.28042 29.2169C2.29306 29.1676 2.29306 29.1159 2.28042 29.0666C2.69825 28.5856 2.78779 28.2549 2.60872 27.8641C2.56902 27.5466 2.46761 27.2402 2.31026 26.9622C2.07194 26.6834 1.86197 26.3813 1.68351 26.0603C1.10418 24.717 0.858337 23.2518 0.967222 21.7914C1.01039 20.2633 1.2003 18.7431 1.53428 17.2519C1.66698 16.4701 1.84638 15.697 2.0715 14.937C2.38271 14.0419 2.75159 13.1682 3.17578 12.3215C3.56377 11.4798 3.98161 10.6981 4.39944 9.88643C4.61047 9.53783 4.86085 9.21501 5.14558 8.92441C5.38345 8.62456 5.65372 8.35231 5.9514 8.11271L6.30955 7.81208C6.74063 7.52285 7.11499 7.15595 7.41383 6.72981C7.56939 6.48059 7.6805 6.20589 7.74213 5.91811C7.72903 5.89526 7.72213 5.86934 7.72213 5.84296C7.72213 5.81657 7.72903 5.79065 7.74213 5.7678C10.7865 2.87965 14.5687 0.901884 18.6655 0.0558307H19.0834H20.1877C20.9519 -0.0186102 21.7215 -0.0186102 22.4858 0.0558307C22.8518 0.110491 23.2117 0.201112 23.5602 0.326398C23.7288 0.35727 23.8905 0.418364 24.0377 0.506775C24.1975 0.587875 24.3395 0.700307 24.4555 0.837468C25.1991 1.19391 26.0219 1.34931 26.8432 1.28841C27.4077 0.998835 27.9558 0.677661 28.4847 0.326398C28.5614 0.296212 28.6467 0.296212 28.7234 0.326398C31.8081 1.10619 34.6958 2.52983 37.1995 4.50515C37.215 4.57444 37.215 4.64631 37.1995 4.71559C37.3408 5.64305 37.6655 6.53248 38.1546 7.33107C38.6012 7.9478 39.1457 8.48614 39.7662 8.92441C40.0821 9.15268 40.4225 9.34429 40.781 9.49561C41.0979 9.6304 41.428 9.73117 41.7659 9.79624H41.9449C42.0024 9.77284 42.0666 9.77284 42.124 9.79624C44.6241 13.5471 45.9544 17.965 45.9442 22.4828C45.9316 23.4881 45.8619 24.4919 45.7353 25.4891L45.1981 26.4211L44.9295 26.9021C44.4818 27.6837 44.0043 28.5255 43.6163 29.3672C43.4042 29.8214 43.2343 30.2944 43.1089 30.7802C43.0952 30.9904 43.0952 31.2013 43.1089 31.4115C43.0833 31.5708 43.0833 31.7332 43.1089 31.8925C43.0821 32.0113 43.0821 32.1346 43.1089 32.2533C43.1757 32.5102 43.2256 32.7714 43.2581 33.0349C43.2711 33.0943 43.2711 33.1559 43.2581 33.2153C41.6909 36.2316 39.4726 38.8559 36.7662 40.8952C34.0599 42.9346 30.9343 44.3372 27.6192 45H27.5595ZM22.3664 42.625C22.6109 42.6493 22.8461 42.7318 23.0528 42.8655L23.7393 43.2864L24.1869 43.557H24.5152H24.8435H25.4106C26.1357 43.7324 26.8748 43.843 27.6192 43.8877C30.7582 43.2337 33.7186 41.9002 36.2953 39.9796C38.872 38.0589 41.0034 35.597 42.5419 32.7644C42.57 32.5649 42.57 32.3625 42.5419 32.1631V31.7723C42.4974 31.5339 42.4974 31.2892 42.5419 31.0508C42.566 30.8154 42.616 30.5835 42.6911 30.3593C42.8359 29.8465 43.0154 29.3443 43.2283 28.8562C43.5691 28.2091 43.9375 27.5772 44.3326 26.9622L44.6012 26.5113L45.0787 25.6094C45.2266 24.6144 45.2965 23.6091 45.2876 22.6031C45.2945 18.2527 44.028 13.9967 41.6465 10.3674C41.2711 10.2967 40.9019 10.1961 40.5422 10.0668C40.1404 9.89052 39.7599 9.66862 39.4081 9.40542C38.7759 8.94514 38.2301 8.37505 37.7964 7.72189C37.281 6.89492 36.9265 5.9767 36.7519 5.01622C34.3751 3.10712 31.6313 1.71498 28.6936 0.927657C28.1908 1.26989 27.6619 1.57146 27.1118 1.82955C26.0815 1.98063 25.0307 1.77952 24.1272 1.25835L23.7094 1.01785L23.3513 0.867531C23.0459 0.741948 22.7243 0.660962 22.3962 0.627027C21.6718 0.553079 20.9419 0.553079 20.2175 0.627027H19.1431H18.8745C14.9386 1.38421 11.2843 3.21429 8.30919 5.91811C8.26348 6.24336 8.14063 6.55272 7.95104 6.82C7.61097 7.31254 7.18651 7.7401 6.69754 8.08265L6.33939 8.35322C6.07166 8.56265 5.83102 8.80504 5.6231 9.07473C5.38961 9.38305 5.1895 9.71563 5.0262 10.0668C4.60836 10.8484 4.19052 11.6301 3.80253 12.4718C3.38808 13.2985 3.02913 14.1522 2.7281 15.0272C2.5037 15.7263 2.32426 16.4393 2.19088 17.1617C1.84819 18.6826 1.64834 20.2327 1.59397 21.7914C1.49458 23.1578 1.71966 24.5284 2.25057 25.7897C2.37826 26.0592 2.53866 26.3117 2.7281 26.5413C2.93096 26.778 3.10159 27.0409 3.23547 27.323C3.35718 27.6381 3.3853 27.9821 3.31642 28.313C3.24753 28.6439 3.0846 28.9475 2.84748 29.1869L2.75795 29.3973C2.60334 29.5628 2.48175 29.7568 2.3998 29.9685C2.38332 30.0377 2.38332 30.1098 2.3998 30.1789L2.66841 30.8704C2.81107 31.1102 2.98137 31.3322 3.17578 31.5318C3.39828 31.784 3.59804 32.0556 3.77269 32.3435C4.12689 33.0476 4.38778 33.7956 4.54867 34.5681C7.44218 39.145 11.9025 42.4932 17.0837 43.9779C18.3361 43.726 19.6016 43.5454 20.8741 43.4367H21.2322C21.3366 43.3016 21.4672 43.1893 21.6159 43.1067C21.7647 43.024 21.9287 42.9726 22.0978 42.9557L22.3664 42.625Z" fill="#636568"/>
<g style="mix-blend-mode:multiply" opacity="0.52">
<path d="M10.339 9.37538L11.6223 9.7662C10.4618 8.9132 9.34607 8.00006 8.27962 7.03047C8.16563 6.88561 8.03544 6.75447 7.89163 6.63965V6.82003C7.59558 7.23833 7.23247 7.60408 6.8172 7.90229L8.66761 8.68393L10.339 9.37538Z" fill="#6C6C65"/>
</g>
<g style="mix-blend-mode:multiply" opacity="0.52">
<path d="M23.6194 1.73947C23.6194 2.58124 23.888 3.39294 24.0671 4.20464C24.2461 5.01634 24.0671 4.95621 24.3058 5.34703L24.4849 6.15873C24.4849 6.75999 24.7237 7.39131 24.9027 7.99257C25.0153 8.51579 25.2393 9.00814 25.5593 9.4356C26.0386 8.8758 26.3946 8.22005 26.6039 7.51157C26.8128 6.79005 26.9621 6.06854 27.1113 5.34703C27.2605 4.62552 27.3501 3.93407 27.4396 3.24262C27.5291 2.55117 27.6485 1.82966 27.8276 1.13821L26.9919 1.5591C26.0362 1.69456 25.0626 1.5153 24.2163 1.04802C24.1217 0.932494 24.0112 0.831249 23.888 0.747395L23.4702 0.567017C23.5 0.957835 23.5597 1.34865 23.6194 1.73947Z" fill="#6C6C65"/>
</g>
<g style="mix-blend-mode:multiply" opacity="0.52">
<path d="M4.72776 20.5887C5.65296 20.5887 6.57817 20.5887 7.47353 20.5887L6.04095 19.9875L3.05641 18.8451L1.65368 18.2438C1.5343 18.9052 1.44476 19.5666 1.38507 20.228C1.89258 20.3741 2.41193 20.4747 2.93703 20.5286C3.53394 20.5887 4.13085 20.5887 4.72776 20.5887Z" fill="#6C6C65"/>
</g>
<g style="mix-blend-mode:multiply" opacity="0.52">
<path d="M30.8131 6.97019C30.9922 6.60943 31.1713 6.21862 31.3802 5.85786C31.798 4.98603 32.2457 4.08414 32.6337 3.18225L33.0217 2.19018L31.9174 1.70917V2.19018C31.8465 2.66684 31.7469 3.1387 31.6189 3.60314C31.2905 4.7101 31.0215 5.83408 30.8131 6.97019Z" fill="#6C6C65"/>
</g>
<g style="mix-blend-mode:multiply" opacity="0.52">
<path d="M41.8553 10.0067H41.6762L40.6316 9.70608C40.2395 9.49645 39.878 9.23343 39.5572 8.92444C38.9564 8.50482 38.4399 7.97438 38.035 7.36116C37.5141 6.5261 37.1593 5.59694 36.9905 4.62543L36.5726 4.29474C36.1548 4.92606 35.7668 5.58745 35.4087 6.24883C35.0505 6.91022 34.9311 7.18079 34.6625 7.63173C34.4 8.07974 34.111 8.51143 33.797 8.92444C33.2299 9.58582 32.454 10.0067 31.8571 10.638C31.1972 11.4196 30.8279 12.4081 30.8125 13.4339C30.7216 13.9414 30.602 14.4433 30.4543 14.937C30.3278 15.4311 30.1371 15.9062 29.8873 16.35C28.9023 17.8917 27.6119 19.212 26.0969 20.2281C24.6046 21.3405 23.1124 22.2724 21.441 23.2344C19.7697 24.1964 17.4119 25.6695 15.4719 26.842C14.0394 27.6236 12.4874 28.4053 11.2339 29.247C9.98038 30.0888 9.23425 30.4796 8.24935 31.1109C7.21198 31.8253 6.21555 32.5981 5.26481 33.4258C4.93849 33.6747 4.63846 33.9568 4.36945 34.2675V34.5982C7.33536 39.259 11.8881 42.6691 17.1731 44.1883C18.4343 43.9226 19.7099 43.7318 20.9933 43.6171H21.441C21.441 43.6171 21.6499 43.4067 21.7395 43.3165C21.9108 43.1033 22.1562 42.9636 22.4259 42.9257C22.6432 42.923 22.8546 42.9975 23.0228 43.1361L23.7391 43.5871C23.9296 43.7451 24.1405 43.8766 24.3659 43.9779C24.4968 44.0559 24.6373 44.1166 24.7837 44.1583H25.3806C26.1342 44.3434 26.9038 44.4542 27.6787 44.489C30.842 43.8274 33.8262 42.4857 36.4274 40.5556C39.0287 38.6255 41.1855 36.1525 42.7506 33.3055C42.7028 32.9286 42.6229 32.5564 42.5119 32.1932C42.482 31.9939 42.482 31.7912 42.5119 31.5919C42.5473 31.3685 42.5972 31.1475 42.6611 30.9305C42.7806 30.4333 42.9506 29.9497 43.1685 29.4875C43.646 28.4654 44.213 27.4733 44.7801 26.4812L45.2875 25.5493C45.4303 24.5537 45.5002 23.5489 45.4964 22.543C45.539 18.0936 44.272 13.7313 41.8553 10.0067Z" fill="#6C6C65"/>
</g>
<g style="mix-blend-mode:multiply" opacity="0.52">
<path d="M15.0544 37.8149C15.0544 38.1456 14.8455 38.5063 14.7261 38.837C14.3381 39.9494 13.9203 41.0316 13.5621 42.174L13.3831 42.8354L14.6963 43.4367C14.6963 42.5348 14.6963 41.6329 14.8455 40.731C14.9947 39.8291 14.935 38.7769 15.0544 37.8149Z" fill="#6C6C65"/>
</g>
<g style="mix-blend-mode:multiply" opacity="0.52">
<path d="M36.4232 40.4303C35.7965 39.4383 35.1996 38.4462 34.543 37.424C33.9642 36.5605 33.2483 35.7987 32.424 35.1693C32.4541 35.6934 32.5139 36.2153 32.603 36.7326C32.8038 37.8367 33.0933 38.9225 33.4685 39.9794C33.6833 40.6281 33.9426 41.2609 34.2445 41.8734C35.0001 41.4278 35.7277 40.9359 36.4232 40.4003V40.4303Z" fill="#6C6C65"/>
</g>
<g style="mix-blend-mode:multiply" opacity="0.52">
<path d="M32.3939 9.9165C32.8705 10.6781 33.4535 11.3666 34.125 11.9608L34.4831 12.2614C34.6565 12.3815 34.848 12.4729 35.0502 12.532C35.2649 12.5922 35.492 12.5922 35.7068 12.532H36.0649H36.5424C37.7316 12.1684 38.8737 11.6638 39.9448 11.0288L41.4968 10.0969H41.2878L40.2731 9.79625C39.8723 9.55038 39.5016 9.25775 39.1688 8.92443C38.5749 8.49662 38.0598 7.96757 37.6467 7.36115C37.2012 6.55026 36.9078 5.66364 36.7812 4.74567L36.1843 4.41498C35.7667 5.04224 35.388 5.69484 35.0502 6.36907C34.8114 6.85008 34.5428 7.30102 34.2742 7.75197C33.9986 8.18545 33.6785 8.58851 33.3191 8.95449C33.0351 9.3008 32.7035 9.60449 32.3342 9.85638L32.3939 9.9165Z" fill="#6C6C65"/>
</g>
<g style="mix-blend-mode:multiply" opacity="0.52">
<path d="M40.6617 25.429C39.36 25.5194 38.0537 25.5194 36.752 25.429V25.6394C36.8247 26.0766 36.8348 26.5221 36.7818 26.9622L36.5132 28.4353C36.4176 28.89 36.3676 29.3533 36.364 29.8182C36.339 30.2041 36.4217 30.5894 36.6027 30.9305C36.8269 31.2381 37.1395 31.4689 37.4981 31.5919C37.9438 31.741 38.404 31.8418 38.871 31.8925L40.3931 32.0428C40.8109 32.0428 41.2586 32.0428 41.6764 32.2232L42.4524 32.4637V32.133C42.423 31.9337 42.423 31.7311 42.4524 31.5318C42.4524 31.3213 42.4524 31.0808 42.4524 30.8704C42.5953 30.3765 42.7749 29.8941 42.9896 29.4273C43.4373 28.4052 44.0342 27.4131 44.5714 26.421L45.1087 25.4891H44.8401C43.4502 25.375 42.0543 25.3549 40.6617 25.429Z" fill="#6C6C65"/>
</g>
<g style="mix-blend-mode:multiply" opacity="0.52">
<path d="M23.2025 41.5729C22.8444 40.1299 22.4862 38.5666 21.9789 37.2137C21.9099 37.7019 21.87 38.1938 21.8595 38.6868C21.7605 39.7869 21.7605 40.8937 21.8595 41.9938C21.8595 42.3545 21.8595 42.6852 21.8595 43.0159C21.9973 42.9867 22.1396 42.9867 22.2773 43.0159C22.4947 43.0132 22.706 43.0878 22.8742 43.2263L23.5905 43.6773C23.5905 43.0159 23.3816 42.2944 23.2025 41.5729Z" fill="#6C6C65"/>
</g>
<path d="M39.1989 11.6301H39.0497C38.7523 11.5717 38.4621 11.481 38.1842 11.3595C37.8519 11.2373 37.5399 11.065 37.259 10.8484C36.732 10.473 36.277 10.0044 35.9159 9.46553C35.4922 8.7523 35.1991 7.96825 35.0504 7.15068C32.9249 5.45104 30.4619 4.23104 27.8278 3.57318C27.3801 3.84375 26.9026 4.14438 26.4251 4.38488C25.6149 4.4924 24.7915 4.34542 24.0673 3.964C23.9754 3.86563 23.8756 3.77513 23.7689 3.69343L23.3809 3.54312C23.1019 3.43142 22.8117 3.35077 22.5154 3.30261C21.88 3.24247 21.2405 3.24247 20.6052 3.30261H19.3517C15.948 4.03086 12.8029 5.67202 10.2489 8.05257C10.1955 8.36156 10.0841 8.65747 9.92059 8.92439C9.54028 9.41256 9.08723 9.83849 8.57755 10.187C8.3386 10.3649 8.12735 10.5777 7.9508 10.8184C7.7173 11.1267 7.51719 11.4593 7.35389 11.8104C6.9659 12.5019 6.60775 13.1633 6.27945 13.8848C5.95116 14.6063 5.62286 15.3278 5.35425 16.1094C5.18456 16.7133 5.0451 17.3253 4.93641 17.9433C4.65812 19.2081 4.49824 20.4964 4.45889 21.7914C4.37652 22.9921 4.57059 24.1959 5.02595 25.3087C5.15052 25.5545 5.30059 25.7863 5.47363 26.0002C5.65889 26.2003 5.81925 26.4224 5.95116 26.6616C6.0317 26.8901 6.04352 27.1375 5.98512 27.3728C5.92672 27.6081 5.80071 27.8208 5.62286 27.9843C5.44045 28.18 5.28941 28.4032 5.17518 28.6457C5.14449 28.7538 5.14449 28.8683 5.17518 28.9764L5.44378 29.6378C5.71239 30.0887 6.13023 30.4495 6.39884 30.9004C6.69267 31.5028 6.91314 32.1387 7.05543 32.7944C9.59547 36.7859 13.4876 39.713 18.0087 41.0317C19.0901 40.7859 20.187 40.6151 21.2917 40.5206H21.6797C21.6797 40.5206 21.8588 40.25 21.8588 40.1899C21.9282 40.0942 22.0177 40.015 22.1208 39.9579C22.2239 39.9008 22.3382 39.8671 22.4557 39.8592C22.6344 39.8672 22.8085 39.9188 22.963 40.0095L23.5599 40.4304L24.0972 40.7611H24.4553H24.9627C25.6058 40.9366 26.2666 41.0374 26.9325 41.0617C29.695 40.5033 32.3024 39.3418 34.5712 37.659C36.84 35.9761 38.7151 33.8128 40.0644 31.3213C40.0122 30.9971 39.9425 30.6759 39.8555 30.3593C39.8266 30.1902 39.8266 30.0173 39.8555 29.8482C39.8416 29.6581 39.8416 29.4672 39.8555 29.277C39.9734 28.8553 40.123 28.4432 40.3032 28.0445C40.7134 27.1676 41.1717 26.3145 41.6761 25.4891L42.1238 24.6774C42.2448 23.8109 42.3047 22.9369 42.3028 22.0619C42.2889 18.3558 41.2109 14.733 39.1989 11.6301Z" fill="#BABCBE"/>
<g style="mix-blend-mode:screen">
<path d="M20.2178 3.3928L21.322 3.57318C21.6802 3.57318 22.0383 3.57318 22.4263 3.57318C22.7681 3.59655 23.0976 3.71064 23.3814 3.90387C23.6201 3.90387 23.7694 4.29469 24.0081 4.41494C24.2718 4.56005 24.5526 4.67115 24.8438 4.74564H25.7988H26.6644C26.9431 4.67532 27.2064 4.55295 27.4403 4.38488L28.1566 4.08425C28.4191 4.00519 28.6893 3.95479 28.9625 3.93394L27.8283 3.57318C27.3807 3.84375 26.9031 4.14438 26.4256 4.38488C25.6154 4.4924 24.792 4.34542 24.0678 3.964C23.9759 3.86563 23.8761 3.77513 23.7694 3.69343L23.3814 3.54312C23.1024 3.43142 22.8122 3.35077 22.5159 3.30261C21.8805 3.24247 21.241 3.24247 20.6057 3.30261H19.5612L20.2178 3.3928Z" fill="#828078"/>
</g>
<g style="mix-blend-mode:screen">
<path d="M6.93605 31.6821L6.42868 30.6599C6.24961 30.2992 6.01085 29.9985 5.86162 29.6378C5.6989 29.3346 5.63618 28.9872 5.68255 28.6457C5.71327 28.3962 5.80563 28.1585 5.95116 27.9542C6.54806 27.1425 7.71203 27.2027 8.42832 26.5413C8.23055 26.5103 8.02919 26.5103 7.83141 26.5413C7.39998 26.6471 6.94965 26.6471 6.51822 26.5413C6.21482 26.353 5.98346 26.0669 5.86162 25.7296C5.86162 25.3388 5.56317 24.9479 5.44378 24.5271C5.27311 24.0555 5.19211 23.5558 5.20502 23.054C5.19064 22.7936 5.19064 22.5327 5.20502 22.2723C5.20502 21.9417 5.20502 21.641 5.20502 21.3103C5.20502 20.9796 5.20502 20.1078 5.20502 19.5065C5.25262 18.9421 5.37302 18.3862 5.56317 17.8531L6.01085 16.4101C6.4292 14.451 7.29811 12.6181 8.5477 11.0589C8.97058 10.6376 9.43005 10.2552 9.92059 9.91646C10.079 9.80648 10.2114 9.6628 10.3086 9.49558C10.3225 9.35563 10.3225 9.21463 10.3086 9.07469C10.4172 8.36285 10.7402 7.70175 11.2338 7.18073C10.8756 7.45129 10.5473 7.75192 10.219 8.05255C10.1749 8.35948 10.0736 8.65527 9.92059 8.92438C9.54028 9.41255 9.08723 9.83847 8.57755 10.187C8.3386 10.3649 8.12735 10.5777 7.9508 10.8183C7.7173 11.1267 7.51719 11.4593 7.35389 11.8104C6.9659 12.5019 6.60775 13.1633 6.27945 13.8848C5.95116 14.6063 5.62286 15.3278 5.35425 16.1094C5.18456 16.7133 5.0451 17.3253 4.93641 17.9433C4.65812 19.2081 4.49824 20.4964 4.45889 21.7913C4.37652 22.9921 4.57059 24.1959 5.02595 25.3087C5.15052 25.5545 5.30059 25.7862 5.47363 26.0002C5.65889 26.2003 5.81925 26.4224 5.95116 26.6615C6.0317 26.8901 6.04352 27.1375 5.98512 27.3728C5.92672 27.6081 5.80071 27.8208 5.62286 27.9843C5.44045 28.18 5.28941 28.4032 5.17518 28.6457C5.14449 28.7538 5.14449 28.8683 5.17518 28.9764L5.44378 29.6378C5.71239 30.0887 6.13023 30.4495 6.39884 30.9004C6.69267 31.5028 6.91314 32.1387 7.05543 32.7944L7.50312 33.4558C7.39233 32.842 7.20167 32.2456 6.93605 31.6821Z" fill="#828078"/>
</g>
<g style="mix-blend-mode:screen">
<path d="M39.1993 11.63H39.0501C38.7527 11.5717 38.4625 11.481 38.1846 11.3595C37.8523 11.2373 37.5403 11.065 37.2594 10.8484C36.7325 10.473 36.2774 10.0044 35.9163 9.46551L35.6477 8.92438C35.7378 9.27399 35.8786 9.60829 36.0656 9.91646C36.242 10.2719 36.4738 10.5967 36.752 10.8785C37.0835 11.1401 37.4441 11.3621 37.8265 11.5399C38.5961 11.9076 39.2024 12.5506 39.5276 13.3436C39.6769 13.7645 39.7664 14.1854 39.9455 14.6063L40.6618 16.0493C40.9037 16.5007 41.1035 16.9737 41.2587 17.4623C41.4207 18.0338 41.5404 18.6166 41.6168 19.2059C41.8049 20.3004 41.9345 21.4043 42.0048 22.5128C42.0048 22.9337 42.0048 23.3245 42.0048 23.7454C42.0797 24.1022 42.0797 24.4709 42.0048 24.8277C41.9172 24.9774 41.7959 25.1043 41.6508 25.1983C41.5057 25.2922 41.3407 25.3507 41.1691 25.3688C40.9793 25.4071 40.7975 25.4783 40.6319 25.5793C40.5276 25.6411 40.4367 25.7236 40.3649 25.8217C40.2931 25.9199 40.2418 26.0317 40.2141 26.1505C40.1997 26.3908 40.1997 26.6317 40.2141 26.872C40.1819 27.1088 40.1218 27.3409 40.035 27.5634C39.8559 28.0144 39.647 28.4653 39.4978 28.9764C39.4361 29.2535 39.4361 29.541 39.4978 29.8182C39.5401 30.0368 39.6104 30.249 39.7067 30.4495C39.9205 30.8109 39.9949 31.2389 39.9156 31.652C38.5427 31.3514 37.8563 29.9384 36.6923 29.3371V29.5175C37.4086 30.3593 39.0501 30.9004 38.8412 32.2533C38.7624 32.6538 38.5647 33.0207 38.2741 33.3055C37.9458 33.6662 37.4982 33.9668 37.1997 34.3577C36.686 35.2882 36.0539 36.1473 35.3194 36.913C34.5152 37.4983 33.6433 37.9828 32.7229 38.356C31.7678 38.837 30.8426 39.4684 29.7384 39.8893C29.2527 40.1125 28.7414 40.274 28.2162 40.3703C27.7089 40.3703 27.2015 40.701 26.6941 40.7911C26.1967 40.8569 25.6909 40.7841 25.2317 40.5807C24.7725 40.3466 24.293 40.1554 23.7991 40.0095C23.4941 39.9494 23.2014 39.8376 22.9336 39.6788C22.6234 39.3928 22.4139 39.0129 22.3367 38.5965C22.2294 37.7159 22.07 36.8425 21.8592 35.9811C21.7393 36.758 21.7393 37.549 21.8592 38.326C21.9048 38.6179 21.8673 38.9169 21.7511 39.1883C21.6349 39.4597 21.4447 39.6923 21.2026 39.8592C20.8048 40.0795 20.3695 40.2223 19.9192 40.2801C19.3283 40.3946 18.7297 40.4649 18.1285 40.4905C17.5523 40.5355 16.9736 40.5355 16.3975 40.4905L18.1285 41.0918C19.2099 40.846 20.3068 40.6752 21.4115 40.5807H21.7995C21.7995 40.5807 21.8592 40.25 21.8592 40.1899C21.9287 40.0942 22.0181 40.015 22.1212 39.9579C22.2243 39.9007 22.3386 39.8671 22.4561 39.8592C22.6348 39.8672 22.8089 39.9187 22.9634 40.0095L23.5604 40.4304L24.0976 40.7611H24.4557H24.9631C25.6062 40.9366 26.2671 41.0374 26.9329 41.0617C29.6954 40.5033 32.3028 39.3418 34.5716 37.6589C36.8404 35.9761 38.7155 33.8128 40.0649 31.3213C40.0127 30.997 39.9429 30.6759 39.8559 30.3593C39.827 30.1902 39.827 30.0173 39.8559 29.8482C39.842 29.6581 39.842 29.4672 39.8559 29.277C39.9738 28.8553 40.1234 28.4432 40.3036 28.0444C40.7138 27.1676 41.1721 26.3145 41.6765 25.4891L42.1242 24.6774C42.2452 23.8109 42.3051 22.9369 42.3033 22.0619C42.2893 18.3558 41.2113 14.7329 39.1993 11.63Z" fill="#828078"/>
</g>
<g style="mix-blend-mode:multiply" opacity="0.39">
<path d="M17.7403 38.2357C17.6651 38.142 17.5594 38.0781 17.4419 38.0553C17.2976 38.0178 17.1452 38.0267 17.0062 38.0806C16.8671 38.1345 16.7481 38.2307 16.6659 38.3559C16.6352 38.464 16.6352 38.5785 16.6659 38.6866C16.6659 38.6866 16.6659 38.6866 16.6659 38.867C16.6693 38.9396 16.69 39.0104 16.7264 39.0732C16.7628 39.136 16.8137 39.189 16.8748 39.2277C17.3225 39.5284 17.9194 39.0474 17.9492 38.5363C17.9415 38.4728 17.9184 38.4121 17.882 38.3597C17.8456 38.3073 17.7969 38.2647 17.7403 38.2357Z" fill="#6C6C65"/>
<path d="M35.946 33.8165C35.8946 33.6882 35.8126 33.5746 35.7072 33.4858H35.4983H35.2297C35.0625 33.5394 34.9164 33.6446 34.8118 33.7865C34.8259 33.8356 34.8259 33.8877 34.8118 33.9368C34.7973 34.0163 34.7973 34.0978 34.8118 34.1773C34.844 34.2671 34.9077 34.342 34.9909 34.3877C35.0875 34.4221 35.1928 34.4221 35.2894 34.3877C35.4173 34.4145 35.5494 34.4145 35.6774 34.3877C35.7901 34.3389 35.8917 34.2673 35.9758 34.1773C36.005 34.057 35.9945 33.9303 35.946 33.8165Z" fill="#6C6C65"/>
<path d="M35.916 30.1188C35.8803 29.9846 35.8085 29.863 35.7084 29.7675C35.6083 29.672 35.4839 29.6062 35.3489 29.5776C35.1845 29.5471 35.0152 29.5556 34.8545 29.6026C34.6939 29.6496 34.5464 29.7337 34.4237 29.8482C34.3612 29.8994 34.3103 29.9634 34.2742 30.036C34.2382 30.1085 34.218 30.188 34.2148 30.2691C34.1983 30.3383 34.1983 30.4104 34.2148 30.4795C34.2106 30.6044 34.2386 30.7282 34.2962 30.8389C34.3537 30.9495 34.4388 31.0433 34.5431 31.1108C34.6838 31.1926 34.8433 31.2357 35.0057 31.2357C35.1681 31.2357 35.3277 31.1926 35.4683 31.1108C35.6402 31.0173 35.7769 30.8697 35.8577 30.6906C35.9386 30.5115 35.959 30.3107 35.916 30.1188Z" fill="#6C6C65"/>
<path d="M28.7234 31.9827H28.425H28.2459H28.5444V31.8324L28.7234 31.9827Z" fill="#6C6C65"/>
<path d="M27.5892 34.989H27.2907H27.6787V34.8387L27.5892 34.989Z" fill="#6C6C65"/>
</g>
<g style="mix-blend-mode:multiply" opacity="0.34">
<path d="M19.0831 7.24094C18.5397 6.9988 17.937 6.92553 17.3521 7.0305C16.7426 7.16584 16.1111 7.16584 15.5017 7.0305C15.1575 6.90626 14.8425 6.71181 14.5764 6.45931C14.3947 6.32019 14.1935 6.20876 13.9795 6.12861C13.7445 6.0688 13.4983 6.0688 13.2632 6.12861L12.547 6.30899C12.2667 6.38795 11.9964 6.4989 11.7411 6.63968C11.118 6.56644 10.5064 6.41495 9.92056 6.18874L9.23412 5.91817C8.93567 5.76786 8.66706 5.58748 8.3686 5.46723C8.07015 5.34698 8.15969 5.46723 8.3686 5.64761C8.56013 5.7536 8.75973 5.84408 8.96551 5.91817L9.92056 6.48937L11.5322 7.21088C11.5464 7.42108 11.5464 7.63201 11.5322 7.8422L11.3531 8.4134C11.167 8.83133 11.0559 9.27918 11.0248 9.73617C11.1425 10.7554 11.3523 11.7617 11.6516 12.7425H11.8008C11.5899 11.7518 11.4502 10.7471 11.383 9.73617C11.4352 9.28149 11.5772 8.84194 11.8008 8.44346C12.0121 8.03726 12.0954 7.57581 12.0396 7.12069H12.6962L13.3826 6.94031C13.569 6.89559 13.7633 6.89559 13.9497 6.94031C14.1875 7.00745 14.4103 7.11969 14.6063 7.27101C14.8675 7.45557 15.1612 7.58822 15.4718 7.66183C16.0225 7.78223 16.5924 7.78223 17.1431 7.66183C17.4613 7.64532 17.7801 7.64532 18.0982 7.66183C18.4462 7.63302 18.7957 7.69514 19.1129 7.8422C19.1129 7.8422 19.1428 7.24094 19.0831 7.24094Z" fill="#6C6C65"/>
</g>
<g style="mix-blend-mode:multiply" opacity="0.34">
<path d="M34.2449 2.61128C33.8569 2.61128 33.7077 3.18247 33.5883 3.4831C33.4689 3.78373 33.5883 3.93405 33.3496 4.14449C33.266 4.36446 33.1448 4.56796 32.9914 4.74575C32.9224 4.87275 32.8425 4.99346 32.7526 5.1065C32.6596 5.18231 32.5962 5.28879 32.5736 5.40713C32.3227 5.63517 32.0281 5.8091 31.7081 5.9182C31.4767 6.01379 31.2565 6.13477 31.0515 6.27896C30.8467 6.49893 30.6665 6.74088 30.5142 7.00047C30.1262 7.57167 29.4696 7.8723 29.022 8.38337C28.5743 8.89444 29.022 8.59381 29.022 8.38337C29.5057 8.07149 29.9471 7.69758 30.3352 7.27104L30.8127 7.09066C30.8127 7.09066 30.8127 6.79003 31.0515 6.66978C31.2203 6.47676 31.4364 6.33166 31.6782 6.2489C31.9239 6.15468 32.1632 6.04421 32.3945 5.9182C32.4381 6.09821 32.5085 6.27053 32.6034 6.42927C32.8272 6.93097 32.949 7.47274 32.9616 8.02261C33.0808 7.5186 33.0808 6.99341 32.9616 6.4894C32.8567 6.30013 32.7764 6.09805 32.7228 5.88814C32.7088 5.82884 32.7088 5.76707 32.7228 5.70776L33.0511 5.34701C33.3883 4.94039 33.6419 4.47032 33.7972 3.96411C33.8529 3.69997 33.9226 3.43905 34.0061 3.18247C33.9989 3.08239 33.9989 2.98192 34.0061 2.88184C34.0061 2.88184 34.0061 2.73153 34.0061 2.70146C34.0061 2.6714 34.3046 2.58121 34.2449 2.61128Z" fill="#6C6C65"/>
</g>
<g style="mix-blend-mode:multiply" opacity="0.34">
<path d="M9.92098 19.8072C9.53299 19.8072 9.11515 19.8072 8.72716 19.8072C8.31606 19.8257 7.90698 19.876 7.5035 19.9575C7.10788 20.0287 6.72542 20.1605 6.36938 20.3483L5.89185 20.5588C5.69397 20.5884 5.49282 20.5884 5.29494 20.5588H4.78757C4.42943 20.5588 4.07128 20.5588 3.71314 20.5588C2.97818 20.4981 2.23953 20.4981 1.50458 20.5588C1.50458 20.5588 1.50458 20.7091 1.50458 20.7391C1.9821 20.9496 2.72824 20.9496 3.44453 20.9496C4.16082 20.9496 4.13097 20.9496 4.45927 20.9496H5.17556C5.48761 21.0398 5.81856 21.0398 6.13061 20.9496C6.57245 20.9742 7.0067 21.0759 7.41397 21.2502C7.09404 21.076 6.75291 20.9446 6.39922 20.8594L7.14536 20.5888L8.42871 20.3784L9.92098 20.0176V19.8072Z" fill="#6C6C65"/>
</g>
<g style="mix-blend-mode:multiply" opacity="0.34">
<path d="M28.4844 39.7389L28.1561 39.2579C28.1413 39.0778 28.1413 38.8968 28.1561 38.7167C28.1561 38.5364 28.365 38.3861 28.4247 38.2057C28.47 37.9977 28.47 37.7823 28.4247 37.5744C28.4103 37.3341 28.4103 37.0931 28.4247 36.8528C28.4247 36.8528 28.2456 37.3339 28.1859 37.5443C28.1427 37.7764 28.062 37.9998 27.9472 38.2057L27.8278 38.5664C27.5592 38.0253 27.4099 37.424 27.1115 36.8829C27.3801 37.5744 27.4696 38.2959 27.7681 38.9573V39.1978C27.7681 39.1978 27.7681 39.3781 27.7681 39.4383V39.6788C27.865 39.8084 27.9452 39.9498 28.0069 40.0996C28.0784 40.2136 28.1384 40.3344 28.1859 40.4604C28.2282 40.3131 28.2282 40.1568 28.1859 40.0095C28.3002 39.9374 28.4012 39.8458 28.4844 39.7389Z" fill="#6C6C65"/>
</g>
<path d="M36.274 23.2945C36.338 19.9905 35.0981 16.7959 32.8264 14.4118C30.5547 12.0277 27.4367 10.6489 24.1568 10.5778H20.6052V11.0889C18.1133 11.9434 15.9499 13.5629 14.4188 15.7198C12.8878 17.8767 12.0662 20.4626 12.0694 23.1141C12.0357 25.8119 12.8607 28.4497 14.4237 30.6408C15.9867 32.8319 18.2053 34.4611 20.7544 35.2896V35.981H24.8432C27.9963 35.736 30.9369 34.2854 33.0623 31.9266C35.1876 29.5677 36.3367 26.4793 36.274 23.2945Z" fill="#F1B81A"/>
<path d="M23.6793 36.1915H20.6948C20.6502 36.1782 20.6113 36.1502 20.5843 36.1121C20.5572 36.074 20.5436 36.0279 20.5455 35.9811V35.6504C18.0567 34.8428 15.891 33.2515 14.3675 31.1109C12.7564 28.8446 11.8901 26.1271 11.8901 23.3396C11.8901 20.5522 12.7564 17.8346 14.3675 15.5683C15.8495 13.4758 17.9328 11.8914 20.3366 11.0288V10.638C20.3366 10.5822 20.3586 10.5287 20.3978 10.4892C20.437 10.4497 20.4901 10.4276 20.5455 10.4276H24.0971C27.4324 10.4986 30.6035 11.8997 32.9144 14.3232C35.2253 16.7468 36.4873 19.9949 36.4233 23.3546C36.4568 26.5682 35.2812 29.6754 33.1329 32.0513C30.9846 34.4272 28.0228 35.8957 24.8433 36.1615H23.6793V36.1915ZM20.9932 35.7406H24.8433C27.9196 35.4743 30.7807 34.0408 32.8474 31.7301C34.9142 29.4194 36.0324 26.4042 35.9756 23.2945C36.0072 21.6851 35.7233 20.0853 35.1401 18.5866C34.5569 17.088 33.6858 15.72 32.5768 14.561C31.4678 13.402 30.1427 12.4749 28.6773 11.8326C27.212 11.1904 25.6353 10.8457 24.0375 10.8184H20.844V11.119C20.8598 11.1518 20.8681 11.1878 20.8681 11.2242C20.8681 11.2607 20.8598 11.2967 20.844 11.3294C18.4353 12.1357 16.3445 13.6942 14.8749 15.7788C13.3108 17.9681 12.4693 20.5972 12.4693 23.2945C12.4693 25.9918 13.3108 28.6209 14.8749 30.8103C16.3953 32.9019 18.5387 34.4501 20.9932 35.2295C21.0091 35.2623 21.0173 35.2983 21.0173 35.3347C21.0173 35.3712 21.0091 35.4072 20.9932 35.44V35.7406Z" fill="#C0892A"/>
<g style="mix-blend-mode:multiply">
<path d="M17.0539 13.0131L16.4272 13.5242H31.9169C31.7112 13.3374 31.4917 13.1666 31.2603 13.0131H17.0539Z" fill="#BD8034"/>
<path d="M14.9349 15.0874H33.4092L32.9615 14.5763H15.3826L14.9349 15.0874Z" fill="#BD8034"/>
<path d="M13.0848 18.1839H35.26L35.0212 17.6728H13.3236L13.0848 18.1839Z" fill="#BD8034"/>
<path d="M12.07 22.8436H36.2448C36.2592 22.6736 36.2592 22.5026 36.2448 22.3325H12.0999C12.1058 22.5035 12.0958 22.6746 12.07 22.8436Z" fill="#BD8034"/>
<path d="M28.5744 11.4498H19.77L18.6657 11.9308H29.6488L28.5744 11.4498Z" fill="#BD8034"/>
<path d="M13.8609 16.6506H34.4841L34.1558 16.1095H14.1892L13.8609 16.6506Z" fill="#BD8034"/>
<path d="M12.5472 19.7472H35.7968L35.6177 19.2361H12.6965C12.6368 19.3865 12.6069 19.5668 12.5472 19.7472Z" fill="#BD8034"/>
<path d="M12.3386 25.9701H36.006V25.459H12.1296L12.3386 25.9701Z" fill="#BD8034"/>
<path d="M12.13 24.407H36.2153C36.2153 24.2266 36.2153 24.0763 36.2153 23.8959H12.1002C12.0957 24.0668 12.1057 24.2378 12.13 24.407Z" fill="#BD8034"/>
<path d="M12.9053 27.5034H35.5878C35.6266 27.3201 35.6765 27.1394 35.737 26.9622H12.6069C12.6839 27.1542 12.7842 27.336 12.9053 27.5034Z" fill="#BD8034"/>
<path d="M14.308 30.63H34.0358L34.3641 30.119H13.9797L14.308 30.63Z" fill="#BD8034"/>
<path d="M17.293 33.7265H31.0517L31.7083 33.2154H16.6364C16.8421 33.4022 17.0616 33.573 17.293 33.7265Z" fill="#BD8034"/>
<path d="M12.2191 21.3104H36.0954V20.7692H12.3086L12.2191 21.3104Z" fill="#BD8034"/>
<path d="M13.3832 29.0667H34.9315C35.0233 28.9024 35.1031 28.7316 35.1703 28.5557H13.1743C13.2339 28.736 13.3235 28.8864 13.3832 29.0667Z" fill="#BD8034"/>
<path d="M15.5321 32.1631H32.8126L33.2603 31.652H15.0844L15.5321 32.1631Z" fill="#BD8034"/>
<path d="M20.2179 35.2898H28.127L29.3208 34.7787H18.8749L20.2179 35.2898Z" fill="#BD8034"/>
</g>
<path d="M33.5583 23.2945C33.59 24.929 33.3016 26.5538 32.7098 28.076C32.1179 29.5983 31.2341 30.9882 30.1088 32.1663C28.9836 33.3444 27.6389 34.2877 26.1517 34.9422C24.6645 35.5968 23.0638 35.9498 21.4411 35.981C18.1691 35.91 15.0587 34.5343 12.7926 32.1558C10.5265 29.7774 9.28969 26.5904 9.35369 23.2945C9.31803 21.6599 9.60243 20.0343 10.1907 18.5105C10.7789 16.9867 11.6594 15.5946 12.7819 14.4137C13.9044 13.2327 15.2468 12.2862 16.7326 11.628C18.2184 10.9698 19.8183 10.613 21.4411 10.5778C24.721 10.6489 27.8389 12.0277 30.1107 14.4118C32.3824 16.7959 33.6223 19.9905 33.5583 23.2945Z" fill="#F1B81A"/>
<path d="M21.4409 36.1915C18.1135 36.1204 14.95 34.7225 12.6447 32.3046C10.3394 29.8867 9.08062 26.6462 9.14461 23.2945C9.08054 19.9398 10.3384 16.6962 12.6429 14.2735C14.9474 11.8507 18.1108 10.4463 21.4409 10.3674C23.095 10.3987 24.7267 10.7579 26.2429 11.4245C27.7591 12.0911 29.1301 13.0521 30.2775 14.2526C31.4249 15.453 32.3263 16.8694 32.9302 18.4209C33.534 19.9723 33.8286 21.6284 33.7969 23.2945C33.8285 24.9591 33.5338 26.6137 32.9296 28.1634C32.3253 29.7131 31.4235 31.1275 30.2757 32.3255C29.1279 33.5236 27.7567 34.4818 26.2407 35.1452C24.7247 35.8085 23.0936 36.1641 21.4409 36.1915ZM21.4409 10.8183C19.8431 10.8457 18.2664 11.1904 16.801 11.8326C15.3357 12.4748 14.0106 13.402 12.9016 14.561C11.7926 15.7199 10.9215 17.0879 10.3383 18.5866C9.75504 20.0852 9.47111 21.6851 9.50275 23.2945C9.47111 24.9038 9.75504 26.5037 10.3383 28.0023C10.9215 29.501 11.7926 30.869 12.9016 32.028C14.0106 33.1869 15.3357 34.1141 16.801 34.7563C18.2664 35.3986 19.8431 35.7432 21.4409 35.7706C23.0387 35.7432 24.6155 35.3986 26.0808 34.7563C27.5461 34.1141 28.8713 33.1869 29.9803 32.028C31.0893 30.869 31.9603 29.501 32.5436 28.0023C33.1268 26.5037 33.4107 24.9038 33.3791 23.2945C33.4107 21.6851 33.1268 20.0852 32.5436 18.5866C31.9603 17.0879 31.0893 15.7199 29.9803 14.561C28.8713 13.402 27.5461 12.4748 26.0808 11.8326C24.6155 11.1904 23.0387 10.8457 21.4409 10.8183Z" fill="#C0892A"/>
<g style="mix-blend-mode:screen" opacity="0.71">
<path d="M24.8434 11.7504L10.1893 24.9781C10.3048 25.7141 10.4846 26.4384 10.7265 27.1426L26.9028 12.6222C26.2457 12.2656 25.5561 11.9736 24.8434 11.7504Z" fill="#FFF8A3"/>
<path d="M31.2006 16.9512L14.129 32.2833C15.594 33.5881 17.3752 34.48 19.2923 34.8687L32.8421 22.8435C32.8086 20.7697 32.2431 18.7398 31.2006 16.9512Z" fill="#FFF8A3"/>
</g>
<g style="mix-blend-mode:multiply">
<path d="M21.4411 11.3895C18.4145 11.4605 15.5394 12.738 13.4468 14.9417C11.3542 17.1454 10.2149 20.0953 10.2789 23.1441C10.2229 26.1878 11.3657 29.13 13.4575 31.3272C15.5493 33.5243 18.4198 34.7977 21.4411 34.8687C24.4677 34.8055 27.3458 33.5356 29.444 31.3376C31.5422 29.1396 32.6891 26.1929 32.6331 23.1441C32.6648 21.632 32.4004 20.1284 31.8551 18.7192C31.3097 17.31 30.4941 16.0228 29.4547 14.9313C28.4154 13.8397 27.1727 12.965 25.7977 12.3573C24.4227 11.7496 22.9423 11.4208 21.4411 11.3895ZM21.4411 35.4399C18.3009 35.33 15.3303 33.9774 13.1736 31.6756C11.017 29.3738 9.8482 26.3083 9.92079 23.1441C9.87988 20.0005 11.0628 16.9658 13.2161 14.69C15.3694 12.4142 18.3219 11.0784 21.4411 10.9686C24.5761 11.0552 27.5513 12.381 29.7237 14.6592C31.8962 16.9375 33.0914 19.9854 33.051 23.1441C33.0835 26.2977 31.8848 29.3379 29.7131 31.6097C27.5415 33.8815 24.5708 35.203 21.4411 35.2896V35.4399Z" fill="#C0892A"/>
</g>
</svg>
