<svg width="110" height="162" viewBox="0 0 110 162" fill="none" xmlns="http://www.w3.org/2000/svg">
<path d="M54.5517 161.111C84.6798 161.111 109.103 156.609 109.103 151.055C109.103 145.502 84.6798 141 54.5517 141C24.4236 141 0 145.502 0 151.055C0 156.609 24.4236 161.111 54.5517 161.111Z" fill="#5D656C"/>
<path d="M47.8745 117.737C48.009 118.345 48.1706 118.953 48.3632 119.557C51.8428 130.503 63.5382 136.556 74.4836 133.076C85.4299 129.596 91.4831 117.901 88.0031 106.955C87.8114 106.351 87.5939 105.762 87.352 105.188L47.8745 117.737Z" fill="#1B579F"/>
<path d="M51.4723 125.637C53.6027 125.813 55.7642 125.688 57.8697 125.343C62.6863 124.554 67.4402 123.081 72.0987 121.642C77.9503 119.833 83.9321 117.597 88.9684 114.065C89.0599 111.72 88.7548 109.32 88.0031 106.955C87.8114 106.351 87.5939 105.761 87.3519 105.188L47.8745 117.737C48.009 118.345 48.1706 118.953 48.3632 119.557C49.0771 121.804 50.1434 123.842 51.4723 125.637Z" fill="#1B579F"/>
<path d="M71.0478 99.3133C57.1806 99.3133 45.9386 110.555 45.9386 124.423C45.9386 138.29 57.1806 149.532 71.0478 149.532C84.9149 149.532 96.1565 138.29 96.1565 124.423C96.1565 110.555 84.9149 99.3133 71.0478 99.3133ZM71.0478 142.928C60.8278 142.928 52.5427 134.644 52.5427 124.423C52.5427 114.203 60.8274 105.917 71.0478 105.917C81.2673 105.917 89.5528 114.203 89.5528 124.423C89.5528 134.644 81.2677 142.928 71.0478 142.928Z" fill="#0F4C84"/>
<path d="M71.0477 149.532C70.1937 149.532 69.5018 148.84 69.5018 147.986V100.861C69.5018 100.007 70.1933 99.3133 71.0477 99.3133C71.9009 99.3133 72.5945 100.007 72.5945 100.861V147.986C72.5945 148.84 71.9013 149.532 71.0477 149.532Z" fill="#00ADE4" stroke="#4860AC" stroke-width="0.594646" stroke-miterlimit="10"/>
<path d="M94.611 125.97H47.4846C46.631 125.97 45.9386 125.277 45.9386 124.424C45.9386 123.569 46.6306 122.876 47.4846 122.876H94.6105C95.4645 122.876 96.1565 123.569 96.1565 124.424C96.1565 125.277 95.465 125.97 94.611 125.97Z" fill="#00ADE4" stroke="#4860AC" stroke-width="0.594646" stroke-miterlimit="10"/>
<path d="M54.3865 142.632C53.9902 142.632 53.5948 142.48 53.2931 142.178C52.6892 141.574 52.6892 140.595 53.2931 139.991L86.6164 106.668C87.2189 106.064 88.1984 106.064 88.8023 106.668C89.4066 107.272 89.4066 108.252 88.8023 108.854L55.4799 142.178C55.1773 142.48 54.7819 142.632 54.3865 142.632Z" fill="#00ADE4" stroke="#4860AC" stroke-width="0.594646" stroke-miterlimit="10"/>
<path d="M87.7093 142.632C87.3131 142.632 86.9181 142.48 86.6164 142.178L53.2931 108.854C52.6892 108.25 52.6892 107.271 53.2931 106.668C53.8974 106.064 54.876 106.064 55.4799 106.668L88.8023 139.991C89.4066 140.595 89.4066 141.574 88.8023 142.178C88.501 142.48 88.1056 142.632 87.7093 142.632Z" fill="#00ADE4" stroke="#4860AC" stroke-width="0.594646" stroke-miterlimit="10"/>
<path d="M55.268 122.876H47.4846C46.631 122.876 45.9386 123.569 45.9386 124.424C45.9386 125.276 46.6306 125.97 47.4846 125.97H55.1206C55.0454 124.939 55.0923 123.902 55.268 122.876Z" fill="#B3B5B8"/>
<path d="M72.5945 109.073V100.861C72.5945 100.007 71.9013 99.3133 71.0477 99.3133C70.1937 99.3133 69.5018 100.007 69.5018 100.861V109.474C70.5281 109.251 71.563 109.117 72.5945 109.073Z" fill="#B3B5B8"/>
<path d="M61.7952 112.984L55.4799 106.668C54.876 106.065 53.8974 106.065 53.2931 106.668C52.6892 107.271 52.6892 108.251 53.2931 108.855L59.4778 115.039C60.1912 114.293 60.967 113.604 61.7952 112.984Z" fill="#B3B5B8"/>
<path d="M78.9276 118.73C78.2567 117.885 77.4225 117.248 76.483 116.802L72.5947 120.691V115.977C71.5615 115.976 70.5136 116.124 69.5023 116.4V120.69L66.4341 117.622C65.5092 118.118 64.632 118.721 63.8695 119.431L67.3156 122.876H61.6149C61.605 122.911 61.5899 122.944 61.5796 122.978C61.2895 123.971 61.2616 124.985 61.43 125.969H67.3151L63.3332 129.951C64.0092 130.752 64.8168 131.438 65.7064 131.95L69.5015 128.156V133.184C70.5265 133.312 71.5714 133.292 72.5938 133.134V128.156L76.2904 131.852C76.452 131.759 76.6132 131.664 76.7692 131.562C77.4818 131.094 78.1385 130.534 78.7102 129.899L74.7797 125.969H80.725C80.967 124.995 81.1157 123.903 81.0469 122.876H74.7797L78.9276 118.73Z" fill="#B3B5B8"/>
<path d="M88.8024 106.668C88.1985 106.065 87.219 106.065 86.6165 106.668L81.7366 111.548C82.5709 112.12 83.3556 112.796 84.0777 113.58L88.8019 108.855C89.4067 108.252 89.4066 107.272 88.8024 106.668Z" fill="#B3B5B8"/>
<path d="M88.8022 139.992L83.3082 134.497C82.921 134.921 82.5183 135.325 82.101 135.697C81.7563 136.004 81.3914 136.297 81.0157 136.578L86.6163 142.178C86.918 142.48 87.313 142.632 87.7093 142.632C88.1055 142.632 88.501 142.48 88.8022 142.178C89.4065 141.574 89.4065 140.595 88.8022 139.992Z" fill="#B3B5B8"/>
<path d="M94.6109 122.876H88.0218C88.0369 123.902 87.932 124.941 87.7197 125.97H94.6109C95.4649 125.97 96.1569 125.276 96.1569 124.423C96.1564 123.569 95.4649 122.876 94.6109 122.876Z" fill="#B3B5B8"/>
<path d="M58.5834 134.701L53.2927 139.991C52.6889 140.595 52.6889 141.574 53.2927 142.178C53.5944 142.479 53.9899 142.632 54.3861 142.632C54.7815 142.632 55.1769 142.48 55.4795 142.178L60.7066 136.951C59.9317 136.29 59.2225 135.535 58.5834 134.701Z" fill="#B3B5B8"/>
<path d="M69.8688 140.308C69.7455 140.308 69.6247 140.299 69.5018 140.297V147.987C69.5018 148.84 70.1933 149.533 71.0477 149.533C71.9009 149.533 72.5945 148.841 72.5945 147.987V140.084C71.6808 140.229 70.7662 140.308 69.8688 140.308Z" fill="#B3B5B8"/>
<path d="M77.5642 124.423C77.5642 128.022 74.6473 130.94 71.0482 130.94C67.4492 130.94 64.5313 128.022 64.5313 124.423C64.5313 120.824 67.4492 117.907 71.0482 117.907C74.6473 117.907 77.5642 120.824 77.5642 124.423Z" fill="#D90025" stroke="#A42911" stroke-width="0.594646" stroke-miterlimit="10"/>
<path d="M71.0476 96.8474C55.8176 96.8474 43.4711 109.194 43.4711 124.423C43.4711 139.654 55.8181 151.999 71.0476 151.999C86.2768 151.999 98.6242 139.653 98.6242 124.423C98.6246 109.194 86.2772 96.8474 71.0476 96.8474ZM71.0476 144.746C59.8233 144.746 50.7246 135.648 50.7246 124.423C50.7246 113.2 59.8233 104.099 71.0476 104.099C82.2712 104.099 91.3698 113.2 91.3698 124.423C91.3702 135.648 82.2716 144.746 71.0476 144.746Z" fill="#4C5354"/>
<path d="M91.3622 124.099C91.3643 124.207 91.3704 124.314 91.3704 124.423C91.3704 135.648 82.2717 144.746 71.0482 144.746C60.3688 144.746 51.62 136.508 50.7948 126.042C48.0648 124.486 45.679 122.43 43.8331 119.982C43.5993 121.429 43.4716 122.911 43.4716 124.423C43.4716 139.654 55.8186 151.999 71.0482 151.999C86.2774 151.999 98.6248 139.653 98.6248 124.423C98.6248 122.822 98.4799 121.257 98.2186 119.731C96.1333 121.447 93.8111 122.896 91.3622 124.099Z" fill="#4C5354"/>
<path d="M71.0478 119.493L72.5422 122.521L75.8833 123.006L73.4653 125.363L74.037 128.691L71.0478 127.119L68.059 128.691L68.6302 125.363L66.2126 123.006L69.5534 122.521L71.0478 119.493Z" fill="#FFF200" stroke="#48B74A" stroke-width="0.594646" stroke-miterlimit="10"/>
<path opacity="0.4" d="M74.367 122.877C74.367 125.13 72.5417 126.955 70.2896 126.955C68.0375 126.955 66.2126 125.13 66.2126 122.877C66.2126 120.625 68.0375 118.8 70.2896 118.8C72.5417 118.799 74.367 120.624 74.367 122.877Z" fill="white"/>
<path d="M73.6214 97.6769C73.6214 97.6769 51.6785 95.8396 45.3464 118.799C45.3464 118.799 51.0892 100.101 73.6214 97.6769Z" fill="white"/>
<path d="M37.812 115.948L37.6717 132.131L74.4586 130.672L73.0984 114.643L37.812 115.948Z" fill="#EF3F23" stroke="#A42911" stroke-width="0.594646" stroke-miterlimit="10"/>
<path opacity="0.5" d="M45.3611 128.234C49.4314 128.688 53.7162 128.914 57.8148 128.51C63.8353 127.916 69.0567 126.005 73.8554 123.56L73.099 114.642L37.812 115.948L37.7185 126.807C40.1739 127.492 42.7701 127.946 45.3611 128.234Z" fill="#B77D98"/>
<path d="M20.0391 3.83642L9.98163 99.007C9.98163 99.007 10.8889 121.18 43.0183 125.097C78.0507 129.368 90.8393 106.429 90.131 91.7087L71.9906 2.42181C71.9906 2.42181 56.5004 1.85193 20.0391 3.83642Z" fill="#EF3F23"/>
<path d="M20.0391 3.83642L9.98163 99.007C9.98163 99.007 10.8889 121.18 43.0183 125.097C78.0507 129.368 90.8393 106.429 90.131 91.7087L71.9906 2.42181C71.9906 2.42181 56.5004 1.85193 20.0391 3.83642Z" fill="#FED93F"/>
<path d="M20.0391 3.83642L9.98163 99.007C9.98163 99.007 10.8889 121.18 43.0183 125.097C78.0507 129.368 90.8393 106.429 90.131 91.7087L71.9906 2.42181C71.9906 2.42181 56.5004 1.85193 20.0391 3.83642Z" stroke="#A85B1E" stroke-width="0.594646" stroke-miterlimit="10"/>
<g filter="url(#filter0_i_5_7649)">
<path d="M20.0391 3.83642L9.98163 99.007C9.98163 99.007 10.8889 121.18 43.0183 125.097C78.0507 129.368 90.8393 106.429 90.131 91.7087L71.9906 2.42181C71.9906 2.42181 56.5004 1.85193 20.0391 3.83642Z" fill="#FFE358"/>
</g>
<path d="M20.0391 3.83642L9.98163 99.007C9.98163 99.007 10.8889 121.18 43.0183 125.097C78.0507 129.368 90.8393 106.429 90.131 91.7087L71.9906 2.42181C71.9906 2.42181 56.5004 1.85193 20.0391 3.83642Z" stroke="#A85B1E" stroke-width="0.594646" stroke-miterlimit="10"/>
<path opacity="0.5" d="M38.5408 131.078L73.1752 130.049L72.6082 124.487L70.482 128.67L38.5408 131.078Z" fill="#D1DBE0"/>
<path d="M10.6261 92.9075L16.961 99.0479L31.1587 86.3892L44.6211 99.4386L58.8169 86.7795L72.2794 99.8285L86.4762 87.1696L89.8787 90.4683L87.7051 79.7672L11.9525 80.3505L10.6261 92.9075Z" fill="#FED93F" stroke="#A85B1E" stroke-width="0.594646" stroke-miterlimit="10"/>
<path d="M58.084 112.488L44.6209 99.4389L30.4242 112.098L16.9603 99.048L11.1561 104.224C13.5652 111.033 20.8791 122.398 43.0179 125.097C64.0017 127.656 77.003 120.45 83.9046 111.097L72.2788 99.8286L58.084 112.488Z" fill="#FED93F" stroke="#A85B1E" stroke-width="0.594646" stroke-miterlimit="10"/>
<path d="M11.9521 80.3509L87.7048 79.7676L86.094 71.8389L12.7924 72.4033L11.9521 80.3509Z" fill="#EF3F23" stroke="#A42911" stroke-width="0.594646" stroke-miterlimit="10"/>
<g filter="url(#filter1_di_5_7649)">
<path d="M71.9911 2.42176C71.9911 2.42176 56.5002 1.85209 20.0391 3.83623L18.6261 17.2029L74.9052 16.7691L71.9911 2.42176Z" fill="#1763AF"/>
<path d="M71.9911 2.42176C71.9911 2.42176 56.5002 1.85209 20.0391 3.83623L18.6261 17.2029L74.9052 16.7691L71.9911 2.42176Z" stroke="#064591" stroke-width="0.594646" stroke-miterlimit="10"/>
</g>
<path d="M10.626 92.9078L9.98218 99.0072C9.98218 99.0072 10.0699 101.152 11.1572 104.224L16.9614 99.0479L10.626 92.9078Z" fill="#1763AF" stroke="#064591" stroke-width="0.594646" stroke-miterlimit="10"/>
<path d="M44.6208 99.4388L31.1584 86.3895L16.9607 99.0481L30.4241 112.098L44.6208 99.4388Z" fill="#1763AF" stroke="#064591" stroke-width="0.594646" stroke-miterlimit="10"/>
<path d="M72.2794 99.8285L58.8168 86.7795L44.621 99.4386L58.0841 112.488L72.2794 99.8285Z" fill="#1763AF" stroke="#064591" stroke-width="0.594646" stroke-miterlimit="10"/>
<path d="M72.4489 99.8712L84.0747 111.14C88.6952 104.878 90.5843 97.6542 90.3007 91.7512L90.0481 90.511L86.6458 87.2119L72.4489 99.8712Z" fill="#1763AF" stroke="#064591" stroke-width="0.594646" stroke-miterlimit="10"/>
<path d="M16.8623 75.3528C17.5951 75.5369 17.978 76.1046 17.7157 76.6205C17.4534 77.1365 16.6452 77.4054 15.9124 77.2213C15.1777 77.0366 14.7961 76.4685 15.0584 75.9526C15.3205 75.437 16.1276 75.1681 16.8623 75.3528Z" fill="#4788C8" stroke="#006EA7" stroke-width="0.594646" stroke-miterlimit="10"/>
<path d="M27.2996 75.141C28.0334 75.3254 28.4159 75.8937 28.1536 76.4097C27.8913 76.9256 27.0835 77.1939 26.3497 77.0095C25.617 76.8253 25.2341 76.2577 25.4964 75.7418C25.7587 75.2258 26.5669 74.9568 27.2996 75.141Z" fill="#4788C8" stroke="#006EA7" stroke-width="0.594646" stroke-miterlimit="10"/>
<path d="M38.5422 75.3578C39.275 75.542 39.659 76.1095 39.3967 76.6255C39.1343 77.1418 38.3253 77.4102 37.5925 77.226C36.8587 77.0415 36.476 76.4736 36.7385 75.9573C37.0008 75.4413 37.8084 75.1734 38.5422 75.3578Z" fill="#4788C8" stroke="#006EA7" stroke-width="0.594646" stroke-miterlimit="10"/>
<path d="M49.2521 75.0982C49.9859 75.2826 50.3686 75.8506 50.1061 76.3669C49.8438 76.8828 49.036 77.1511 48.3023 76.9667C47.5685 76.7823 47.1866 76.2149 47.4489 75.6989C47.7107 75.1829 48.5179 74.9136 49.2521 75.0982Z" fill="#4788C8" stroke="#006EA7" stroke-width="0.594646" stroke-miterlimit="10"/>
<path d="M62.617 75.0357C63.3508 75.2201 63.7335 75.788 63.4712 76.304C63.2087 76.8203 62.4011 77.0882 61.6673 76.9038C60.9345 76.7196 60.5505 76.1521 60.813 75.6358C61.0753 75.1199 61.8843 74.8515 62.617 75.0357Z" fill="#4788C8" stroke="#006EA7" stroke-width="0.594646" stroke-miterlimit="10"/>
<path d="M72.5239 74.8972C73.2577 75.0817 73.6404 75.6496 73.3781 76.1656C73.1156 76.6819 72.3076 76.9505 71.5739 76.7661C70.8411 76.5819 70.4584 76.0139 70.7208 75.4976C70.9831 74.9817 71.7912 74.713 72.5239 74.8972Z" fill="#4788C8" stroke="#006EA7" stroke-width="0.594646" stroke-miterlimit="10"/>
<g style="mix-blend-mode:overlay" opacity="0.5">
<path d="M20.0391 3.83642L9.98163 99.007C9.98163 99.007 10.8889 121.18 43.0183 125.097C78.0507 129.368 90.8393 106.429 90.131 91.7087L71.9906 2.42181C71.9906 2.42181 56.5004 1.85193 20.0391 3.83642ZM53.6405 94.356C54.8923 110.506 73.0984 114.643 73.0984 114.643C57.6248 125.898 35.5977 120.303 35.5977 120.303C12.8542 113.381 13.0408 96.7323 13.0408 96.7323L15.1842 79.0414L23.1312 11.1893L62.0774 10.9424L68.7931 66.7073C68.7931 66.7073 52.0043 73.2431 53.6405 94.356Z" fill="#AB614C"/>
</g>
<g style="mix-blend-mode:overlay" opacity="0.5">
<path d="M38.9807 119.264C38.9807 119.264 17.5196 114.228 15.8328 95.7307L24.6842 13.1852L25.8541 95.9522C25.8541 95.9522 26.2086 108.642 38.9807 119.264Z" fill="#D1DBE0"/>
</g>
<g filter="url(#filter2_di_5_7649)">
<path d="M75.1701 3.30579C74.83 3.93653 73.9695 4.3892 72.9513 4.40156L18.8219 5.07187C17.4853 5.08894 16.3838 4.33991 16.36 3.40136C16.336 2.46315 17.4004 1.68684 18.736 1.67069L72.8666 1.00028C74.202 0.983313 75.304 1.73246 75.3278 2.67101C75.3326 2.89441 75.2775 3.10864 75.1701 3.30579Z" fill="#A8CEDE"/>
<path d="M75.1701 3.30579C74.83 3.93653 73.9695 4.3892 72.9513 4.40156L18.8219 5.07187C17.4853 5.08894 16.3838 4.33991 16.36 3.40136C16.336 2.46315 17.4004 1.68684 18.736 1.67069L72.8666 1.00028C74.202 0.983313 75.304 1.73246 75.3278 2.67101C75.3326 2.89441 75.2775 3.10864 75.1701 3.30579Z" stroke="#006EA7" stroke-width="0.594646" stroke-miterlimit="10"/>
</g>
<path d="M19.9157 2.3521C20.6499 2.53666 21.0318 3.10402 20.7693 3.62031C20.5069 4.13661 19.7 4.40516 18.9658 4.2206C18.2325 4.03629 17.8501 3.4688 18.1126 2.95251C18.375 2.43621 19.1824 2.16779 19.9157 2.3521Z" fill="#4788C8" stroke="#006EA7" stroke-width="0.594646" stroke-miterlimit="10"/>
<path d="M34.1727 2.3226C34.9059 2.50691 35.2888 3.07452 35.0264 3.59081C34.7639 4.10711 33.9561 4.37541 33.2228 4.1911C32.4886 4.00654 32.1062 3.43905 32.3686 2.92276C32.6306 2.40634 33.4379 2.13791 34.1727 2.3226Z" fill="#4788C8" stroke="#006EA7" stroke-width="0.594646" stroke-miterlimit="10"/>
<path d="M45.8301 2.19211C46.5638 2.37654 46.9467 2.94414 46.6841 3.46078C46.4218 3.97673 45.6139 4.24504 44.8802 4.06061C44.1474 3.87642 43.7645 3.3088 44.0268 2.79285C44.2895 2.27621 45.0973 2.00792 45.8301 2.19211Z" fill="#4788C8" stroke="#006EA7" stroke-width="0.594646" stroke-miterlimit="10"/>
<path d="M58.9071 2.01664C59.6418 2.20133 60.0236 2.76904 59.7613 3.28499C59.4988 3.80129 58.6918 4.07017 57.957 3.88549C57.2243 3.7013 56.8425 3.1336 57.105 2.61731C57.3673 2.10136 58.1743 1.83246 58.9071 2.01664Z" fill="#4788C8" stroke="#006EA7" stroke-width="0.594646" stroke-miterlimit="10"/>
<path d="M72.1522 1.93406C72.8849 2.11825 73.2676 2.6862 73.0052 3.2025C72.7429 3.71845 71.9349 3.98709 71.2021 3.8029C70.4684 3.61847 70.0856 3.05052 70.3479 2.53457C70.6104 2.01827 71.4184 1.74962 72.1522 1.93406Z" fill="#4788C8" stroke="#006EA7" stroke-width="0.594646" stroke-miterlimit="10"/>
<path d="M27.125 43.2395L41.3993 40.8216L47.2004 29.2341L54.257 40.2819L68.7332 41.4949L58.8201 50.7407L61.9674 63.0766L48.7835 57.7429L36.2526 64.1553L38.0171 51.6132L27.125 43.2395Z" fill="#D90025" stroke="#A42911" stroke-width="0.594646" stroke-miterlimit="10"/>
<path d="M7.00903 119.967C7.14356 120.575 7.30516 121.182 7.4977 121.786C10.9773 132.732 22.6727 138.786 33.6182 135.305C44.5645 131.826 50.6176 120.131 47.1376 109.185C46.9459 108.58 46.7284 107.991 46.4865 107.418L7.00903 119.967Z" fill="#1B579F"/>
<path d="M10.6068 127.866C12.7373 128.042 14.8987 127.917 17.0042 127.572C21.8209 126.784 26.5748 125.31 31.2333 123.871C37.0848 122.062 43.0666 119.826 48.1029 116.294C48.1945 113.949 47.8893 111.55 47.1376 109.184C46.9459 108.58 46.7284 107.991 46.4865 107.417L7.00903 119.967C7.14356 120.575 7.30516 121.182 7.4977 121.786C8.21158 124.034 9.27789 126.071 10.6068 127.866Z" fill="#1B579F"/>
<path d="M30.1825 101.543C16.3153 101.543 5.0733 112.784 5.0733 126.653C5.0733 140.519 16.3153 151.762 30.1825 151.762C44.0496 151.762 55.2912 140.519 55.2912 126.653C55.2912 112.785 44.0496 101.543 30.1825 101.543ZM30.1825 145.157C19.9625 145.157 11.6774 136.873 11.6774 126.653C11.6774 116.432 19.9621 108.146 30.1825 108.146C40.402 108.146 48.6875 116.432 48.6875 126.653C48.6875 136.873 40.4024 145.157 30.1825 145.157Z" fill="#0F4C84"/>
<path d="M30.1826 151.762C29.3286 151.762 28.6367 151.069 28.6367 150.215V103.09C28.6367 102.236 29.3282 101.543 30.1826 101.543C31.0357 101.543 31.7294 102.236 31.7294 103.09V150.215C31.7294 151.069 31.0362 151.762 30.1826 151.762Z" fill="#00ADE4" stroke="#4860AC" stroke-width="0.594646" stroke-miterlimit="10"/>
<path d="M53.7457 128.199H6.61926C5.76569 128.199 5.0733 127.506 5.0733 126.653C5.0733 125.798 5.76526 125.105 6.61926 125.105H53.7452C54.5992 125.105 55.2912 125.798 55.2912 126.653C55.2912 127.506 54.5997 128.199 53.7457 128.199Z" fill="#00ADE4" stroke="#4860AC" stroke-width="0.594646" stroke-miterlimit="10"/>
<path d="M13.5214 144.861C13.1251 144.861 12.7297 144.709 12.428 144.407C11.8241 143.803 11.8241 142.824 12.428 142.22L45.7513 108.897C46.3538 108.293 47.3333 108.293 47.9372 108.897C48.5415 109.501 48.5415 110.481 47.9372 111.083L14.6148 144.407C14.3122 144.709 13.9168 144.861 13.5214 144.861Z" fill="#00ADE4" stroke="#4860AC" stroke-width="0.594646" stroke-miterlimit="10"/>
<path d="M46.8442 144.861C46.448 144.861 46.053 144.709 45.7513 144.407L12.428 111.083C11.8241 110.479 11.8241 109.5 12.428 108.897C13.0323 108.293 14.0109 108.293 14.6148 108.897L47.9372 142.22C48.5415 142.824 48.5415 143.803 47.9372 144.407C47.6359 144.709 47.2405 144.861 46.8442 144.861Z" fill="#00ADE4" stroke="#4860AC" stroke-width="0.594646" stroke-miterlimit="10"/>
<path d="M14.4027 125.106H6.61926C5.76569 125.106 5.0733 125.798 5.0733 126.653C5.0733 127.506 5.76526 128.199 6.61926 128.199H14.2553C14.1801 127.168 14.227 126.131 14.4027 125.106Z" fill="#B3B5B8"/>
<path d="M31.7294 111.303V103.09C31.7294 102.236 31.0362 101.543 30.1826 101.543C29.3286 101.543 28.6367 102.236 28.6367 103.09V111.703C29.663 111.481 30.6979 111.347 31.7294 111.303Z" fill="#B3B5B8"/>
<path d="M20.9301 115.213L14.6148 108.897C14.0109 108.294 13.0323 108.294 12.428 108.897C11.8241 109.501 11.8241 110.48 12.428 111.084L18.6127 117.268C19.3261 116.522 20.1019 115.833 20.9301 115.213Z" fill="#B3B5B8"/>
<path d="M38.0623 120.96C37.3914 120.114 36.5572 119.477 35.6177 119.031L31.7294 122.92V118.207C30.6962 118.206 29.6483 118.354 28.6371 118.629V122.92L25.5688 119.851C24.6439 120.347 23.7667 120.951 23.0042 121.66L26.4503 125.106H20.7496C20.7397 125.14 20.7246 125.173 20.7143 125.208C20.4242 126.2 20.3963 127.214 20.5647 128.199H26.4499L22.4679 132.18C23.1439 132.981 23.9515 133.667 24.8412 134.18L28.6362 130.386V135.414C29.6612 135.541 30.7061 135.521 31.7285 135.363V130.386L35.4251 134.082C35.5867 133.988 35.7479 133.893 35.9039 133.791C36.6165 133.324 37.2732 132.763 37.8449 132.128L33.9144 128.199H39.8597C40.1017 127.225 40.2504 126.132 40.1816 125.106H33.9144L38.0623 120.96Z" fill="#B3B5B8"/>
<path d="M47.9371 108.897C47.3332 108.294 46.3537 108.294 45.7512 108.897L40.8713 113.777C41.7056 114.35 42.4904 115.025 43.2124 115.81L47.9366 111.085C48.5414 110.481 48.5414 109.502 47.9371 108.897Z" fill="#B3B5B8"/>
<path d="M47.9371 142.221L42.4431 136.726C42.0559 137.15 41.6532 137.554 41.2359 137.926C40.8912 138.233 40.5263 138.526 40.1506 138.807L45.7512 144.407C46.0529 144.709 46.4479 144.861 46.8442 144.861C47.2404 144.861 47.6358 144.709 47.9371 144.407C48.5414 143.803 48.5414 142.824 47.9371 142.221Z" fill="#B3B5B8"/>
<path d="M53.7456 125.106H47.1565C47.1716 126.132 47.0667 127.17 46.8544 128.199H53.7456C54.5996 128.199 55.2916 127.506 55.2916 126.653C55.2911 125.798 54.5996 125.106 53.7456 125.106Z" fill="#B3B5B8"/>
<path d="M17.718 136.93L12.4273 142.22C11.8235 142.824 11.8235 143.803 12.4273 144.407C12.729 144.708 13.1244 144.861 13.5207 144.861C13.9161 144.861 14.3115 144.709 14.6141 144.407L19.8412 139.18C19.0663 138.519 18.3571 137.764 17.718 136.93Z" fill="#B3B5B8"/>
<path d="M29.0037 142.537C28.8803 142.537 28.7596 142.528 28.6367 142.526V150.216C28.6367 151.069 29.3282 151.762 30.1826 151.762C31.0357 151.762 31.7294 151.07 31.7294 150.216V142.313C30.8157 142.458 29.9011 142.537 29.0037 142.537Z" fill="#B3B5B8"/>
<path d="M36.699 126.653C36.699 130.251 33.782 133.169 30.1829 133.169C26.5839 133.169 23.666 130.251 23.666 126.653C23.666 123.053 26.5839 120.136 30.1829 120.136C33.782 120.136 36.699 123.053 36.699 126.653Z" fill="#D90025" stroke="#A42911" stroke-width="0.594646" stroke-miterlimit="10"/>
<path d="M30.1825 99.0764C14.9525 99.0764 2.60596 111.423 2.60596 126.652C2.60596 141.883 14.9529 154.228 30.1825 154.228C45.4117 154.228 57.7591 141.882 57.7591 126.652C57.7595 111.423 45.4121 99.0764 30.1825 99.0764ZM30.1825 146.975C18.9581 146.975 9.85951 137.877 9.85951 126.652C9.85951 115.429 18.9581 106.328 30.1825 106.328C41.406 106.328 50.5047 115.429 50.5047 126.652C50.5051 137.877 41.4065 146.975 30.1825 146.975Z" fill="#4C5354"/>
<path d="M50.4969 126.328C50.499 126.436 50.5051 126.543 50.5051 126.652C50.5051 137.877 41.4064 146.975 30.1829 146.975C19.5035 146.975 10.7547 138.737 9.9295 128.271C7.19948 126.715 4.81372 124.659 2.96777 122.211C2.73397 123.658 2.60632 125.14 2.60632 126.652C2.60632 141.883 14.9533 154.228 30.1829 154.228C45.4121 154.228 57.7595 141.882 57.7595 126.652C57.7595 125.051 57.6146 123.486 57.3533 121.96C55.268 123.676 52.9458 125.125 50.4969 126.328Z" fill="#4C5354"/>
<path d="M30.1825 121.722L31.6769 124.75L35.018 125.235L32.6 127.592L33.1717 130.92L30.1825 129.348L27.1937 130.92L27.7649 127.592L25.3474 125.235L28.6881 124.75L30.1825 121.722Z" fill="#FFF200" stroke="#48B74A" stroke-width="0.594646" stroke-miterlimit="10"/>
<path opacity="0.4" d="M33.5017 125.106C33.5017 127.359 31.6764 129.184 29.4243 129.184C27.1722 129.184 25.3474 127.359 25.3474 125.106C25.3474 122.854 27.1722 121.029 29.4243 121.029C31.6764 121.029 33.5017 122.854 33.5017 125.106Z" fill="white"/>
<path d="M32.7561 99.9063C32.7561 99.9063 10.8132 98.0689 4.48108 121.029C4.48108 121.029 10.2239 102.33 32.7561 99.9063Z" fill="white"/>
<defs>
<filter id="filter0_i_5_7649" x="9.68365" y="2.04865" width="80.7724" height="127.916" filterUnits="userSpaceOnUse" color-interpolation-filters="sRGB">
<feFlood flood-opacity="0" result="BackgroundImageFix"/>
<feBlend mode="normal" in="SourceGraphic" in2="BackgroundImageFix" result="shape"/>
<feColorMatrix in="SourceAlpha" type="matrix" values="0 0 0 0 0 0 0 0 0 0 0 0 0 0 0 0 0 0 127 0" result="hardAlpha"/>
<feOffset dy="4.04914"/>
<feGaussianBlur stdDeviation="4.33837"/>
<feComposite in2="hardAlpha" operator="arithmetic" k2="-1" k3="1"/>
<feColorMatrix type="matrix" values="0 0 0 0 0 0 0 0 0 0 0 0 0 0 0 0 0 0 0.25 0"/>
<feBlend mode="normal" in2="shape" result="effect1_innerShadow_5_7649"/>
</filter>
<filter id="filter1_di_5_7649" x="17.1385" y="2.04865" width="59.2868" height="17.7679" filterUnits="userSpaceOnUse" color-interpolation-filters="sRGB">
<feFlood flood-opacity="0" result="BackgroundImageFix"/>
<feColorMatrix in="SourceAlpha" type="matrix" values="0 0 0 0 0 0 0 0 0 0 0 0 0 0 0 0 0 0 127 0" result="hardAlpha"/>
<feOffset dy="1.1569"/>
<feGaussianBlur stdDeviation="0.578449"/>
<feComposite in2="hardAlpha" operator="out"/>
<feColorMatrix type="matrix" values="0 0 0 0 0 0 0 0 0 0 0 0 0 0 0 0 0 0 0.25 0"/>
<feBlend mode="normal" in2="BackgroundImageFix" result="effect1_dropShadow_5_7649"/>
<feBlend mode="normal" in="SourceGraphic" in2="effect1_dropShadow_5_7649" result="shape"/>
<feColorMatrix in="SourceAlpha" type="matrix" values="0 0 0 0 0 0 0 0 0 0 0 0 0 0 0 0 0 0 127 0" result="hardAlpha"/>
<feOffset dy="1.1569"/>
<feGaussianBlur stdDeviation="0.289224"/>
<feComposite in2="hardAlpha" operator="arithmetic" k2="-1" k3="1"/>
<feColorMatrix type="matrix" values="0 0 0 0 0 0 0 0 0 0 0 0 0 0 0 0 0 0 0.25 0"/>
<feBlend mode="normal" in2="shape" result="effect2_innerShadow_5_7649"/>
</filter>
<filter id="filter2_di_5_7649" x="13.7485" y="0.702679" width="64.1908" height="9.2944" filterUnits="userSpaceOnUse" color-interpolation-filters="sRGB">
<feFlood flood-opacity="0" result="BackgroundImageFix"/>
<feColorMatrix in="SourceAlpha" type="matrix" values="0 0 0 0 0 0 0 0 0 0 0 0 0 0 0 0 0 0 127 0" result="hardAlpha"/>
<feOffset dy="2.3138"/>
<feGaussianBlur stdDeviation="1.1569"/>
<feComposite in2="hardAlpha" operator="out"/>
<feColorMatrix type="matrix" values="0 0 0 0 0 0 0 0 0 0 0 0 0 0 0 0 0 0 0.25 0"/>
<feBlend mode="normal" in2="BackgroundImageFix" result="effect1_dropShadow_5_7649"/>
<feBlend mode="normal" in="SourceGraphic" in2="effect1_dropShadow_5_7649" result="shape"/>
<feColorMatrix in="SourceAlpha" type="matrix" values="0 0 0 0 0 0 0 0 0 0 0 0 0 0 0 0 0 0 127 0" result="hardAlpha"/>
<feOffset dy="1.1569"/>
<feGaussianBlur stdDeviation="0.289224"/>
<feComposite in2="hardAlpha" operator="arithmetic" k2="-1" k3="1"/>
<feColorMatrix type="matrix" values="0 0 0 0 0 0 0 0 0 0 0 0 0 0 0 0 0 0 0.25 0"/>
<feBlend mode="normal" in2="shape" result="effect2_innerShadow_5_7649"/>
</filter>
</defs>
</svg>
