<svg width="30" height="30" viewBox="0 0 30 30" fill="none" xmlns="http://www.w3.org/2000/svg">
<path d="M29.0963 15.1175C29.0963 23.0121 22.7089 29.3995 14.8143 29.3995C6.99145 29.3278 0.604004 22.9403 0.604004 15.1175C0.604004 7.22289 6.99145 0.835449 14.886 0.835449C22.7089 0.835449 29.0963 7.22289 29.0963 15.1175Z" fill="#011A20"/>
<path opacity="0.2" d="M20.6995 6.00276C23.4267 9.95006 21.6325 15.9069 16.7522 19.1365C11.8719 22.4379 5.77154 21.8637 3.04432 17.9164C0.317093 13.9691 2.11132 8.01229 6.99162 4.78269C11.8719 1.48131 18.0441 1.98369 20.6995 6.00276Z" fill="#2E454E"/>
<path d="M7.56563 14.5431C8.21155 11.0982 2.18295 12.39 3.47479 15.6196C4.19248 17.5574 7.20678 16.0502 7.56563 14.5431Z" fill="#2E454E"/>
<path d="M12.374 4.42374C12.087 4.49551 11.7999 4.49551 11.5846 4.56728C9.35974 4.99789 5.41244 7.22273 6.2019 10.0935C6.99136 13.036 10.4363 11.9595 12.0152 10.3806C13.1635 9.23227 14.7424 8.08396 15.1013 6.28974C15.3883 4.63905 13.7377 4.20843 12.374 4.42374Z" fill="#2E454E"/>
</svg>
