<svg width="76" height="76" viewBox="0 0 115 152" fill="none" xmlns="http://www.w3.org/2000/svg">
<path d="M0.51547 96.6759C1.86038 87.7165 5.85443 79.1722 11.8636 72.3925C17.0243 66.5706 21.6822 59.5141 27.2382 54.0684C31.8165 49.5815 36.5088 45.8715 42.1742 43.4177C52.2036 50.4959 65.906 53.1459 77.6836 53.7184C77.6818 53.7229 77.68 53.7266 77.6782 53.7311C84.9499 61.6857 93.6733 69.652 100.242 78.1963C110.249 91.2131 111.712 109.663 105.874 125.009C103.916 130.154 101.098 135.144 96.7638 138.537C92.4288 141.931 86.3609 143.466 81.2598 141.396C74.4873 147.463 65.5387 151.362 56.4482 151.578C47.3576 151.792 38.2254 148.665 31.1734 142.925C25.2927 142.849 19.3487 140.851 14.7542 137.181C10.1587 133.51 6.6666 128.575 4.23093 123.221C0.477485 114.976 -0.830344 105.635 0.51547 96.6759Z" fill="#B0481B"/>
<path d="M48.2485 56.4808C39.8724 65.5949 34.0876 77.0651 31.7387 89.219C29.3899 101.373 30.4834 114.173 34.86 125.751C31.4647 117.519 27.9808 110.161 26.0851 101.461C24.1894 92.7599 23.8737 83.5309 26.6359 75.0653C28.5289 69.266 31.85 63.9388 36.2248 59.6871C39.1398 56.8534 44.23 55.8649 48.2485 56.4808Z" fill="#CC5F29"/>
<path d="M38.2617 47.4138C30.0132 52.9879 23.02 60.4097 17.947 68.9757C7.24377 77.6765 3.01006 90.005 2.59854 102.624C7.09725 91.9577 15.2599 82.8599 25.1256 76.8046C28.7198 69.3664 33.1923 62.2105 38.4345 55.826C35.1106 56.7748 32.1703 57.9053 29.6035 60.2198C31.7597 55.7211 34.6512 50.8561 38.2617 47.4138Z" fill="#CC5F29"/>
<path d="M29.74 142.868C24.5367 136.964 20.5527 130.063 18.7637 122.541C16.8915 115.06 16.9132 107.195 18.3512 99.5999C19.7396 91.9773 22.4339 84.6232 25.5732 77.4899C28.6682 70.3104 32.6234 63.5261 36.508 56.6732C31.8926 63.0359 27.3885 69.5751 23.9742 76.7365C20.4586 83.8228 17.5978 91.3215 16.1236 99.1929C14.6792 107.04 14.7533 115.304 17.0651 123.007C18.1079 126.884 19.9295 130.505 22.0179 133.881L23.7327 136.323C24.2898 137.143 24.9944 137.856 25.6167 138.624C26.8304 140.191 28.3426 141.49 29.74 142.868Z" fill="#7A1B29"/>
<path d="M39.7945 63.9486C39.9356 63.9486 40.0676 63.869 40.1319 63.7406C40.2015 63.6004 40.1789 63.4322 40.074 63.3173C39.307 62.4726 38.3456 61.7535 37.1309 61.1222C36.0465 60.5569 34.9114 60.1328 33.7564 59.8614C32.6738 59.5991 31.5333 59.4662 30.3693 59.4662L30.1757 59.468C28.8055 59.4888 27.6225 59.6995 26.557 60.1111C26.4123 60.1671 26.3165 60.3073 26.3165 60.4638C26.3165 60.6184 26.4123 60.7586 26.557 60.8165C27.7193 61.2696 28.8408 61.5744 29.889 61.8503C30.9671 62.1325 32.029 62.4083 33.0944 62.6544L36.3124 63.3716C37.4348 63.6085 38.54 63.8301 39.7556 63.9486C39.771 63.9486 39.7828 63.9486 39.7945 63.9486Z" fill="#7A1B29"/>
<path d="M32.8703 77.3977C33.0276 77.395 33.1669 77.2946 33.2185 77.1454C33.2718 76.998 33.2257 76.8325 33.1063 76.7312C32.2109 75.9805 31.1726 75.3311 29.835 74.6898C28.6736 74.1363 27.4997 73.6805 26.342 73.3368C25.1888 72.9859 23.957 72.7199 22.6799 72.5472C21.8406 72.435 21.0926 72.3808 20.3916 72.3808C19.8426 72.3808 19.328 72.4133 18.8152 72.4794C18.6605 72.5002 18.5321 72.6132 18.4968 72.767C18.4597 72.9207 18.5231 73.0799 18.6533 73.1667C19.8662 73.9826 21.0971 74.5388 22.0341 74.9313C23.266 75.445 24.3983 75.8502 25.4963 76.1731C26.6414 76.5168 27.8108 76.7972 29.0707 77.0314C30.0041 77.2024 31.2477 77.4004 32.6007 77.4004L32.8703 77.3977Z" fill="#7A1B29"/>
<path d="M26.0723 91.9159C26.5426 91.9159 27.0147 91.8906 27.4922 91.8363C27.6496 91.8182 27.7798 91.7034 27.8169 91.5487C27.854 91.394 27.7889 91.2331 27.6559 91.1462C26.3933 90.3214 25.1163 89.7217 24.0336 89.2433C22.9763 88.7621 21.8449 88.3126 20.3715 87.7907C18.9461 87.2933 17.7477 86.9261 16.5982 86.6358C15.4622 86.3346 14.0947 86.0072 12.5843 85.8616C12.5707 85.8598 12.5589 85.8597 12.5472 85.8597C12.4025 85.8597 12.2695 85.9421 12.2062 86.075C12.1384 86.2179 12.1664 86.3889 12.2786 86.5028C13.1758 87.4118 14.243 88.2023 15.6413 88.99C16.7655 89.6358 17.982 90.1866 19.3595 90.6705C20.7523 91.1526 22.0466 91.48 23.3182 91.6735C24.3258 91.8354 25.2266 91.9159 26.0723 91.9159Z" fill="#7A1B29"/>
<path d="M22.3832 107.111C23.171 107.111 23.9353 107.041 24.6543 106.901C24.8117 106.87 24.9328 106.743 24.9555 106.583C24.979 106.424 24.8976 106.268 24.7547 106.193C23.446 105.525 22.2249 105.017 20.7652 104.421L16.8887 102.857L12.9942 101.341C11.6945 100.843 10.3523 100.326 8.88439 99.8867C8.84912 99.8749 8.81202 99.8704 8.77674 99.8704C8.65736 99.8704 8.5425 99.9265 8.47015 100.027C8.37699 100.157 8.37609 100.333 8.46744 100.465C9.27602 101.618 10.3523 102.66 11.7596 103.645C12.9218 104.475 14.2595 105.193 15.7319 105.776C17.2053 106.354 18.6714 106.744 20.0896 106.936C20.9018 107.054 21.6533 107.111 22.3832 107.111Z" fill="#7A1B29"/>
<path d="M22.5044 122.745C23.5499 122.745 24.5485 122.621 25.4719 122.379C25.6293 122.338 25.7432 122.199 25.7523 122.037C25.7622 121.876 25.6681 121.725 25.518 121.664C24.5403 121.27 23.5961 120.92 22.6681 120.579C22.158 120.39 21.6515 120.202 21.1486 120.012C19.7531 119.463 18.3801 118.916 17.0271 118.322C15.6731 117.73 14.3409 117.096 12.9914 116.44L8.84095 114.336C8.78669 114.308 8.7279 114.294 8.67002 114.294C8.57143 114.294 8.47557 114.332 8.4014 114.407C8.28654 114.522 8.2603 114.699 8.33356 114.844C9.03902 116.212 10.1099 117.503 11.5181 118.679C12.7273 119.71 14.1464 120.587 15.7319 121.281C17.3201 121.971 18.9255 122.416 20.5047 122.607C21.1902 122.698 21.8641 122.745 22.5044 122.745Z" fill="#7A1B29"/>
<path d="M26.5526 137.752C27.8297 137.752 29.038 137.574 30.1433 137.221C30.2997 137.171 30.4055 137.025 30.4055 136.859C30.4055 136.696 30.2979 136.55 30.1415 136.501L29.1249 136.184C27.827 135.781 26.5906 135.396 25.3814 134.966C23.7235 134.355 22.2882 133.756 20.9975 133.135C19.6906 132.513 18.3222 131.774 16.8126 130.874C15.7599 130.231 14.7207 129.539 13.6353 128.816L12.626 128.145C12.5627 128.103 12.4903 128.083 12.4179 128.083C12.3338 128.083 12.2497 128.111 12.1801 128.167C12.0534 128.269 12.0055 128.444 12.0652 128.596C12.6775 130.177 13.7059 131.675 15.1213 133.048C16.374 134.284 17.8709 135.324 19.5658 136.134C21.2698 136.941 23.019 137.448 24.7636 137.642C25.3696 137.715 25.972 137.752 26.5526 137.752Z" fill="#7A1B29"/>
<path d="M39.7946 63.2559C38.9779 62.3569 37.9975 61.684 36.9574 61.1413C35.9163 60.5987 34.8102 60.1826 33.6697 59.9131C32.5301 59.6372 31.3543 59.5142 30.1803 59.5296C29.0073 59.5468 27.8288 59.7078 26.6955 60.1473C27.8261 60.5887 28.9114 60.8854 29.9868 61.1685C31.0613 61.4497 32.1186 61.7238 33.1813 61.9698L36.3966 62.6861C37.4856 62.9167 38.5881 63.1411 39.7946 63.2559Z" fill="#EB690C"/>
<path d="M32.8639 76.7067C31.8672 75.8709 30.7845 75.2505 29.6703 74.7169C28.556 74.1833 27.41 73.7347 26.2343 73.3846C25.0603 73.0274 23.8547 72.7741 22.6292 72.6086C21.4036 72.4449 20.1546 72.3744 18.864 72.5417C19.9439 73.268 21.0545 73.7989 22.1805 74.2701C23.3066 74.7404 24.4426 75.1564 25.6021 75.4974C26.7588 75.8456 27.9373 76.1251 29.1384 76.3476C30.3404 76.5674 31.5642 76.7311 32.8639 76.7067Z" fill="#EB690C"/>
<path d="M27.4509 91.1463C26.2778 90.3812 25.0849 89.8041 23.882 89.2732C22.6845 88.7287 21.4707 88.2648 20.2452 87.8315C19.0179 87.4028 17.7806 87.0094 16.5053 86.6865C15.2346 86.35 13.943 86.057 12.5484 85.9222C13.5342 86.9207 14.6584 87.6859 15.8297 88.3453C16.9964 89.0173 18.2265 89.5554 19.4873 89.9977C20.7508 90.4354 22.0468 90.7827 23.3773 90.9844C24.7023 91.2006 26.0572 91.3055 27.4509 91.1463Z" fill="#EB690C"/>
<path d="M24.5819 106.216C23.236 105.527 21.9246 104.988 20.6222 104.455L16.7476 102.892L12.8576 101.379C11.5461 100.874 10.2265 100.367 8.77759 99.9322C9.64676 101.174 10.7674 102.173 11.9775 103.02C13.1822 103.881 14.5009 104.567 15.8721 105.111C17.245 105.648 18.6749 106.048 20.141 106.246C21.599 106.459 23.094 106.505 24.5819 106.216Z" fill="#EB690C"/>
<path d="M25.3771 121.699C23.863 121.09 22.4259 120.587 21.014 120.05C19.6094 119.498 18.2329 118.95 16.8762 118.352C15.5168 117.759 14.181 117.123 12.8261 116.464L8.67017 114.358C9.41995 115.814 10.5197 117.04 11.7606 118.076C12.9961 119.128 14.4007 119.972 15.8849 120.621C17.3718 121.266 18.9428 121.723 20.5509 121.919C22.1518 122.129 23.7925 122.115 25.3771 121.699Z" fill="#EB690C"/>
<path d="M30.0276 136.546C28.349 136.019 26.7798 135.551 25.254 135.007C23.7354 134.447 22.2657 133.85 20.834 133.161C19.4004 132.478 18.0103 131.712 16.6201 130.884C15.2381 130.04 13.8869 129.117 12.4181 128.145C13.0557 129.792 14.1212 131.236 15.3856 132.462C16.6428 133.705 18.1297 134.714 19.7278 135.478C21.3287 136.237 23.049 136.758 24.8054 136.953C26.5546 137.162 28.3463 137.084 30.0276 136.546Z" fill="#EB690C"/>
<path d="M29.3338 59.9229C31.8391 60.717 33.9121 61.1403 36.5232 61.4161C34.367 59.9337 31.8708 59.4064 29.3338 59.9229Z" fill="#FEAA0F"/>
<path d="M21.5973 72.882C24.658 74.1021 27.3216 74.9016 30.5405 75.5917C27.8326 73.7249 24.8488 72.8114 21.5973 72.882Z" fill="#FEAA0F"/>
<path d="M13.9222 86.1601C17.4685 87.8559 20.7173 88.9747 24.5476 89.8457C21.1966 87.7935 17.7824 86.5969 13.9222 86.1601Z" fill="#FEAA0F"/>
<path d="M9.72183 100.245C13.2455 103.001 17.1039 104.632 21.5284 105.262C17.4548 103.401 13.8452 101.847 9.72183 100.245Z" fill="#FEAA0F"/>
<path d="M10.7069 115.577C13.791 118.279 17.2542 119.932 21.2871 120.652C17.6657 118.722 14.4413 117.153 10.7069 115.577Z" fill="#FEAA0F"/>
<path d="M14.8132 129.909C17.8241 133.219 21.6969 135.239 26.1278 135.833C22.0452 133.991 18.6146 132.169 14.8132 129.909Z" fill="#FEAA0F"/>
<path opacity="0.6" d="M7.21746 117.742C9.77704 121.147 13.4654 123.338 17.7226 123.208C18.2011 124.431 19.3705 125.357 20.6711 125.543C21.9717 125.728 23.4803 125.48 24.2816 124.439C25.2593 126.68 26.5979 128.728 28.1671 130.599C27.3052 128.707 26.6947 126.68 26.4613 124.489C30.894 129.442 36.2619 133.671 42.4465 136.104C48.632 138.538 55.6794 139.074 61.9527 136.878C71.9323 133.385 78.6116 123.429 80.7353 113.072C82.858 102.714 81.5556 91.3966 79.053 81.1239C83.5282 90.0011 86.0796 99.7392 85.5379 109.666C89.0118 101.84 89.1403 92.8455 87.3911 84.4632C85.6419 76.0808 82.375 68.6535 78.7238 60.9087C83.4106 64.474 88.0676 69.0894 92.3637 73.1169C92.4668 73.2128 92.5582 73.3213 92.6595 73.419C119.896 94.2628 107.527 148.308 79.9104 139.639C73.9945 146.269 65.2955 150.335 56.4139 150.619C47.5322 150.903 38.4561 147.46 32.1286 141.222C23.6494 142.105 15.2987 137.227 10.2338 130.369C5.16891 123.513 2.96114 114.648 1.89209 106.191C3.25599 110.225 4.65788 114.338 7.21746 117.742Z" fill="#603813"/>
<path d="M37.0661 141.18C45.1437 145.752 55.2473 146.572 63.9562 143.361C72.6651 140.151 79.9341 133.241 83.1123 124.52C83.0517 125.339 83.0734 125.919 83.0128 126.736C91.2695 126.373 105.988 111.096 91.5246 77.6277C116.057 105.261 99.4421 143.649 80.4352 136.664C75.3947 143.671 54.1294 155.608 37.0661 141.18Z" fill="#7A1B29"/>
<path d="M59.4853 132.119L51.9387 131.806C52.0228 129.804 52.0924 127.8 52.1494 125.795C49.4578 125.51 46.938 124.755 44.7194 123.544C39.1308 120.488 35.6351 114.444 36.0195 108.5L43.5572 108.989C43.3609 112.01 45.3272 115.27 48.3408 116.916C49.5138 117.556 50.8515 117.989 52.304 118.207C52.3619 113.516 52.3484 108.821 52.2661 104.124C52.0092 104.083 51.7523 104.037 51.4927 103.986C46.4188 102.985 42.4917 99.9847 40.9894 95.9617C39.2547 91.3137 41.0075 85.5579 45.158 82.2747C46.8765 80.9144 48.9241 79.9747 51.1789 79.4836C51.0433 77.5707 50.8958 75.6605 50.7375 73.7512L58.2634 73.1254C58.4389 75.2246 58.5999 77.3292 58.7455 79.4357C62.2457 80.0697 65.4909 81.449 68.3833 82.679L65.4303 89.6297C63.3898 88.7623 61.3015 87.8741 59.2267 87.2935C59.3994 90.5558 59.5378 93.8245 59.6436 97.095C60.586 97.1492 61.5475 97.2279 62.527 97.3654C67.638 98.0835 71.5678 100.456 73.5929 104.044C76.0312 108.37 75.3656 114.366 71.9748 118.627C69.4198 121.838 65.622 124.051 60.6882 125.202C60.3635 125.277 60.0398 125.348 59.7151 125.412C59.6545 127.653 59.5785 129.887 59.4853 132.119ZM59.829 104.676C59.8987 108.994 59.9113 113.308 59.8643 117.621C61.9563 117.03 64.4697 115.934 66.067 113.928C67.5449 112.071 67.9518 109.418 67.0157 107.756C65.8372 105.665 62.7504 105.024 61.4787 104.845C60.9415 104.77 60.3907 104.718 59.829 104.676ZM51.6592 87.1994C50.9772 87.4518 50.3658 87.7864 49.843 88.1997C48.272 89.4415 47.4743 91.7397 48.064 93.3207C48.642 94.8664 50.3785 95.8604 52.0626 96.3578C51.9585 93.3035 51.8238 90.2492 51.6592 87.1994Z" fill="url(#paint0_linear_1_4298)"/>
<path d="M73.5431 56.1103C71.0034 57.2445 68.1309 57.4082 65.3579 57.1866C58.58 56.6448 52.0028 53.8402 46.9189 49.3261C46.0624 48.5654 45.2349 47.7415 44.6904 46.7339C44.1459 45.7255 43.9126 44.5018 44.2897 43.42C52.3963 50.4186 62.886 55.0503 73.5431 56.1103Z" fill="#7A1B29"/>
<path d="M45.3797 39.4749C45.1255 39.7236 44.9817 40.0799 44.9926 40.4354C45.0025 40.7899 45.0523 41.0848 45.3028 41.3353C49.8024 45.834 62.1843 56.0452 78.9771 55.0196C79.7649 54.9716 80.1628 53.9053 80.1628 53.1157C80.1628 51.8983 78.9355 51.239 78.9355 51.239C78.9355 51.239 63.7743 52.583 45.3797 39.4749Z" fill="#EB690C"/>
<path d="M45.3027 41.3353C44.9807 41.0214 42.8417 41.3425 43.4766 42.8448C44.2336 44.6356 58.5338 60.7012 79.0394 54.7916C79.1542 54.125 78.4443 53.3481 77.7958 53.5425C66.7552 56.8537 45.3027 41.3353 45.3027 41.3353Z" fill="#EB690C"/>
<path d="M46.0536 41.3426C53.3878 49.8416 64.0087 54.3874 75.2129 53.8492C69.5918 53.5046 64.375 52.1534 59.5145 50.0714C54.6594 47.973 50.1318 45.1213 46.0536 41.3426Z" fill="#7A1B29"/>
<path d="M50.9546 43.2418C58.561 49.9374 68.2793 53.0903 78.3611 52.1588C73.2799 52.0077 68.5235 51.0997 63.9823 49.6236C59.4447 48.134 55.1051 46.0646 50.9546 43.2418Z" fill="#FEAA0F"/>
<path d="M45.1372 42.6205C48.9765 48.4243 54.8003 52.3035 61.6252 53.6294C55.1593 51.0336 49.9624 47.5199 45.1372 42.6205Z" fill="#FEAA0F"/>
<path d="M62.3951 92.4961C62.9106 94.8043 63.5871 97.1016 64.7331 99.3202C65.292 100.431 66.0029 101.52 66.9245 102.547C67.8371 103.545 69.1495 104.585 70.9891 104.865C73.7974 105.175 76.7106 104.236 78.7872 102.439C80.8566 100.65 82.2314 98.2828 82.9079 95.9167C84.4301 91.1566 84.2845 86.373 83.8178 81.7848C83.6541 79.4622 83.143 77.2219 82.7758 74.9517C82.2847 72.715 81.7547 70.4892 81.1849 68.2796C80.5292 66.0981 79.9259 63.8994 79.2259 61.7378L77.0046 55.299L76.4303 53.633L75.0898 54.6849L75.0826 54.6903C71.2188 57.3602 67.9909 60.988 65.8157 65.1584C63.5808 69.3052 62.3227 73.8962 61.7692 78.5234C61.2193 83.1632 61.4174 87.8753 62.3951 92.4961ZM65.0903 78.8625C65.4711 74.58 66.5021 70.3264 68.4196 66.5006C70.0277 63.1749 72.3412 60.2282 75.1568 57.8468L76.6184 62.5418C77.2424 64.6862 77.7643 66.8542 78.3431 69.0059C78.8325 71.1747 79.281 73.3517 79.6908 75.5269C79.9739 77.7139 80.4062 79.8954 80.4885 82.0805C80.8186 86.4137 80.7381 90.8781 79.3597 94.6993C78.7574 96.6457 77.6323 98.271 76.2783 99.3808C74.9126 100.484 73.1851 100.952 71.5055 100.742C71.0985 100.708 70.451 100.386 69.8558 99.748C69.2652 99.1212 68.6936 98.347 68.2215 97.4642C67.2447 95.7223 66.5646 93.6972 66.0445 91.6478C65.0388 87.5199 64.7104 83.1496 65.0903 78.8625Z" fill="#7A1B29"/>
<path d="M63.8889 90.8934C64.4045 93.2015 65.081 95.4988 66.2269 97.7174C66.7859 98.8281 67.4968 99.917 68.4184 100.944C69.331 101.942 70.6434 102.982 72.4839 103.263C75.2922 103.572 78.2054 102.633 80.282 100.836C82.3514 99.0469 83.7261 96.68 84.4027 94.314C85.9248 89.5539 85.7792 84.7703 85.3125 80.182C85.1488 77.8594 84.6378 75.6191 84.2706 73.3489C83.7795 71.1123 83.2495 68.8864 82.6797 66.6769C82.0231 64.4953 81.4207 62.2966 80.7207 60.135L78.4994 53.6963L77.925 52.0303L76.5847 53.0821L76.5774 53.0876C72.7136 55.7566 69.4857 59.3852 67.3105 63.5547C65.0756 67.7016 63.8175 72.2926 63.264 76.9197C62.7141 81.5595 62.9121 86.2717 63.8889 90.8934ZM66.5851 77.2589C66.9659 72.9763 67.9969 68.7227 69.9144 64.8969C71.5225 61.5713 73.836 58.6246 76.6516 56.2432L78.1132 60.9372C78.7372 63.0817 79.2591 65.2496 79.8379 67.4013C80.3272 69.5702 80.7759 71.7472 81.1856 73.9224C81.4687 76.1093 81.901 78.2908 81.9833 80.476C82.3134 84.8092 82.2329 89.2735 80.8545 93.0948C80.2522 95.0411 79.127 96.6664 77.774 97.7762C76.4083 98.8796 74.6808 99.3472 73.0012 99.1374C72.5942 99.1039 71.9467 98.7819 71.3524 98.1434C70.7618 97.5166 70.1902 96.7424 69.7181 95.8597C68.7413 94.1177 68.0612 92.0927 67.5411 90.0432C66.5327 85.9162 66.2043 81.5459 66.5851 77.2589Z" fill="#EB690C"/>
<path d="M74.3827 101.718C74.0697 101.718 73.7586 101.701 73.4963 101.673C72.2599 101.484 71.1628 100.852 70.1499 99.7442C69.3521 98.8551 68.6937 97.8837 68.132 96.7694C67.1914 94.9479 66.5022 92.9328 65.9035 90.2502C64.9611 85.7913 64.7557 81.2229 65.2948 76.6709C65.8745 71.8267 67.1905 67.4754 69.2129 63.7219C71.2922 59.7351 74.3655 56.2675 78.1623 53.6401L78.1687 53.6356L80.4035 60.115C80.8549 61.506 81.2646 62.9115 81.6752 64.3189C81.8995 65.0904 82.1247 65.8618 82.3436 66.5845C82.9007 68.7497 83.4325 70.9801 83.9101 73.1499C84.0195 73.821 84.1398 74.4893 84.261 75.1586C84.5531 76.7704 84.829 78.2962 84.9439 79.9115C85.3608 84.0222 85.5869 88.8592 84.0738 93.5876C83.4126 95.8994 82.0813 98.0094 80.324 99.5289C78.7131 100.919 76.5488 101.718 74.3827 101.718ZM76.7026 54.9262C73.7514 57.4234 71.3139 60.5518 69.6651 63.9625C67.7974 67.687 66.6352 71.9922 66.2119 76.7586C65.823 81.1452 66.1631 85.7018 67.1987 89.9481C67.83 92.4308 68.5797 94.4278 69.4824 96.0368C69.9753 96.9576 70.6048 97.8367 71.2967 98.572C72.0374 99.3688 72.9473 99.8816 73.6817 99.9422C73.991 99.9802 74.304 100 74.6151 100C76.3363 100 78.0222 99.4041 79.3689 98.3169C80.9589 97.0127 82.1925 95.146 82.822 93.1101C84.0584 89.6795 84.4392 85.5109 84.0213 80.0381C83.9607 78.4373 83.7238 76.8472 83.4913 75.3088C83.3954 74.6639 83.2978 74.0199 83.2037 73.3045C82.785 71.0787 82.3273 68.8709 81.8353 66.693C81.6291 65.9261 81.4301 65.1564 81.2302 64.3858C80.8684 62.9893 80.5076 61.592 80.0969 60.1819L78.6354 55.4888C78.5142 55.1026 78.2094 54.8014 77.8195 54.6892C77.7092 54.6567 77.5953 54.6404 77.4822 54.6404C77.2009 54.6413 76.9242 54.7399 76.7026 54.9262Z" fill="#FEAA0F"/>
<path d="M74.984 99.3598C76.6129 99.3598 77.7905 98.8524 78.7909 97.976C79.2358 97.5862 79.6392 97.1503 80.0978 96.7767C80.5563 96.4032 81.0845 96.0894 81.6697 95.9998C82.254 95.9094 82.9567 95.9826 83.3384 96.4339C83.6514 95.9103 83.9191 95.3586 84.137 94.7879C83.2724 93.9865 82.3652 93.2069 81.3495 92.6073C80.4677 95.638 77.0851 99.1238 74.984 99.3598Z" fill="#CC540A"/>
<path d="M73.6719 78.0041C74.2462 81.9909 75.1778 85.9948 77.1667 89.8387C78.176 91.7381 79.5399 93.6211 81.5496 95.0402C82.0507 95.3929 82.5689 95.724 83.155 95.9709C83.7103 96.2675 84.3217 96.4376 84.9331 96.6076C85.5391 96.8011 86.174 96.8093 86.7954 96.8988C87.4005 96.9223 87.9838 96.8889 88.5781 96.8753C89.1895 96.8093 89.8389 96.6664 90.4674 96.5162C91.125 96.2223 91.7915 96.0685 92.4029 95.5575C92.7041 95.3233 93.0297 95.1162 93.2866 94.834C93.5371 94.5418 93.7795 94.2389 94.0092 93.9304C94.2543 93.6256 94.3575 93.2838 94.5257 92.9545C94.6812 92.6199 94.8269 92.2834 94.8838 91.9624C95.5233 89.3123 95.0765 87.0992 94.57 85.0506C93.4349 80.9806 91.7156 77.3691 89.8208 73.8753C87.935 70.3832 85.843 67.0467 83.685 63.7735L80.3566 58.9411L78.697 56.5434L77.8667 55.3586L77.4715 54.7689L77.3069 54.5111C77.2264 54.3944 77.1323 54.2778 77.0274 54.1719C76.8166 53.9585 76.5734 53.8093 76.3825 53.7052C76.1826 53.7939 75.8851 53.9386 75.6391 54.1918C75.4093 54.4017 75.2022 54.8286 75.1905 54.8765L74.8712 55.6236C74.6975 56.1156 74.5239 56.613 74.3955 57.1051C74.1259 58.0963 73.9477 59.0849 73.7759 60.0762C73.4584 62.0569 73.2622 64.0431 73.1428 66.0346C72.9746 70.0151 73.0985 74.0146 73.6719 78.0041ZM76.2179 60.3412C76.2749 59.3987 76.3454 58.4527 76.482 57.5383C76.501 57.3637 76.5381 57.2009 76.5652 57.0318L76.8718 57.645L78.2647 60.2299L81.0286 65.3699C82.8791 68.7769 84.669 72.2012 86.3187 75.6534C87.9115 79.112 89.4825 82.6249 90.2956 86.1106C90.6999 87.8155 90.8898 89.5891 90.5606 90.7423C90.3689 91.2895 90.2033 91.6449 89.8144 91.8457C89.6996 92.0148 89.3513 92.0311 89.1442 92.1713C88.8241 92.2192 88.5157 92.2979 88.1638 92.3359C86.5684 92.4924 85.3474 92.1767 84.1191 91.3573C82.909 90.5532 81.8788 89.2201 81.0241 87.7178C79.2822 84.6906 78.3144 81.0141 77.5438 77.3529C76.8239 73.6582 76.406 69.8568 76.2405 66.0491C76.1455 64.1444 76.1247 62.2342 76.2179 60.3412Z" fill="#7A1B29"/>
<path d="M77.2589 55.7664C81.3271 62.0179 85.3148 67.9031 88.6685 74.1248C90.3128 77.2406 91.92 80.4197 93.0632 83.777C93.6113 85.4584 93.9893 87.2175 93.9731 89.0174C93.9586 90.8082 93.5679 92.6542 92.5938 94.2595C93.7062 92.7374 94.2607 90.8661 94.3918 89.0129C94.5284 87.147 94.2308 85.2884 93.7397 83.5274C92.7068 80.0082 91.1512 76.7685 89.4816 73.6029C86.0745 67.2962 81.8065 61.5774 77.2589 55.7664Z" fill="#7A1B29"/>
<path d="M90.1563 93.3089C88.4578 93.9881 86.582 93.6254 85.143 92.7689C83.6805 91.8979 82.5563 90.5883 81.6509 89.1792C79.8266 86.3455 78.9313 83.0696 78.2783 79.7711C77.0292 73.1126 76.2369 66.3437 75.9484 59.1751C75.3867 66.3573 75.7557 73.3089 77.0328 80.0886C77.7021 83.4649 78.7621 86.9081 80.8939 89.7851C81.9431 91.2042 83.2635 92.512 84.9178 93.2899C86.5512 94.0614 88.5672 94.1862 90.1563 93.3089Z" fill="#7A1B29"/>
<path d="M74.785 77.3911C75.3594 81.3779 76.2909 85.3818 78.2798 89.2257C79.2883 91.1251 80.6531 93.0081 82.6628 94.4272C83.1638 94.7799 83.6821 95.111 84.2681 95.3579C84.8235 95.6545 85.4349 95.8246 86.0463 95.9946C86.6523 96.1881 87.2872 96.1963 87.9085 96.2858C88.5136 96.3093 89.097 96.2759 89.6912 96.2623C90.3026 96.1963 90.952 96.0534 91.5806 95.9032C92.2381 95.6093 92.9047 95.4555 93.5161 94.9445C93.8173 94.7103 94.1429 94.5032 94.3997 94.221C94.6503 93.9297 94.8927 93.6258 95.1224 93.3174C95.3675 93.0126 95.4706 92.6708 95.6388 92.3415C95.7944 92.0069 95.94 91.6704 95.997 91.3494C96.6364 88.6993 96.1896 86.4862 95.6831 84.4376C94.5481 80.3676 92.8287 76.7561 90.9339 73.2623C89.0481 69.7702 86.9561 66.4337 84.7981 63.1605L81.4698 58.3272L79.8101 55.9295L78.9799 54.7456L78.5846 54.1559L78.42 53.8981C78.3404 53.7805 78.2454 53.6648 78.1405 53.5589C77.9298 53.3455 77.6865 53.1963 77.4957 53.0922C77.2958 53.1809 76.9982 53.3256 76.7522 53.5788C76.5225 53.7887 76.3154 54.2156 76.3036 54.2635L75.9852 55.0097C75.8116 55.5017 75.6379 55.9991 75.5095 56.4911C75.24 57.4824 75.0618 58.471 74.89 59.4623C74.5725 61.443 74.3762 63.4291 74.2568 65.4207C74.0877 69.4021 74.2116 73.4016 74.785 77.3911ZM77.3319 59.7273C77.3889 58.7848 77.4595 57.8397 77.596 56.9244C77.615 56.7498 77.6521 56.587 77.6783 56.4179L77.985 57.0311L79.3778 59.616L82.1418 64.756C83.9923 68.163 85.7822 71.5872 87.4319 75.0395C89.0246 78.499 90.5956 82.0101 91.4087 85.4967C91.813 87.2016 92.0029 88.9752 91.6737 90.1284C91.482 90.6755 91.3165 91.031 90.9276 91.2318C90.8127 91.4009 90.4645 91.4172 90.2574 91.5574C89.9372 91.6053 89.6288 91.684 89.277 91.7211C87.6815 91.8776 86.4605 91.5619 85.2323 90.7425C84.0221 89.9384 82.992 88.6053 82.1373 87.103C80.3944 84.0758 79.4276 80.3992 78.6561 76.7381C77.9361 73.0434 77.5183 69.242 77.3528 65.4352C77.2587 63.5313 77.2379 61.6203 77.3319 59.7273Z" fill="#EB690C"/>
<path d="M78.3722 55.1529C82.4413 61.4044 86.4281 67.2896 89.7818 73.5113C91.4261 76.6271 93.0332 79.8054 94.1765 83.1636C94.7246 84.8449 95.1026 86.6041 95.0863 88.4039C95.0719 90.1947 94.6803 92.0407 93.7071 93.6461C94.8195 92.1239 95.374 90.2526 95.5051 88.3994C95.6417 86.5335 95.3441 84.6749 94.853 82.9139C93.8201 79.3938 92.2645 76.155 90.5949 72.9895C87.1887 66.6828 82.9206 60.9649 78.3722 55.1529Z" fill="#FEAA0F"/>
<path d="M91.2703 92.6956C89.5718 93.3748 87.696 93.0121 86.257 92.1547C84.7945 91.2837 83.6703 89.9741 82.7649 88.565C80.9407 85.7314 80.0453 82.4555 79.3923 79.1569C78.1432 72.4984 77.3509 65.7296 77.0624 58.5609C76.5007 65.7431 76.8698 72.6947 78.1468 79.4744C78.8161 82.8507 79.8761 86.2939 82.0079 89.171C83.0571 90.59 84.3776 91.8979 86.0318 92.6757C87.6643 93.4481 89.6803 93.5738 91.2703 92.6956Z" fill="#FEAA0F"/>
<path opacity="0.6" d="M81.5221 66.6764C91.5478 65.1542 94.4357 71.5857 85.6319 75.3066C82.2094 76.7528 74.8075 74.867 70.1632 71.3894C56.5024 74.3569 42.545 72.2613 30.439 65.27C29.5102 66.9151 28.9675 68.6906 28.0386 70.3358C27.7682 68.0077 27.865 65.62 28.461 63.3534C25.2466 63.1662 22.3967 60.9775 21.5511 57.8707C22.9728 56.2038 25.3994 54.678 27.4498 53.9056C43.3988 63.1635 65.0006 62.0049 81.5221 66.6764Z" fill="#603813"/>
<path d="M48.8753 68.8995C39.309 67.5148 32.8413 62.9727 25.527 58.3953C24.7275 59.1243 23.2641 59.4797 22.1824 59.4824C19.3027 58.3537 16.1371 55.3156 16.5875 52.2559C16.9791 49.5905 18.769 47.2905 21.3024 46.3734C20.6629 45.4554 20.4133 44.7309 20.0741 43.6646C19.4428 41.6802 20.5481 39.4743 22.1887 38.1909C23.8285 36.9075 25.9033 36.344 27.9157 35.8104C30.2645 35.1872 32.4804 34.8734 34.68 33.8387C41.24 30.7545 48.859 31.053 55.7183 33.3982C65.1716 36.6307 74.1862 42.1578 84.1188 43.2286C88.7088 43.7234 94.0026 44.6423 98.1214 46.8356C99.6137 47.6306 100.371 49.1238 100.716 50.7229C100.947 51.7883 100.42 54.4139 100.871 55.18C101.545 56.3232 101.848 57.868 101.569 59.165C101.291 60.4619 100.509 61.644 99.4256 62.4092C99.2836 64.3972 98.5148 66.2621 97.0551 67.6188C95.7002 68.8769 91.7966 68.8977 91.7966 68.8977C89.8955 68.9076 88.1725 70.9743 86.1881 71.0069C81.8522 71.0774 78.2471 68.9402 75.3023 66.008C66.691 67.3629 57.5028 70.1485 48.8753 68.8995Z" fill="#B0481B"/>
<path opacity="0.6" d="M99.2601 51.2129C99.81 52.8979 99.4382 54.8515 98.3104 56.2181C96.696 58.1726 94.4982 60.1317 91.9883 60.4871C90.496 60.6978 89.0136 61.1039 87.5439 60.7702C86.8375 60.6101 86.0045 60.6888 85.2819 60.7331C87.4598 61.2767 89.6603 61.7226 91.9033 61.652C94.1463 61.5824 96.4653 60.8136 97.9323 59.1151C98.6559 60.0132 98.8151 61.4205 97.9749 62.2092C96.9664 63.1561 95.3827 63.1154 93.9998 63.0955C93.7764 63.6183 93.2654 64.1031 92.7671 64.3753C92.2678 64.6485 91.7125 64.8004 91.1589 64.9297C89.8801 65.2282 88.5768 65.4172 87.2653 65.495C90.7248 66.527 94.7188 66.035 97.8057 64.1646C97.6511 65.6705 96.7756 66.9747 95.4415 67.6892C94.1075 68.4037 92.55 68.5973 91.0369 68.5647C88.8155 70.2434 85.7965 70.4622 83.0958 69.7848C80.3952 69.1074 77.9975 67.5373 75.872 65.7383C74.7008 65.5954 73.5512 65.2562 72.3809 65.1133C72.0752 65.0763 71.7649 65.0374 71.4819 64.9171C71.1988 64.7968 70.941 64.5815 70.8424 64.2894C72.2298 64.3111 73.8063 63.8082 75.1069 63.3271C73.5178 63.593 71.9657 63.0024 70.553 62.2282C71.1038 62.173 71.6139 61.8022 72.1077 61.5526C71.13 61.4531 70.2771 61.132 69.3374 60.8435C68.3977 60.5559 67.495 60.0647 66.8719 59.3041C69.4532 60.2556 72.522 59.9942 75.2516 59.6523C77.9812 59.3104 80.6683 58.6601 83.4051 58.3861C85.5134 58.1744 87.6398 58.1871 89.7471 57.9673C91.8545 57.7476 93.979 57.2772 95.7951 56.1865C97.6104 55.0966 98.9227 53.3049 99.2601 51.2129Z" fill="#603813"/>
<path opacity="0.6" d="M69.5238 66.0604C64.998 68.7393 59.376 68.4562 54.1338 68.0293C49.5817 67.6585 44.998 67.2343 40.6178 65.9419C36.8517 64.8303 33.2791 63.0721 30.0892 60.782C29.2779 60.2005 28.4919 59.5836 27.7331 58.9351C26.7119 58.0615 26.7219 57.8706 25.5063 58.3744C23.7698 59.0943 21.7411 59.05 20.0932 58.1067C18.1659 57.0033 16.9539 54.7575 17.0895 52.5407C18.2789 54.2628 20.7489 54.9909 22.8029 54.5884C21.7565 53.645 21.0836 52.4141 20.5382 51.1153C24.2943 57.1769 48.9007 69.8147 69.5238 66.0604Z" fill="#603813"/>
<path opacity="0.6" d="M21.5656 44.0942C24.1559 48.6218 28.0921 52.2984 32.5546 54.9982C37.0171 57.6988 41.9997 59.458 47.0791 60.6464C52.4804 61.9099 58.0889 62.544 63.587 61.8114C56.0439 60.1219 48.8066 58.2478 41.5583 55.5634C34.3092 52.8791 27.1813 49.4051 21.5656 44.0942Z" fill="#603813"/>
<path opacity="0.6" d="M60.8032 55.3501C52.3014 53.9636 43.7047 52.1863 36.1462 48.0548C33.2583 46.4766 30.4265 44.3557 27.7367 42.4581C27.7512 41.56 27.7891 40.5923 28.3363 39.8805C28.8935 39.156 29.8395 38.8738 30.7232 38.6432C32.9635 38.058 35.2363 36.9754 37.5481 37.111C37.9985 37.1373 38.5141 37.3878 38.8786 37.6537C42.8653 36.4978 47.2121 36.439 51.3273 36.9799C48.9297 36.8596 46.5401 37.6311 44.4128 38.7436C49.0707 38.2425 53.6879 39.1886 57.9081 41.2236C53.6554 39.5639 48.9577 39.1777 44.4707 40.0207C48.0189 39.5639 54.9813 41.7653 54.9813 41.7653C54.9813 41.7653 64.4291 46.5725 69.5166 47.0156C74.397 47.4407 79.5596 48.3397 84.25 49.7552C81.1948 48.5378 77.9723 47.4543 74.7407 46.8456C80.9506 47.0102 87.2257 48.3732 92.9237 50.8478C92.9987 50.1513 92.2996 49.6421 91.6782 49.3192C88.964 47.9074 85.9477 46.9252 82.9196 46.4901C86.4442 46.8176 90.0376 47.1621 93.2827 48.574C94.1031 48.9312 94.9152 49.3708 95.4914 50.0546C96.0675 50.7392 96.366 51.7151 96.0494 52.5517C93.1498 54.6826 89.2362 54.8282 85.6392 54.9268C77.5834 55.1484 68.8591 55.1294 60.8032 55.3501Z" fill="#603813"/>
<path d="M94.2913 53.9429C93.452 54.3137 92.5792 54.5688 91.7037 54.7904C89.9518 55.239 88.1673 55.4805 86.3846 55.5809C84.6038 55.7156 82.8238 55.7853 81.0466 55.8269C77.4912 55.9083 73.9431 55.873 70.4013 55.854C67.1986 55.8459 63.9915 55.8233 60.8223 56.0069C62.4756 56.81 64.0322 57.8492 65.4594 59.1435C62.1175 57.8827 59.2124 56.706 56.1264 55.3466C49.3368 53.9167 42.6276 51.9577 36.3552 48.8735C34.5274 47.951 32.7221 46.9651 31.0308 45.7893C30.1833 45.2078 29.3458 44.6027 28.5571 43.937L27.9638 43.4387C27.7802 43.2714 27.5577 43.142 27.3198 42.8074C26.9038 42.1851 26.9146 41.4769 27.0503 40.8918C27.3162 39.6491 28.397 38.798 29.3476 38.3648C30.3072 37.8935 31.332 37.5915 32.3214 37.3301C34.2696 36.8272 36.2205 36.4853 38.1931 36.166C39.178 35.2878 40.2896 34.8483 41.4364 34.4982C42.6556 34.1527 43.9101 34.0243 45.1474 34.0189C46.3883 33.9936 47.612 34.1726 48.8176 34.3752C49.4163 34.5028 50.0087 34.6556 50.6003 34.7994L52.3422 35.3466L50.5614 34.9713L48.766 34.7198C47.5659 34.6185 46.3629 34.5417 45.1763 34.6647C43.9924 34.7669 42.8211 34.9876 41.7295 35.3973C40.6595 35.797 39.5923 36.4157 38.8524 37.0976L38.8135 37.1338C38.7321 37.2089 38.6281 37.2604 38.5105 37.2776C36.5289 37.5634 34.5364 37.936 32.6072 38.4272C31.6395 38.6831 30.7097 38.9599 29.846 39.3832C28.9913 39.792 28.3256 40.3572 28.1519 41.1568C28.057 41.5421 28.0895 41.9418 28.255 42.1698C28.3021 42.2602 28.511 42.4185 28.7063 42.5849L29.2771 43.0642C30.0359 43.7055 30.8463 44.2907 31.6675 44.8541C33.3064 45.9937 35.0691 46.957 36.8572 47.8596C44.0521 51.3987 51.918 53.4627 59.8184 54.9269C63.3683 54.6719 66.8884 54.7135 70.4058 54.7216C73.9503 54.7406 77.4894 54.7759 81.0186 54.6945C84.5495 54.6457 88.0642 54.3499 91.511 53.8751C92.3675 53.7322 93.2213 53.5567 94.0299 53.2754C94.8339 52.9996 95.6353 52.6459 96.2132 52.0599C96.4882 51.7668 96.7215 51.4105 96.8246 51.0342C96.9015 50.6535 96.8264 50.232 96.6329 49.8584C96.2422 49.1077 95.5213 48.5063 94.6901 48.2096C95.5494 48.4249 96.3516 48.9495 96.8635 49.7273C97.1186 50.1135 97.2678 50.6028 97.2063 51.0993C97.1177 51.5914 96.8807 52.0137 96.5831 52.3918C95.9654 53.1289 95.1225 53.5757 94.2913 53.9429Z" fill="#7A1B29"/>
<path d="M57.91 61.9328C50.9214 62.4709 44.0666 61.1369 37.9191 58.3403C31.7779 55.5302 26.2743 51.2259 22.1039 45.5867C26.8939 50.6091 32.4083 54.3888 38.3912 57.1428C44.3822 59.8724 50.8879 61.6126 57.91 61.9328Z" fill="#7A1B29"/>
<path d="M71.6739 61.7203C73.8618 61.8677 75.8488 61.1279 77.9001 60.5924C78.9258 60.3166 79.9948 60.085 81.0919 60.0091C82.1836 59.934 83.2625 59.9901 84.3171 60.0878C86.4236 60.2759 88.4631 60.6512 90.4918 60.4776C92.4933 60.3048 94.6441 59.6708 96.0008 57.8927C95.0231 59.9204 92.7692 61.0401 90.6455 61.4245C88.4541 61.8379 86.2925 61.5493 84.243 61.3703C82.1691 61.1441 80.22 61.1396 78.1416 61.5303C76.0903 61.8505 73.8274 62.3118 71.6739 61.7203Z" fill="#7A1B29"/>
<path d="M94.3446 62.9938C92.1631 65.3562 88.8592 66.334 85.7931 66.286C82.6746 66.2417 79.7396 65.2812 76.8192 64.0792C79.9431 64.4446 82.8762 64.9583 85.7804 65.0017C88.6584 65.0225 91.6267 64.6571 94.3446 62.9938Z" fill="#7A1B29"/>
<path d="M94.0896 67.7129C95.9934 67.1911 97.7327 66.1157 99.1445 64.3168C98.5358 66.5028 96.6917 68.3533 94.4658 68.9412C92.2843 69.549 89.9418 69.3364 87.8724 68.385C90.1028 68.4835 92.164 68.2339 94.0896 67.7129Z" fill="#7A1B29"/>
<path d="M20.3945 57.5626C21.1787 58.1867 22.0651 58.6615 23.0617 58.8008C24.0078 58.931 25.0723 58.7899 25.9777 58.1496C24.8462 57.0154 23.7609 55.8306 22.7859 54.5345C29.9012 61.4327 38.7656 65.254 47.887 66.8521C56.6926 68.3517 65.8782 67.9565 75.2021 65.86C75.1035 65.7144 75.0004 65.5733 74.9063 65.4249C75.1352 65.547 75.3513 65.6592 75.5766 65.7795C75.8388 65.7198 76.0993 65.6728 76.3616 65.6094C76.1463 65.6963 75.9266 65.765 75.7104 65.85C78.005 67.0674 80.1268 68.1428 82.2776 68.8474C84.659 69.5818 87.2249 70.0693 90.0811 69.2109C87.9765 71.4386 84.4419 71.9396 81.611 70.9936C78.9456 70.1271 76.8591 68.2558 75.2989 66.002C66.3675 69.4289 56.8247 70.6372 47.6012 69.0816C39.6249 67.7439 31.8774 64.0448 26.0148 58.1858C25.3853 59.1318 24.2122 59.7061 23.0373 59.7595C21.7829 59.8337 20.5501 59.3299 19.6131 58.581C17.6758 57.0335 16.9242 54.7018 16.4647 52.438C17.7255 54.4052 18.8072 56.3117 20.3945 57.5626Z" fill="#7A1B29"/>
<path d="M97.3374 62.3885C98.8921 61.8386 99.9196 60.7949 100.536 59.6399C101.117 58.4704 101.377 57.0088 100.887 55.4134C102.143 56.5539 102.51 58.6151 101.686 60.2097C100.886 61.8169 99.0007 62.7376 97.3374 62.3885Z" fill="#7A1B29"/>
<path d="M35.6143 49.5228C32.3502 48.3787 29.3339 46.6268 26.7933 44.4019C25.6564 43.4052 24.5683 42.2321 24.3061 40.7985C24.0067 39.1606 24.9726 37.3906 26.5699 36.6499C24.7275 37.0487 23.1212 38.0382 21.9463 39.4184C21.4742 39.9737 21.0709 40.6222 21.0437 41.3304C21.0139 42.0991 21.429 42.8209 21.912 43.4449C23.4079 45.3796 25.6302 46.7453 27.9935 47.6633C30.3559 48.5822 33.1117 49.0227 35.6143 49.5228Z" fill="#CC5F29"/>
<path d="M32.9308 56.749C28.5949 54.2609 24.7085 50.9931 21.514 47.1483C20.2532 47.3157 19.0801 47.9886 18.4479 49.092C17.8157 50.1954 17.7297 51.5955 18.2227 52.7677C18.2543 51.572 19.2583 50.4451 20.3925 50.0661C23.4766 53.6739 28.2855 55.774 32.9308 56.749Z" fill="#CC5F29"/>
<path d="M85.0638 43.8861C87.0328 43.8065 88.9728 44.3175 90.8667 44.862C92.0253 45.1948 93.1803 45.5421 94.3308 45.9039C95.4035 46.2413 96.4861 46.5958 97.4348 47.1991C98.3845 47.8023 99.2012 48.6878 99.4961 49.7731C99.6951 50.5075 100.163 51.2329 99.9736 51.97C99.8325 51.5513 99.525 51.1189 99.1641 50.8639C98.5753 49.4756 97.509 48.194 96.2102 47.4279C95.3962 46.9476 94.4755 46.6863 93.5665 46.4285C90.8396 45.657 87.7907 44.6576 85.0638 43.8861Z" fill="#CC5F29"/>
<path d="M30.6823 35.9071C32.4605 35.2947 34.3978 34.8543 36.0692 33.9914C39.0168 32.4693 42.4139 31.9736 45.7287 32.103C49.0444 32.2323 52.3058 32.9586 55.5229 33.7689C50.7357 33.1684 45.7947 32.699 41.1359 33.9535C39.4048 34.4192 37.7497 35.1329 36.0321 35.6457C34.3146 36.1576 32.4369 36.2724 30.6823 35.9071Z" fill="#CC5F29"/>
<path d="M81.5135 25.2056C66.7901 28.3278 61.6013 39.258 57.4987 54.2971C58.4927 54.6019 59.4586 54.9827 60.4047 55.4195C61.0486 55.0378 61.8328 54.8515 62.7409 55.0179C70.8393 56.4994 79.0516 54.7846 87.188 54.535C93.6367 45.7664 101.449 41.5055 114.492 41.4106C104.183 32.6655 94.7926 25.9681 81.5135 25.2056Z" fill="#5DB02A"/>
<path d="M60.421 55.4095C61.0614 55.0351 61.841 54.8524 62.74 55.017C69.2493 56.2081 75.8319 55.3372 82.39 54.8171C87.946 45.6361 94.477 38.7361 104.94 37.9031C102.925 36.3411 102.561 35.0857 104.109 34.9618C96.8294 29.7396 93.6548 28.5005 86.4817 26.9756C85.1115 27.3952 82.5275 27.4613 80.5874 27.1709C68.6569 30.4016 64.188 41.8944 59.3375 54.0963C59.6088 54.3748 59.8214 54.771 60.005 55.2096C60.1452 55.2711 60.2817 55.3444 60.421 55.4095Z" fill="#A4CA1A"/>
<path d="M73.662 45.8529C78.0658 47.9042 83.9881 46.8414 86.7032 44.0955C89.4184 41.3505 87.6267 37.4117 82.7571 35.4717C77.8876 33.5316 72.0232 34.153 69.8118 36.7876C67.5987 39.4223 69.2583 43.8016 73.662 45.8529Z" fill="#5DB02A"/>
<path d="M107.092 35.3037C104.553 33.3945 101.927 31.6398 99.1881 30.1366C93.7198 27.1158 87.7306 25.2888 81.5469 24.918L81.5215 24.9162L81.4971 24.9216C78.2466 25.647 74.9933 26.8372 71.9842 28.8134C68.9733 30.7743 66.2817 33.5943 64.1861 36.9489C62.0968 40.3189 60.5538 44.0995 59.2795 47.9406C58.602 50.0326 58.0123 52.1526 57.4534 54.2808C57.4868 54.2908 57.5212 54.2998 57.5556 54.3106C58.1534 52.1979 58.7829 50.0959 59.4956 48.0293C60.7899 44.2143 62.3464 40.4754 64.4285 37.1705C66.5177 33.8801 69.1741 31.1415 72.1425 29.244C75.1018 27.3274 78.3036 26.215 81.5089 25.4914C87.6374 25.7998 93.5851 27.5445 99.0443 30.4876C101.784 31.9501 104.409 33.6821 106.966 35.5434C109.533 37.3876 112.027 39.3746 114.494 41.4069C112.07 39.2987 109.621 37.2329 107.092 35.3037Z" fill="#FFE699"/>
<path d="M102.387 42.9094C98.3776 44.1051 94.4388 46.3165 91.0815 49.5915C89.5747 51.091 88.2026 52.7715 86.9183 54.5469C87.082 54.5415 87.2466 54.5279 87.4103 54.5234C87.4474 54.5135 87.4854 54.5062 87.5225 54.4954C88.7154 52.8999 89.9708 51.3814 91.3483 50.0347C94.6278 46.7841 98.4889 44.6161 102.443 43.3427C106.409 42.0638 110.466 41.5871 114.491 41.409C110.481 41.3728 106.408 41.6939 102.387 42.9094Z" fill="#89DEED"/>
<path opacity="0.5" d="M69.3207 32.0046C63.1217 39.4925 59.6676 45.442 57.6136 54.3299C58.5687 54.6266 59.4957 54.9974 60.4056 55.418C61.0487 55.0372 61.8328 54.8509 62.74 55.0173C70.4884 56.4355 78.3398 54.9359 86.1307 54.5841C88.3041 51.3851 90.539 48.6735 92.5704 47.2074C80.5765 55.9453 60.7828 46.8692 69.3207 32.0046Z" fill="#262159"/>
<path opacity="0.3" d="M112.045 40.1244C104.562 32.84 94.939 27.3926 81.5134 25.2056L78.4835 26.1851C85.9235 32.2585 94.2634 37.4238 103.638 41.5444L112.045 40.1244Z" fill="#FFE9A6"/>
<path d="M62.7399 55.0172C64.2838 55.2993 65.8322 55.4377 67.3833 55.52C65.4107 39.1604 62.133 27.1847 52.4175 12.8393C40.5918 10.1205 27.244 9.49643 15.6147 13.2146C26.9763 24.6459 36.359 36.817 43.2591 50.7672C45.0761 51.3216 46.8795 51.8163 48.607 52.2342C52.5983 53.201 56.7217 53.7093 60.4128 55.4142C61.054 55.037 61.8364 54.8516 62.7399 55.0172Z" fill="#5DB02A"/>
<path d="M62.7398 55.017C63.2454 55.1093 63.7537 55.1545 64.2602 55.2232C64.4592 54.0628 64.9042 53.2081 65.4975 52.9811C63.3594 39.5736 60.466 28.4227 52.6978 17.0927C50.8608 16.7662 48.4098 15.4638 47.4267 14.1099C39.6312 12.9829 34.2471 12.4647 25.6838 13.5672C26.9184 14.8814 26.0609 16.2254 23.9292 16.7029C33.7903 27.152 41.4049 39.0056 47.3344 51.9093C47.7595 52.0179 48.19 52.1327 48.607 52.234C52.5983 53.2009 56.7207 53.711 60.4109 55.415C61.053 55.0369 61.8354 54.8515 62.7398 55.017Z" fill="#A4CA1A"/>
<path d="M53.9253 40.6184C49.5858 41.7029 43.9728 39.5611 41.3083 35.3175C38.6438 31.0738 40.9311 26.8338 46.6228 26.5543C52.3145 26.2748 57.6616 29.0325 59.03 32.4368C60.3993 35.8412 58.2648 39.534 53.9253 40.6184Z" fill="#5DB02A"/>
<path d="M62.7399 55.0173C64.263 55.2959 65.7915 55.4334 67.3218 55.5166C67.6917 39.6463 66.1243 27.5304 58.83 12.2868C47.5389 7.8424 34.4317 5.24483 22.379 7.19481C32.5305 21.0202 40.3712 35.3258 45.0508 51.2928C46.2555 51.6338 47.4503 51.954 48.6061 52.2335C52.5975 53.2003 56.7208 53.7086 60.4118 55.4144C61.054 55.0372 61.8363 54.8518 62.7399 55.0173Z" fill="#5DB02A"/>
<path d="M62.7398 55.0173C63.3349 55.1259 63.9318 55.1847 64.5288 55.2606C64.8788 54.5262 65.3265 54.0333 65.8067 53.9275C65.6819 40.3509 64.4763 28.8943 58.4753 16.5359C56.708 15.9399 54.4768 14.2884 53.7053 12.8033C46.164 10.5322 40.9155 9.21986 32.2835 9.03897C33.3091 10.5214 32.2627 11.7243 30.083 11.8789C38.6951 24.2671 44.6255 37.8193 48.5807 52.2271C48.5888 52.2289 48.5979 52.2316 48.606 52.2335C52.5973 53.2003 56.7198 53.7095 60.4108 55.4144C61.053 55.0372 61.8353 54.8518 62.7398 55.0173Z" fill="#A4CA1A"/>
<path d="M56.1979 39.9828C51.7453 40.4106 46.5122 37.4594 44.508 32.8675C42.5037 28.2756 45.3943 24.4218 51.0643 24.9898C56.7342 25.5578 61.6128 29.0797 62.4612 32.6495C63.3087 36.2194 60.6505 39.5541 56.1979 39.9828Z" fill="#5DB02A"/>
<path d="M62.7399 55.0173C66.3921 55.6857 70.0677 55.6893 73.7479 55.484C74.921 39.1271 74.2553 25.2394 67.1174 9.20627C55.7196 4.28881 42.2597 1.42443 29.9357 3.50194C39.6087 17.7117 44.8138 34.8147 47.5217 51.9585C47.8826 52.0498 48.2498 52.1484 48.6053 52.2343C52.5966 53.2012 56.7208 53.7095 60.4119 55.4144C61.0549 55.0363 61.8364 54.8518 62.7399 55.0173Z" fill="#5DB02A"/>
<path d="M62.7397 55.0174C65.4847 55.5194 68.2441 55.637 71.0081 55.5854C71.3238 55.2318 71.6584 54.9794 71.9949 54.8917C72.5773 40.2777 72.1324 27.5603 66.5547 13.8462C64.772 13.1869 62.5606 11.3725 61.8407 9.74544C55.0402 7.40474 47.1597 5.75141 39.9612 5.58138C40.8928 7.23108 39.6809 8.57961 37.437 8.7406C44.2094 23.0761 48.3409 37.3708 50.8001 52.7238C54.0914 53.4157 57.3989 54.0144 60.4171 55.4109C61.0592 55.0355 61.8389 54.8528 62.7397 55.0174Z" fill="#A4CA1A"/>
<path d="M61.5694 40.2104C56.2612 41.0109 50.9268 37.8146 49.5095 32.5823C48.0923 27.3501 51.7535 22.9003 57.8838 23.3796C64.0141 23.859 68.9849 27.6631 69.6144 31.6028C70.2448 35.5417 66.8785 39.41 61.5694 40.2104Z" fill="#5DB02A"/>
<g opacity="0.4">
<path d="M72.9654 36.3524C70.5017 42.1201 52.6851 37.7462 42.4223 28.8537L43.7735 33.7006C42.0813 34.0714 39.7931 32.9047 37.3032 31.217L39.661 35.8876C37.5293 36.2584 35.1623 35.1495 32.7086 33.1652L35.6471 37.3663C38.1407 41.0348 40.2137 45.1464 43.2445 50.7621C45.066 51.3183 46.874 51.8139 48.606 52.2336C48.7571 52.2707 48.9099 52.3014 49.0609 52.3367L72.1026 52.1802C73.3634 47.2013 73.651 41.9256 72.9654 36.3524Z" fill="#19155C"/>
</g>
<path d="M66.7566 9.47226C55.2873 4.33049 42.8783 2.67355 30.9586 3.69557C43.3215 3.62864 55.3479 5.32357 65.9987 10.6933C66.9954 11.8374 69.3098 18.6225 71.2227 23.5011C69.7449 17.8999 68.0762 11.6936 66.7566 9.47226Z" fill="#C2DE87"/>
<path d="M23.2869 7.50309C25.6412 7.03278 28.7859 6.94325 32.2138 6.98847L33.4583 8.96106C30.0061 8.18867 26.6099 7.67675 23.2869 7.50309Z" fill="#C2DE87"/>
<path d="M25.6025 11.4241C22.0336 12.163 19.076 12.7364 16.8656 13.5532C20.0121 13.3623 23.3541 13.3397 26.9176 13.6327L25.6025 11.4241Z" fill="#C2DE87"/>
<path d="M37.5683 40.9196C39.5997 44.1376 41.5008 47.438 43.3224 50.788C43.3305 50.7907 43.3386 50.7935 43.3468 50.7962C41.7296 47.3349 39.9217 43.9622 37.959 40.68C35.9331 37.2919 33.718 34.0169 31.3909 30.8269C29.0249 27.6659 26.5485 24.5854 23.9121 21.6468C21.2774 18.7074 18.518 15.8819 15.6129 13.2156C18.3452 16.0573 21.0133 18.9552 23.5675 21.948C26.1207 24.9417 28.5935 28.0033 30.9098 31.1815C33.2676 34.3298 35.4691 37.5931 37.5683 40.9196Z" fill="#89DEED"/>
<path d="M22.3799 7.1958C24.9594 10.3668 27.3417 13.6997 29.5676 17.1338C31.7952 20.568 33.8284 24.1252 35.7449 27.7412C37.6198 31.3797 39.3754 35.0798 40.9545 38.855C42.5328 42.6292 43.9708 46.4614 45.2271 50.3505C43.7375 46.5446 42.1945 42.7631 40.5322 39.0368C38.8707 35.3105 37.1251 31.6212 35.2167 28.017C33.3509 24.3911 31.3177 20.852 29.1814 17.378C27.0423 13.9041 24.7632 10.516 22.3799 7.1958Z" fill="#89DEED"/>
<path d="M29.9364 3.50177C32.3278 6.87625 34.4541 10.4416 36.3453 14.1272C38.2383 17.8128 39.8564 21.6377 41.2764 25.5304C42.6511 29.4394 43.8269 33.4208 44.744 37.4592C45.6611 41.4975 46.3593 45.5838 46.8052 49.6954C46.1142 45.6191 45.3048 41.5671 44.2981 37.5659C43.2924 33.5655 42.1274 29.605 40.7156 25.7312C39.3499 21.8412 37.7327 18.0425 35.9365 14.3307C34.1385 10.6189 32.1215 7.01192 29.9364 3.50177Z" fill="#89DEED"/>
<path d="M62.74 55.0168C69.5713 56.2668 76.483 55.2457 83.3622 54.7428C86.2954 42.8656 91.3078 32.3053 100.57 21.1571C90.1384 12.7395 79.1059 6.44815 67.2351 0.345856C59.6685 17.5945 52.9367 34.5881 52.9774 53.1781C55.5343 53.7117 58.0505 54.3358 60.4002 55.4211C61.0442 55.0385 61.831 54.8504 62.74 55.0168Z" fill="#5DB02A"/>
<path d="M62.7402 55.0166C68.1017 55.9979 73.5139 55.5755 78.9207 55.1052C81.3048 44.1804 85.5069 33.7042 92.3472 24.6977C90.626 23.5382 90.1621 21.1189 91.5748 19.4122C84.7092 14.6602 80.5252 11.9026 72.8211 7.79729C71.6806 9.85309 69.1771 10.6463 67.2072 9.68306C61.0959 24.1117 55.8357 38.0745 55.1429 53.6617C56.9572 54.0922 58.729 54.634 60.4149 55.4127C61.0561 55.0355 61.8375 54.851 62.7402 55.0166Z" fill="#A4CA1A"/>
<path d="M66.9549 49.5884C72.0804 52.3098 77.2592 50.2685 78.7579 45.5491C80.2565 40.8297 77.7268 34.9038 72.3942 31.9716C67.0625 29.0394 61.4495 30.7759 60.1281 35.6708C58.8067 40.5674 61.8294 46.8669 66.9549 49.5884Z" fill="#5DB02A"/>
<path d="M84.5399 9.73796C78.9477 6.29112 73.1765 3.14636 67.35 0.122804L67.1122 -0.000198364L67.0036 0.24581C64.804 5.23563 62.6062 10.2336 60.6843 15.3455C58.7578 20.4529 57.0294 25.6453 55.6854 30.9418C54.3423 36.2364 53.3944 41.6405 53.0055 47.0915C52.8581 49.1103 52.8319 51.1326 52.8635 53.1549C52.9413 53.1712 53.0191 53.1884 53.0969 53.2047C53.1475 45.7313 54.2175 38.2723 56.1259 31.0548C57.5061 25.7901 59.2679 20.6311 61.2287 15.5526C63.1643 10.5592 65.2201 5.61007 67.3609 0.695321C73.1222 3.63296 78.8256 6.68817 84.3563 10.0373C89.9512 13.4489 95.4204 17.0866 100.57 21.1584C95.5072 16.9853 90.1447 13.1631 84.5399 9.73796Z" fill="#FFE699"/>
<path d="M91.3112 33.9931C88.6395 38.5596 86.4751 43.4246 84.8173 48.4515C84.1507 50.5326 83.5836 52.6427 83.0735 54.7655C83.268 54.751 83.4624 54.7347 83.6569 54.7211C84.1661 52.6744 84.7296 50.6421 85.3925 48.6396C86.9943 43.6326 89.1441 38.8101 91.7155 34.2246C94.2904 29.6391 97.295 25.2932 100.57 21.1581C97.1232 25.1503 93.9739 29.4193 91.3112 33.9931Z" fill="#89DEED"/>
<path opacity="0.5" d="M62.74 55.0171C63.0439 55.0723 63.3496 55.094 63.6535 55.141C59.295 49.4945 56.0733 41.0461 56.3655 32.2685C54.5801 39.031 53.4323 45.9826 53.4468 53.2787C55.8445 53.7879 58.197 54.4012 60.4029 55.4205C61.0469 55.0379 61.8319 54.8516 62.74 55.0171Z" fill="#262159"/>
<path opacity="0.3" d="M99.4695 21.2776C89.4582 13.4478 78.7956 6.86255 67.5073 1.47025L64.8202 7.76699C59.6503 22.1811 78.7613 41.0723 87.1735 41.1817C90.2785 33.8693 94.0925 26.981 99.4695 21.2776Z" fill="#FFE9A6"/>
<path d="M62.7399 55.0169C64.0912 55.2638 65.4469 55.3977 66.8036 55.4881C65.9163 38.5244 59.6368 22.8042 52.6454 6.86517C40.7746 12.9675 29.7421 19.2588 19.3103 27.6764C24.3715 33.7688 28.1386 39.6875 31.0147 45.7364C36.2451 48.6722 42.834 50.8357 48.6071 52.2339C52.5984 53.2008 56.7208 53.71 60.4119 55.4149C61.0531 55.0368 61.8355 54.8514 62.7399 55.0169Z" fill="#5DB02A"/>
<path d="M62.7398 55.017C63.2725 55.1146 63.8062 55.1635 64.3398 55.234C62.8836 41.6058 58.1298 29.0856 52.6733 16.2018C50.7034 17.1641 48.1999 16.3718 47.0585 14.316C39.3545 18.4222 35.1705 21.179 28.3058 25.9309C29.7185 27.6376 29.2545 30.0579 27.5334 31.2165C31.5952 36.5645 34.7065 42.4397 37.0834 48.6108C40.8803 50.1311 44.9123 51.3395 48.6061 52.234C52.5974 53.2008 56.7207 53.7091 60.4118 55.414C61.0539 55.0368 61.8363 54.8514 62.7398 55.017Z" fill="#A4CA1A"/>
<path d="M48.606 52.2339C51.0381 52.8227 53.5217 53.2351 55.9275 53.8501C59.1392 50.6873 60.7861 46.0203 59.7524 42.1909C58.431 37.2961 52.818 35.5595 47.4863 38.4917C42.9216 41.0016 40.4488 45.6993 40.7618 49.9619C43.4127 50.8618 46.088 51.6243 48.606 52.2339Z" fill="#5DB02A"/>
<path d="M63.7547 37.574C65.3013 43.424 66.2853 49.434 66.6426 55.4802C66.7475 55.4874 66.8524 55.4911 66.9564 55.4974C66.9356 54.8679 66.9203 54.2393 66.8741 53.6107C66.4852 48.1596 65.5374 42.7556 64.1943 37.461C62.8503 32.1645 61.1219 26.9721 59.1954 21.8647C57.2734 16.7528 55.0756 11.7548 52.876 6.76499L52.7675 6.51898L52.5296 6.64198C46.7032 9.66554 40.9329 12.8112 35.3398 16.2571C29.7358 19.6823 24.3733 23.5045 19.3094 27.6776C24.4584 23.6058 29.9284 19.969 35.5233 16.5565C41.054 13.2064 46.7575 10.1512 52.5188 7.21359C54.6596 12.1293 56.7154 17.0784 58.6518 22.0718C60.6127 27.1503 62.3745 32.3083 63.7547 37.574Z" fill="#FFE699"/>
<path d="M30.5679 45.4913C30.8338 45.6451 31.1133 45.7916 31.3864 45.9417C30.5164 44.0958 29.5992 42.2733 28.5691 40.5124C25.9064 35.9386 22.7571 31.6696 19.3103 27.6774C22.5844 31.8125 25.5898 36.1584 28.1648 40.7439C29.0331 42.2923 29.8154 43.8841 30.5679 45.4913Z" fill="#89DEED"/>
<path opacity="0.5" d="M60.4209 55.4095C61.0612 55.035 61.8409 54.8524 62.7399 55.017C63.9247 55.234 65.1132 55.367 66.3025 55.461C65.9498 49.7323 64.9422 44.1971 63.5141 38.7867C63.7104 44.6719 62.3103 50.3934 60.0627 55.2376C60.1839 55.291 60.3015 55.3534 60.4209 55.4095Z" fill="#262159"/>
<path opacity="0.3" d="M34.4046 47.465C43.4174 45.2446 59.9073 27.7978 55.0613 14.2863L52.3742 7.98956C41.0867 13.3819 30.4233 19.9671 20.412 27.7969C25.4516 33.1431 29.11 39.5366 32.1074 46.338C32.8526 46.7269 33.6178 47.1041 34.4046 47.465Z" fill="#FFE9A6"/>
<path d="M30.0831 45.1179C32.4121 46.3661 34.7844 47.5075 37.2463 48.4101C39.6856 49.3643 42.1954 50.1096 44.7469 50.6613C49.8299 51.7982 55.186 52.4114 60.1686 54.6553L59.6386 54.6218L60.2183 54.5223L60.6968 54.4898C61.0151 54.4663 61.319 54.459 61.6211 54.4536L63.4318 54.4337C64.632 54.4319 65.8286 54.4455 67.0243 54.4717L74.1884 54.6291C78.9629 54.7231 83.7303 54.8009 88.5148 54.658C86.1497 55.0487 83.7583 55.2351 81.3697 55.4313C78.9783 55.5941 76.5852 55.6719 74.192 55.7497C71.7988 55.8374 69.4057 55.851 67.017 55.87L63.44 55.8962L61.6663 55.9324C61.3715 55.9405 61.0784 55.9505 60.8008 55.974L60.3866 56.0056L60.0818 56.0518L59.7399 56.1033L59.5508 56.0183C54.8568 53.9046 49.592 53.2154 44.4593 51.8226C41.8879 51.118 39.3682 50.2163 36.9488 49.1129C34.5511 47.9651 32.2267 46.6682 30.0831 45.1179Z" fill="#7A1B29"/>
<defs>
<linearGradient id="paint0_linear_1_4298" x1="40.9867" y1="68.1455" x2="54.5806" y2="103.641" gradientUnits="userSpaceOnUse">
<stop stop-color="#FFD705"/>
<stop offset="1" stop-color="#FEAA0F"/>
</linearGradient>
</defs>
</svg>
