<svg width="47" height="48" viewBox="0 0 47 48" fill="none" xmlns="http://www.w3.org/2000/svg">
<path d="M23.2276 46.1395C35.4839 46.1395 45.4197 36.2038 45.4197 23.9474C45.4197 11.6911 35.4839 1.75537 23.2276 1.75537C10.9712 1.75537 1.03552 11.6911 1.03552 23.9474C1.03552 36.2038 10.9712 46.1395 23.2276 46.1395Z" fill="url(#paint0_radial_223_3695)"/>
<path d="M37.9169 38.7385C46.0527 30.6027 46.0527 17.4118 37.9169 9.27596C29.781 1.1401 16.5902 1.14012 8.4543 9.27597C0.318444 17.4118 0.31846 30.6027 8.45432 38.7385C16.5902 46.8744 29.781 46.8744 37.9169 38.7385Z" stroke="#180536" stroke-width="2.8347" stroke-miterlimit="10"/>
<path d="M38.1653 40.3741C47.2117 32.1047 47.8417 18.0675 39.5723 9.0211C31.303 -0.0253079 17.2657 -0.655216 8.21934 7.61414C-0.827066 15.8835 -1.45697 29.9207 6.81238 38.9671C15.0817 48.0135 29.1189 48.6434 38.1653 40.3741Z" stroke="#D98FE6" stroke-width="1.9842" stroke-miterlimit="10"/>
<g filter="url(#filter0_d_223_3695)">
<path d="M17.3937 22.7918C18.0826 22.8095 18.7097 22.8183 19.275 22.8183C19.8579 22.8183 20.3614 22.8183 20.7853 22.8183C21.2799 22.8183 21.7304 22.8095 22.1367 22.7918C22.5606 22.7918 23.0994 22.7742 23.753 22.7388C24.3183 22.7212 25.0249 22.6947 25.8728 22.6593C26.7384 22.624 27.7894 22.5798 29.026 22.5269L28.8935 25.2296C27.9042 25.1589 27.074 25.1148 26.4027 25.0971C25.7491 25.0618 25.2192 25.0353 24.8129 25.0176C24.3359 24.9999 23.9473 24.9999 23.647 25.0176C23.3467 25.0353 22.9228 25.0618 22.3752 25.0971C21.9159 25.1324 21.2888 25.1766 20.4939 25.2296C19.7166 25.2649 18.7274 25.3267 17.5262 25.4151L17.3937 22.7918Z" fill="white"/>
<path d="M17.4065 22.292L16.8671 22.2782L16.8943 22.817L17.0268 25.4403L17.0526 25.9512L17.5628 25.9137C18.7616 25.8256 19.7457 25.7641 20.5166 25.7291L20.5166 25.7292L20.5271 25.7285C21.3209 25.6755 21.9489 25.6313 22.4104 25.5959C22.9562 25.5606 23.3781 25.5343 23.6764 25.5167C23.954 25.5004 24.3245 25.4999 24.7928 25.5172C25.1964 25.5347 25.7238 25.5611 26.3757 25.5964L26.3757 25.5965L26.3896 25.5969C27.0507 25.6143 27.8729 25.658 28.8578 25.7283L29.3678 25.7647L29.3929 25.2541L29.5254 22.5513L29.5522 22.0038L29.0045 22.0273C27.7682 22.0803 26.7175 22.1244 25.8524 22.1598L25.852 22.1598C25.005 22.1951 24.3003 22.2215 23.7374 22.2391L23.7374 22.2389L23.726 22.2396C23.0772 22.2746 22.5482 22.2918 22.1367 22.2918H22.1258L22.115 22.2923C21.7172 22.3096 21.2742 22.3183 20.7853 22.3183H20.7828H20.7803H20.7779H20.7754H20.7729H20.7704H20.7679H20.7654H20.7629H20.7604H20.7579H20.7554H20.7529H20.7504H20.7479H20.7453H20.7428H20.7403H20.7378H20.7353H20.7328H20.7302H20.7277H20.7252H20.7227H20.7201H20.7176H20.7151H20.7125H20.71H20.7074H20.7049H20.7024H20.6998H20.6973H20.6947H20.6922H20.6896H20.6871H20.6845H20.6819H20.6794H20.6768H20.6743H20.6717H20.6691H20.6666H20.664H20.6614H20.6588H20.6563H20.6537H20.6511H20.6485H20.6459H20.6434H20.6408H20.6382H20.6356H20.633H20.6304H20.6278H20.6252H20.6226H20.62H20.6174H20.6148H20.6122H20.6096H20.607H20.6044H20.6017H20.5991H20.5965H20.5939H20.5913H20.5887H20.586H20.5834H20.5808H20.5781H20.5755H20.5729H20.5702H20.5676H20.565H20.5623H20.5597H20.557H20.5544H20.5517H20.5491H20.5464H20.5438H20.5411H20.5385H20.5358H20.5331H20.5305H20.5278H20.5251H20.5225H20.5198H20.5171H20.5145H20.5118H20.5091H20.5064H20.5037H20.5011H20.4984H20.4957H20.493H20.4903H20.4876H20.4849H20.4822H20.4795H20.4768H20.4741H20.4714H20.4687H20.466H20.4633H20.4606H20.4579H20.4552H20.4525H20.4497H20.447H20.4443H20.4416H20.4388H20.4361H20.4334H20.4307H20.4279H20.4252H20.4225H20.4197H20.417H20.4142H20.4115H20.4087H20.406H20.4032H20.4005H20.3977H20.395H20.3922H20.3895H20.3867H20.384H20.3812H20.3784H20.3757H20.3729H20.3701H20.3673H20.3646H20.3618H20.359H20.3562H20.3535H20.3507H20.3479H20.3451H20.3423H20.3395H20.3367H20.3339H20.3311H20.3283H20.3255H20.3227H20.3199H20.3171H20.3143H20.3115H20.3087H20.3059H20.3031H20.3003H20.2974H20.2946H20.2918H20.289H20.2862H20.2833H20.2805H20.2777H20.2748H20.272H20.2692H20.2663H20.2635H20.2606H20.2578H20.255H20.2521H20.2493H20.2464H20.2436H20.2407H20.2378H20.235H20.2321H20.2293H20.2264H20.2235H20.2207H20.2178H20.2149H20.2121H20.2092H20.2063H20.2034H20.2006H20.1977H20.1948H20.1919H20.189H20.1861H20.1832H20.1803H20.1774H20.1746H20.1717H20.1688H20.1659H20.1629H20.16H20.1571H20.1542H20.1513H20.1484H20.1455H20.1426H20.1397H20.1367H20.1338H20.1309H20.128H20.125H20.1221H20.1192H20.1162H20.1133H20.1104H20.1074H20.1045H20.1016H20.0986H20.0957H20.0927H20.0898H20.0868H20.0839H20.0809H20.078H20.075H20.072H20.0691H20.0661H20.0631H20.0602H20.0572H20.0542H20.0513H20.0483H20.0453H20.0423H20.0394H20.0364H20.0334H20.0304H20.0274H20.0244H20.0214H20.0184H20.0155H20.0125H20.0095H20.0065H20.0035H20.0005H19.9974H19.9944H19.9914H19.9884H19.9854H19.9824H19.9794H19.9764H19.9733H19.9703H19.9673H19.9643H19.9612H19.9582H19.9552H19.9521H19.9491H19.9461H19.943H19.94H19.937H19.9339H19.9309H19.9278H19.9248H19.9217H19.9187H19.9156H19.9126H19.9095H19.9064H19.9034H19.9003H19.8973H19.8942H19.8911H19.888H19.885H19.8819H19.8788H19.8757H19.8727H19.8696H19.8665H19.8634H19.8603H19.8572H19.8541H19.8511H19.848H19.8449H19.8418H19.8387H19.8356H19.8325H19.8294H19.8262H19.8231H19.82H19.8169H19.8138H19.8107H19.8076H19.8044H19.8013H19.7982H19.7951H19.7919H19.7888H19.7857H19.7826H19.7794H19.7763H19.7731H19.77H19.7669H19.7637H19.7606H19.7574H19.7543H19.7511H19.748H19.7448H19.7417H19.7385H19.7353H19.7322H19.729H19.7259H19.7227H19.7195H19.7163H19.7132H19.71H19.7068H19.7036H19.7005H19.6973H19.6941H19.6909H19.6877H19.6845H19.6813H19.6781H19.675H19.6718H19.6686H19.6654H19.6622H19.659H19.6557H19.6525H19.6493H19.6461H19.6429H19.6397H19.6365H19.6333H19.63H19.6268H19.6236H19.6204H19.6171H19.6139H19.6107H19.6074H19.6042H19.601H19.5977H19.5945H19.5913H19.588H19.5848H19.5815H19.5783H19.575H19.5718H19.5685H19.5653H19.562H19.5587H19.5555H19.5522H19.5489H19.5457H19.5424H19.5391H19.5359H19.5326H19.5293H19.526H19.5228H19.5195H19.5162H19.5129H19.5096H19.5063H19.503H19.4997H19.4965H19.4932H19.4899H19.4866H19.4833H19.4799H19.4766H19.4733H19.47H19.4667H19.4634H19.4601H19.4568H19.4535H19.4501H19.4468H19.4435H19.4402H19.4368H19.4335H19.4302H19.4268H19.4235H19.4202H19.4168H19.4135H19.4102H19.4068H19.4035H19.4001H19.3968H19.3934H19.3901H19.3867H19.3833H19.38H19.3766H19.3733H19.3699H19.3665H19.3632H19.3598H19.3564H19.3531H19.3497H19.3463H19.3429H19.3395H19.3362H19.3328H19.3294H19.326H19.3226H19.3192H19.3158H19.3124H19.309H19.3056H19.3022H19.2988H19.2954H19.292H19.2886H19.2852H19.2818H19.2784H19.275C18.7148 22.3183 18.092 22.3096 17.4065 22.292Z" stroke="white"/>
</g>
<defs>
<filter id="filter0_d_223_3695" x="5.03509" y="10.1752" width="36.3489" height="27.6176" filterUnits="userSpaceOnUse" color-interpolation-filters="sRGB">
<feFlood flood-opacity="0" result="BackgroundImageFix"/>
<feColorMatrix in="SourceAlpha" type="matrix" values="0 0 0 0 0 0 0 0 0 0 0 0 0 0 0 0 0 0 127 0" result="hardAlpha"/>
<feOffset/>
<feGaussianBlur stdDeviation="5.65274"/>
<feComposite in2="hardAlpha" operator="out"/>
<feColorMatrix type="matrix" values="0 0 0 0 1 0 0 0 0 1 0 0 0 0 1 0 0 0 0.5 0"/>
<feBlend mode="normal" in2="BackgroundImageFix" result="effect1_dropShadow_223_3695"/>
<feBlend mode="normal" in="SourceGraphic" in2="effect1_dropShadow_223_3695" result="shape"/>
</filter>
<radialGradient id="paint0_radial_223_3695" cx="0" cy="0" r="1" gradientUnits="userSpaceOnUse" gradientTransform="translate(23.2794 12.322) scale(22.2291)">
<stop stop-color="#712E81"/>
<stop offset="1" stop-color="#2F1753"/>
</radialGradient>
</defs>
</svg>
