<svg width="91" height="134" viewBox="0 0 91 134" fill="none" xmlns="http://www.w3.org/2000/svg">
<path d="M33.8121 115.948L33.6718 132.131L70.4586 130.672L69.0984 114.643L33.8121 115.948Z" fill="#EF3F23" stroke="#A42911" stroke-width="0.594646" stroke-miterlimit="10"/>
<path opacity="0.5" d="M41.3611 128.234C45.4314 128.688 49.7162 128.914 53.8148 128.51C59.8353 127.916 65.0567 126.005 69.8554 123.56L69.099 114.642L33.812 115.948L33.7185 126.807C36.1739 127.492 38.7701 127.946 41.3611 128.234Z" fill="#B77D98"/>
<path d="M16.0391 3.83642L5.98157 99.007C5.98157 99.007 6.88885 121.18 39.0182 125.097C74.0506 129.368 86.8392 106.429 86.131 91.7087L67.9905 2.42181C67.9905 2.42181 52.5003 1.85193 16.0391 3.83642Z" fill="#EF3F23"/>
<path d="M16.0391 3.83642L5.98157 99.007C5.98157 99.007 6.88885 121.18 39.0182 125.097C74.0506 129.368 86.8392 106.429 86.131 91.7087L67.9905 2.42181C67.9905 2.42181 52.5003 1.85193 16.0391 3.83642Z" fill="#FED93F"/>
<path d="M16.0391 3.83642L5.98157 99.007C5.98157 99.007 6.88885 121.18 39.0182 125.097C74.0506 129.368 86.8392 106.429 86.131 91.7087L67.9905 2.42181C67.9905 2.42181 52.5003 1.85193 16.0391 3.83642Z" stroke="#A85B1E" stroke-width="0.594646" stroke-miterlimit="10"/>
<path d="M16.0391 3.83642L5.98157 99.007C5.98157 99.007 6.88885 121.18 39.0182 125.097C74.0506 129.368 86.8392 106.429 86.131 91.7087L67.9905 2.42181C67.9905 2.42181 52.5003 1.85193 16.0391 3.83642Z" stroke="#A85B1E" stroke-width="0.594646" stroke-miterlimit="10"/>
<g filter="url(#filter0_i_1_2489)">
<path d="M16.0391 3.83642L5.98157 99.007C5.98157 99.007 6.88885 121.18 39.0182 125.097C74.0506 129.368 86.8392 106.429 86.131 91.7087L67.9905 2.42181C67.9905 2.42181 52.5003 1.85193 16.0391 3.83642Z" fill="#FFE358"/>
</g>
<path d="M16.0391 3.83642L5.98157 99.007C5.98157 99.007 6.88885 121.18 39.0182 125.097C74.0506 129.368 86.8392 106.429 86.131 91.7087L67.9905 2.42181C67.9905 2.42181 52.5003 1.85193 16.0391 3.83642Z" stroke="#A85B1E" stroke-width="0.594646" stroke-miterlimit="10"/>
<path opacity="0.5" d="M34.5408 131.078L69.1752 130.049L68.6082 124.487L66.482 128.67L34.5408 131.078Z" fill="#D1DBE0"/>
<path d="M6.62614 92.9075L12.961 99.0479L27.1587 86.3892L40.6211 99.4386L54.8169 86.7795L68.2794 99.8285L82.4762 87.1696L85.8787 90.4683L83.7051 79.7672L7.95247 80.3505L6.62614 92.9075Z" fill="#FED93F" stroke="#A85B1E" stroke-width="0.594646" stroke-miterlimit="10"/>
<path d="M54.0839 112.488L40.6209 99.4389L26.4241 112.098L12.9603 99.048L7.15607 104.224C9.56511 111.033 16.8791 122.398 39.0178 125.097C60.0016 127.656 73.0029 120.45 79.9045 111.097L68.2787 99.8286L54.0839 112.488Z" fill="#FED93F" stroke="#A85B1E" stroke-width="0.594646" stroke-miterlimit="10"/>
<path d="M7.95215 80.3509L83.7048 79.7676L82.094 71.8389L8.79238 72.4033L7.95215 80.3509Z" fill="#EF3F23" stroke="#A42911" stroke-width="0.594646" stroke-miterlimit="10"/>
<g filter="url(#filter1_di_1_2489)">
<path d="M67.9911 2.42176C67.9911 2.42176 52.5002 1.85209 16.0391 3.83623L14.6261 17.2029L70.9052 16.7691L67.9911 2.42176Z" fill="#1763AF"/>
<path d="M67.9911 2.42176C67.9911 2.42176 52.5002 1.85209 16.0391 3.83623L14.6261 17.2029L70.9052 16.7691L67.9911 2.42176Z" stroke="#064591" stroke-width="0.594646" stroke-miterlimit="10"/>
</g>
<path d="M6.62595 92.9078L5.98218 99.0072C5.98218 99.0072 6.06991 101.152 7.15725 104.224L12.9614 99.0479L6.62595 92.9078Z" fill="#1763AF" stroke="#064591" stroke-width="0.594646" stroke-miterlimit="10"/>
<path d="M40.6208 99.4388L27.1584 86.3895L12.9607 99.0481L26.4241 112.098L40.6208 99.4388Z" fill="#1763AF" stroke="#064591" stroke-width="0.594646" stroke-miterlimit="10"/>
<path d="M68.2794 99.8285L54.8169 86.7795L40.6211 99.4386L54.0842 112.488L68.2794 99.8285Z" fill="#1763AF" stroke="#064591" stroke-width="0.594646" stroke-miterlimit="10"/>
<path d="M68.4489 99.8712L80.0747 111.14C84.6952 104.878 86.5843 97.6542 86.3007 91.7512L86.0481 90.511L82.6458 87.2119L68.4489 99.8712Z" fill="#1763AF" stroke="#064591" stroke-width="0.594646" stroke-miterlimit="10"/>
<path d="M12.8623 75.3528C13.595 75.5369 13.9779 76.1046 13.7156 76.6205C13.4533 77.1365 12.6451 77.4054 11.9124 77.2213C11.1776 77.0366 10.7961 76.4685 11.0584 75.9526C11.3205 75.437 12.1275 75.1681 12.8623 75.3528Z" fill="#4788C8" stroke="#006EA7" stroke-width="0.594646" stroke-miterlimit="10"/>
<path d="M23.2996 75.141C24.0334 75.3254 24.4159 75.8937 24.1536 76.4097C23.8913 76.9256 23.0835 77.1939 22.3497 77.0095C21.617 76.8253 21.2341 76.2577 21.4964 75.7418C21.7587 75.2258 22.5669 74.9568 23.2996 75.141Z" fill="#4788C8" stroke="#006EA7" stroke-width="0.594646" stroke-miterlimit="10"/>
<path d="M34.5421 75.3578C35.2749 75.542 35.659 76.1095 35.3967 76.6255C35.1342 77.1418 34.3252 77.4102 33.5924 77.226C32.8587 77.0415 32.476 76.4736 32.7384 75.9573C33.0007 75.4413 33.8084 75.1734 34.5421 75.3578Z" fill="#4788C8" stroke="#006EA7" stroke-width="0.594646" stroke-miterlimit="10"/>
<path d="M45.2521 75.0982C45.9859 75.2826 46.3686 75.8506 46.1061 76.3669C45.8438 76.8828 45.036 77.1511 44.3023 76.9667C43.5685 76.7823 43.1866 76.2149 43.4489 75.6989C43.7107 75.1829 44.5179 74.9136 45.2521 75.0982Z" fill="#4788C8" stroke="#006EA7" stroke-width="0.594646" stroke-miterlimit="10"/>
<path d="M58.6171 75.0357C59.3508 75.2201 59.7336 75.788 59.4713 76.304C59.2088 76.8203 58.4011 77.0882 57.6674 76.9038C56.9346 76.7196 56.5506 76.1521 56.813 75.6358C57.0753 75.1199 57.8843 74.8515 58.6171 75.0357Z" fill="#4788C8" stroke="#006EA7" stroke-width="0.594646" stroke-miterlimit="10"/>
<path d="M68.5239 74.8972C69.2577 75.0817 69.6404 75.6496 69.3781 76.1656C69.1156 76.6819 68.3076 76.9505 67.5739 76.7661C66.8411 76.5819 66.4584 76.0139 66.7208 75.4976C66.9831 74.9817 67.7912 74.713 68.5239 74.8972Z" fill="#4788C8" stroke="#006EA7" stroke-width="0.594646" stroke-miterlimit="10"/>
<g style="mix-blend-mode:overlay" opacity="0.5">
<path d="M16.0391 3.83642L5.98157 99.007C5.98157 99.007 6.88885 121.18 39.0182 125.097C74.0506 129.368 86.8392 106.429 86.131 91.7087L67.9905 2.42181C67.9905 2.42181 52.5003 1.85193 16.0391 3.83642ZM49.6404 94.356C50.8922 110.506 69.0983 114.643 69.0983 114.643C53.6248 125.898 31.5977 120.303 31.5977 120.303C8.85414 113.381 9.04071 96.7323 9.04071 96.7323L11.1842 79.0414L19.1311 11.1893L58.0774 10.9424L64.793 66.7073C64.793 66.7073 48.0042 73.2431 49.6404 94.356Z" fill="#AB614C"/>
</g>
<g style="mix-blend-mode:overlay" opacity="0.5">
<path d="M34.9807 119.264C34.9807 119.264 13.5196 114.228 11.8328 95.7307L20.6842 13.1852L21.8541 95.9522C21.8541 95.9522 22.2086 108.642 34.9807 119.264Z" fill="#D1DBE0"/>
</g>
<g filter="url(#filter2_di_1_2489)">
<path d="M71.17 3.30579C70.8299 3.93653 69.9694 4.3892 68.9513 4.40156L14.8218 5.07188C13.4852 5.08894 12.3837 4.33991 12.3599 3.40136C12.3359 2.46315 13.4003 1.68684 14.7359 1.67069L68.8665 1.00028C70.2019 0.983313 71.304 1.73246 71.3278 2.67101C71.3325 2.89441 71.2775 3.10864 71.17 3.30579Z" fill="#A8CEDE"/>
<path d="M71.17 3.30579C70.8299 3.93653 69.9694 4.3892 68.9513 4.40156L14.8218 5.07188C13.4852 5.08894 12.3837 4.33991 12.3599 3.40136C12.3359 2.46315 13.4003 1.68684 14.7359 1.67069L68.8665 1.00028C70.2019 0.983313 71.304 1.73246 71.3278 2.67101C71.3325 2.89441 71.2775 3.10864 71.17 3.30579Z" stroke="#006EA7" stroke-width="0.594646" stroke-miterlimit="10"/>
</g>
<path d="M15.9157 2.3521C16.65 2.53666 17.0319 3.10402 16.7694 3.62031C16.5069 4.13661 15.7001 4.40516 14.9658 4.2206C14.2326 4.03629 13.8502 3.4688 14.1126 2.95251C14.3751 2.43621 15.1825 2.16779 15.9157 2.3521Z" fill="#4788C8" stroke="#006EA7" stroke-width="0.594646" stroke-miterlimit="10"/>
<path d="M30.1727 2.3226C30.9059 2.50691 31.2888 3.07452 31.0264 3.59081C30.7639 4.10711 29.9561 4.37541 29.2228 4.1911C28.4886 4.00654 28.1062 3.43905 28.3686 2.92276C28.6306 2.40634 29.4379 2.13791 30.1727 2.3226Z" fill="#4788C8" stroke="#006EA7" stroke-width="0.594646" stroke-miterlimit="10"/>
<path d="M41.83 2.19211C42.5638 2.37654 42.9467 2.94414 42.684 3.46078C42.4217 3.97673 41.6139 4.24504 40.8801 4.06061C40.1474 3.87642 39.7645 3.3088 40.0268 2.79285C40.2894 2.27621 41.0973 2.00792 41.83 2.19211Z" fill="#4788C8" stroke="#006EA7" stroke-width="0.594646" stroke-miterlimit="10"/>
<path d="M54.9071 2.01664C55.6418 2.20133 56.0236 2.76904 55.7613 3.28499C55.4988 3.80129 54.6918 4.07017 53.957 3.88549C53.2243 3.7013 52.8425 3.1336 53.105 2.61731C53.3673 2.10136 54.1743 1.83246 54.9071 2.01664Z" fill="#4788C8" stroke="#006EA7" stroke-width="0.594646" stroke-miterlimit="10"/>
<path d="M68.1522 1.93406C68.885 2.11825 69.2677 2.6862 69.0052 3.2025C68.7429 3.71845 67.9349 3.98709 67.2022 3.8029C66.4684 3.61847 66.0857 3.05052 66.348 2.53457C66.6105 2.01827 67.4185 1.74962 68.1522 1.93406Z" fill="#4788C8" stroke="#006EA7" stroke-width="0.594646" stroke-miterlimit="10"/>
<path d="M23.125 43.2395L37.3993 40.8216L43.2004 29.2341L50.257 40.2819L64.7332 41.4949L54.8201 50.7407L57.9674 63.0766L44.7835 57.7429L32.2526 64.1553L34.0171 51.6132L23.125 43.2395Z" fill="#D90025" stroke="#A42911" stroke-width="0.594646" stroke-miterlimit="10"/>
<defs>
<filter id="filter0_i_1_2489" x="5.68359" y="2.04865" width="80.7725" height="127.916" filterUnits="userSpaceOnUse" color-interpolation-filters="sRGB">
<feFlood flood-opacity="0" result="BackgroundImageFix"/>
<feBlend mode="normal" in="SourceGraphic" in2="BackgroundImageFix" result="shape"/>
<feColorMatrix in="SourceAlpha" type="matrix" values="0 0 0 0 0 0 0 0 0 0 0 0 0 0 0 0 0 0 127 0" result="hardAlpha"/>
<feOffset dy="4.04914"/>
<feGaussianBlur stdDeviation="4.33837"/>
<feComposite in2="hardAlpha" operator="arithmetic" k2="-1" k3="1"/>
<feColorMatrix type="matrix" values="0 0 0 0 0 0 0 0 0 0 0 0 0 0 0 0 0 0 0.25 0"/>
<feBlend mode="normal" in2="shape" result="effect1_innerShadow_1_2489"/>
</filter>
<filter id="filter1_di_1_2489" x="13.1385" y="2.04865" width="59.2868" height="17.7679" filterUnits="userSpaceOnUse" color-interpolation-filters="sRGB">
<feFlood flood-opacity="0" result="BackgroundImageFix"/>
<feColorMatrix in="SourceAlpha" type="matrix" values="0 0 0 0 0 0 0 0 0 0 0 0 0 0 0 0 0 0 127 0" result="hardAlpha"/>
<feOffset dy="1.1569"/>
<feGaussianBlur stdDeviation="0.578449"/>
<feComposite in2="hardAlpha" operator="out"/>
<feColorMatrix type="matrix" values="0 0 0 0 0 0 0 0 0 0 0 0 0 0 0 0 0 0 0.25 0"/>
<feBlend mode="normal" in2="BackgroundImageFix" result="effect1_dropShadow_1_2489"/>
<feBlend mode="normal" in="SourceGraphic" in2="effect1_dropShadow_1_2489" result="shape"/>
<feColorMatrix in="SourceAlpha" type="matrix" values="0 0 0 0 0 0 0 0 0 0 0 0 0 0 0 0 0 0 127 0" result="hardAlpha"/>
<feOffset dy="1.1569"/>
<feGaussianBlur stdDeviation="0.289224"/>
<feComposite in2="hardAlpha" operator="arithmetic" k2="-1" k3="1"/>
<feColorMatrix type="matrix" values="0 0 0 0 0 0 0 0 0 0 0 0 0 0 0 0 0 0 0.25 0"/>
<feBlend mode="normal" in2="shape" result="effect2_innerShadow_1_2489"/>
</filter>
<filter id="filter2_di_1_2489" x="9.74834" y="0.702679" width="64.1908" height="9.2944" filterUnits="userSpaceOnUse" color-interpolation-filters="sRGB">
<feFlood flood-opacity="0" result="BackgroundImageFix"/>
<feColorMatrix in="SourceAlpha" type="matrix" values="0 0 0 0 0 0 0 0 0 0 0 0 0 0 0 0 0 0 127 0" result="hardAlpha"/>
<feOffset dy="2.3138"/>
<feGaussianBlur stdDeviation="1.1569"/>
<feComposite in2="hardAlpha" operator="out"/>
<feColorMatrix type="matrix" values="0 0 0 0 0 0 0 0 0 0 0 0 0 0 0 0 0 0 0.25 0"/>
<feBlend mode="normal" in2="BackgroundImageFix" result="effect1_dropShadow_1_2489"/>
<feBlend mode="normal" in="SourceGraphic" in2="effect1_dropShadow_1_2489" result="shape"/>
<feColorMatrix in="SourceAlpha" type="matrix" values="0 0 0 0 0 0 0 0 0 0 0 0 0 0 0 0 0 0 127 0" result="hardAlpha"/>
<feOffset dy="1.1569"/>
<feGaussianBlur stdDeviation="0.289224"/>
<feComposite in2="hardAlpha" operator="arithmetic" k2="-1" k3="1"/>
<feColorMatrix type="matrix" values="0 0 0 0 0 0 0 0 0 0 0 0 0 0 0 0 0 0 0.25 0"/>
<feBlend mode="normal" in2="shape" result="effect2_innerShadow_1_2489"/>
</filter>
</defs>
</svg>
