<svg width="47" height="48" viewBox="0 0 47 48" fill="none" xmlns="http://www.w3.org/2000/svg">
<path d="M23.2276 46.1395C35.4839 46.1395 45.4197 36.2038 45.4197 23.9474C45.4197 11.6911 35.4839 1.75537 23.2276 1.75537C10.9712 1.75537 1.03552 11.6911 1.03552 23.9474C1.03552 36.2038 10.9712 46.1395 23.2276 46.1395Z" fill="url(#paint0_radial_223_3701)"/>
<path d="M37.9169 38.7385C46.0527 30.6027 46.0527 17.4118 37.9169 9.27596C29.781 1.1401 16.5902 1.14012 8.4543 9.27597C0.318444 17.4118 0.31846 30.6027 8.45432 38.7385C16.5902 46.8744 29.781 46.8744 37.9169 38.7385Z" stroke="#180536" stroke-width="2.8347" stroke-miterlimit="10"/>
<path d="M38.1653 40.3741C47.2117 32.1047 47.8417 18.0675 39.5723 9.0211C31.303 -0.0253079 17.2657 -0.655216 8.21934 7.61414C-0.827066 15.8835 -1.45697 29.9207 6.81238 38.9671C15.0817 48.0135 29.1189 48.6434 38.1653 40.3741Z" stroke="#D98FE6" stroke-width="1.9842" stroke-miterlimit="10"/>
<path d="M21.1874 17.3095L21.7707 17.2843L24.8444 17.1518L25.5699 17.1206L25.3402 17.8095C25.2033 18.2202 25.0931 18.5934 25.0088 18.9295C24.9406 19.2541 24.8904 19.5312 24.8574 19.7624L24.8563 19.7705L24.8548 19.7785C24.8054 20.0589 24.783 20.2937 24.783 20.4866V21.255C24.783 21.5139 24.7737 21.7977 24.7556 22.1058C24.7474 22.2451 24.7392 22.3903 24.731 22.5412C25.1355 22.5289 25.4917 22.5165 25.7998 22.5042L25.8006 22.5042C26.2633 22.4864 26.6501 22.4773 26.9592 22.4773H27.8071C28.0045 22.4773 28.202 22.4691 28.3996 22.4527C28.5892 22.4355 28.7871 22.4182 28.993 22.401C29.1899 22.3699 29.3776 22.3242 29.5568 22.2645L30.1833 22.0557L30.2143 22.7153L30.3203 24.9676L30.3473 25.541L29.7756 25.489C29.3988 25.4548 29.0609 25.4381 28.761 25.4381C28.4596 25.4381 28.1878 25.4295 27.947 25.4116C27.6872 25.4112 27.448 25.4026 27.2302 25.3851H26.4557C26.201 25.3851 25.8825 25.3936 25.4986 25.4111C25.4984 25.4111 25.4982 25.4111 25.498 25.4111L25.4753 24.9116C25.1044 24.9293 24.6627 24.9469 24.1505 24.9646L21.1874 17.3095ZM21.1874 17.3095L21.3019 17.8819C21.3893 18.3189 21.4586 18.7005 21.5103 19.0277L21.5127 19.043L21.5161 19.0582C21.5857 19.3714 21.6367 19.6269 21.67 19.8268L21.6719 19.8382L21.6743 19.8494C21.7249 20.0855 21.7564 20.2781 21.7716 20.4303L21.7716 20.4303L21.7722 20.4358C21.7887 20.5843 21.8058 20.788 21.8233 21.0498L21.8232 21.0498L21.8236 21.0549C21.8399 21.2669 21.8487 21.5445 21.8487 21.8909V21.9041L21.8493 21.9172C21.8598 22.1153 21.8671 22.3372 21.8712 22.5833H18.7715C18.5352 22.5833 18.2348 22.5748 17.8686 22.5574C17.5205 22.54 17.1097 22.5138 16.6357 22.4787L16.0507 22.4353L16.1006 23.0198L16.286 25.1926L16.329 25.6957L16.8316 25.6478C17.1894 25.6138 17.5179 25.5971 17.8176 25.5971H17.8315L17.8454 25.5963C18.1647 25.5786 18.4482 25.5519 18.6936 25.515C18.9548 25.4971 19.1959 25.4706 19.4159 25.4347C19.6191 25.418 19.8562 25.4011 20.1276 25.3841L20.1276 25.3842L20.132 25.3838C20.3642 25.3673 20.6432 25.3586 20.9708 25.3586H20.9833L20.9958 25.358C21.2071 25.3474 21.437 25.3434 21.6859 25.3462C21.6884 25.4458 21.6897 25.5482 21.6897 25.6535C21.6897 25.9074 21.6812 26.1516 21.6644 26.3863L21.6644 26.3863L21.6641 26.3908L21.6376 26.8147L21.6114 27.2351C21.5945 27.454 21.569 27.7088 21.5348 28.0003C21.4994 28.2481 21.4554 28.5652 21.4028 28.9511L21.4014 28.9612L21.4005 28.9713C21.3661 29.3315 21.3143 29.7466 21.2446 30.2173L21.1597 30.7905H21.7392H24.6274H25.221L25.1201 30.2056C25.0324 29.6966 24.9531 29.2558 24.8823 28.8836C24.8302 28.5185 24.7868 28.2059 24.7521 27.9457L24.7507 27.9353L24.7488 27.9249C24.6978 27.6359 24.6651 27.3877 24.649 27.1785L24.6473 27.1565L24.6437 27.1347C24.6135 26.9535 24.5975 26.7517 24.5975 26.5279V26.5071L24.5957 26.4864C24.5798 26.2954 24.5713 26.0766 24.571 25.8291C24.5793 25.7066 24.5896 25.5798 24.6019 25.4487L21.1874 17.3095Z" fill="white" stroke="white"/>
<defs>
<radialGradient id="paint0_radial_223_3701" cx="0" cy="0" r="1" gradientUnits="userSpaceOnUse" gradientTransform="translate(23.2794 12.322) scale(22.2291)">
<stop stop-color="#712E81"/>
<stop offset="1" stop-color="#2F1753"/>
</radialGradient>
</defs>
</svg>
