<svg width="53" height="53" viewBox="0 0 53 53" fill="none" xmlns="http://www.w3.org/2000/svg">
<path d="M48.1581 11.7787H47.9473L46.7178 11.4248C46.2563 11.178 45.8307 10.8684 45.4531 10.5047C44.7459 10.0108 44.138 9.38644 43.6614 8.66464C43.0482 7.6817 42.6306 6.588 42.4319 5.44446C39.5216 3.18297 36.1694 1.56702 32.5954 0.702669C31.9795 1.12692 31.3337 1.50538 30.6632 1.83504C29.5382 1.99449 28.3923 1.78349 27.3961 1.23347C27.2847 1.09748 27.1546 0.978306 27.0096 0.879602L26.4827 0.667283C26.0952 0.523957 25.6954 0.417336 25.2882 0.348804C24.4122 0.260115 23.5295 0.260115 22.6535 0.348804L21.1077 0.419577C16.3447 1.39199 11.9354 3.6555 8.35539 6.96608C8.28293 7.35472 8.14002 7.72658 7.93383 8.06307C7.42998 8.73413 6.81137 9.30931 6.10705 9.76162C5.79468 9.9848 5.50095 10.2333 5.22879 10.5047C4.91857 10.9392 4.64813 11.4011 4.42079 11.8848C3.89383 12.8049 3.40201 13.7603 2.94531 14.7157C2.4729 15.7079 2.0508 16.7237 1.68062 17.759C1.41643 18.6059 1.20523 19.4687 1.04827 20.3422C0.677926 22.0885 0.466269 23.8652 0.415923 25.6502C0.278882 27.3054 0.54415 28.9693 1.18879 30.4981C1.34653 30.8492 1.56012 31.1719 1.82114 31.4536C2.05984 31.7398 2.27154 32.0478 2.45349 32.3736C2.55998 32.6838 2.5769 33.018 2.50227 33.3375C2.42765 33.657 2.26454 33.9485 2.03192 34.1783C1.76857 34.4395 1.54379 34.7375 1.36444 35.063C1.32988 35.2143 1.32988 35.3716 1.36444 35.523C1.46615 35.8354 1.5834 36.1425 1.71575 36.4431C2.06705 37.0446 2.62914 37.5754 3.01557 38.177C3.42923 39.0072 3.73616 39.8872 3.92896 40.7956C7.42008 46.2817 12.779 50.2956 18.9999 52.0839C20.4844 51.7711 21.9859 51.5466 23.4966 51.4116H24.0236C24.0236 51.4116 24.2695 51.1639 24.3749 51.0577C24.5766 50.8067 24.8654 50.6423 25.1829 50.5977C25.4387 50.5945 25.6874 50.6822 25.8855 50.8454L26.7286 51.3762C26.9529 51.5622 27.201 51.717 27.4663 51.8362C27.6205 51.9281 27.7858 51.9994 27.9582 52.0485H28.6608C29.5477 52.2665 30.4537 52.3968 31.3658 52.4378C35.1145 51.6652 38.6519 50.0816 41.7332 47.7966C44.8146 45.5115 47.3663 42.5794 49.212 39.2032C49.1557 38.7595 49.0617 38.3214 48.931 37.8939C48.8958 37.6593 48.8958 37.4208 48.931 37.1862C48.9728 36.9231 49.0314 36.6631 49.1067 36.4077C49.2473 35.8223 49.4475 35.2532 49.7039 34.7091C50.266 33.506 50.9334 32.3382 51.6009 31.1705L52.1981 30.0735C52.3663 28.9016 52.4485 27.7189 52.444 26.5348C52.4942 21.2976 51.0028 16.1628 48.1581 11.7787Z" fill="#807E77"/>
<path d="M31.3308 52.9686C30.3954 52.907 29.4669 52.7649 28.5555 52.5439L27.8529 52.367L27.3962 52.1901C27.1733 52.0814 26.9615 51.951 26.7638 51.8008H26.553L25.8153 51.3054C25.6869 51.1913 25.5281 51.1175 25.3586 51.0931C25.1339 51.136 24.9333 51.2623 24.7965 51.4469C24.6881 51.6213 24.5285 51.7574 24.3398 51.8362H23.4967C21.9988 51.9641 20.5093 52.1767 19.0351 52.4732C12.6342 50.7067 7.11291 46.608 3.54264 40.9725C3.38463 40.1094 3.1005 39.2747 2.69951 38.4955C2.50835 38.1779 2.28464 37.8814 2.03203 37.6108C1.7936 37.3497 1.58176 37.0652 1.39968 36.7615C1.39968 36.4431 1.15377 36.1246 1.04838 35.8415C0.997735 35.6322 0.997735 35.4138 1.04838 35.2045C1.18215 34.908 1.35982 34.6335 1.57533 34.3906C1.59021 34.3326 1.59021 34.2717 1.57533 34.2137C2.06716 33.6475 2.17255 33.2583 1.96177 32.7983C1.91505 32.4246 1.79567 32.0638 1.61046 31.7367C1.32993 31.4085 1.08278 31.0529 0.872726 30.6751C0.190811 29.0939 -0.0985693 27.3692 0.0295963 25.6502C0.0804139 23.8515 0.303949 22.0621 0.697074 20.3068C0.85327 19.3866 1.06444 18.4767 1.32942 17.582C1.69574 16.5284 2.12994 15.5 2.62925 14.5034C3.08594 13.5126 3.57777 12.5925 4.06959 11.6371C4.31799 11.2268 4.61271 10.8468 4.94785 10.5047C5.22784 10.1518 5.54598 9.83134 5.89637 9.54931L6.31794 9.19544C6.82535 8.855 7.26601 8.42312 7.61776 7.92153C7.80088 7.62817 7.93166 7.30482 8.0042 6.96609C7.98878 6.93919 7.98066 6.90868 7.98066 6.87762C7.98066 6.84656 7.98878 6.81605 8.0042 6.78916C11.5877 3.38958 16.0397 1.06159 20.8619 0.0657172H21.3537H22.6536C23.5532 -0.0219057 24.459 -0.0219057 25.3586 0.0657172C25.7895 0.130056 26.2131 0.236724 26.6233 0.384196C26.8218 0.420535 27.0121 0.492448 27.1854 0.596515C27.3734 0.691976 27.5407 0.824316 27.6772 0.985767C28.5524 1.40532 29.521 1.58825 30.4877 1.51656C31.1522 1.17571 31.7972 0.79766 32.4198 0.384196C32.5102 0.348665 32.6105 0.348665 32.7009 0.384196C36.3317 1.30208 39.7308 2.97782 42.6779 5.30292C42.6961 5.38448 42.6961 5.46907 42.6779 5.55063C42.8441 6.64232 43.2264 7.68925 43.8021 8.62926C44.3278 9.3552 44.9687 9.98886 45.6991 10.5047C46.0709 10.7734 46.4715 10.999 46.8935 11.1771C47.2666 11.3357 47.6551 11.4544 48.0529 11.531H48.2636C48.3312 11.5034 48.4068 11.5034 48.4744 11.531C51.4172 15.946 52.9831 21.1462 52.9711 26.4641C52.9563 27.6474 52.8742 28.8289 52.7252 30.0027L52.0928 31.0997L51.7767 31.6659C51.2497 32.5859 50.6876 33.5768 50.2309 34.5676C49.9812 35.1022 49.7813 35.659 49.6337 36.2307C49.6176 36.4782 49.6176 36.7264 49.6337 36.9739C49.6035 37.1614 49.6035 37.3525 49.6337 37.5401C49.6021 37.6798 49.6021 37.8249 49.6337 37.9647C49.7124 38.2671 49.7711 38.5745 49.8094 38.8847C49.8246 38.9547 49.8246 39.0271 49.8094 39.0971C47.9646 42.6475 45.3534 45.7364 42.1679 48.1369C38.9823 50.5374 35.3032 52.1884 31.401 52.9686H31.3308ZM25.2181 50.173C25.5059 50.2017 25.7828 50.2987 26.0261 50.4561L26.8341 50.9515L27.361 51.27H27.7475H28.1339H28.8014C29.6549 51.4765 30.5248 51.6067 31.401 51.6593C35.0959 50.8895 38.5806 49.3199 41.6135 47.0591C44.6465 44.7984 47.1553 41.9005 48.9662 38.5663C48.9994 38.3315 48.9994 38.0933 48.9662 37.8585V37.3985C48.9139 37.1179 48.9139 36.8299 48.9662 36.5492C48.9946 36.2722 49.0535 35.9992 49.1419 35.7353C49.3124 35.1317 49.5237 34.5406 49.7742 33.966C50.1754 33.2043 50.609 32.4605 51.0741 31.7367L51.3902 31.2059L51.9523 30.1443C52.1265 28.9731 52.2087 27.7898 52.1982 26.6056C52.2063 21.4848 50.7155 16.4753 47.9123 12.2033C47.4705 12.12 47.0359 12.0017 46.6125 11.8494C46.1396 11.6419 45.6917 11.3807 45.2775 11.0709C44.5334 10.5291 43.891 9.8581 43.3805 9.08928C42.7738 8.11587 42.3565 7.03505 42.1509 5.90449C39.3533 3.65732 36.1236 2.01866 32.6657 1.09193C32.0659 1.48165 31.4443 1.83611 30.8038 2.15352C29.5911 2.33136 28.3542 2.09464 27.2908 1.48118L26.799 1.19809L26.3774 1.02115C26.018 0.873332 25.6394 0.778004 25.2532 0.738061C24.4006 0.651018 23.5414 0.651018 22.6887 0.738061H21.424H21.1078C16.475 1.62933 12.1736 3.78348 8.67167 6.96609C8.61787 7.34893 8.47327 7.71308 8.25011 8.02769C7.84982 8.60744 7.35019 9.11071 6.77463 9.51392L6.35307 9.8324C6.03792 10.0789 5.75467 10.3642 5.50994 10.6817C5.2351 11.0446 4.99955 11.4361 4.80733 11.8494C4.31551 12.7695 3.82368 13.6895 3.36698 14.6804C2.87914 15.6534 2.45663 16.6582 2.10229 17.6882C1.83816 18.5111 1.62694 19.3504 1.46994 20.2006C1.06657 21.9909 0.831327 23.8155 0.767335 25.6502C0.65034 27.2585 0.915271 28.8718 1.5402 30.3566C1.6905 30.6738 1.8793 30.9709 2.10229 31.2412C2.34108 31.5198 2.54192 31.8292 2.69951 32.1613C2.84277 32.5322 2.87587 32.9371 2.79478 33.3266C2.7137 33.7162 2.52192 34.0735 2.24281 34.3553L2.13742 34.603C1.95543 34.7978 1.81232 35.0261 1.71586 35.2753C1.69646 35.3567 1.69646 35.4416 1.71586 35.523L2.03203 36.3369C2.19995 36.6192 2.40041 36.8805 2.62925 37.1154C2.89114 37.4122 3.12628 37.732 3.33185 38.0708C3.74877 38.8997 4.05586 39.7801 4.24524 40.6894C7.65114 46.0768 12.9012 50.0179 19 51.7654C20.4742 51.469 21.9637 51.2564 23.4616 51.1285H23.8831C24.006 50.9695 24.1596 50.8373 24.3348 50.74C24.5099 50.6426 24.7029 50.5822 24.9019 50.5623L25.2181 50.173Z" fill="#636568"/>
<g style="mix-blend-mode:multiply" opacity="0.52">
<path d="M11.0608 11.0355L12.5714 11.4955C11.2054 10.4915 9.89209 9.41662 8.63679 8.27533C8.50262 8.10482 8.34938 7.95046 8.1801 7.81531V8.02763C7.83162 8.52 7.40422 8.95052 6.91541 9.30154L9.09349 10.2216L11.0608 11.0355Z" fill="#6C6C65"/>
</g>
<g style="mix-blend-mode:multiply" opacity="0.52">
<path d="M26.6932 2.04743C26.6932 3.03826 27.0094 3.99369 27.2202 4.94913C27.431 5.90456 27.2202 5.83379 27.5012 6.29382L27.712 7.24925C27.712 7.95698 27.9931 8.7001 28.2038 9.40783C28.3364 10.0237 28.6001 10.6032 28.9767 11.1064C29.5408 10.4475 29.9599 9.67559 30.2063 8.84165C30.4522 7.99237 30.6278 7.14309 30.8035 6.29382C30.9791 5.44454 31.0845 4.63065 31.1899 3.81676C31.2953 3.00287 31.4358 2.15359 31.6466 1.3397L30.663 1.83511C29.538 1.99457 28.392 1.78356 27.3958 1.23354C27.2845 1.09755 27.1544 0.978381 27.0094 0.879678L26.5176 0.667358C26.5527 1.12738 26.623 1.58741 26.6932 2.04743Z" fill="#6C6C65"/>
</g>
<g style="mix-blend-mode:multiply" opacity="0.52">
<path d="M4.45597 24.2346C5.54501 24.2346 6.63405 24.2346 7.68796 24.2346L6.0017 23.5269L2.48866 22.1822L0.837536 21.4745C0.697014 22.253 0.591623 23.0315 0.521362 23.81C1.11874 23.982 1.73005 24.1004 2.34814 24.1639C3.05075 24.2346 3.75336 24.2346 4.45597 24.2346Z" fill="#6C6C65"/>
</g>
<g style="mix-blend-mode:multiply" opacity="0.52">
<path d="M35.1604 8.20454C35.3712 7.7799 35.582 7.31988 35.8279 6.89524C36.3197 5.86903 36.8467 4.80744 37.3034 3.74584L37.76 2.57809L36.4602 2.0119V2.57809C36.3768 3.13916 36.2595 3.69458 36.1089 4.24125C35.7223 5.54423 35.4057 6.86725 35.1604 8.20454Z" fill="#6C6C65"/>
</g>
<g style="mix-blend-mode:multiply" opacity="0.52">
<path d="M48.1581 11.7787H47.9473L46.7177 11.4249C46.2562 11.1781 45.8307 10.8685 45.453 10.5048C44.7458 10.0109 44.1379 9.38653 43.6614 8.66472C43.0481 7.68179 42.6305 6.58809 42.4318 5.44455L41.94 5.0553C41.4482 5.79841 40.9915 6.57692 40.5699 7.35542C40.1483 8.13392 40.0078 8.4524 39.6917 8.9832C39.3827 9.51055 39.0425 10.0187 38.6729 10.5048C38.0054 11.2833 37.092 11.7787 36.3894 12.5219C35.6127 13.4418 35.178 14.6053 35.1598 15.8128C35.0529 16.4102 34.9122 17.0009 34.7383 17.5821C34.5893 18.1637 34.3649 18.7229 34.0708 19.2453C32.9114 21.06 31.3925 22.6141 29.6092 23.8102C27.8527 25.1195 26.0962 26.2164 24.1289 27.3488C22.1616 28.4812 19.3863 30.2151 17.1028 31.5952C15.4166 32.5152 13.5898 33.4353 12.1143 34.4261C10.6388 35.4169 9.76056 35.877 8.60125 36.6201C7.38019 37.4609 6.20731 38.3706 5.08821 39.3448C4.70411 39.6378 4.35095 39.9699 4.0343 40.3357V40.7249C7.52542 46.211 12.8844 50.2249 19.1052 52.0132C20.5897 51.7004 22.0912 51.4759 23.6019 51.3409H24.1289C24.1289 51.3409 24.3748 51.0932 24.4802 50.987C24.6819 50.7361 24.9707 50.5716 25.2882 50.527C25.544 50.5239 25.7928 50.6116 25.9908 50.7747L26.8339 51.3055C27.0582 51.4915 27.3063 51.6463 27.5717 51.7655C27.7258 51.8574 27.8911 51.9288 28.0635 51.9778H28.7661C29.6531 52.1958 30.559 52.3262 31.4711 52.3671C35.1946 51.5884 38.7073 50.0091 41.7691 47.7372C44.8309 45.4654 47.3697 42.5544 49.212 39.2033C49.1557 38.7596 49.0616 38.3215 48.9309 37.894C48.8958 37.6594 48.8958 37.4208 48.9309 37.1863C48.9727 36.9232 49.0314 36.6632 49.1066 36.4078C49.2473 35.8224 49.4474 35.2532 49.7038 34.7092C50.2659 33.5061 50.9334 32.3383 51.6009 31.1706L52.1981 30.0736C52.3662 28.9017 52.4484 27.719 52.444 26.5349C52.4941 21.2977 51.0027 16.1629 48.1581 11.7787Z" fill="#6C6C65"/>
</g>
<g style="mix-blend-mode:multiply" opacity="0.52">
<path d="M16.611 44.5111C16.611 44.9004 16.3651 45.325 16.2246 45.7143C15.7679 47.0236 15.2761 48.2975 14.8545 49.6422L14.6437 50.4207L16.1895 51.1284C16.1895 50.0668 16.1895 49.0052 16.3651 47.9436C16.5408 46.882 16.4705 45.6435 16.611 44.5111Z" fill="#6C6C65"/>
</g>
<g style="mix-blend-mode:multiply" opacity="0.52">
<path d="M41.7642 47.5897C41.0265 46.422 40.3239 45.2542 39.551 44.0511C38.8697 43.0346 38.027 42.138 37.0568 41.3971C37.0923 42.014 37.1627 42.6284 37.2675 43.2372C37.5039 44.5368 37.8446 45.8149 38.2863 47.0589C38.5392 47.8225 38.8444 48.5674 39.1997 49.2883C40.0891 48.7639 40.9455 48.1848 41.7642 47.5544V47.5897Z" fill="#6C6C65"/>
</g>
<g style="mix-blend-mode:multiply" opacity="0.52">
<path d="M37.0213 11.6725C37.5823 12.5689 38.2686 13.3794 39.0589 14.0788L39.4804 14.4327C39.6846 14.5741 39.91 14.6816 40.1479 14.7511C40.4007 14.8221 40.668 14.8221 40.9208 14.7511H41.3423H41.9044C43.3042 14.3231 44.6486 13.7292 45.9093 12.9818L47.7361 11.8848H47.4902L46.2957 11.531C45.8239 11.2416 45.3876 10.8971 44.9959 10.5048C44.2968 10.0012 43.6905 9.37846 43.2043 8.66466C42.6799 7.71018 42.3345 6.66655 42.1855 5.58603L41.4829 5.19678C40.9914 5.93511 40.5455 6.70328 40.1479 7.4969C39.8669 8.06309 39.5507 8.59388 39.2345 9.12468C38.9101 9.63493 38.5333 10.1094 38.1104 10.5401C37.776 10.9478 37.3857 11.3052 36.951 11.6017L37.0213 11.6725Z" fill="#6C6C65"/>
</g>
<g style="mix-blend-mode:multiply" opacity="0.52">
<path d="M46.7529 29.9319C45.2206 30.0384 43.683 30.0384 42.1508 29.9319V30.1797C42.2359 30.6943 42.2478 31.2186 42.1859 31.7367L41.8697 33.4706C41.7572 34.0059 41.6984 34.5512 41.6941 35.0984C41.6647 35.5527 41.7621 36.0062 41.9751 36.4077C42.239 36.7697 42.6069 37.0415 43.029 37.1862C43.5537 37.3618 44.0954 37.4804 44.645 37.54L46.4367 37.717C46.9285 37.717 47.4555 37.717 47.9473 37.9293L48.8607 38.2124V37.8231C48.826 37.5885 48.826 37.35 48.8607 37.1154C48.8607 36.8677 48.8607 36.5846 48.8607 36.3369C49.0288 35.7555 49.2402 35.1878 49.493 34.6384C50.02 33.4352 50.7226 32.2675 51.3549 31.0997L51.9873 30.0027H51.6711C50.0351 29.8684 48.392 29.8448 46.7529 29.9319Z" fill="#6C6C65"/>
</g>
<g style="mix-blend-mode:multiply" opacity="0.52">
<path d="M26.202 48.9346C25.7805 47.2361 25.3589 45.396 24.7617 43.8036C24.6805 44.3782 24.6335 44.9572 24.6212 45.5375C24.5046 46.8324 24.5046 48.1352 24.6212 49.43C24.6212 49.8547 24.6212 50.2439 24.6212 50.6332C24.7833 50.5988 24.9508 50.5988 25.113 50.6332C25.3688 50.6301 25.6176 50.7178 25.8156 50.8809L26.6587 51.4117C26.6587 50.6332 26.4128 49.7839 26.202 48.9346Z" fill="#6C6C65"/>
</g>
<path d="M45.0312 13.6895H44.8555C44.5055 13.6209 44.1639 13.5141 43.8368 13.371C43.4456 13.2272 43.0784 13.0244 42.7477 12.7695C42.1275 12.3275 41.5918 11.776 41.1668 11.1417C40.6681 10.3022 40.323 9.37927 40.1481 8.41692C37.6462 6.41632 34.747 4.98027 31.6465 4.20592C31.1195 4.5244 30.5575 4.87827 29.9954 5.16136C29.0417 5.28792 28.0725 5.11491 27.2201 4.66595C27.1119 4.55016 26.9944 4.44363 26.8688 4.34747L26.4121 4.17054C26.0837 4.03906 25.7421 3.94413 25.3933 3.88744C24.6455 3.81665 23.8927 3.81665 23.1449 3.88744H21.6695C17.663 4.74465 13.9609 6.67642 10.9547 9.47851C10.8919 9.84223 10.7607 10.1905 10.5683 10.5047C10.1206 11.0793 9.58733 11.5807 8.98739 11.991C8.70613 12.2003 8.45748 12.4508 8.24966 12.7341C7.97481 13.097 7.73927 13.4885 7.54705 13.9018C7.09035 14.7157 6.66879 15.4942 6.28235 16.3435C5.89592 17.1928 5.50949 18.0421 5.19331 18.9621C4.99357 19.6729 4.82942 20.3933 4.70149 21.1207C4.37391 22.6095 4.18573 24.1259 4.1394 25.6502C4.04245 27.0636 4.27088 28.4805 4.80688 29.7904C4.95351 30.0797 5.13015 30.3525 5.33383 30.6043C5.5519 30.8398 5.74066 31.1012 5.89592 31.3828C5.99073 31.6518 6.00464 31.943 5.9359 32.22C5.86716 32.497 5.71883 32.7473 5.50949 32.9398C5.29477 33.1702 5.11699 33.4328 4.98253 33.7183C4.94641 33.8455 4.94641 33.9803 4.98253 34.1075L5.2987 34.886C5.61488 35.4168 6.1067 35.8415 6.42288 36.3723C6.76874 37.0813 7.02825 37.8298 7.19574 38.6016C10.1856 43.3 14.7669 46.7453 20.0886 48.2975C21.3615 48.0082 22.6527 47.8072 23.9529 47.696H24.4096C24.4096 47.696 24.6204 47.3775 24.6204 47.3067C24.7022 47.1941 24.8075 47.1009 24.9289 47.0336C25.0503 46.9664 25.1848 46.9267 25.323 46.9175C25.5334 46.9268 25.7383 46.9876 25.9202 47.0944L26.6229 47.5898L27.2552 47.9791H27.6768H28.274C29.0309 48.1856 29.8089 48.3043 30.5926 48.3329C33.8443 47.6756 36.9134 46.3084 39.584 44.3276C42.2546 42.3467 44.4617 39.8004 46.05 36.8677C45.9885 36.486 45.9064 36.108 45.8041 35.7353C45.77 35.5363 45.77 35.3328 45.8041 35.1337C45.7876 34.9099 45.7876 34.6852 45.8041 34.4614C45.9427 33.965 46.1189 33.4799 46.331 33.0106C46.8138 31.9785 47.3533 30.9743 47.947 30.0027L48.474 29.0473C48.6165 28.0274 48.6869 26.9986 48.6847 25.9686C48.6683 21.6063 47.3994 17.3419 45.0312 13.6895Z" fill="#BABCBE"/>
<g style="mix-blend-mode:screen">
<path d="M22.689 3.9936L23.9888 4.20592C24.4104 4.20592 24.832 4.20592 25.2887 4.20592C25.6909 4.23343 26.0788 4.36773 26.4128 4.59517C26.6939 4.59517 26.8695 5.0552 27.1506 5.19674C27.4609 5.36754 27.7914 5.49832 28.1342 5.586H29.2584H30.2772C30.6053 5.50322 30.9151 5.35919 31.1906 5.16136L32.0337 4.80749C32.3427 4.71443 32.6607 4.65511 32.9822 4.63056L31.6473 4.20592C31.1203 4.5244 30.5582 4.87827 29.9961 5.16136C29.0425 5.28792 28.0732 5.11491 27.2208 4.66595C27.1127 4.55016 26.9952 4.44363 26.8695 4.34747L26.4128 4.17054C26.0845 4.03906 25.7429 3.94413 25.394 3.88744C24.6462 3.81665 23.8935 3.81665 23.1457 3.88744H21.9161L22.689 3.9936Z" fill="#828078"/>
</g>
<g style="mix-blend-mode:screen">
<path d="M7.05522 37.2923L6.45801 36.0891C6.24722 35.6645 5.96618 35.3106 5.79053 34.886C5.59899 34.5292 5.52517 34.1202 5.57975 33.7182C5.61591 33.4246 5.72462 33.1448 5.89592 32.9044C6.59853 31.9489 7.96861 32.0197 8.81174 31.2412C8.57894 31.2047 8.34194 31.2047 8.10913 31.2412C7.60131 31.3657 7.07123 31.3657 6.5634 31.2412C6.20628 31.0195 5.93395 30.6828 5.79053 30.2858C5.79053 29.8257 5.43922 29.3657 5.2987 28.8703C5.0978 28.3152 5.00246 27.727 5.01766 27.1364C5.00073 26.8299 5.00073 26.5228 5.01766 26.2163C5.01766 25.8271 5.01766 25.4732 5.01766 25.0839C5.01766 24.6947 5.01766 23.6685 5.01766 22.9607C5.07369 22.2963 5.2154 21.642 5.43922 21.0145L5.96618 19.3159C6.45861 17.0099 7.48139 14.8525 8.95226 13.0171C9.45003 12.5212 9.99085 12.0712 10.5683 11.6724C10.7547 11.543 10.9106 11.3739 11.025 11.177C11.0414 11.0123 11.0414 10.8463 11.025 10.6816C11.1528 9.84372 11.533 9.06555 12.114 8.45227C11.6924 8.77075 11.306 9.12461 10.9196 9.47848C10.8676 9.83976 10.7484 10.1879 10.5683 10.5047C10.1206 11.0793 9.58733 11.5807 8.98739 11.9909C8.70613 12.2003 8.45748 12.4507 8.24966 12.734C7.97481 13.097 7.73927 13.4884 7.54705 13.9018C7.09035 14.7157 6.66879 15.4942 6.28235 16.3435C5.89592 17.1927 5.50949 18.042 5.19331 18.9621C4.99357 19.6728 4.82942 20.3933 4.70149 21.1206C4.37391 22.6094 4.18573 24.1259 4.1394 25.6501C4.04245 27.0636 4.27088 28.4804 4.80688 29.7903C4.95351 30.0796 5.13015 30.3524 5.33383 30.6042C5.5519 30.8398 5.74066 31.1012 5.89592 31.3827C5.99073 31.6518 6.00464 31.943 5.9359 32.22C5.86716 32.4969 5.71883 32.7473 5.50949 32.9397C5.29477 33.1701 5.11699 33.4328 4.98253 33.7182C4.94641 33.8454 4.94641 33.9803 4.98253 34.1075L5.2987 34.886C5.61488 35.4168 6.1067 35.8414 6.42288 36.3722C6.76874 37.0813 7.02825 37.8298 7.19574 38.6016L7.7227 39.3801C7.5923 38.6576 7.36787 37.9556 7.05522 37.2923Z" fill="#828078"/>
</g>
<g style="mix-blend-mode:screen">
<path d="M45.0317 13.6895H44.8561C44.506 13.6208 44.1644 13.5141 43.8373 13.371C43.4461 13.2272 43.0789 13.0244 42.7482 12.7694C42.128 12.3275 41.5924 11.776 41.1674 11.1417L40.8512 10.5047C40.9571 10.9162 41.1229 11.3097 41.343 11.6725C41.5507 12.0909 41.8235 12.4732 42.151 12.8048C42.5412 13.1128 42.9656 13.3741 43.4157 13.5833C44.3216 14.0162 45.0354 14.773 45.4181 15.7065C45.5938 16.2019 45.6992 16.6973 45.91 17.1928L46.7531 18.8913C47.0378 19.4226 47.273 19.9794 47.4557 20.5545C47.6464 21.2272 47.7873 21.9132 47.8773 22.6069C48.1008 23.8949 48.2532 25.1944 48.334 26.4994C48.334 26.9948 48.334 27.4548 48.334 27.9503C48.4221 28.3702 48.4221 28.8042 48.334 29.2242C48.2308 29.4004 48.0881 29.5497 47.9173 29.6604C47.7464 29.771 47.5523 29.8397 47.3503 29.8611C47.1269 29.9062 46.9129 29.99 46.718 30.1088C46.5951 30.1816 46.4882 30.2787 46.4037 30.3942C46.3191 30.5098 46.2587 30.6414 46.2261 30.7812C46.2093 31.064 46.2093 31.3476 46.2261 31.6305C46.1882 31.9092 46.1175 32.1825 46.0154 32.4443C45.8046 32.9751 45.5587 33.5059 45.383 34.1075C45.3104 34.4337 45.3104 34.7721 45.383 35.0983C45.4329 35.3557 45.5155 35.6054 45.6289 35.8414C45.8806 36.2669 45.9681 36.7707 45.8748 37.2569C44.2588 36.903 43.4508 35.2399 42.0807 34.5321V34.7445C42.9239 35.7353 44.856 36.3722 44.6101 37.9646C44.5174 38.4361 44.2846 38.868 43.9427 39.2032C43.5562 39.6278 43.0293 39.9817 42.678 40.4417C42.0733 41.537 41.3293 42.5482 40.4648 43.4496C39.5181 44.1385 38.4918 44.7088 37.4084 45.1481C36.2842 45.7143 35.1952 46.4574 33.8954 46.9528C33.3237 47.2155 32.7219 47.4057 32.1037 47.519C31.5065 47.519 30.9093 47.9083 30.3121 48.0144C29.7266 48.0918 29.1312 48.0061 28.5907 47.7667C28.0502 47.4911 27.4857 47.2661 26.9044 47.0944C26.5454 47.0236 26.2009 46.892 25.8856 46.7051C25.5205 46.3684 25.274 45.9213 25.183 45.4312C25.0568 44.3946 24.8691 43.3666 24.6209 42.3526C24.4799 43.2671 24.4799 44.1982 24.6209 45.1127C24.6746 45.4564 24.6305 45.8083 24.4938 46.1277C24.357 46.4471 24.1331 46.721 23.8481 46.9174C23.3799 47.1767 22.8674 47.3448 22.3375 47.4128C21.6419 47.5476 20.9373 47.6304 20.2296 47.6605C19.5515 47.7135 18.8702 47.7135 18.1921 47.6605L20.2296 48.3683C21.5026 48.079 22.7937 47.878 24.094 47.7667H24.5507C24.5507 47.7667 24.6209 47.3775 24.6209 47.3067C24.7027 47.1941 24.808 47.1008 24.9294 47.0336C25.0508 46.9663 25.1853 46.9267 25.3235 46.9174C25.5339 46.9268 25.7389 46.9875 25.9208 47.0944L26.6234 47.5898L27.2557 47.979H27.6773H28.2745C29.0315 48.1856 29.8094 48.3043 30.5931 48.3329C33.8448 47.6756 36.9139 46.3084 39.5845 44.3276C42.2551 42.3467 44.4622 39.8003 46.0505 36.8677C45.989 36.486 45.907 36.108 45.8046 35.7353C45.7705 35.5362 45.7705 35.3328 45.8046 35.1337C45.7882 34.9099 45.7882 34.6852 45.8046 34.4614C45.9433 33.9649 46.1194 33.4799 46.3315 33.0105C46.8143 31.9785 47.3538 30.9743 47.9475 30.0027L48.4745 29.0472C48.617 28.0273 48.6874 26.9986 48.6853 25.9686C48.6688 21.6063 47.4 17.3418 45.0317 13.6895Z" fill="#828078"/>
</g>
<g style="mix-blend-mode:multiply" opacity="0.39">
<path d="M19.7729 45.0064C19.6843 44.8961 19.5598 44.8209 19.4216 44.7941C19.2517 44.75 19.0724 44.7605 18.9087 44.8239C18.745 44.8873 18.605 45.0006 18.5082 45.148C18.472 45.2752 18.472 45.41 18.5082 45.5372C18.5082 45.5372 18.5082 45.5372 18.5082 45.7495C18.5121 45.835 18.5366 45.9183 18.5794 45.9923C18.6222 46.0662 18.6821 46.1286 18.7541 46.1742C19.281 46.528 19.9836 45.9619 20.0188 45.3603C20.0097 45.2855 19.9825 45.2142 19.9396 45.1525C19.8967 45.0908 19.8395 45.0406 19.7729 45.0064Z" fill="#6C6C65"/>
<path d="M41.2023 39.8047C41.1418 39.6537 41.0452 39.52 40.9212 39.4155H40.6753H40.3591C40.1624 39.4785 39.9903 39.6023 39.8673 39.7693C39.8839 39.8271 39.8839 39.8885 39.8673 39.9463C39.8501 40.0398 39.8501 40.1358 39.8673 40.2294C39.9052 40.3351 39.9801 40.4232 40.0781 40.4771C40.1917 40.5175 40.3157 40.5175 40.4294 40.4771C40.58 40.5085 40.7355 40.5085 40.8861 40.4771C41.0188 40.4196 41.1384 40.3353 41.2374 40.2294C41.2717 40.0877 41.2594 39.9387 41.2023 39.8047Z" fill="#6C6C65"/>
<path d="M41.1671 35.4521C41.1251 35.2942 41.0405 35.1511 40.9227 35.0387C40.8049 34.9262 40.6584 34.8489 40.4996 34.8152C40.306 34.7792 40.1067 34.7893 39.9176 34.8446C39.7286 34.8999 39.5549 34.9989 39.4105 35.1337C39.337 35.1939 39.277 35.2693 39.2346 35.3547C39.1922 35.4401 39.1683 35.5336 39.1646 35.6291C39.1452 35.7105 39.1452 35.7954 39.1646 35.8768C39.1597 36.0237 39.1927 36.1695 39.2604 36.2998C39.3281 36.43 39.4283 36.5403 39.5511 36.6199C39.7166 36.7162 39.9044 36.7669 40.0956 36.7669C40.2868 36.7669 40.4746 36.7162 40.6401 36.6199C40.8424 36.5098 41.0033 36.3361 41.0985 36.1253C41.1936 35.9144 41.2177 35.678 41.1671 35.4521Z" fill="#6C6C65"/>
<path d="M32.7008 37.6462H32.3495H32.1387H32.49V37.4692L32.7008 37.6462Z" fill="#6C6C65"/>
<path d="M31.3656 41.1848H31.0143H31.471V41.0079L31.3656 41.1848Z" fill="#6C6C65"/>
</g>
<g style="mix-blend-mode:multiply" opacity="0.34">
<path d="M21.3533 8.52314C20.7137 8.23812 20.0043 8.15187 19.3157 8.27543C18.5983 8.43474 17.8551 8.43474 17.1376 8.27543C16.7326 8.12919 16.3618 7.9003 16.0486 7.60309C15.8346 7.43934 15.5979 7.30818 15.346 7.21384C15.0693 7.14344 14.7796 7.14344 14.5029 7.21384L13.6597 7.42616C13.3299 7.5191 13.0116 7.64969 12.7112 7.81541C11.9777 7.7292 11.2578 7.55088 10.5683 7.28461L9.76026 6.96613C9.40896 6.7892 9.09279 6.57688 8.74148 6.43533C8.39018 6.29379 8.49557 6.43533 8.74148 6.64765C8.96693 6.77242 9.20187 6.87892 9.44409 6.96613L10.5683 7.63848L12.4653 8.48775C12.482 8.73517 12.482 8.98345 12.4653 9.23087L12.2545 9.90321C12.0354 10.3952 11.9046 10.9223 11.8681 11.4602C12.0066 12.6599 12.2536 13.8444 12.6058 14.9989H12.7815C12.5332 13.8328 12.3688 12.6502 12.2897 11.4602C12.3511 10.925 12.5183 10.4076 12.7815 9.9386C13.0302 9.46046 13.1282 8.91731 13.0625 8.38159H13.8354L14.6434 8.16927C14.8628 8.11663 15.0914 8.11663 15.3109 8.16927C15.5907 8.24829 15.8531 8.38041 16.0837 8.55853C16.3912 8.77577 16.737 8.9319 17.1025 9.01855C17.7507 9.16028 18.4216 9.16028 19.0698 9.01855C19.4443 8.99912 19.8195 8.99912 20.194 9.01855C20.6036 8.98464 21.015 9.05777 21.3884 9.23087C21.3884 9.23087 21.4236 8.52314 21.3533 8.52314Z" fill="#6C6C65"/>
</g>
<g style="mix-blend-mode:multiply" opacity="0.34">
<path d="M39.2001 3.07365C38.7434 3.07365 38.5678 3.74599 38.4273 4.09986C38.2867 4.45373 38.4273 4.63066 38.1462 4.87836C38.0479 5.13729 37.9052 5.37682 37.7247 5.58609C37.6434 5.73559 37.5494 5.87767 37.4436 6.01073C37.3341 6.09996 37.2595 6.2253 37.2328 6.3646C36.9375 6.63302 36.5908 6.83774 36.2141 6.96617C35.9417 7.07868 35.6825 7.22108 35.4412 7.39081C35.2002 7.64973 34.9881 7.93453 34.8088 8.24008C34.3521 8.91243 33.5793 9.26629 33.0523 9.86786C32.5254 10.4694 33.0523 10.1156 33.0523 9.86786C33.6217 9.50076 34.1413 9.06064 34.5981 8.55856L35.1601 8.34624C35.1601 8.34624 35.1601 7.99238 35.4412 7.85083C35.6399 7.62364 35.8943 7.45284 36.1789 7.35542C36.4682 7.24452 36.7498 7.11448 37.0221 6.96617C37.0734 7.17805 37.1563 7.38088 37.268 7.56774C37.5314 8.15828 37.6747 8.79598 37.6895 9.44322C37.8299 8.84996 37.8299 8.23178 37.6895 7.63851C37.5661 7.41573 37.4716 7.17786 37.4085 6.93078C37.3921 6.86098 37.3921 6.78827 37.4085 6.71846L37.7949 6.29382C38.1919 5.8152 38.4904 5.26189 38.6732 4.66604C38.7387 4.35513 38.8208 4.04801 38.9191 3.74599C38.9106 3.62819 38.9106 3.50993 38.9191 3.39213C38.9191 3.39213 38.9191 3.2152 38.9191 3.17981C38.9191 3.14442 39.2704 3.03826 39.2001 3.07365Z" fill="#6C6C65"/>
</g>
<g style="mix-blend-mode:multiply" opacity="0.34">
<path d="M10.5687 23.3146C10.112 23.3146 9.62018 23.3146 9.16348 23.3146C8.67959 23.3365 8.19806 23.3956 7.72314 23.4916C7.25746 23.5754 6.80727 23.7306 6.38818 23.9516L5.82609 24.1993C5.59317 24.2342 5.35641 24.2342 5.12349 24.1993H4.52627C4.1047 24.1993 3.68314 24.1993 3.26158 24.1993C2.39648 24.1279 1.52703 24.1279 0.661926 24.1993C0.661926 24.1993 0.661926 24.3762 0.661926 24.4116C1.22401 24.6593 2.10227 24.6593 2.9454 24.6593C3.78853 24.6593 3.7534 24.6593 4.13984 24.6593H4.98296C5.35028 24.7655 5.73983 24.7655 6.10714 24.6593C6.62722 24.6883 7.13836 24.808 7.61774 25.0132C7.24117 24.8081 6.83963 24.6535 6.42331 24.5532L7.30157 24.2347L8.81218 23.987L10.5687 23.5623V23.3146Z" fill="#6C6C65"/>
</g>
<g style="mix-blend-mode:multiply" opacity="0.34">
<path d="M32.4193 46.7758L32.0328 46.2096C32.0154 45.9977 32.0154 45.7846 32.0328 45.5727C32.0328 45.3604 32.2788 45.1834 32.349 44.9711C32.4023 44.7263 32.4023 44.4728 32.349 44.228C32.3321 43.9452 32.3321 43.6616 32.349 43.3787C32.349 43.3787 32.1382 43.9449 32.068 44.1926C32.0171 44.4658 31.9222 44.7288 31.7869 44.9711L31.6464 45.3958C31.3302 44.7588 31.1546 44.0511 30.8033 43.4141C31.1195 44.228 31.2248 45.0773 31.5762 45.8558V46.1389C31.5762 46.1389 31.5762 46.3512 31.5762 46.422V46.7051C31.6902 46.8576 31.7846 47.0241 31.8572 47.2005C31.9414 47.3346 32.012 47.4768 32.068 47.6251C32.1178 47.4517 32.1178 47.2677 32.068 47.0943C32.2025 47.0094 32.3214 46.9017 32.4193 46.7758Z" fill="#6C6C65"/>
</g>
<path d="M34.2117 18.502C33.9015 18.3178 33.6178 18.0916 33.3686 17.8297C33.0756 17.5688 32.8422 17.2471 32.6845 16.8867C32.5268 16.5263 32.4486 16.1357 32.4552 15.7419C34.2178 14.3881 35.678 12.6761 36.7411 10.717C36.7611 10.6237 36.7611 10.5272 36.7411 10.4339C36.7153 10.2661 36.6275 10.1144 36.4952 10.0092C36.1348 9.74653 35.7188 9.57147 35.28 9.4978C34.8412 9.42412 34.3913 9.45384 33.9658 9.58461C33.1095 9.8518 32.2254 10.018 31.331 10.08C29.6799 10.08 28.1693 8.62917 26.5533 8.98303C25.8765 9.25858 25.2292 9.6024 24.6211 10.0092C23.3071 10.3359 21.9224 10.2114 20.6865 9.65538C20.1031 9.41075 19.4571 9.36123 18.8437 9.51412C18.2303 9.66701 17.6817 10.0142 17.2789 10.5047C18.4138 12.5366 19.943 14.3177 21.7756 15.7419C21.7756 17.0512 20.6514 18.042 19.5624 18.7851C17.1448 20.2358 15.1086 22.2504 13.6253 24.6593C12.5984 26.6885 12.1948 28.9799 12.466 31.2412C12.6956 33.5427 13.6006 35.7233 15.0657 37.5046C16.6778 39.2872 18.7819 40.5441 21.1081 41.114C23.3973 41.7277 25.7696 41.9667 28.1342 41.8217C30.906 41.8031 33.6358 41.1369 36.1088 39.8755C38.5467 38.446 40.3642 36.1481 41.2027 33.4351C41.4855 32.6363 41.6627 31.8035 41.7296 30.9581C41.9332 28.2943 41.2402 25.6392 39.7623 23.4207C38.5202 21.7144 36.9564 20.2715 35.1603 19.1744L34.2117 18.502Z" fill="#BC894E"/>
<path d="M26.799 42.1048C24.8768 42.1274 22.9609 41.8772 21.1079 41.3617C18.7198 40.7252 16.5699 39.3963 14.925 37.54C13.4603 35.7141 12.5459 33.5036 12.2902 31.1704C12.0269 28.8598 12.4422 26.5222 13.4846 24.447C14.9613 22.0328 16.9989 20.0168 19.4216 18.5728C20.5107 17.8651 21.6349 16.9804 21.5646 15.848C19.7183 14.3958 18.1878 12.5771 17.0679 10.5047C17.0422 10.4686 17.0283 10.4253 17.0283 10.3808C17.0283 10.3364 17.0422 10.2931 17.0679 10.257C17.496 9.769 18.0609 9.42323 18.6881 9.26529C19.3153 9.10735 19.9752 9.14466 20.5809 9.3723L21.2836 9.58462C22.3266 10.0885 23.5232 10.1647 24.6209 9.79694L25.4289 9.3723C25.8382 9.06888 26.3043 8.85219 26.799 8.73534C27.7679 8.61208 28.7507 8.79771 29.6095 9.26614C30.2454 9.55388 30.9202 9.7447 31.6119 9.83232C32.2195 9.82467 32.8228 9.72934 33.4035 9.54923L34.2115 9.33691C34.6752 9.20067 35.164 9.17451 35.6394 9.26046C36.1148 9.34641 36.564 9.54215 36.9517 9.83232C37.1296 9.98476 37.2427 10.2 37.2679 10.4339C37.2781 10.5753 37.2781 10.7172 37.2679 10.8585C36.1038 12.8214 34.5489 14.5203 32.7009 15.848C32.7361 16.5099 33.0259 17.1319 33.5089 17.582L34.3521 18.2543L35.0898 18.7143H35.3708C37.2077 19.8127 38.7986 21.2827 40.0432 23.0315C41.6723 25.3455 42.4318 28.1675 42.1861 30.9935C42.0816 31.8445 41.9053 32.685 41.6592 33.5059C40.7772 36.2736 38.9137 38.6168 36.4248 40.0878C33.9207 41.3714 31.1543 42.0498 28.3448 42.0694L26.799 42.1048ZM17.5949 10.5047C18.6993 12.4452 20.1667 14.1516 21.9159 15.5296C21.9159 16.945 20.8269 17.9712 19.5973 18.8205C17.2205 20.2485 15.2391 22.2565 13.8359 24.6593C12.8304 26.6446 12.4388 28.8879 12.7117 31.0996C12.9384 33.3359 13.8187 35.4541 15.2411 37.1861C16.8302 38.9298 18.8959 40.161 21.1782 40.7248C23.4685 41.3309 25.8415 41.558 28.2042 41.3971C30.9273 41.3804 33.6093 40.7263 36.0383 39.4862C37.577 38.5796 38.8796 37.3175 39.8386 35.8039C40.7976 34.2903 41.3855 32.5687 41.5538 30.7811C41.7577 28.1668 41.0766 25.56 39.6216 23.3854C38.417 21.7634 36.8994 20.4033 35.1601 19.3867H34.879L34.1061 18.8913L33.2279 18.1835C32.9131 17.891 32.6628 17.535 32.4934 17.1388C32.3239 16.7425 32.239 16.3148 32.2442 15.8834C34.0491 14.4307 35.5127 12.5939 36.5301 10.5047C36.5301 10.5047 36.5301 10.5047 36.5301 10.257C36.1895 10.0235 35.8009 9.87047 35.3934 9.80921C34.9859 9.74794 34.5699 9.78003 34.1764 9.9031H33.4387C32.8047 10.203 32.1297 10.4058 31.4362 10.5047C30.6797 10.4177 29.9433 10.2023 29.2582 9.86771C28.4825 9.45356 27.602 9.28112 26.7288 9.3723C26.2807 9.49416 25.8541 9.68515 25.4641 9.93848C25.1973 10.0715 24.9136 10.1668 24.6209 10.2216C23.4899 10.6572 22.239 10.6572 21.1079 10.2216L20.4053 10.0093C19.9339 9.84238 19.4279 9.8003 18.9358 9.88706C18.4437 9.97381 17.9819 10.1865 17.5949 10.5047Z" fill="#714E28"/>
<path d="M25.1831 16.5204C24.5507 16.5204 24.0589 15.848 23.6724 15.388C23.2033 14.8217 22.7804 14.2182 22.4078 13.5833C22.2 13.2897 22.0122 12.9823 21.8457 12.6633C21.7262 12.3927 21.5853 12.1324 21.4241 11.8847L21.1079 11.5309C21.1079 11.5309 20.862 11.5309 20.8269 11.814C20.807 11.9785 20.807 12.1449 20.8269 12.3094C20.813 12.4506 20.813 12.5928 20.8269 12.734C20.7955 12.6182 20.7955 12.496 20.8269 12.3802C20.7923 12.2288 20.7923 12.0715 20.8269 11.9201H21.1079C21.2975 12.0808 21.4427 12.288 21.5295 12.5217L21.9511 13.3356C21.9511 13.6187 22.3024 13.9372 22.478 14.2203C22.8484 14.792 23.2593 15.336 23.7076 15.848C24.094 16.2727 24.6561 16.9096 25.2884 16.8389C25.2533 16.6619 25.3236 16.5204 25.1831 16.5204Z" fill="#714E28"/>
<path d="M32.5605 12.3448C32.5605 12.3448 32.2443 12.3448 32.1389 12.3448C32.0109 12.4894 31.8935 12.6431 31.7876 12.8048L31.1904 13.6895C30.8831 14.2066 30.5428 14.7031 30.1716 15.1757C29.761 15.7123 29.3024 16.2098 28.8015 16.662C29.705 16.0179 30.4599 15.1851 31.0147 14.2203L31.9633 12.6987C31.9633 12.6987 32.1389 12.4156 32.2794 12.3448C32.2596 12.6725 32.1885 12.9949 32.0686 13.3002C32.226 13.0143 32.333 12.703 32.3848 12.3802C32.4451 12.3802 32.5048 12.3682 32.5605 12.3448Z" fill="#714E28"/>
<path d="M28.7313 13.7957C28.7313 13.7957 28.7313 14.8573 28.7313 15.388C28.7484 15.6591 28.7484 15.9309 28.7313 16.2019C28.7118 16.4611 28.7118 16.7213 28.7313 16.9804C28.7313 16.9804 28.942 16.9804 28.9772 16.9804C28.997 16.7213 28.997 16.4611 28.9772 16.2019C28.9945 15.9427 28.9945 15.6826 28.9772 15.4234C28.9324 14.8758 28.8502 14.3319 28.7313 13.7957Z" fill="#714E28"/>
<path d="M25.7801 15.8836C25.7801 15.5651 25.5342 15.2112 25.4288 14.8927C25.3234 14.5743 25.218 14.2204 25.1478 14.0435C25.0775 13.8665 24.937 13.3357 24.8667 12.9819C24.8493 13.1702 24.8493 13.3597 24.8667 13.548C24.8839 13.7246 24.8839 13.9023 24.8667 14.0788C24.928 14.4256 25.0101 14.7683 25.1126 15.1051C25.1808 15.4577 25.2868 15.8017 25.4288 16.1313C25.5179 16.4703 25.6602 16.7929 25.8504 17.0867H26.0612C25.9978 16.6791 25.9038 16.2769 25.7801 15.8836Z" fill="#714E28"/>
<path d="M22.8647 18.1129C22.1661 18.5077 21.5072 18.9698 20.8974 19.493C20.3002 20.0238 19.703 20.59 19.176 21.1561C18.6491 21.7223 18.1221 22.3239 17.56 22.8547C17.283 23.1098 16.9896 23.3462 16.6818 23.5624C16.6818 23.5624 16.2953 23.8809 16.2602 23.5624C16.1739 23.286 16.1739 22.9896 16.2602 22.7131C16.3847 22.3645 16.6038 22.058 16.8925 21.8285C16.6228 21.9878 16.4035 22.2209 16.2602 22.5008C16.0708 22.7695 15.9283 23.0686 15.8386 23.3855C15.8386 23.3855 15.8386 23.8809 15.8386 23.9871C15.8386 24.0932 16.5061 23.8101 16.7169 23.6332C17.3759 23.1113 17.9873 22.531 18.5437 21.8992C19.1058 21.2623 19.703 20.6607 20.3353 20.0592C21.0586 19.4105 21.8212 18.8078 22.6188 18.2544C22.6188 18.2544 23.0052 18.0421 22.8647 18.1129Z" fill="#714E28"/>
<path d="M24.3394 17.8651C24.0078 18.016 23.7182 18.2469 23.4963 18.5374C23.2152 18.8559 22.9342 19.139 22.6883 19.4575C22.1007 20.0633 21.6459 20.7866 21.3533 21.5807C21.7237 20.8528 22.1841 20.1751 22.7234 19.5636C22.9342 19.2805 23.2152 18.9974 23.4612 18.7143C23.6501 18.4056 23.9014 18.1403 24.1989 17.9358C24.1989 17.9358 24.4097 17.8297 24.3394 17.8651Z" fill="#714E28"/>
<path d="M37.1978 23.3854C37.1011 23.2065 36.9831 23.0402 36.8465 22.89C36.6709 22.89 36.8465 22.89 36.8465 22.89C36.9523 23.0231 37.0463 23.1652 37.1276 23.3146C37.1475 23.4079 37.1475 23.5044 37.1276 23.5977C37.1461 23.63 37.1558 23.6666 37.1558 23.7039C37.1558 23.7412 37.1461 23.7778 37.1276 23.8101C36.9989 23.7609 36.8799 23.689 36.7763 23.5977L36.1088 22.9608C35.4949 22.3867 34.9198 21.772 34.3874 21.1207C33.8579 20.5514 33.365 19.9486 32.9119 19.316C32.6857 18.9825 32.4393 18.6635 32.1742 18.3605C31.9443 18.0499 31.6582 17.7858 31.331 17.582C31.1203 17.582 31.331 17.582 31.331 17.582L32.0688 18.4667C32.3147 18.7498 32.5255 19.0683 32.7714 19.3867C33.0173 19.7052 33.7902 20.696 34.3523 21.333C34.8891 21.9916 35.4639 22.6178 36.0737 23.2085C36.3043 23.4166 36.5509 23.606 36.8114 23.7747C36.987 23.7747 37.2681 23.9516 37.4086 23.7747C37.5491 23.5977 37.3032 23.5624 37.1978 23.3854Z" fill="#714E28"/>
<g style="mix-blend-mode:multiply">
<path d="M39.867 23.4209C38.594 21.704 36.9936 20.2603 35.1595 19.1745L34.1056 18.5022C33.7953 18.318 33.5116 18.0918 33.2625 17.8298C32.9695 17.569 32.7361 17.2473 32.5784 16.8869C32.4207 16.5264 32.3425 16.1359 32.3491 15.742C34.1116 14.3883 35.5719 12.6762 36.635 10.7172C36.6549 10.6239 36.6549 10.5274 36.635 10.4341C36.6092 10.2663 36.5213 10.1146 36.3891 10.0094C36.0287 9.74671 35.6127 9.57165 35.1739 9.49798C34.735 9.4243 34.2852 9.45402 33.8597 9.58479L32.2788 9.97404L31.9626 10.6818C31.7458 11.2257 31.4995 11.7573 31.2249 12.2742L30.5926 13.3711C30.4498 13.6775 30.2855 13.9731 30.1007 14.2558C29.9719 14.5344 29.7641 14.7683 29.5035 14.9282C28.9766 15.2466 28.8712 14.2558 28.836 13.9373C28.8009 13.6188 28.836 12.9111 28.836 12.4157C28.6742 13.0871 28.4748 13.7487 28.2388 14.3974C28.0986 14.7567 27.922 15.1006 27.7119 15.4236C27.5742 15.6817 27.3502 15.8823 27.0795 15.9897C26.5174 16.2021 26.0607 15.7774 25.7446 15.3882C25.3783 14.7929 25.0947 14.15 24.9014 13.4773C24.9014 13.1588 24.9014 12.8403 24.6204 12.5219C24.6357 12.3689 24.6357 12.2148 24.6204 12.0618C24.6029 12.2856 24.6029 12.5104 24.6204 12.7342C24.6204 13.7958 24.8663 14.822 24.8663 15.8482L24.6204 15.8128C24.2961 15.6336 24.019 15.3788 23.8124 15.0697L23.426 14.6451C23.2899 14.4326 23.1372 14.2314 22.9693 14.0435C22.7981 13.8711 22.645 13.6814 22.5126 13.4773C22.5126 13.3004 22.2667 13.0881 22.1261 12.8757C21.9856 12.6634 21.7748 12.2742 21.5992 11.9911C21.5291 11.8477 21.4307 11.7204 21.3098 11.6169C21.189 11.5134 21.0483 11.436 20.8966 11.3895C20.6507 11.3895 20.5804 11.3895 20.5453 11.7434C20.528 12.3861 20.7398 13.0138 21.1425 13.5127C21.6389 14.1037 22.0744 14.7439 22.4423 15.4236L21.8451 15.2466L20.9317 14.7866L21.8451 15.5651C21.8451 16.8744 20.7209 17.8652 19.6319 18.6083C18.8521 19.1071 18.1014 19.6506 17.3835 20.2361L17.1376 20.5192C16.8214 20.9792 16.5053 21.4039 16.2242 21.8639C15.9673 22.2693 15.7441 22.6954 15.5567 23.1378C15.4523 23.4355 15.4523 23.7602 15.5567 24.0579C15.5567 24.3764 16.0837 24.341 16.3296 24.0579C16.7851 23.9221 17.2132 23.7065 17.5943 23.4209L18.8239 22.2178C18.9703 22.0465 19.1353 21.8922 19.3157 21.7577L20.2642 20.8731C20.8759 20.2675 21.5896 19.7762 22.372 19.4222C22.2326 19.6777 22.0802 19.9257 21.9153 20.1654C21.2503 20.9707 20.835 21.9551 20.7209 22.9963C20.8776 22.93 21.0118 22.8194 21.1073 22.6778L21.4938 22.147C21.8219 21.7816 22.174 21.4387 22.5477 21.1208C22.9455 20.7403 23.395 20.4186 23.8827 20.1654C24.8547 19.6191 25.9894 19.4432 27.0795 19.6699C27.8636 19.8065 28.5939 20.1621 29.1873 20.6962C29.7531 21.2274 30.2279 21.8492 30.5926 22.5363C31.347 23.9898 31.8687 25.5543 32.1383 27.1719C32.1383 27.9504 32.4193 28.7643 32.5247 29.5428C32.6478 30.5297 32.6478 31.5283 32.5247 32.5153C32.412 33.4839 32.1137 34.4212 31.6465 35.2754C31.1799 36.1567 30.5333 36.9285 29.7494 37.5401C28.1579 38.7281 26.2483 39.4062 24.2691 39.4864C22.2754 39.5736 20.2894 39.1856 18.4726 38.354C17.5557 37.9677 16.7027 37.4426 15.9432 36.797C15.1844 36.073 14.5546 35.2232 14.0813 34.2846C13.2426 32.8117 12.6939 31.1897 12.4653 29.5074C12.4653 30.0736 12.4653 30.6044 12.4653 31.1352C12.6948 33.4368 13.5999 35.6173 15.0649 37.3986C16.6629 39.2203 18.7684 40.515 21.1073 41.1142C23.3966 41.7279 25.7689 41.9669 28.1334 41.8219C30.9053 41.8033 33.6351 41.1371 36.108 39.8756C38.5459 38.4462 40.3634 36.1483 41.2019 33.4353C41.4848 32.6365 41.6619 31.8036 41.7289 30.9582C41.9634 28.3067 41.3078 25.6526 39.867 23.4209Z" fill="#BC894E"/>
</g>
<g style="mix-blend-mode:multiply">
<path d="M39.4109 35.7707C37.9622 37.5224 36.0855 38.8639 33.9657 39.6632C32.6701 40.1457 31.3278 40.4896 29.9608 40.6894C28.3925 40.9374 26.8053 41.0439 25.2182 41.0079C22.4862 41.0116 19.7871 40.4075 17.3139 39.2385C17.0342 39.1178 16.7641 38.9758 16.5059 38.8139C17.8631 39.8967 19.431 40.6803 21.1079 41.114C23.3972 41.7278 25.7695 41.9667 28.134 41.8217C30.9059 41.8031 33.6357 41.1369 36.1086 39.8755C38.5465 38.446 40.364 36.1481 41.2025 33.4351C41.4688 32.6438 41.6455 31.8247 41.7295 30.9935C41.32 32.7401 40.5278 34.3724 39.4109 35.7707Z" fill="#BC894E"/>
</g>
<g style="mix-blend-mode:screen">
<path d="M19.0002 35.2753C19.0002 35.0276 19.0002 34.8153 19.0002 34.5676C19.0002 34.3199 19.0002 33.6475 19.0002 33.1521C19.0002 32.6567 19.0002 32.2674 19.0002 31.8074C19.0002 31.3474 19.0002 31.0643 19.0002 30.7104C18.9778 30.3555 19.0506 30.001 19.211 29.6842C19.2482 29.6069 19.3097 29.5442 19.3859 29.5058C19.4621 29.4674 19.5489 29.4555 19.6325 29.4719C19.8391 29.5347 20.0225 29.6578 20.1595 29.8258L20.7918 30.5335C20.9998 30.7735 21.2357 30.9873 21.4944 31.1705C21.9438 31.482 22.4628 31.6765 23.0051 31.7366C23.4319 31.8431 23.878 31.8431 24.3049 31.7366C24.7275 31.5828 25.1199 31.3552 25.4642 31.0643C25.8163 30.7448 26.1342 30.389 26.4127 30.0027C26.7167 29.5832 26.9758 29.1324 27.1856 28.658C27.4014 28.2061 27.5664 27.7314 27.6774 27.2425C27.8742 26.7016 28.0269 26.1453 28.1341 25.5794C28.1871 25.1683 28.1871 24.752 28.1341 24.3409C28.0565 23.7874 27.8387 23.2633 27.5017 22.8192C27.0324 22.5519 26.4792 22.476 25.956 22.6069C24.8672 22.9628 23.8955 23.6112 23.1456 24.4824C22.735 24.9314 22.2885 25.3456 21.8106 25.7209C21.534 25.9335 21.2257 26.1007 20.8972 26.2163C20.5834 26.2099 20.2782 26.1115 20.019 25.9332C19.7891 25.8206 19.5368 25.7621 19.2812 25.7621C19.0256 25.7621 18.7733 25.8206 18.5435 25.9332C18.1017 26.1459 17.7164 26.4613 17.4193 26.8533C17.4193 27.0656 17.0329 27.5256 16.787 27.2425C16.5672 26.9699 16.3786 26.6731 16.2249 26.3579C15.8736 25.8271 15.3466 25.1194 14.6792 25.6502C13.3442 26.641 13.8009 29.1888 14.0819 30.5689C14.451 32.4938 15.3947 34.2592 16.787 35.6292C17.3842 36.3723 18.684 36.5138 19.0002 35.2753Z" fill="#BC894E"/>
</g>
<g style="mix-blend-mode:multiply">
<path d="M34.3168 18.4313C33.8898 18.1391 33.5498 17.7354 33.3331 17.2635C33.2133 16.9806 33.1307 16.6832 33.0872 16.3788C32.6927 16.5107 32.3057 16.6643 31.9279 16.8389C31.5025 16.9669 31.0679 17.0615 30.6281 17.122H29.1877C28.2048 17.175 27.2197 17.175 26.2368 17.122C25.3474 17.1183 24.4663 16.9504 23.6371 16.6265L22.8643 16.5204C22.5313 16.329 22.1581 16.2198 21.7752 16.2019C21.6037 16.2194 21.443 16.2941 21.3185 16.4142H21.1077C21.0645 16.5765 21.0645 16.7474 21.1077 16.9096C21.0704 17.0487 21.0704 17.1952 21.1077 17.3343C20.8784 17.4426 20.6973 17.6331 20.5999 17.8687C20.5025 18.1042 20.4957 18.3679 20.5808 18.6082C20.8267 19.139 21.5644 19.2451 22.1265 19.3159H23.3912H24.8316H25.1829C24.6927 19.8227 24.257 20.3802 23.883 20.9791C23.419 21.6659 23.0079 22.3875 22.6535 23.1377C22.2822 23.9246 21.9767 24.7413 21.7401 25.5793C21.7401 25.9686 21.5293 26.3932 21.459 26.7825C21.3165 27.134 21.3165 27.5279 21.459 27.8795C21.5613 27.9691 21.6923 28.0184 21.8279 28.0184C21.9635 28.0184 22.0945 27.9691 22.1968 27.8795C22.211 27.8094 22.211 27.7372 22.1968 27.6671V28.1979V27.8087C22.2142 27.6322 22.2142 27.4544 22.1968 27.2779C22.2132 27.2081 22.2132 27.1354 22.1968 27.0656C22.2928 26.6586 22.4101 26.257 22.5481 25.8624C22.6088 25.631 22.6911 25.4059 22.794 25.1901C23.0039 24.6317 23.2504 24.0879 23.5317 23.5623C23.9058 22.8257 24.3657 22.1367 24.9018 21.5099C25.3601 20.9482 25.8655 20.4273 26.4124 19.9529H27.0799C27.2279 20.0041 27.3886 20.0041 27.5366 19.9529H27.8176H28.0636H28.3095H28.7662H29.0121H29.258C29.4012 20.2291 29.5302 20.5126 29.6444 20.8022C29.9399 21.4477 30.1638 22.1242 30.3119 22.8192C30.9253 24.1136 31.3739 25.4809 31.6469 26.8886C31.6294 27.1124 31.6294 27.3372 31.6469 27.561C31.6469 27.561 31.6469 27.7733 31.6469 27.8795C31.6346 27.954 31.649 28.0306 31.6876 28.0954C31.7263 28.1603 31.7865 28.2091 31.8576 28.2333C31.8576 28.2333 32.1738 28.2333 32.3143 28.2333C32.4785 28.2654 32.6482 28.2532 32.8062 28.1979C32.9259 28.0589 32.9995 27.8857 33.0169 27.7025V27.1363C33.0343 27.019 33.0343 26.8998 33.0169 26.7825C32.9986 26.5233 32.9986 26.2631 33.0169 26.004C33.0169 25.7563 33.0169 25.5086 33.0169 25.2609C33.0169 25.0131 33.0169 25.0485 33.0169 24.907V24.4116V23.6685C33.0169 23.4561 33.0169 23.2084 33.0169 22.9607L32.8062 22.1468V21.793L32.1035 21.1206V20.7668C32.1035 20.5544 32.1035 20.3421 31.8576 20.0944C31.7889 19.9455 31.7066 19.8034 31.6117 19.6698H32.3846C32.8815 19.6217 33.3745 19.5389 33.8601 19.4221C34.1762 19.4221 34.6329 19.2098 34.7735 18.8559L34.3168 18.4313Z" fill="#BC894E"/>
</g>
<g style="mix-blend-mode:screen">
<path d="M16.892 30.5335C16.899 29.944 16.773 29.3606 16.5235 28.8273C16.274 28.2939 15.9075 27.8247 15.4516 27.4549C15.3604 27.386 15.2495 27.3488 15.1354 27.3488C15.0214 27.3488 14.9105 27.386 14.8193 27.4549C14.5124 27.8515 14.3204 28.3258 14.2646 28.8254C14.2088 29.3251 14.2914 29.8305 14.5031 30.2858C14.5506 30.5771 14.656 30.8558 14.8129 31.1051C14.9699 31.3544 15.1752 31.5692 15.4165 31.7367C15.5902 31.8633 15.7992 31.9315 16.0137 31.9315C16.2282 31.9315 16.4372 31.8633 16.6109 31.7367C16.7387 31.5671 16.8298 31.3724 16.8782 31.1652C16.9266 30.9579 16.9313 30.7427 16.892 30.5335Z" fill="#FFFABC"/>
</g>
<g style="mix-blend-mode:screen">
<path d="M17.2085 32.9752C17.1176 32.9428 17.0184 32.9428 16.9275 32.9752C16.856 32.9791 16.7874 33.0049 16.7309 33.0492C16.6744 33.0934 16.6327 33.154 16.6113 33.2229C16.6113 33.2229 16.8572 33.3998 16.9626 33.2229C17.0481 33.1915 17.1247 33.1396 17.1859 33.0718C17.2471 33.004 17.291 32.9223 17.3139 32.8336C17.2693 32.8728 17.2334 32.9211 17.2085 32.9752Z" fill="#FFFABC"/>
</g>
<g style="mix-blend-mode:screen">
<path d="M30.3826 26.7472C30.3826 26.1102 30.207 25.0132 29.4692 24.8363C29.3389 24.8122 29.2043 24.83 29.0845 24.8872C28.9648 24.9443 28.8658 25.0379 28.8017 25.1548C28.3735 26.0065 28.2376 26.9771 28.4153 27.9149C28.4196 28.2182 28.4792 28.518 28.591 28.7996C28.6586 28.9335 28.7616 29.0459 28.8887 29.1244C29.0158 29.2029 29.162 29.2445 29.3111 29.2445C29.4602 29.2445 29.6064 29.2029 29.7335 29.1244C29.8607 29.0459 29.9637 28.9335 30.0313 28.7996C30.3659 28.1718 30.4892 27.4516 30.3826 26.7472Z" fill="#BC894E"/>
</g>
<path d="M33.8951 17.299H33.6843C33.7882 17.2093 33.8716 17.0981 33.9288 16.9728C33.9859 16.8476 34.0155 16.7114 34.0155 16.5736C34.0155 16.4358 33.9859 16.2996 33.9288 16.1744C33.8716 16.0492 33.7882 15.9379 33.6843 15.8482C33.0168 15.4589 32.1737 15.8482 31.5413 16.202C31.1059 16.3455 30.6594 16.452 30.2064 16.5205H28.766C27.7831 16.5736 26.798 16.5736 25.8151 16.5205C24.9279 16.529 24.0467 16.3731 23.2154 16.0605L22.4777 15.7066C22.0539 15.4946 21.5751 15.4204 21.1076 15.4943C20.9592 15.4457 20.7993 15.4457 20.6509 15.4943C20.579 15.5399 20.519 15.6023 20.4762 15.6762C20.4334 15.7502 20.409 15.8334 20.405 15.919C20.3692 16.0702 20.3692 16.2278 20.405 16.379C20.1783 16.4805 19.9981 16.6645 19.9003 16.8941C19.8026 17.1238 19.7947 17.3822 19.878 17.6175C20.1591 18.1837 20.8968 18.2545 21.4238 18.3252H22.6885H24.164C25.1698 18.3963 26.1793 18.3963 27.1852 18.3252H28.6255H29.3984H29.7497C30.3748 18.4713 31.0084 18.5777 31.6467 18.6437C32.1315 18.6102 32.6131 18.5392 33.0871 18.4314C33.4735 18.4314 33.9302 18.1837 34.0707 17.7591C34.0926 17.6735 34.0874 17.5832 34.0559 17.5007C34.0245 17.4183 33.9682 17.3478 33.8951 17.299Z" fill="#73786B"/>
<path d="M25.0077 16.7681C25.9315 16.8393 26.8593 16.8393 27.783 16.7681C28.7149 16.7616 29.6441 16.6668 30.5583 16.485C30.9286 16.4393 31.2935 16.3563 31.6474 16.2373C31.9933 16.0716 32.3595 15.9527 32.7364 15.8835C32.8988 15.8529 33.0668 15.8781 33.2133 15.9551C33.3598 16.0321 33.4764 16.1564 33.5444 16.3081C33.5946 16.4466 33.6048 16.5966 33.5737 16.7407C33.5426 16.8848 33.4715 17.017 33.3687 17.122C32.7893 17.1584 32.2137 17.2412 31.6474 17.3697C31.1093 17.4047 30.5695 17.4047 30.0314 17.3697H28.2748L26.5886 17.1574C25.9262 17.0492 25.2696 16.9075 24.6213 16.7327L25.0077 16.7681Z" fill="#EFF4D6"/>
<path d="M25.1482 18.679C24.2186 18.6376 23.292 18.5431 22.3729 18.3959H21.4595C21.1788 18.3801 20.9041 18.3079 20.6515 18.1836C20.5354 18.1288 20.4355 18.0446 20.3616 17.9391C20.2877 17.8336 20.2423 17.7105 20.23 17.582C20.2663 17.3155 20.4051 17.0741 20.6164 16.9097C20.7603 17.0205 20.9293 17.0935 21.1082 17.122C21.7771 17.6175 22.5657 17.923 23.3917 18.0066C24.4667 18.2698 25.5583 18.459 26.6588 18.5728H27.7479C26.8849 18.6692 26.0162 18.7047 25.1482 18.679Z" fill="#EFF4D6"/>
<path d="M33.6143 18.0066C33.2797 18.1556 32.9241 18.2512 32.5604 18.2897H30.9092H29.6797H27.6421C26.5882 18.2897 25.4991 18.0774 24.4452 17.9004L23.1103 17.5819H21.9861C21.6346 17.3986 21.3331 17.1313 21.1078 16.8034C20.9861 16.7037 20.8974 16.5691 20.8535 16.4174C20.8096 16.2657 20.8125 16.1041 20.8619 15.9542H21.1078C21.3538 15.9542 21.7402 15.9542 21.9861 15.9542L22.8995 16.3788C23.8435 16.8061 24.8182 17.161 25.8153 17.4404C26.8394 17.6997 27.887 17.8538 28.9419 17.9004H30.5228C31.0249 17.9551 31.5313 17.9551 32.0334 17.9004C32.512 17.8464 32.9951 17.8464 33.4737 17.9004C33.6317 17.8374 33.8076 17.8374 33.9656 17.9004C33.9252 17.9527 33.8697 17.991 33.8068 18.0101C33.7438 18.0291 33.6765 18.0279 33.6143 18.0066Z" fill="#EFF4D6"/>
<g style="mix-blend-mode:multiply">
<path d="M33.6843 17.299H33.8951C33.9682 17.3478 34.0245 17.4183 34.0559 17.5007C34.0874 17.5832 34.0926 17.6735 34.0707 17.7591C33.9302 18.1837 33.4735 18.4314 33.0871 18.4314C32.6131 18.5392 32.1315 18.6102 31.6467 18.6437C31.0084 18.5777 30.3748 18.4713 29.7497 18.3252H29.3984H28.6255H27.1852C26.1793 18.3963 25.1698 18.3963 24.164 18.3252H22.6885H22.3623H21.4238C20.8968 18.2545 20.1591 18.1837 19.878 17.6175C19.7947 17.3822 19.8026 17.1238 19.9003 16.8941C19.9981 16.6645 20.1783 16.4805 20.405 16.379C20.3692 16.2278 20.3692 16.0702 20.405 15.919C20.409 15.8334 20.4334 15.7502 20.4762 15.6762C20.519 15.6023 20.579 15.5399 20.6509 15.4943C20.7993 15.4457 20.9592 15.4457 21.1076 15.4943C21.5751 15.4204 22.0539 15.4946 22.4777 15.7066L23.2154 16.0605C24.0467 16.3731 24.9279 16.529 25.8151 16.5205C26.798 16.5736 27.7831 16.5736 28.766 16.5205H30.2064C30.6594 16.452 31.1059 16.3455 31.5413 16.202C32.1737 15.8482 33.0168 15.4589 33.6843 15.8482C33.7882 15.9379 33.8716 16.0492 33.9288 16.1744C33.9859 16.2996 34.0155 16.4358 34.0155 16.5736C34.0155 16.7114 33.9859 16.8476 33.9288 16.9728C33.8716 17.0981 33.7882 17.2093 33.6843 17.299Z" fill="#B0B3B3"/>
</g>
<path d="M32.4547 24.6594C32.419 24.1245 32.3486 23.5926 32.2439 23.067C32.1642 22.5401 32.0468 22.0198 31.8926 21.51C31.6467 21.1207 31.6467 20.4837 31.6467 20.0237C31.4351 19.3362 31.0887 18.6984 30.6279 18.1482C30.3762 17.9352 30.1058 17.7457 29.8199 17.582H29.574C29.6271 17.4973 29.6552 17.3992 29.6552 17.299C29.6552 17.1988 29.6271 17.1006 29.574 17.0159C29.4386 16.8568 29.2534 16.7491 29.049 16.7105C28.8446 16.6719 28.6332 16.7047 28.4498 16.8035L28.1337 16.8389H27.6067C27.3873 16.7863 27.1587 16.7863 26.9392 16.8389C26.846 16.824 26.7505 16.844 26.6708 16.8951C26.5912 16.9462 26.5329 17.0249 26.507 17.1164C26.481 17.2079 26.4892 17.3058 26.53 17.3915C26.5708 17.4773 26.6414 17.5451 26.7284 17.582C26.3829 17.7237 26.0532 17.9016 25.7448 18.1128C25.393 18.2959 25.0727 18.5349 24.7963 18.8206C24.2479 19.3857 23.7539 20.0018 23.3208 20.6607C22.8751 21.3647 22.4761 22.0976 22.1264 22.8546C21.7235 23.6036 21.3827 24.3847 21.1076 25.1902C21.1076 25.6148 21.1076 26.004 20.8265 26.3933C20.7888 26.5857 20.7945 26.7841 20.8432 26.974C20.8918 27.1639 20.9822 27.3403 21.1076 27.4903C21.1569 27.5439 21.2167 27.5866 21.2832 27.6159C21.3497 27.6451 21.4215 27.6602 21.494 27.6602C21.5666 27.6602 21.6384 27.6451 21.7048 27.6159C21.7713 27.5866 21.8311 27.5439 21.8805 27.4903C22.043 27.3021 22.1415 27.0665 22.1615 26.8179C22.1444 26.5587 22.1444 26.2986 22.1615 26.0394C22.1615 25.6502 22.3723 25.2255 22.4777 24.8363C22.7543 24.0484 23.0829 23.2799 23.4613 22.5362C23.8523 21.8098 24.3111 21.1226 24.8314 20.4837C25.3587 19.8366 25.9601 19.2546 26.6231 18.7498C26.7239 18.6366 26.8426 18.5409 26.9744 18.4667C27.0451 18.6491 27.1843 18.796 27.3619 18.8755C27.5395 18.955 27.7411 18.9607 27.9229 18.8914H28.2391H28.5904C28.689 18.9583 28.8052 18.994 28.9241 18.994C29.043 18.994 29.1592 18.9583 29.2578 18.8914C29.2825 18.8483 29.2955 18.7995 29.2955 18.7498C29.2955 18.7001 29.2825 18.6513 29.2578 18.6083L29.4686 18.9621C29.4686 19.2452 29.7145 19.5637 29.8551 19.8468C30.1298 20.4883 30.353 21.151 30.5225 21.8284C30.8784 23.2748 31.0437 24.762 31.0144 26.2517C31.0319 26.4873 31.0319 26.7239 31.0144 26.9595C31.0144 26.9595 31.0144 26.9595 31.0144 27.2426C31.0144 27.5257 31.0144 27.561 31.2251 27.5964C31.2964 27.6309 31.3744 27.6489 31.4535 27.6489C31.5325 27.6489 31.6106 27.6309 31.6818 27.5964C31.8508 27.5701 32.009 27.4965 32.1385 27.3841C32.2731 27.2405 32.3484 27.0508 32.3493 26.8533C32.3839 26.6068 32.3839 26.3567 32.3493 26.1102C32.4173 25.6296 32.4525 25.1448 32.4547 24.6594Z" fill="#73786B"/>
<path d="M27.0452 18.219C26.7061 18.4354 26.3885 18.6843 26.0967 18.9621L25.2536 19.776C24.7165 20.3419 24.2342 20.958 23.8132 21.6161C22.9504 22.9875 22.3212 24.4945 21.9513 26.0748V26.8179C21.9618 26.9384 21.9486 27.0599 21.9124 27.1752C21.8762 27.2906 21.8178 27.3977 21.7405 27.4903C21.7405 27.4903 21.4244 27.4903 21.319 27.4903C21.2679 27.3291 21.2679 27.156 21.319 26.9948C21.3381 26.598 21.4089 26.2053 21.5298 25.8271C21.713 25.0256 21.9718 24.2435 22.3026 23.4916C22.5472 22.684 22.8405 21.8922 23.1809 21.1207C23.6113 20.4805 24.093 19.8769 24.6212 19.316C25.1381 18.7492 25.7432 18.2711 26.4129 17.9005L26.7993 17.582L27.1155 17.9005L27.0452 18.219Z" fill="#EFF4D6"/>
<path d="M28.1341 18.7499H27.8881C27.8109 18.785 27.727 18.8032 27.6422 18.8032C27.5574 18.8032 27.4736 18.785 27.3963 18.7499C27.3655 18.6897 27.3494 18.6229 27.3494 18.5552C27.3494 18.4875 27.3655 18.4208 27.3963 18.3606C27.3642 18.269 27.3642 18.1691 27.3963 18.0775L27.9935 18.4668L28.1341 18.6791V18.7499Z" fill="#EFF4D6"/>
<path d="M29.2226 18.6437C29.2226 18.6437 28.9767 18.6437 28.8713 18.6437C28.3996 18.4777 27.9685 18.2123 27.6066 17.8652C27.3607 17.8652 26.6581 17.3344 26.9743 16.9805H27.3959C27.6617 17.0505 27.9121 17.1706 28.1336 17.3344C28.4805 17.5424 28.7703 17.8343 28.9767 18.1837C29.0477 18.2385 29.1063 18.3078 29.1487 18.3871C29.1911 18.4664 29.2163 18.5539 29.2226 18.6437Z" fill="#EFF4D6"/>
<path d="M29.153 17.7944C28.9863 17.5609 28.7704 17.3676 28.5206 17.2282C28.3995 17.144 28.27 17.0729 28.1342 17.0159C28.2492 16.9843 28.3705 16.9843 28.4855 17.0159C28.6662 16.9448 28.8669 16.9448 29.0476 17.0159C29.1523 17.055 29.2407 17.1289 29.2981 17.2254C29.3556 17.3219 29.3787 17.4352 29.3638 17.5467V17.8298L29.153 17.7944Z" fill="#EFF4D6"/>
<path d="M32.3143 26.7827C32.3143 26.995 32.3143 27.2073 31.9981 27.2781C31.8386 27.332 31.6659 27.332 31.5063 27.2781C31.5063 27.2781 31.5063 27.2781 31.5063 26.995C31.5238 26.6767 31.5238 26.3578 31.5063 26.0395C31.5763 25.3217 31.5763 24.5988 31.5063 23.881C31.3022 22.4358 30.8879 21.0288 30.2767 19.7053L29.8552 18.8207C29.7449 18.5512 29.577 18.3096 29.3633 18.113V17.9006L29.5741 18.113L30.1011 18.6438C30.5043 19.1105 30.8145 19.6511 31.0145 20.2361C31.0145 20.6608 31.2604 21.05 31.3658 21.4747C31.5154 21.9016 31.6329 22.3393 31.7171 22.784C31.8444 23.2484 31.9384 23.7214 31.9981 24.1994V25.6149C32.1364 25.9943 32.2422 26.385 32.3143 26.7827Z" fill="#EFF4D6"/>
<g style="mix-blend-mode:multiply">
<path d="M32.4549 24.6594C32.4192 24.1245 32.3488 23.5926 32.2441 23.067C32.1644 22.5401 32.047 22.0198 31.8928 21.51C31.6469 21.1207 31.6469 20.4837 31.6469 20.0237C31.4353 19.3362 31.0889 18.6984 30.6281 18.1482C30.3764 17.9352 30.106 17.7457 29.8201 17.582H29.5742C29.6273 17.4973 29.6554 17.3992 29.6554 17.299C29.6554 17.1988 29.6273 17.1006 29.5742 17.0159C29.4388 16.8568 29.2536 16.7491 29.0492 16.7105C28.8448 16.6719 28.6334 16.7047 28.4501 16.8035L28.1339 16.8389H27.6069C27.3875 16.7863 27.1589 16.7863 26.9394 16.8389C26.8462 16.824 26.7507 16.844 26.6711 16.8951C26.5914 16.9462 26.5331 17.0249 26.5072 17.1164C26.4812 17.2079 26.4894 17.3058 26.5302 17.3915C26.5711 17.4773 26.6416 17.5451 26.7287 17.582C26.3832 17.7237 26.0535 17.9016 25.745 18.1128L25.3937 18.3252C25.3937 18.3252 25.7099 18.3252 25.7801 18.3252C25.8504 18.3252 25.7801 18.6083 25.7801 18.7144C25.6717 18.9165 25.5422 19.1063 25.3937 19.2806L24.4452 20.413C24.1361 20.8181 23.8544 21.2437 23.6021 21.6869C23.3449 22.1045 23.1217 22.5424 22.9346 22.9962C22.5323 23.8278 22.2372 24.7078 22.0563 25.6148C21.8882 26.2891 21.7708 26.9752 21.705 27.6672C21.8676 27.4791 21.9661 27.2435 21.9861 26.9949C21.969 26.7356 21.969 26.4756 21.9861 26.2164C21.9861 25.8271 22.1968 25.4025 22.3022 25.0132C22.5789 24.2253 22.9075 23.4569 23.2859 22.7131C23.6769 21.9867 24.1357 21.2995 24.656 20.6607C25.1832 20.0136 25.7846 19.4315 26.4476 18.9267C26.5484 18.8135 26.6671 18.7179 26.7989 18.6436C26.8696 18.826 27.0089 18.9729 27.1865 19.0524C27.3641 19.1319 27.5657 19.1376 27.7474 19.0683H28.0636H28.4149C28.5135 19.1352 28.6297 19.171 28.7487 19.171C28.8676 19.171 28.9838 19.1352 29.0824 19.0683C29.1071 19.0252 29.1201 18.9764 29.1201 18.9267C29.1201 18.877 29.1071 18.8282 29.0824 18.7852C29.0471 18.6942 29.0471 18.5931 29.0824 18.5021C29.121 18.4673 29.1711 18.448 29.2229 18.448C29.2748 18.448 29.3248 18.4673 29.3634 18.5021L29.6094 18.8206L29.8904 19.316C30.0907 19.701 30.2553 20.1037 30.3822 20.5191C30.8775 21.3416 31.3006 22.2059 31.6469 23.1023C31.6469 23.5624 31.6469 24.0224 31.6469 24.5178C31.6469 25.0132 31.6469 25.4732 31.6469 25.9687C31.6469 26.4641 31.6469 26.7825 31.6469 27.2072C31.6469 27.6318 31.6469 27.4195 31.6469 27.561C31.8159 27.5347 31.9741 27.4612 32.1036 27.3487C32.2382 27.2051 32.3135 27.0154 32.3144 26.8179C32.349 26.5715 32.349 26.3213 32.3144 26.0748C32.3926 25.6067 32.4395 25.1338 32.4549 24.6594ZM28.5906 18.2898C28.5906 18.2898 28.4149 18.2898 28.3447 18.2898L28.1339 18.1836L27.8177 17.9713C27.6195 17.8928 27.4485 17.7575 27.3259 17.582C27.3117 17.512 27.3117 17.4398 27.3259 17.3697C27.3259 17.3697 27.3259 17.0866 27.3259 17.0159C27.4403 16.9804 27.5627 16.9804 27.6772 17.0159C28.0739 17.1742 28.4074 17.4604 28.6257 17.8298C28.6257 17.8298 28.6608 18.1836 28.5906 18.2898Z" fill="#B0B3B3"/>
</g>
</svg>
